<?xml version="1.0" encoding="utf-8"?>
<!-- Generator: Adobe Illustrator 28.0.0, SVG Export Plug-In . SVG Version: 6.00 Build 0)  -->
<svg version="1.1"
	 id="Layer_1" xmlns:sodipodi="http://sodipodi.sourceforge.net/DTD/sodipodi-0.dtd" xmlns:svg="http://www.w3.org/2000/svg" xmlns:inkscape="http://www.inkscape.org/namespaces/inkscape"
	 xmlns="http://www.w3.org/2000/svg" xmlns:xlink="http://www.w3.org/1999/xlink" x="0px" y="0px" viewBox="0 0 1800 864"
	 style="enable-background:new 0 0 1800 864;" xml:space="preserve">
<style type="text/css">
	.st0{fill:#FFFFFF;}
	.st1{fill:none;}
	.st2{fill:none;stroke:#000000;stroke-width:0.75;}
	.st3{font-family:'Helvetica-Bold';}
	.st4{font-size:15px;}
	.st5{fill:none;stroke:#000000;stroke-width:0.75;stroke-miterlimit:10;}
	.st6{fill:none;stroke:#000000;stroke-width:0.5;}
</style>
<sodipodi:namedview  bordercolor="#000000" borderlayer="true" borderopacity="0" id="namedview116" inkscape:current-layer="Layer_1" inkscape:cx="330.08011" inkscape:cy="726.6751" inkscape:deskcolor="#d1d1d1" inkscape:export-bgcolor="#6e6e6e00" inkscape:pagecheckerboard="false" inkscape:pageopacity="0.0" inkscape:showpageshadow="true" inkscape:window-height="819" inkscape:window-maximized="0" inkscape:window-width="1512" inkscape:window-x="0" inkscape:window-y="38" inkscape:zoom="1.2027383" pagecolor="#ffffff" showborder="false">
	</sodipodi:namedview>
<g id="XMLID_00000029754026038443917110000008884526413368832916_">
	<g>
		<path class="st0" d="M457.2,769.3h-46V259.2h46V769.3z M444.2,261c-5.5,0-10,4.5-10,10c0-5.5-4.5-10-10-10h-0.9
			c-5.5,0-10,4.5-10,10v112.9c0,4.5,3.6,8,8,8c-4.4,0-8,3.6-8,8v357.8c0,5.5,4.5,10,10,10h0.9c5.5,0,10-4.5,10-10
			c0,5.5,4.5,10,10,10h0.9c5.5,0,10-4.5,10-10V399.9c0-4.4-3.6-8-8-8h-2c5.5,0,10-4.5,10-10V271c0-5.5-4.5-10-10-10H444.2z"/>
	</g>
	<g>
		<rect x="411.2" y="259.2" class="st1" width="46" height="510.1"/>
		<path class="st2" d="M455.1,381.9c0,5.5-4.5,10-10,10h2c4.4,0,8,3.6,8,8v357.8c0,5.5-4.5,10-10,10h-0.9c-5.5,0-10-4.5-10-10
			c0,5.5-4.5,10-10,10h-0.9c-5.5,0-10-4.5-10-10V399.9c0-4.4,3.6-8,8-8c-4.4,0-8-3.5-8-8V271c0-5.5,4.5-10,10-10h0.9
			c5.5,0,10,4.5,10,10c0-5.5,4.5-10,10-10h0.9c5.5,0,10,4.5,10,10V381.9z"/>
	</g>
</g>
<g id="XMLID_00000062870974970858276970000007537520932050476981_">
	<g>
		<path class="st0" d="M358.5,478.5c-4.4,0-8,3.6-8,8v271.2c0,5.5,4.5,10,10,10h0.9c5.5,0,10-4.5,10-10h0.1c0,5.5,4.5,10,10,10h0.9
			c5.5,0,10-4.5,10-10V486.5c0-4.4-3.6-8-8-8h-1.9c5.5,0,10-4.5,10-10V249.4c0-5.5-4.5-10-10-10h-0.9c-5.5,0-10,4.5-10,10h-0.1
			c0-5.5-4.5-10-10-10h-0.9c-5.5,0-10,4.5-10,10v219.1c0,5.5,4.5,10,10,10H358.5z M348.5,237.9h46.1v531.6h-46.1V237.9z"/>
	</g>
	<g>
		<rect x="348.5" y="237.9" class="st1" width="46.1" height="531.6"/>
		<path class="st2" d="M371.4,757.7c0,5.5-4.5,10-10,10h-0.9c-5.5,0-10-4.5-10-10V486.5c0-4.4,3.6-8,8-8h2c-5.5,0-10-4.5-10-10
			V249.4c0-5.5,4.5-10,10-10h0.9c5.5,0,10,4.5,10,10"/>
		<path class="st2" d="M371.5,249.4c0-5.5,4.5-10,10-10h0.9c5.5,0,10,4.5,10,10v219.1c0,5.5-4.5,10-10,10h1.9c4.4,0,8,3.6,8,8v271.2
			c0,5.5-4.5,10-10,10h-0.9c-5.5,0-10-4.5-10-10"/>
	</g>
</g>
<path id="path147" class="st0" d="M0,0"/>
<text id="text1" transform="matrix(1 0 0 1 224.2559 792.5876)" class="st3 st4">CHR1</text>
<text id="text2" transform="matrix(1 0 0 1 287.8 792.8873)" class="st3 st4">CHR2</text>
<text id="text3" transform="matrix(1 0 0 1 350.5001 792.5878)" class="st3 st4">CHR3</text>
<text id="text4" transform="matrix(1 0 0 1 412.8764 792.4379)" class="st3 st4">CHR4</text>
<text id="text5" transform="matrix(1 0 0 1 476.4206 792.7375)" class="st3 st4">CHR5</text>
<text id="text6" transform="matrix(1 0 0 1 539.1206 792.4379)" class="st3 st4">CHR6</text>
<text id="text7" transform="matrix(1 0 0 1 601.0088 791.9212)" class="st3 st4">CHR7</text>
<text id="text8" transform="matrix(1 0 0 1 664.553 792.2209)" class="st3 st4">CHR8</text>
<text id="text9" transform="matrix(1 0 0 1 727.253 791.9213)" class="st3 st4">CHR9</text>
<text id="text10" transform="matrix(1 0 0 1 785.8123 792.6965)" class="st3 st4">CHR10</text>
<text id="text11" transform="matrix(1 0 0 1 850.1735 793.071)" class="st3 st4">CHR11</text>
<text id="text12" transform="matrix(1 0 0 1 910.8735 792.7715)" class="st3 st4">CHR12</text>
<text id="text13" transform="matrix(1 0 0 1 974.7188 792.0302)" class="st3 st4">CHR13</text>
<text id="text14" transform="matrix(1 0 0 1 1039.0801 792.4048)" class="st3 st4">CHR14</text>
<text id="text15" transform="matrix(1 0 0 1 1099.78 792.1052)" class="st3 st4">CHR15</text>
<text id="text16" transform="matrix(1 0 0 1 1161.9855 791.7998)" class="st3 st4">CHR16</text>
<text id="text17" transform="matrix(1 0 0 1 1225.3467 792.1744)" class="st3 st4">CHR17</text>
<text id="text18" transform="matrix(1 0 0 1 1289.0468 791.8748)" class="st3 st4">CHR18</text>
<text id="text19" transform="matrix(1 0 0 1 1351.8921 791.1335)" class="st3 st4">CHR19</text>
<text id="text20" transform="matrix(1 0 0 1 1414.2533 791.5081)" class="st3 st4">CHR20</text>
<text id="text21" transform="matrix(1 0 0 1 1477.9534 791.2086)" class="st3 st4">CHR21</text>
<text id="text22" transform="matrix(1 0 0 1 1539.4006 791.1338)" class="st3 st4">CHR22</text>
<path id="path172" class="st0" d="M0,0"/>
<g id="XMLID_00000075160843551008836800000009446143390211596969_">
	<g>
		<path class="st0" d="M476,419.7v338c0,5.5,4.5,10,10,10h1c5.5,0,10-4.5,10-10c0,5.5,4.5,10,10,10h1c5.5,0,10-4.5,10-10v-338
			c0-5.5-4.5-10-10-10c5.5,0,10-4.5,10-10V293.2c0-5.5-4.5-10-10-10h-1c-5.5,0-10,4.5-10,10c0-5.5-4.5-10-10-10h-1
			c-5.5,0-10,4.5-10,10v106.5c0,5.5,4.5,10,10,10C480.5,409.7,476,414.2,476,419.7z M474.4,281.9h45.1v487.4h-45.1V281.9z"/>
	</g>
	<g>
		<rect x="474.4" y="281.9" class="st1" width="45.1" height="487.4"/>
		<path class="st2" d="M518,399.7c0,5.5-4.5,10-10,10c5.5,0,10,4.5,10,10v338c0,5.5-4.5,10-10,10h-1c-5.5,0-10-4.5-10-10
			c0,5.5-4.5,10-10,10h-1c-5.5,0-10-4.5-10-10v-338c0-5.5,4.5-10,10-10c-5.5,0-10-4.5-10-10V293.2c0-5.5,4.5-10,10-10h1
			c5.5,0,10,4.5,10,10c0-5.5,4.5-10,10-10h1c5.5,0,10,4.5,10,10V399.7z"/>
	</g>
</g>
<g id="XMLID_00000078019896994603487140000002456282925071745968_">
	<g>
		<path class="st0" d="M266.6,115.1c0-5.5-4.5-10-10-10h-1c-5.5,0-10,4.5-10,10c0-5.5-4.5-10-10-10h-1c-5.5,0-10,4.5-10,10v278.3
			c0,5.5,4.5,10,10,10c-5.5,0-10,4.5-10,10v344.3c0,5.5,4.5,10,10,10h1c5.5,0,10-4.5,10-10c0,5.5,4.5,10,10,10h1c5.5,0,10-4.5,10-10
			V413.4c0-5.5-4.5-10-10-10c5.5,0,10-4.5,10-10V115.1z M268,103.9v665.6h-44.7V103.9H268z"/>
	</g>
	<g>
		<rect x="223.3" y="103.9" class="st1" width="44.7" height="665.6"/>
		<path class="st5" d="M245.6,115.1L245.6,115.1c0-5.5,4.5-10,10-10h1c5.5,0,10,4.5,10,10v278.3c0,5.5-4.5,10-10,10
			c5.5,0,10,4.5,10,10v344.3c0,5.5-4.5,10-10,10h-1c-5.5,0-10-4.5-10-10"/>
		<path class="st5" d="M245.6,757.7L245.6,757.7c0,5.5-4.5,10-10,10h-1c-5.5,0-10-4.5-10-10V413.4c0-5.5,4.5-10,10-10
			c-5.5,0-10-4.5-10-10V115.1c0-5.5,4.5-10,10-10h1c5.5,0,10,4.5,10,10"/>
	</g>
</g>
<line class="st5" x1="245.6" y1="115.1" x2="245.6" y2="757.7"/>
<line class="st5" x1="234.6" y1="403.4" x2="256.6" y2="403.4"/>
<g id="XMLID_00000092428107373103023940000001363284151401929389_">
	<g>
		<path class="st0" d="M329.6,132.3c0-5.5-4.5-10-10-10h-0.9c-5.5,0-10,4.5-10,10c0-5.5-4.5-10-10-10h-0.9c-5.5,0-10,4.5-10,10
			v226.4c0,5.5,4.5,10,10,10c-5.5,0-10,4.5-10,10v379c0,5.6,4.5,10,10,10h0.9c5.5,0,10-4.5,10-10c0,5.6,4.5,10,10,10h0.9
			c5.5,0,10-4.5,10-10v-379c0-5.5-4.5-10-10-10c5.5,0,10-4.5,10-10V132.3z M331.3,120.9v648.4H286V120.9H331.3z"/>
	</g>
	<g>
		<rect x="286" y="120.9" class="st1" width="45.3" height="648.4"/>
		<path class="st2" d="M329.6,358.7c0,5.5-4.5,10-10,10c5.5,0,10,4.5,10,10v379c0,5.5-4.5,10-10,10h-0.9c-5.5,0-10-4.4-10-10
			c0,5.5-4.5,10-10,10h-0.9c-5.5,0-10-4.4-10-10v-379c0-5.5,4.5-10,10-10c-5.5,0-10-4.5-10-10V132.3c0-5.5,4.5-10,10-10h0.9
			c5.5,0,10,4.5,10,10c0-5.5,4.5-10,10-10h0.9c5.5,0,10,4.5,10,10V358.7z"/>
	</g>
</g>
<line class="st2" x1="308.7" y1="132.3" x2="308.7" y2="757.7"/>
<line class="st2" x1="297.8" y1="368.7" x2="319.6" y2="368.7"/>
<line class="st2" x1="371.5" y1="249.4" x2="371.4" y2="757.7"/>
<line class="st2" x1="358.5" y1="478.5" x2="382.5" y2="478.5"/>
<line class="st2" x1="421.3" y1="391.9" x2="445.1" y2="391.9"/>
<line class="st2" x1="434.2" y1="271" x2="434.2" y2="757.7"/>
<line class="st2" x1="486" y1="409.7" x2="508" y2="409.7"/>
<line class="st2" x1="497" y1="293.2" x2="497" y2="757.7"/>
<g id="XMLID_00000020373638836361003320000008118394638204483457_">
	<g>
		<path class="st0" d="M832.1,421.3c0-5.5-4.5-10-10-10h-1c-5.5,0-10,4.5-10,10c0-5.5-4.5-10-10-10h-1c-5.5,0-10,4.5-10,10v75.3
			c0,5.5,4.5,10,10,10c-5.5,0-10,4.5-10,10v242c0,5.5,4.5,10,10,10h1c2.8,0,5.3-1.1,7.1-2.9s2.9-4.3,2.9-7.1c0,5.5,4.5,10,10,10h1
			c5.5,0,10-4.5,10-10v-242c0-5.5-4.5-10-10-10c5.5,0,10-4.5,10-10V421.3z M788.7,769.5V410.2h44.7v359.3H788.7z"/>
	</g>
	<g>
		<rect x="788.7" y="410.2" class="st1" width="44.7" height="359.3"/>
		<line class="st5" x1="811.1" y1="506.6" x2="822.1" y2="506.6"/>
		<path class="st5" d="M822.1,506.6c5.5,0,10,4.5,10,10v242c0,5.5-4.5,10-10,10h-1c-5.5,0-10-4.5-10-10c0,2.8-1.1,5.3-2.9,7.1
			s-4.3,2.9-7.1,2.9h-1c-5.5,0-10-4.5-10-10v-242c0-5.5,4.5-10,10-10c-5.5,0-10-4.5-10-10v-75.3c0-5.5,4.5-10,10-10h1
			c5.5,0,10,4.5,10,10c0-5.5,4.5-10,10-10h1c5.5,0,10,4.5,10,10v75.3C832.1,502.1,827.6,506.6,822.1,506.6z"/>
	</g>
</g>
<line class="st5" x1="800.1" y1="506.6" x2="811.1" y2="506.6"/>
<line class="st5" x1="811.1" y1="421.3" x2="811.1" y2="758.6"/>
<g id="XMLID_00000093143928642835803130000015190507552339430534_">
	<g>
		<path class="st0" d="M883.7,408.3c-5.5,0-10,4.5-10,10c0-5.5-4.5-10-10-10v-0.9h20.9v0.9H883.7z"/>
		<path class="st0" d="M852.8,418.3v110.2c0,5.5,4.5,10,10,10v0.1c-5.5,0-10,4.5-10,10v210.1c0,5.5,4.5,10,10,10h0.9
			c5.5,0,10-4.5,10-10c0.1,5.5,4.5,9.9,10,9.9h0.9c5.5,0,10-4.5,10-10V548.4c0-5.5-4.5-10-10-10c5.5,0,10-4.5,10-10V418.3
			c0-5.5-4.5-10-10-10v-0.9h11.5v362.1h-44.7V407.4h12.4v0.9h-0.9C857.3,408.3,852.8,412.8,852.8,418.3z"/>
	</g>
	<g>
		<polygon class="st1" points="863.7,407.4 851.3,407.4 851.3,769.5 896.1,769.5 896.1,407.4 884.6,407.4 		"/>
		<path class="st2" d="M873.7,758.6c0,5.5-4.5,10-10,10h-0.9c-5.5,0-10-4.5-10-10V548.5c0-5.5,4.5-10,10-10v-0.1
			c-5.5,0-10-4.5-10-10V418.3c0-5.5,4.5-10,10-10h0.9c5.5,0,10,4.5,10,10c0-5.5,4.5-10,10-10h0.9c5.5,0,10,4.5,10,10v110.2
			c0,5.5-4.5,10-10,10c5.5,0,10,4.5,10,10v210.1c0,5.5-4.5,10-10,10h-0.9C878.2,768.5,873.8,764.1,873.7,758.6
			C873.7,758.6,873.7,758.5,873.7,758.6"/>
	</g>
</g>
<line class="st2" x1="862.8" y1="538.5" x2="884.6" y2="538.5"/>
<line class="st2" x1="873.7" y1="758.5" x2="873.7" y2="418.3"/>
<g id="XMLID_00000183940480740784570620000002027498968903208345_">
	<g>
		<path class="st0" d="M1019.9,473.3c0-5.5-4.5-10-10-10h-0.9c-5.5,0-10,4.5-10,10c0-5.5-4.5-10-10-10h-0.9c-5.5,0-10,4.5-10,10
			v29.6c0,5.5,4.5,10,10,10c-5.5,0-10,4.5-10,10v235.8c0,5.5,4.5,10,10,10h0.9c5.5,0,10-4.5,10-10c0,5.5,4.5,10,10,10h0.9
			c5.5,0,10-4.5,10-10V522.8c0-5.5-4.5-10-10-10c5.5,0,10-4.5,10-10V473.3z M1021.3,462.2v307.3h-44.4V462.2H1021.3z"/>
	</g>
	<g>
		<rect x="976.9" y="462.2" class="st1" width="44.4" height="307.3"/>
		<path class="st2" d="M1019.9,502.9c0,5.5-4.5,10-10,10c5.5,0,10,4.5,10,10v235.8c0,5.5-4.5,10-10,10h-0.9c-5.5,0-10-4.5-10-10
			c0,5.5-4.5,10-10,10h-0.9c-5.5,0-10-4.5-10-10V522.8c0-5.5,4.5-10,10-10c-5.5,0-10-4.5-10-10v-29.6c0-5.5,4.5-10,10-10h0.9
			c5.5,0,10,4.5,10,10c0-5.5,4.5-10,10-10h0.9c5.5,0,10,4.5,10,10V502.9z"/>
	</g>
</g>
<g id="XMLID_00000131369430084673648730000013660955773622933403_">
	<g>
		<path class="st0" d="M914.2,411.3h44.4v358.2h-44.4V411.3z M925.5,768.6h0.9c5.5,0,10-4.5,10-10c0,5.5,4.5,10,10,10h0.9
			c5.5,0,10-4.5,10-10v-254c0-5.5-4.4-10-9.9-10c5.5,0,10-4.5,10-10v-61.8c0-5.5-4.5-10-10-10h-0.9c-5.5,0-10,4.5-10,10h-0.1
			c0-5.5-4.5-10-10-10h-0.9c-5.5,0-10,4.5-10,10v61.8c0,5.5,4.5,10,10,10c-5.5,0-10,4.5-10,10v254
			C915.5,764.1,920,768.6,925.5,768.6z"/>
	</g>
	<g>
		<rect x="914.2" y="411.3" class="st1" width="44.4" height="358.2"/>
		<path class="st6" d="M947.3,494.6L947.3,494.6"/>
		<path class="st2" d="M947.4,494.6c5.5,0,9.9,4.5,9.9,10v254c0,5.5-4.5,10-10,10h-0.9c-5.5,0-10-4.5-10-10c0,5.5-4.5,10-10,10h-0.9
			c-5.5,0-10-4.5-10-10v-254c0-5.5,4.5-10,10-10c-5.5,0-10-4.5-10-10v-61.8c0-5.5,4.5-10,10-10h0.9c5.5,0,10,4.5,10,10h0.1
			c0-5.5,4.5-10,10-10h0.9c5.5,0,10,4.5,10,10v61.8C957.4,490.1,952.9,494.6,947.4,494.6z"/>
	</g>
</g>
<g id="XMLID_00000082354762055978214090000009171198042514244522_">
	<g>
		<path class="st0" d="M1082.9,492.9c0-5.5-4.5-10-10-10h-0.9c-5.5,0-10,4.5-10,10c0-5.5-4.5-10-10-10h-0.9c-5.5,0-10,4.5-10,10
			v28.6c0,5.5,4.5,10,10,10c-5.5,0-10,4.5-10,10v217.2c0,5.5,4.5,10,10,10h0.9c5.5,0,10-4.5,10-10c0,5.5,4.5,10,10,10h0.9
			c5.5,0,10-4.5,10-10V541.4c0-5.5-4.5-10-10-10c5.5,0,10-4.5,10-10V492.9z M1084.2,481.7v287.8h-44.4V481.7H1084.2z"/>
	</g>
	<g>
		<rect x="1039.8" y="481.7" class="st1" width="44.4" height="287.8"/>
		<path class="st2" d="M1082.9,521.5c0,5.5-4.5,10-10,10c5.5,0,10,4.5,10,10v217.2c0,5.5-4.5,10-10,10h-0.9c-5.5,0-10-4.5-10-10
			c0,5.5-4.5,10-10,10h-0.9c-5.5,0-10-4.5-10-10V541.4c0-5.5,4.5-10,10-10c-5.5,0-10-4.5-10-10v-28.6c0-5.5,4.5-10,10-10h0.9
			c5.5,0,10,4.5,10,10c0-5.5,4.5-10,10-10h0.9c5.5,0,10,4.5,10,10V521.5z"/>
	</g>
</g>
<g id="XMLID_00000072991641708915833530000001278316797153702333_">
	<g>
		<path class="st0" d="M1102.9,495.2h44.4v274.3h-44.4V495.2z M1146,758.6V555.8c0-5.5-4.5-10-10-10c5.5,0,10-4.5,10-10v-29.5
			c0-5.5-4.5-10-10-10h-0.9c-5.5,0-10,4.5-10,10c0-5.5-4.5-10-10-10h-0.9c-5.5,0-10,4.5-10,10v29.5c0,5.5,4.5,10,10,10
			c-5.5,0-10,4.5-10,10v202.8c0,5.5,4.5,10,10,10h0.9c5.5,0,10-4.5,10-10c0,5.5,4.5,10,10,10h0.9
			C1141.5,768.6,1146,764.1,1146,758.6z"/>
	</g>
	<g>
		<rect x="1102.9" y="495.2" class="st1" width="44.4" height="274.3"/>
		<path class="st2" d="M1146,535.8c0,5.5-4.5,10-10,10c5.5,0,10,4.5,10,10v202.8c0,5.5-4.5,10-10,10h-0.9c-5.5,0-10-4.5-10-10
			c0,5.5-4.5,10-10,10h-0.9c-5.5,0-10-4.5-10-10V555.8c0-5.5,4.5-10,10-10c-5.5,0-10-4.5-10-10v-29.5c0-5.5,4.5-10,10-10h0.9
			c5.5,0,10,4.5,10,10c0-5.5,4.5-10,10-10h0.9c5.5,0,10,4.5,10,10V535.8z"/>
	</g>
</g>
<g>
	<g id="XMLID_00000052092147403653596220000011983670355989832609_">
		<g>
			<path class="st0" d="M1208.1,758.6V608.8c0-5.5-4.5-10-10-10c5.5,0,10-4.5,10-10v-51.3c0-5.5-4.5-10-10-10h-1
				c-5.4,0-9.7,4.2-10,9.5c-0.2-5.3-4.6-9.5-10-9.5h-1c-5.5,0-10,4.5-10,10v51.3c0,5.5,4.5,10,10,10c-5.5,0-10,4.5-10,10v149.8
				c0,5.5,4.5,10,10,10h1c5.4,0,9.7-4.2,10-9.5c0.3,5.3,4.6,9.5,10,9.5h1C1203.6,768.6,1208.1,764.1,1208.1,758.6z M1209.3,525.9
				v243.6h-44.4V525.9H1209.3z"/>
		</g>
		<g>
			<rect x="1164.9" y="525.9" class="st1" width="44.4" height="243.6"/>
			<path class="st2" d="M1198.1,598.8L1198.1,598.8c5.5,0,10,4.5,10,10v149.8c0,5.5-4.5,10-10,10h-1c-5.3,0-9.7-4.2-10-9.5
				c-0.3,5.3-4.6,9.5-10,9.5h-1c-5.5,0-10-4.5-10-10V608.8c0-5.5,4.5-10,10-10"/>
			<path class="st2" d="M1176.1,598.8L1176.1,598.8c-5.5,0-10-4.5-10-10v-51.3c0-5.5,4.5-10,10-10h1c5.4,0,9.7,4.2,10,9.5
				c0.3-5.3,4.6-9.5,10-9.5h1c5.5,0,10,4.5,10,10v51.3c0,5.5-4.5,10-10,10"/>
			<path class="st2" d="M1187.1,759.1c0-0.2,0-0.3,0-0.5V598.8l0,0v-61.3c0-0.2,0-0.3,0-0.5c0,0.2,0,0.3,0,0.5v61.3l0,0v159.8
				C1187.1,758.8,1187.1,759,1187.1,759.1z"/>
		</g>
	</g>
</g>
<g id="XMLID_00000095331183035873671460000002068527308293001395_">
	<g>
		<path class="st0" d="M1228.1,545h44.4v224.5h-44.4V545z M1271.2,556.7c0-5.5-4.5-10-10-10h-0.9c-5.5,0-10,4.5-10,10
			c0-5.5-4.5-10-10-10h-0.9c-5.5,0-10,4.5-10,10v26.2c0,5.5,4.5,10,10,10c-5.5,0-10,4.5-10,10v155.7c0,5.5,4.5,10,10,10h0.9
			c5.5,0,10-4.5,10-10c0,5.5,4.5,10,10,10h0.9c5.5,0,10-4.5,10-10V602.9c0-5.5-4.5-10-10-10c5.5,0,10-4.5,10-10V556.7z"/>
	</g>
	<g>
		<rect x="1228.1" y="545" class="st1" width="44.4" height="224.5"/>
		<path class="st2" d="M1271.2,582.9c0,5.5-4.5,10-10,10c5.5,0,10,4.5,10,10v155.7c0,5.5-4.5,10-10,10h-0.9c-5.5,0-10-4.5-10-10
			c0,5.5-4.5,10-10,10h-0.9c-5.5,0-10-4.5-10-10V602.9c0-5.5,4.5-10,10-10c-5.5,0-10-4.5-10-10v-26.2c0-5.5,4.5-10,10-10h0.9
			c5.5,0,10,4.5,10,10c0-5.5,4.5-10,10-10h0.9c5.5,0,10,4.5,10,10V582.9z"/>
	</g>
</g>
<g id="XMLID_00000014607411531699164230000015346880685452194962_">
	<g>
		<path class="st0" d="M1375.7,676.1V622c0-5.5-4.5-10-10-10h-0.9c-5.5,0-10,4.5-10,10v44.2c0,5.5,4.5,10,10,10h10.9V676.1z
			 M1353.5,609.6h44.4v159.9h-44.4V609.6z M1386.7,676.1c5.5,0,10-4.5,10-10V622c0-5.5-4.5-10-10-10h-0.9c-5.5,0-10,4.5-10,10v54.2
			h10.9V676.1z M1396.6,686.2c0-5.5-4.5-10-10-10h-10.9l0,0h-10.9c-5.5,0-10,4.5-10,10v72.4c0,5.5,4.5,10,10,10h0.9
			c5.5,0,10-4.5,10-10c0,5.5,4.5,9.9,10,9.9h0.9c5.5,0,10-4.5,10-10V686.2z"/>
	</g>
	<g>
		<rect x="1353.5" y="609.6" class="st1" width="44.4" height="159.9"/>
		<path class="st2" d="M1354.8,622c0-5.5,4.5-10,10-10h0.9c5.5,0,10,4.5,10,10v54.2h-10.9c-5.5,0-10-4.5-10-10V622z"/>
		<path class="st6" d="M1375.7,758.6L1375.7,758.6"/>
		<path class="st2" d="M1375.7,758.6c0,5.5-4.5,10-10,10h-0.9c-5.5,0-10-4.5-10-10v-72.4c0-5.5,4.5-10,10-10h10.9l0,0h10.9
			c5.5,0,10,4.5,10,10v72.4c0,5.5-4.5,10-10,10h-0.9C1380.2,768.6,1375.7,764.1,1375.7,758.6z"/>
		<path class="st2" d="M1396.7,666.2c0,5.5-4.5,10-10,10h-10.9V622c0-5.5,4.5-10,10-10h0.9c5.5,0,10,4.5,10,10V666.2z"/>
	</g>
</g>
<line class="st2" x1="999" y1="473.3" x2="999" y2="758.6"/>
<line class="st2" x1="988.1" y1="512.8" x2="1009.9" y2="512.8"/>
<line class="st2" x1="1062" y1="492.9" x2="1062" y2="758.6"/>
<line class="st2" x1="1051.1" y1="531.4" x2="1072.9" y2="531.4"/>
<line class="st2" x1="1125.1" y1="506.4" x2="1125.1" y2="758.6"/>
<line class="st2" x1="1114.2" y1="545.8" x2="1136" y2="545.8"/>
<line class="st2" x1="1176.1" y1="598.8" x2="1198.1" y2="598.8"/>
<line class="st2" x1="1250.3" y1="556.7" x2="1250.3" y2="758.6"/>
<line class="st2" x1="1239.4" y1="592.9" x2="1261.2" y2="592.9"/>
<line class="st2" x1="1375.7" y1="676.1" x2="1375.7" y2="758.6"/>
<line class="st2" x1="1438.6" y1="606.7" x2="1438.7" y2="758.6"/>
<line class="st2" x1="1427.8" y1="673" x2="1449.6" y2="673"/>
<line class="st2" x1="1553.3" y1="666.6" x2="1575.1" y2="666.6"/>
<line class="st2" x1="936.4" y1="422.8" x2="936.4" y2="758.6"/>
<line class="st2" x1="925.5" y1="494.6" x2="947.3" y2="494.6"/>
<g id="XMLID_00000070815868128530763670000005871448889507517321_">
	<g>
		<path class="st0" d="M580.7,322.5c0-5.5-4.5-10-10-10h-0.9c-5.5,0-10,4.5-10,10c0-5.5-4.5-10-10-10h-0.9c-5.5,0-10,4.5-10,10V464
			c0,5.5,4.5,10,10,10c-5.5,0-10,4.5-10,10v273.7c0,5.5,4.5,10,10,10h0.9c5.5,0,10-4.5,10-10c0,5.5,4.5,10,10,10h0.9
			c5.5,0,10-4.5,10-10V484c0-5.5-4.5-10-10-10c5.5,0,10-4.5,10-10V322.5z M583.2,310.2v459.1h-47V310.2H583.2z"/>
	</g>
	<g>
		<rect x="536.2" y="310.2" class="st1" width="47" height="459.1"/>
		<path class="st5" d="M580.7,464c0,5.5-4.5,10-10,10c5.5,0,10,4.5,10,10v273.7c0,5.5-4.5,10-10,10h-0.9c-5.5,0-10-4.5-10-10
			c0,5.5-4.5,10-10,10h-0.9c-5.5,0-10-4.5-10-10V484c0-5.5,4.5-10,10-10c-5.5,0-10-4.5-10-10V322.5c0-5.5,4.5-10,10-10h0.9
			c5.5,0,10,4.5,10,10c0-5.5,4.5-10,10-10h0.9c5.5,0,10,4.5,10,10V464z"/>
	</g>
</g>
<line class="st5" x1="559.8" y1="322.5" x2="559.8" y2="757.7"/>
<line class="st5" x1="548.9" y1="474" x2="570.7" y2="474"/>
<g>
	<rect x="599.1" y="767.7" class="st0" width="47" height="5.6"/>
	<g id="XMLID_00000134939664419518913860000006127782459096221319_">
		<g>
			<path class="st0" d="M643.5,353.1c0-5.5-4.5-10-10-10h-0.9c-2.8,0-5.3,1.1-7.1,2.9s-2.9,4.3-2.9,7.1c0-5.5-4.5-10-10-10h-0.9
				c-5.5,0-10,4.5-10,10v133.7c0,5.5,4.5,10,10,10c-5.5,0-10,4.5-10,10V757c0,5.5,4.5,10,10,10h0.9c5.5,0,10-4.5,10-10
				c0,5.5,4.5,10,10,10h0.9c5.5,0,10-4.5,10-10V506.8c0-5.5-4.5-10-10-10c5.5,0,10-4.5,10-10V353.1z M646.1,340.5v428.2h-47V340.5
				H646.1z"/>
		</g>
		<g>
			<rect x="599.1" y="340.5" class="st1" width="47" height="428.2"/>
			<path class="st5" d="M643.5,486.8c0,5.5-4.5,10-10,10c5.5,0,10,4.5,10,10V757c0,5.5-4.5,10-10,10h-0.9c-5.5,0-10-4.5-10-10
				c0,5.5-4.5,10-10,10h-0.9c-5.5,0-10-4.5-10-10V506.8c0-5.5,4.5-10,10-10c-5.5,0-10-4.5-10-10V353.1c0-5.5,4.5-10,10-10h0.9
				c5.5,0,10,4.5,10,10c0-2.8,1.1-5.3,2.9-7.1c1.8-1.8,4.3-2.9,7.1-2.9h0.9c5.5,0,10,4.5,10,10V486.8z"/>
		</g>
	</g>
</g>
<line class="st5" x1="622.6" y1="353.1" x2="622.6" y2="757"/>
<line class="st5" x1="611.7" y1="496.8" x2="633.5" y2="496.8"/>
<g id="XMLID_00000145017014457216312350000016263640922729718690_">
	<g>
		<path class="st0" d="M709.2,769.3h-47.4V377.7h47.4V769.3z M696.2,767.7c5.5,0,10-4.5,10-10V502c0-5.5-4.5-10-10-10
			c5.5,0,10-4.5,10-10v-90.9c0-5.5-4.5-10-10-10h-0.9c-2.8,0-5.3,1.1-7.1,2.9s-2.9,4.3-2.9,7.1c0-5.5-4.5-10-10-10h-0.9
			c-5.5,0-10,4.5-10,10V482c0,5.5,4.5,10,10,10c-5.5,0-10,4.5-10,10v255.7c0,5.5,4.5,10,10,10h0.9c5.5,0,10-4.5,10-10
			c0,5.5,4.5,10,10,10H696.2z"/>
	</g>
	<g>
		<rect x="661.8" y="377.7" class="st1" width="47.4" height="391.6"/>
		<path class="st5" d="M706.2,482c0,5.5-4.5,10-10,10c5.5,0,10,4.5,10,10v255.7c0,5.5-4.5,10-10,10h-0.9c-5.5,0-10-4.5-10-10
			c0,5.5-4.5,10-10,10h-0.9c-5.5,0-10-4.5-10-10V502c0-5.5,4.5-10,10-10c-5.5,0-10-4.5-10-10v-90.9c0-5.5,4.5-10,10-10h0.9
			c5.5,0,10,4.5,10,10c0-2.8,1.1-5.3,2.9-7.1s4.3-2.9,7.1-2.9h0.9c5.5,0,10,4.5,10,10V482z"/>
	</g>
</g>
<line class="st5" x1="685.3" y1="391.1" x2="685.3" y2="757.7"/>
<line class="st5" x1="674.4" y1="492" x2="696.2" y2="492"/>
<g id="XMLID_00000052071359811597306520000013866017946448179639_">
	<g>
		<path class="st0" d="M758,767.7h0.9v1.8h-34.2V397.7h34.2v1.9H758c-5.5,0-10,4.5-10,10c0-5.5-4.5-10-10-10h-0.9
			c-5.5,0-10,4.5-10,10v100.7c0,5.5,4.5,10,10,10c-5.5,0-10,4.5-10,10v227.4c0,5.5,4.5,10,10,10h0.9c5.5,0,10-4.5,10-10
			C748,763.2,752.5,767.7,758,767.7z"/>
		<path class="st0" d="M771.5,397.7v371.8h-12.6v-1.8c5.5,0,10-4.5,10-10V530.3c0-5.5-4.5-10-10-10c5.5,0,10-4.5,10-10V409.6
			c0-5.5-4.5-10-10-10v-1.9H771.5z"/>
	</g>
	<g>
		<polygon class="st1" points="758.9,397.7 724.7,397.7 724.7,769.5 758.9,769.5 771.5,769.5 771.5,397.7 		"/>
		<path class="st5" d="M758.9,399.6c5.5,0,10,4.5,10,10v100.7c0,5.5-4.5,10-10,10c5.5,0,10,4.5,10,10v227.4c0,5.5-4.5,10-10,10H758
			c-5.5,0-10-4.5-10-10c0,5.5-4.5,10-10,10h-0.9c-5.5,0-10-4.5-10-10V530.3c0-5.5,4.5-10,10-10c-5.5,0-10-4.5-10-10V409.6
			c0-5.5,4.5-10,10-10h0.9c5.5,0,10,4.5,10,10c0-5.5,4.5-10,10-10H758.9z"/>
	</g>
</g>
<line class="st5" x1="737.1" y1="520.3" x2="758.9" y2="520.3"/>
<line class="st5" x1="748" y1="409.6" x2="748" y2="757.7"/>
<g id="XMLID_00000111874616584424595110000010320468406469874330_">
	<g>
		<path class="st0" d="M1322.9,554.3c-5.5,0-10,4.5-10,10c0-5.5-4.5-10-10-10h-0.9c-5.5,0-10,4.5-10,10v11.5c0,5.5,4.5,10,10,10
			c-5.5,0-10,4.5-10,10v162.8c0,5.5,4.5,10,10,10h0.9v0.9h-13.2V552.3h34.1v2H1322.9z"/>
		<path class="st0" d="M1336,552.3v217.2h-12.2v-0.9c5.5,0,10-4.5,10-10V595.8c0-5.5-4.5-10-10-10c5.5,0,10-4.5,10-10v-11.5
			c0-5.5-4.5-10-10-10v-2H1336z"/>
		<path class="st0" d="M1322.9,768.6h0.9v0.9h-20.9v-0.9c5.5,0,10-4.5,10-10C1312.9,764.1,1317.4,768.6,1322.9,768.6z"/>
	</g>
	<g>
		<polygon class="st1" points="1323.8,552.3 1289.7,552.3 1289.7,769.5 1302.9,769.5 1323.8,769.5 1336,769.5 1336,552.3 		"/>
		<path class="st2" d="M1323.8,554.3c5.5,0,10,4.5,10,10v11.5c0,5.5-4.5,10-10,10c5.5,0,10,4.5,10,10v162.8c0,5.5-4.5,10-10,10h-0.9
			c-5.5,0-10-4.5-10-10c0,5.5-4.5,10-10,10h-0.9c-5.5,0-10-4.5-10-10V595.8c0-5.5,4.5-10,10-10c-5.5,0-10-4.5-10-10v-11.5
			c0-5.5,4.5-10,10-10h0.9c5.5,0,10,4.5,10,10c0-5.5,4.5-10,10-10H1323.8z"/>
	</g>
</g>
<g id="XMLID_00000145035152620124570610000003230790033470133175_">
	<g>
		<path class="st0" d="M1449.5,769.5h-20.9v-0.9c5.5,0,10-4.5,10-10c0,5.5,4.5,10,10,10h0.9V769.5z"/>
		<path class="st0" d="M1448.7,596.6c-5.5,0-10,4.5-10,10c0-5.5-4.5-10-10-10h-0.9c-5.5,0-10,4.5-10,10V663c0,5.5,4.4,10,9.9,10
			c-5.5,0-10,4.5-10,10v75.6c0,5.5,4.5,10,10,10h0.9v0.9h-12.3v-175h44.8v175h-11.6v-0.9c5.5,0,10-4.5,10-10V683
			c0-5.5-4.4-10-9.9-10c5.5,0,10-4.5,10-10v-56.4c0-5.5-4.5-10-10-10H1448.7z"/>
	</g>
	<g>
		<polygon class="st1" points="1449.5,769.5 1461.1,769.5 1461.1,594.5 1416.3,594.5 1416.3,769.5 1428.6,769.5 		"/>
		<path class="st2" d="M1427.8,673L1427.8,673c-5.6,0-10-4.5-10-10v-56.4c0-5.5,4.5-10,10-10h0.9c5.5,0,10,4.5,10,10
			c0-5.5,4.5-10,10-10h0.9c5.5,0,10,4.5,10,10V663c0,5.5-4.5,10-10,10"/>
		<path class="st2" d="M1449.5,673C1449.5,673,1449.6,673,1449.5,673c5.6,0,10,4.5,10,10v75.6c0,5.5-4.5,10-10,10h-0.9
			c-5.5,0-10-4.5-10-10c0,5.5-4.5,10-10,10h-0.9c-5.5,0-10-4.5-10-10V683c0-5.5,4.5-10,10-10"/>
	</g>
</g>
<g id="XMLID_00000168087757873804564020000011009219815018406017_">
	<g>
		<path class="st0" d="M1512.3,769.5h-20.9v-0.9c5.5,0,10-4.5,10-10c0,5.5,4.5,10,10,10h0.9V769.5z"/>
		<path class="st0" d="M1512.3,644h-0.9c-5.5,0-10,4.5-10,10c0-5.5-4.5-10-10-10h-0.9c-5.5,0-10,4.5-10,10v5c0,5.5,4.5,10,10,10
			c-5.5,0-10,4.5-10,10v79.6c0,5.5,4.5,10,10,10h0.9v0.9H1479V642.3h44.8v127.2h-11.5v-0.9c5.5,0,10-4.5,10-10V679
			c0-5.5-4.5-10-10-10c5.5,0,10-4.5,10-10v-5C1522.3,648.5,1517.9,644,1512.3,644z"/>
	</g>
	<g>
		<polygon class="st1" points="1512.3,769.5 1523.8,769.5 1523.8,642.3 1479.1,642.3 1479.1,769.5 1491.4,769.5 		"/>
		<path class="st2" d="M1491.4,768.6h-0.9c-5.5,0-10-4.5-10-10V679c0-5.5,4.5-10,10-10c-5.5,0-10-4.5-10-10v-5c0-5.5,4.5-10,10-10
			h0.9c5.5,0,10,4.5,10,10c0-5.5,4.5-10,10-10h0.9c5.5,0,10,4.5,10,10v5c0,5.5-4.5,10-10,10c5.5,0,10,4.5,10,10v79.6
			c0,5.5-4.5,10-10,10h-0.9c-5.5,0-10-4.5-10-10C1501.4,764.1,1497,768.6,1491.4,768.6z"/>
	</g>
</g>
<g id="XMLID_00000115494583126256076390000014331390142372767628_">
	<g>
		<path class="st0" d="M1574.3,768.6h0.9v0.9h-20.9v-0.9c5.5,0,10-4.5,10-10C1564.3,764.1,1568.8,768.6,1574.3,768.6z"/>
		<path class="st0" d="M1585.2,758.6v-82c0-5.5-4.5-10-10-10c5.5,0,10-4.5,10-10v-13.4c0-5.5-4.5-10-10-10h-0.9c-5.5,0-10,4.5-10,10
			c0-5.5-4.5-10-10-10h-0.9c-5.5,0-10,4.5-10,10v13.4c0,5.5,4.5,10,10,10c-5.5,0-10,4.5-10,10v82c0,5.5,4.5,10,10,10h0.9v0.9h-12.5
			V631.6h44.8v137.9h-11.4v-0.9C1580.7,768.6,1585.2,764.1,1585.2,758.6z"/>
	</g>
	<g>
		<polygon class="st1" points="1575.2,769.5 1586.6,769.5 1586.6,631.6 1541.8,631.6 1541.8,769.5 1554.3,769.5 		"/>
		<path class="st2" d="M1554.3,768.6h-0.9c-5.5,0-10-4.5-10-10v-82c0-5.5,4.5-10,10-10c-5.5,0-10-4.5-10-10v-13.4
			c0-5.5,4.5-10,10-10h0.9c5.5,0,10,4.5,10,10c0-5.5,4.5-10,10-10h0.9c5.5,0,10,4.5,10,10v13.4c0,5.5-4.5,10-10,10
			c5.5,0,10,4.5,10,10v82c0,5.5-4.5,10-10,10h-0.9c-5.5,0-10-4.5-10-10C1564.3,764.1,1559.8,768.6,1554.3,768.6z"/>
	</g>
</g>
<line class="st2" x1="1302" y1="585.8" x2="1323.8" y2="585.8"/>
<line class="st2" x1="1312.9" y1="564.3" x2="1312.9" y2="758.6"/>
<line class="st2" x1="1490.6" y1="669" x2="1512.4" y2="669"/>
<line class="st2" x1="1501.4" y1="654" x2="1501.4" y2="758.6"/>
<line class="st2" x1="1564.3" y1="643.2" x2="1564.3" y2="758.6"/>
</svg>
