<?xml version="1.0" encoding="utf-8"?>
<!-- Generator: Adobe Illustrator 28.0.0, SVG Export Plug-In . SVG Version: 6.00 Build 0)  -->
<svg version="1.1"
	 id="Layer_1" xmlns:sodipodi="http://sodipodi.sourceforge.net/DTD/sodipodi-0.dtd" xmlns:svg="http://www.w3.org/2000/svg" xmlns:inkscape="http://www.inkscape.org/namespaces/inkscape" inkscape:version="1.3.2 (091e20e, 2023-11-25)" sodipodi:docname="hg38.svg"
	 xmlns="http://www.w3.org/2000/svg" xmlns:xlink="http://www.w3.org/1999/xlink" x="0px" y="0px" viewBox="0 0 1800 864"
	 style="enable-background:new 0 0 1800 864;" xml:space="preserve">
<style type="text/css">
	.st0{fill:#FFFFFF;}
	.st1{fill:none;stroke:#000000;}
	.st2{fill:none;stroke:#000000;stroke-miterlimit:10;}
	.st3{font-family:'Helvetica-Bold';}
	.st4{font-size:15px;}
	.st5{fill:#FFFFFF;fill-opacity:0;}
</style>
<path class="st0" d="M1578.3,666.4c0.7-0.1,1.3-0.3,1.9-0.6c0-0.1,0-0.3,0.1-0.4c0.6-0.5,1.1-1,1.6-1.6v-0.1
	c0.2-0.7,0.7-1.2,1.2-1.5c0.8-1.2,1.5-2.6,1.9-4c-0.1-0.3,0-0.7,0.2-0.9c0.3-0.3,0.7-0.1,0.8,0.2c0.3,1.2,0.3,2.4,0.3,3.7
	c0,1.4-0.1,2.8-0.1,4.2c-0.1,2.8-0.1,5.5-0.2,8.3c0,0.5-0.7,0.7-0.9,0.3c-0.1-0.2-0.3-0.4-0.4-0.7c-0.2,0-0.3-0.1-0.3-0.3
	c0-0.1-0.1-0.3-0.1-0.4c-0.5-0.8-1-1.6-1.5-2.5c-0.9-1.1-2.1-2-3.5-2.6c-0.1-0.1-0.2-0.1-0.2-0.2c-0.2,0.1-0.4,0.1-0.7,0.2
	C1577.9,667.5,1577.7,666.5,1578.3,666.4z"/>
<path class="st0" d="M1550.1,666.4c-0.7-0.1-1.3-0.3-1.9-0.6c0-0.1,0-0.3-0.1-0.4c-0.6-0.5-1.1-1-1.6-1.6v-0.1
	c-0.2-0.7-0.7-1.2-1.2-1.5c-0.8-1.2-1.5-2.6-1.9-4c0.1-0.3,0-0.7-0.2-0.9c-0.3-0.3-0.7-0.1-0.8,0.2c-0.3,1.2-0.3,2.4-0.3,3.7
	c0,1.4,0.1,2.8,0.1,4.2c0.1,2.8,0.1,5.5,0.2,8.3c0,0.5,0.7,0.7,0.9,0.3c0.1-0.2,0.3-0.4,0.4-0.7c0.2,0,0.3-0.1,0.3-0.3
	c0-0.1,0.1-0.3,0.1-0.4c0.5-0.8,1-1.6,1.5-2.5c0.9-1.1,2.1-2,3.5-2.6c0.1-0.1,0.2-0.1,0.2-0.2c0.2,0.1,0.4,0.1,0.7,0.2
	C1550.5,667.5,1550.7,666.5,1550.1,666.4z"/>
<path class="st0" d="M1487.2,668.8c-0.7-0.1-1.3-0.3-1.9-0.6c0-0.1,0-0.3-0.1-0.4c-0.6-0.5-1.1-1-1.6-1.6v-0.1
	c-0.2-0.7-0.7-1.2-1.2-1.5c-0.8-1.2-1.5-2.6-1.9-4c0.1-0.3,0-0.7-0.2-0.9c-0.3-0.3-0.7-0.1-0.8,0.2c-0.3,1.2-0.3,2.4-0.3,3.7
	c0,1.4,0.1,2.8,0.1,4.2c0.1,2.8,0.1,5.5,0.2,8.3c0,0.5,0.7,0.7,0.9,0.3c0.1-0.2,0.3-0.4,0.4-0.7c0.2,0,0.3-0.1,0.3-0.3
	c0-0.1,0.1-0.3,0.1-0.4c0.5-0.8,1-1.6,1.5-2.5c0.9-1.1,2.1-2,3.5-2.6c0.1-0.1,0.2-0.1,0.2-0.2c0.2,0.1,0.4,0.1,0.7,0.2
	C1487.6,669.9,1487.8,668.9,1487.2,668.8z"/>
<path class="st0" d="M1515.5,668.8c0.7-0.1,1.3-0.3,1.9-0.6c0-0.1,0-0.3,0.1-0.4c0.6-0.5,1.1-1,1.6-1.6v-0.1
	c0.2-0.7,0.7-1.2,1.2-1.5c0.8-1.2,1.5-2.6,1.9-4c-0.1-0.3,0-0.7,0.2-0.9c0.3-0.3,0.7-0.1,0.8,0.2c0.3,1.2,0.3,2.4,0.3,3.7
	c0,1.4-0.1,2.8-0.1,4.2c-0.1,2.8-0.1,5.5-0.2,8.3c0,0.5-0.7,0.7-0.9,0.3c-0.1-0.2-0.3-0.4-0.4-0.7c-0.2,0-0.3-0.1-0.3-0.3
	c0-0.1-0.1-0.3-0.1-0.4c-0.5-0.8-1-1.6-1.5-2.5c-0.9-1.1-2.1-2-3.5-2.6c-0.1-0.1-0.2-0.1-0.2-0.2c-0.2,0.1-0.4,0.1-0.7,0.2
	C1515.1,669.9,1514.8,668.9,1515.5,668.8z"/>
<path class="st0" d="M1424.4,672.9c-0.7-0.1-1.3-0.3-1.9-0.6c0-0.1,0-0.3-0.1-0.4c-0.6-0.5-1.1-1-1.6-1.6v-0.1
	c-0.2-0.7-0.7-1.2-1.2-1.5c-0.8-1.2-1.5-2.6-1.9-4c0.1-0.3,0-0.7-0.2-0.9c-0.3-0.3-0.7-0.1-0.8,0.2c-0.3,1.2-0.3,2.4-0.3,3.7
	c0,1.4,0.1,2.8,0.1,4.2c0.1,2.8,0.1,5.5,0.2,8.3c0,0.5,0.7,0.7,0.9,0.3c0.1-0.2,0.3-0.4,0.4-0.7c0.2,0,0.3-0.1,0.3-0.3
	c0-0.1,0.1-0.3,0.1-0.4c0.5-0.8,1-1.6,1.5-2.5c0.9-1.1,2.1-2,3.5-2.6c0.1-0.1,0.2-0.1,0.2-0.2c0.2,0.1,0.4,0.1,0.7,0.2
	C1424.8,674,1425,673,1424.4,672.9z"/>
<path class="st0" d="M1453.1,672.9c0.7-0.1,1.3-0.3,1.9-0.6c0-0.1,0-0.3,0.1-0.4c0.6-0.5,1.1-1,1.6-1.6v-0.1
	c0.2-0.7,0.7-1.2,1.2-1.5c0.8-1.2,1.5-2.6,1.9-4c-0.1-0.3,0-0.7,0.2-0.9c0.3-0.3,0.7-0.1,0.8,0.2c0.3,1.2,0.3,2.4,0.3,3.7
	c0,1.4-0.1,2.8-0.1,4.2c-0.1,2.8-0.1,5.5-0.2,8.3c0,0.5-0.7,0.7-0.9,0.3c-0.1-0.2-0.3-0.4-0.4-0.7c-0.2,0-0.3-0.1-0.3-0.3
	c0-0.1-0.1-0.3-0.1-0.4c-0.5-0.8-1-1.6-1.5-2.5c-0.9-1.1-2.1-2-3.5-2.6c-0.1-0.1-0.2-0.1-0.2-0.2c-0.2,0.1-0.4,0.1-0.7,0.2
	C1452.7,674,1452.4,673,1453.1,672.9z"/>
<path class="st0" d="M1361.5,676.2c-0.7-0.1-1.3-0.3-1.9-0.6c0-0.1,0-0.3-0.1-0.4c-0.6-0.5-1.1-1-1.6-1.6v-0.1
	c-0.2-0.7-0.7-1.2-1.2-1.5c-0.8-1.2-1.5-2.6-1.9-4c0.1-0.3,0-0.7-0.2-0.9c-0.3-0.3-0.7-0.1-0.8,0.2c-0.3,1.2-0.3,2.4-0.3,3.7
	c0,1.4,0.1,2.8,0.1,4.2c0.1,2.8,0.1,5.5,0.2,8.3c0,0.5,0.7,0.7,0.9,0.3c0.1-0.2,0.3-0.4,0.4-0.7c0.2,0,0.3-0.1,0.3-0.3
	c0-0.1,0.1-0.3,0.1-0.4c0.5-0.8,1-1.6,1.5-2.5c0.9-1.1,2.1-2,3.5-2.6c0.1-0.1,0.2-0.1,0.2-0.2c0.2,0.1,0.4,0.1,0.7,0.2
	C1361.9,677.3,1362.2,676.3,1361.5,676.2z"/>
<path class="st0" d="M1390.5,676.2c0.7-0.1,1.3-0.3,1.9-0.6c0-0.1,0-0.3,0.1-0.4c0.6-0.5,1.1-1,1.6-1.6v-0.1
	c0.2-0.7,0.7-1.2,1.2-1.5c0.8-1.2,1.5-2.6,1.9-4c-0.1-0.3,0-0.7,0.2-0.9c0.3-0.3,0.7-0.1,0.8,0.2c0.3,1.2,0.3,2.4,0.3,3.7
	c0,1.4-0.1,2.8-0.1,4.2c-0.1,2.8-0.1,5.5-0.2,8.3c0,0.5-0.7,0.7-0.9,0.3c-0.1-0.2-0.3-0.4-0.4-0.7c-0.2,0-0.3-0.1-0.3-0.3
	c0-0.1-0.1-0.3-0.1-0.4c-0.5-0.8-1-1.6-1.5-2.5c-0.9-1.1-2.1-2-3.5-2.6c-0.1-0.1-0.2-0.1-0.2-0.2c-0.2,0.1-0.4,0.1-0.7,0.2
	C1390.1,677.3,1389.8,676.3,1390.5,676.2z"/>
<path class="st0" d="M1327.2,585.5c0.7-0.1,1.3-0.3,1.9-0.6c0-0.1,0-0.3,0.1-0.4c0.6-0.5,1.1-1,1.6-1.6v-0.1
	c0.2-0.7,0.7-1.2,1.2-1.5c0.8-1.2,1.5-2.6,1.9-4c-0.1-0.3,0-0.7,0.2-0.9c0.3-0.3,0.7-0.1,0.8,0.2c0.3,1.2,0.3,2.4,0.3,3.7
	c0,1.4-0.1,2.8-0.1,4.2c-0.1,2.8-0.1,5.5-0.2,8.3c0,0.5-0.7,0.7-0.9,0.3c-0.1-0.2-0.3-0.4-0.4-0.7c-0.2,0-0.3-0.1-0.3-0.3
	c0-0.1-0.1-0.3-0.1-0.4c-0.5-0.8-1-1.6-1.5-2.5c-0.9-1.1-2.1-2-3.5-2.6c-0.1-0.1-0.2-0.1-0.2-0.2c-0.2,0.1-0.4,0.1-0.7,0.2
	C1326.8,586.5,1326.6,585.6,1327.2,585.5z"/>
<path class="st0" d="M1299,585.3c-0.7-0.1-1.3-0.3-1.9-0.6c0-0.1,0-0.3-0.1-0.4c-0.6-0.5-1.1-1-1.6-1.6v-0.1
	c-0.2-0.7-0.7-1.2-1.2-1.5c-0.8-1.2-1.5-2.6-1.9-4c0.1-0.3,0-0.7-0.2-0.9c-0.3-0.3-0.7-0.1-0.8,0.2c-0.3,1.2-0.3,2.4-0.3,3.7
	c0,1.4,0.1,2.8,0.1,4.2c0.1,2.8,0.1,5.5,0.2,8.3c0,0.5,0.7,0.7,0.9,0.3c0.1-0.2,0.3-0.4,0.4-0.7c0.2,0,0.3-0.1,0.3-0.3
	c0-0.1,0.1-0.3,0.1-0.4c0.5-0.8,1-1.6,1.5-2.5c0.9-1.1,2.1-2,3.5-2.6c0.1-0.1,0.2-0.1,0.2-0.2c0.2,0.1,0.4,0.1,0.7,0.2
	C1299.4,586.3,1299.6,585.4,1299,585.3z"/>
<path class="st0" d="M1236.2,592.5c-0.7-0.1-1.3-0.3-1.9-0.6c0-0.1,0-0.3-0.1-0.4c-0.6-0.5-1.1-1-1.6-1.6v-0.1
	c-0.2-0.7-0.7-1.2-1.2-1.5c-0.8-1.2-1.5-2.6-1.9-4c0.1-0.3,0-0.7-0.2-0.9c-0.3-0.3-0.7-0.1-0.8,0.2c-0.3,1.2-0.3,2.4-0.3,3.7
	c0,1.4,0.1,2.8,0.1,4.2c0.1,2.8,0.1,5.5,0.2,8.3c0,0.5,0.7,0.7,0.9,0.3c0.1-0.2,0.3-0.4,0.4-0.7c0.2,0,0.3-0.1,0.3-0.3
	c0-0.1,0.1-0.3,0.1-0.4c0.5-0.8,1-1.6,1.5-2.5c0.9-1.1,2.1-2,3.5-2.6c0.1-0.1,0.2-0.1,0.2-0.2c0.2,0.1,0.4,0.1,0.7,0.2
	C1236.6,593.6,1236.8,592.6,1236.2,592.5z"/>
<path class="st0" d="M1264.4,592.5c0.7-0.1,1.3-0.3,1.9-0.6c0-0.1,0-0.3,0.1-0.4c0.6-0.5,1.1-1,1.6-1.6v-0.1
	c0.2-0.7,0.7-1.2,1.2-1.5c0.8-1.2,1.5-2.6,1.9-4c-0.1-0.3,0-0.7,0.2-0.9c0.3-0.3,0.7-0.1,0.8,0.2c0.3,1.2,0.3,2.4,0.3,3.7
	c0,1.4-0.1,2.8-0.1,4.2c-0.1,2.8-0.1,5.5-0.2,8.3c0,0.5-0.7,0.7-0.9,0.3c-0.1-0.2-0.3-0.4-0.4-0.7c-0.2,0-0.3-0.1-0.3-0.3
	c0-0.1-0.1-0.3-0.1-0.4c-0.5-0.8-1-1.6-1.5-2.5c-0.9-1.1-2.1-2-3.5-2.6c-0.1-0.1-0.2-0.1-0.2-0.2c-0.2,0.1-0.4,0.1-0.7,0.2
	C1264,593.6,1263.8,592.6,1264.4,592.5z"/>
<path class="st0" d="M1173,599c-0.7-0.1-1.3-0.3-1.9-0.6c0-0.1,0-0.3-0.1-0.4c-0.6-0.5-1.1-1-1.6-1.6v-0.1c-0.2-0.7-0.7-1.2-1.2-1.5
	c-0.8-1.2-1.5-2.6-1.9-4c0.1-0.3,0-0.7-0.2-0.9c-0.3-0.3-0.7-0.1-0.8,0.2c-0.3,1.2-0.3,2.4-0.3,3.7c0,1.4,0.1,2.8,0.1,4.2
	c0.1,2.8,0.1,5.5,0.2,8.3c0,0.5,0.7,0.7,0.9,0.3c0.1-0.2,0.3-0.4,0.4-0.7c0.2,0,0.3-0.1,0.3-0.3c0-0.1,0.1-0.3,0.1-0.4
	c0.5-0.8,1-1.6,1.5-2.5c0.9-1.1,2.1-2,3.5-2.6c0.1-0.1,0.2-0.1,0.2-0.2c0.2,0.1,0.4,0.1,0.7,0.2C1173.4,600.1,1173.6,599.1,1173,599
	z"/>
<path class="st0" d="M1201.2,599c0.7-0.1,1.3-0.3,1.9-0.6c0-0.1,0-0.3,0.1-0.4c0.6-0.5,1.1-1,1.6-1.6v-0.1c0.2-0.7,0.7-1.2,1.2-1.5
	c0.8-1.2,1.5-2.6,1.9-4c-0.1-0.3,0-0.7,0.2-0.9c0.3-0.3,0.7-0.1,0.8,0.2c0.3,1.2,0.3,2.4,0.3,3.7c0,1.4-0.1,2.8-0.1,4.2
	c-0.1,2.8-0.1,5.5-0.2,8.3c0,0.5-0.7,0.7-0.9,0.3c-0.1-0.2-0.3-0.4-0.4-0.7c-0.2,0-0.3-0.1-0.3-0.3c0-0.1-0.1-0.3-0.1-0.4
	c-0.5-0.8-1-1.6-1.5-2.5c-0.9-1.1-2.1-2-3.5-2.6c-0.1-0.1-0.2-0.1-0.2-0.2c-0.2,0.1-0.4,0.1-0.7,0.2
	C1200.8,600.1,1200.6,599.1,1201.2,599z"/>
<path class="st0" d="M1139.2,545.7c0.7-0.1,1.3-0.3,1.9-0.6c0-0.1,0-0.3,0.1-0.4c0.6-0.5,1.1-1,1.6-1.6V543c0.2-0.7,0.7-1.2,1.2-1.5
	c0.8-1.2,1.5-2.6,1.9-4c-0.1-0.3,0-0.7,0.2-0.9c0.3-0.3,0.7-0.1,0.8,0.2c0.3,1.2,0.3,2.4,0.3,3.7c0,1.4-0.1,2.8-0.1,4.2
	c-0.1,2.8-0.1,5.5-0.2,8.3c0,0.5-0.7,0.7-0.9,0.3c-0.1-0.2-0.3-0.4-0.4-0.7c-0.2,0-0.3-0.1-0.3-0.3c0-0.1-0.1-0.3-0.1-0.4
	c-0.5-0.8-1-1.6-1.5-2.5c-0.9-1.1-2.1-2-3.5-2.6c-0.1-0.1-0.2-0.1-0.2-0.2c-0.2,0.1-0.4,0.1-0.7,0.2
	C1138.8,546.7,1138.6,545.8,1139.2,545.7z"/>
<path class="st0" d="M1111,545.7c-0.7-0.1-1.3-0.3-1.9-0.6c0-0.1,0-0.3-0.1-0.4c-0.6-0.5-1.1-1-1.6-1.6V543
	c-0.2-0.7-0.7-1.2-1.2-1.5c-0.8-1.2-1.5-2.6-1.9-4c0.1-0.3,0-0.7-0.2-0.9c-0.3-0.3-0.7-0.1-0.8,0.2c-0.3,1.2-0.3,2.4-0.3,3.7
	c0,1.4,0.1,2.8,0.1,4.2c0.1,2.8,0.1,5.5,0.2,8.3c0,0.5,0.7,0.7,0.9,0.3c0.1-0.2,0.3-0.4,0.4-0.7c0.2,0,0.3-0.1,0.3-0.3
	c0-0.1,0.1-0.3,0.1-0.4c0.5-0.8,1-1.6,1.5-2.5c0.9-1.1,2.1-2,3.5-2.6c0.1-0.1,0.2-0.1,0.2-0.2c0.2,0.1,0.4,0.1,0.7,0.2
	C1111.4,546.7,1111.6,545.8,1111,545.7z"/>
<path class="st0" d="M1076.1,531.2c0.7-0.1,1.3-0.3,1.9-0.6c0-0.1,0-0.3,0.1-0.4c0.6-0.5,1.1-1,1.6-1.6v-0.1
	c0.2-0.7,0.7-1.2,1.2-1.5c0.8-1.2,1.5-2.6,1.9-4c-0.1-0.3,0-0.7,0.2-0.9c0.3-0.3,0.7-0.1,0.8,0.2c0.3,1.2,0.3,2.4,0.3,3.7
	c0,1.4-0.1,2.8-0.1,4.2c-0.1,2.8-0.1,5.5-0.2,8.3c0,0.5-0.7,0.7-0.9,0.3c-0.1-0.2-0.3-0.4-0.4-0.7c-0.2,0-0.3-0.1-0.3-0.3
	c0-0.1-0.1-0.3-0.1-0.4c-0.5-0.8-1-1.6-1.5-2.5c-0.9-1.1-2.1-2-3.5-2.6c-0.1-0.1-0.2-0.1-0.2-0.2c-0.2,0.1-0.4,0.1-0.7,0.2
	C1075.7,532.2,1075.5,531.3,1076.1,531.2z"/>
<path class="st0" d="M1047.9,531.2c-0.7-0.1-1.3-0.3-1.9-0.6c0-0.1,0-0.3-0.1-0.4c-0.6-0.5-1.1-1-1.6-1.6v-0.1
	c-0.2-0.7-0.7-1.2-1.2-1.5c-0.8-1.2-1.5-2.6-1.9-4c0.1-0.3,0-0.7-0.2-0.9c-0.3-0.3-0.7-0.1-0.8,0.2c-0.3,1.2-0.3,2.4-0.3,3.7
	c0,1.4,0.1,2.8,0.1,4.2c0.1,2.8,0.1,5.5,0.2,8.3c0,0.5,0.7,0.7,0.9,0.3c0.1-0.2,0.3-0.4,0.4-0.7c0.2,0,0.3-0.1,0.3-0.3
	c0-0.1,0.1-0.3,0.1-0.4c0.5-0.8,1-1.6,1.5-2.5c0.9-1.1,2.1-2,3.5-2.6c0.1-0.1,0.2-0.1,0.2-0.2c0.2,0.1,0.4,0.1,0.7,0.2
	C1048.3,532.2,1048.5,531.3,1047.9,531.2z"/>
<path class="st0" d="M984.9,512.7c-0.7-0.1-1.3-0.3-1.9-0.6c0-0.1,0-0.3-0.1-0.4c-0.6-0.5-1.1-1-1.6-1.6V510
	c-0.2-0.7-0.7-1.2-1.2-1.5c-0.8-1.2-1.5-2.6-1.9-4c0.1-0.3,0-0.7-0.2-0.9c-0.3-0.3-0.7-0.1-0.8,0.2c-0.3,1.2-0.3,2.4-0.3,3.7
	c0,1.4,0.1,2.8,0.1,4.2c0.1,2.8,0.1,5.5,0.2,8.3c0,0.5,0.7,0.7,0.9,0.3c0.1-0.2,0.3-0.4,0.4-0.7c0.2,0,0.3-0.1,0.3-0.3
	c0-0.1,0.1-0.3,0.1-0.4c0.5-0.8,1-1.6,1.5-2.5c0.9-1.1,2.1-2,3.5-2.6c0.1-0.1,0.2-0.1,0.2-0.2c0.2,0.1,0.4,0.1,0.7,0.2
	C985.3,513.7,985.5,512.8,984.9,512.7z"/>
<path class="st0" d="M1013.1,512.7c0.7-0.1,1.3-0.3,1.9-0.6c0-0.1,0-0.3,0.1-0.4c0.6-0.5,1.1-1,1.6-1.6V510c0.2-0.7,0.7-1.2,1.2-1.5
	c0.8-1.2,1.5-2.6,1.9-4c-0.1-0.3,0-0.7,0.2-0.9c0.3-0.3,0.7-0.1,0.8,0.2c0.3,1.2,0.3,2.4,0.3,3.7c0,1.4-0.1,2.8-0.1,4.2
	c-0.1,2.8-0.1,5.5-0.2,8.3c0,0.5-0.7,0.7-0.9,0.3c-0.1-0.2-0.3-0.4-0.4-0.7c-0.2,0-0.3-0.1-0.3-0.3c0-0.1-0.1-0.3-0.1-0.4
	c-0.5-0.8-1-1.6-1.5-2.5c-0.9-1.1-2.1-2-3.5-2.6c-0.1-0.1-0.2-0.1-0.2-0.2c-0.2,0.1-0.4,0.1-0.7,0.2
	C1012.7,513.7,1012.5,512.8,1013.1,512.7z"/>
<path class="st0" d="M922.3,494.5c-0.7-0.1-1.3-0.3-1.9-0.6c0-0.1,0-0.3-0.1-0.4c-0.6-0.5-1.1-1-1.6-1.6v-0.1
	c-0.2-0.7-0.7-1.2-1.2-1.5c-0.8-1.2-1.5-2.6-1.9-4c0.1-0.3,0-0.7-0.2-0.9c-0.3-0.3-0.7-0.1-0.8,0.2c-0.3,1.2-0.3,2.4-0.3,3.7
	c0,1.4,0.1,2.8,0.1,4.2c0.1,2.8,0.1,5.5,0.2,8.3c0,0.5,0.7,0.7,0.9,0.3c0.1-0.2,0.3-0.4,0.4-0.7c0.2,0,0.3-0.1,0.3-0.3
	c0-0.1,0.1-0.3,0.1-0.4c0.5-0.8,1-1.6,1.5-2.5c0.9-1.1,2.1-2,3.5-2.6c0.1-0.1,0.2-0.1,0.2-0.2c0.2,0.1,0.4,0.1,0.7,0.2
	C922.7,495.6,922.9,494.6,922.3,494.5z"/>
<path class="st0" d="M950.5,494.5c0.7-0.1,1.3-0.3,1.9-0.6c0-0.1,0-0.3,0.1-0.4c0.6-0.5,1.1-1,1.6-1.6v-0.1c0.2-0.7,0.7-1.2,1.2-1.5
	c0.8-1.2,1.5-2.6,1.9-4c-0.1-0.3,0-0.7,0.2-0.9c0.3-0.3,0.7-0.1,0.8,0.2c0.3,1.2,0.3,2.4,0.3,3.7c0,1.4-0.1,2.8-0.1,4.2
	c-0.1,2.8-0.1,5.5-0.2,8.3c0,0.5-0.7,0.7-0.9,0.3c-0.1-0.2-0.3-0.4-0.4-0.7c-0.2,0-0.3-0.1-0.3-0.3c0-0.1-0.1-0.3-0.1-0.4
	c-0.5-0.8-1-1.6-1.5-2.5c-0.9-1.1-2.1-2-3.5-2.6c-0.1-0.1-0.2-0.1-0.2-0.2c-0.2,0.1-0.4,0.1-0.7,0.2
	C950.1,495.6,949.9,494.6,950.5,494.5z"/>
<path class="st0" d="M859.6,538.1c-0.7-0.1-1.3-0.3-1.9-0.6c0-0.1,0-0.3-0.1-0.4c-0.6-0.5-1.1-1-1.6-1.6v-0.1
	c-0.2-0.7-0.7-1.2-1.2-1.5c-0.8-1.2-1.5-2.6-1.9-4c0.1-0.3,0-0.7-0.2-0.9c-0.3-0.3-0.7-0.1-0.8,0.2c-0.3,1.2-0.3,2.4-0.3,3.7
	c0,1.4,0.1,2.8,0.1,4.2c0.1,2.8,0.1,5.5,0.2,8.3c0,0.5,0.7,0.7,0.9,0.3c0.1-0.2,0.3-0.4,0.4-0.7c0.2,0,0.3-0.1,0.3-0.3
	c0-0.1,0.1-0.3,0.1-0.4c0.5-0.8,1-1.6,1.5-2.5c0.9-1.1,2.1-2,3.5-2.6c0.1-0.1,0.2-0.1,0.2-0.2c0.2,0.1,0.4,0.1,0.7,0.2
	C860,539.1,860.2,538.2,859.6,538.1z"/>
<path class="st0" d="M887.6,538.2c0.7-0.1,1.3-0.3,1.9-0.6c0-0.1,0-0.3,0.1-0.4c0.6-0.5,1.1-1,1.6-1.6v-0.1c0.2-0.7,0.7-1.2,1.2-1.5
	c0.8-1.2,1.5-2.6,1.9-4c-0.1-0.3,0-0.7,0.2-0.9c0.3-0.3,0.7-0.1,0.8,0.2c0.3,1.2,0.3,2.4,0.3,3.7c0,1.4-0.1,2.8-0.1,4.2
	c-0.1,2.8-0.1,5.5-0.2,8.3c0,0.5-0.7,0.7-0.9,0.3c-0.1-0.2-0.3-0.4-0.4-0.7c-0.2,0-0.3-0.1-0.3-0.3c0-0.1-0.1-0.3-0.1-0.4
	c-0.5-0.8-1-1.6-1.5-2.5c-0.9-1.1-2.1-2-3.5-2.6c-0.1-0.1-0.2-0.1-0.2-0.2c-0.2,0.1-0.4,0.1-0.7,0.2
	C887.2,539.2,886.9,538.3,887.6,538.2z"/>
<path class="st0" d="M824,505.7c0.8-0.1,1.6-0.3,2.2-0.6c0-0.1,0-0.3,0.2-0.4c0.7-0.5,1.3-1,1.9-1.6V503c0.3-0.7,0.8-1.2,1.4-1.5
	c1-1.2,1.7-2.6,2.3-4c-0.1-0.3-0.1-0.7,0.3-0.9c0.3-0.3,0.9-0.1,1,0.2c0.4,1.2,0.4,2.4,0.4,3.7c0,1.4-0.1,2.8-0.1,4.2
	c-0.1,2.8-0.2,5.5-0.3,8.3c0,0.5-0.8,0.7-1.1,0.3c-0.2-0.2-0.3-0.4-0.5-0.7c-0.2,0-0.4-0.1-0.4-0.3c0-0.1-0.1-0.3-0.1-0.4
	c-0.6-0.8-1.1-1.6-1.7-2.5c-1.1-1.1-2.5-2-4.1-2.6c-0.1-0.1-0.2-0.1-0.3-0.2c-0.3,0.1-0.5,0.1-0.8,0.2
	C823.5,506.8,823.2,505.8,824,505.7z"/>
<path class="st0" d="M798,505.7c-0.8-0.1-1.5-0.3-2.1-0.6c0-0.1,0-0.3-0.2-0.4c-0.6-0.5-1.2-1-1.8-1.6V503c-0.2-0.7-0.7-1.2-1.4-1.5
	c-0.9-1.2-1.6-2.6-2.1-4c0.1-0.3,0-0.7-0.2-0.9c-0.3-0.3-0.8-0.1-0.9,0.2c-0.4,1.2-0.4,2.4-0.3,3.7c0,1.4,0.1,2.8,0.1,4.2
	c0.1,2.8,0.2,5.5,0.2,8.3c0,0.5,0.7,0.7,1,0.3c0.1-0.2,0.3-0.4,0.4-0.7c0.2,0,0.3-0.1,0.4-0.3c0-0.1,0.1-0.3,0.1-0.4
	c0.5-0.8,1.1-1.6,1.6-2.5c1-1.1,2.3-2,3.8-2.6c0.1-0.1,0.2-0.1,0.2-0.2c0.2,0.1,0.5,0.1,0.7,0.2C798.4,506.8,798.7,505.8,798,505.7z
	"/>
<path class="st0" d="M734.1,519.9c-0.7-0.1-1.3-0.3-1.9-0.6c0-0.1,0-0.3-0.1-0.4c-0.6-0.5-1.1-1-1.6-1.6v-0.1
	c-0.2-0.7-0.7-1.2-1.2-1.5c-0.8-1.2-1.5-2.6-1.9-4c0.1-0.3,0-0.7-0.2-0.9c-0.3-0.3-0.7-0.1-0.8,0.2c-0.3,1.2-0.3,2.4-0.3,3.7
	c0,1.4,0.1,2.8,0.1,4.2c0.1,2.8,0.1,5.5,0.2,8.3c0,0.5,0.7,0.7,0.9,0.3c0.1-0.2,0.3-0.4,0.4-0.7c0.2,0,0.3-0.1,0.3-0.3
	c0-0.1,0.1-0.3,0.1-0.4c0.5-0.8,1-1.6,1.5-2.5c0.9-1.1,2.1-2,3.5-2.6c0.1-0.1,0.2-0.1,0.2-0.2c0.2,0.1,0.4,0.1,0.7,0.2
	C734.4,520.9,734.7,520,734.1,519.9z"/>
<path class="st0" d="M761.7,519.9c0.7-0.1,1.3-0.3,1.9-0.6c0-0.1,0-0.3,0.1-0.4c0.6-0.5,1.1-1,1.6-1.6v-0.1c0.2-0.7,0.7-1.2,1.2-1.5
	c0.8-1.2,1.5-2.6,1.9-4c-0.1-0.3,0-0.7,0.2-0.9c0.3-0.3,0.7-0.1,0.8,0.2c0.3,1.2,0.3,2.4,0.3,3.7c0,1.4-0.1,2.8-0.1,4.2
	c-0.1,2.8-0.1,5.5-0.2,8.3c0,0.5-0.7,0.7-0.9,0.3c-0.1-0.2-0.3-0.4-0.4-0.7c-0.2,0-0.3-0.1-0.3-0.3c0-0.1-0.1-0.3-0.1-0.4
	c-0.5-0.8-1-1.6-1.5-2.5c-0.9-1.1-2.1-2-3.5-2.6c-0.1-0.1-0.2-0.1-0.2-0.2c-0.2,0.1-0.4,0.1-0.7,0.2
	C761.4,520.9,761.1,520,761.7,519.9z"/>
<path class="st0" d="M671.2,491.8c-0.7-0.1-1.3-0.3-1.9-0.6c0-0.1,0-0.3-0.1-0.4c-0.6-0.5-1.1-1-1.6-1.6v-0.1
	c-0.2-0.7-0.7-1.2-1.2-1.5c-0.8-1.2-1.5-2.6-1.9-4c0.1-0.3,0-0.7-0.2-0.9c-0.3-0.3-0.7-0.1-0.8,0.2c-0.3,1.2-0.3,2.4-0.3,3.7
	c0,1.4,0.1,2.8,0.1,4.2c0.1,2.8,0.1,5.5,0.2,8.3c0,0.5,0.7,0.7,0.9,0.3c0.1-0.2,0.3-0.4,0.4-0.7c0.2,0,0.3-0.1,0.3-0.3
	c0-0.1,0.1-0.3,0.1-0.4c0.5-0.8,1-1.6,1.5-2.5c0.9-1.1,2.1-2,3.5-2.6c0.1-0.1,0.2-0.1,0.2-0.2c0.2,0.1,0.4,0.1,0.7,0.2
	C671.6,492.9,671.8,491.9,671.2,491.8z"/>
<path class="st0" d="M699.4,491.8c0.7-0.1,1.3-0.3,1.9-0.6c0-0.1,0-0.3,0.1-0.4c0.6-0.5,1.1-1,1.6-1.6v-0.1c0.2-0.7,0.7-1.2,1.2-1.5
	c0.8-1.2,1.5-2.6,1.9-4c-0.1-0.3,0-0.7,0.2-0.9c0.3-0.3,0.7-0.1,0.8,0.2c0.3,1.2,0.3,2.4,0.3,3.7c0,1.4-0.1,2.8-0.1,4.2
	c-0.1,2.8-0.1,5.5-0.2,8.3c0,0.5-0.7,0.7-0.9,0.3c-0.1-0.2-0.3-0.4-0.4-0.7c-0.2,0-0.3-0.1-0.3-0.3c0-0.1-0.1-0.3-0.1-0.4
	c-0.5-0.8-1-1.6-1.5-2.5c-0.9-1.1-2.1-2-3.5-2.6c-0.1-0.1-0.2-0.1-0.2-0.2c-0.2,0.1-0.4,0.1-0.7,0.2
	C699,492.9,698.8,491.9,699.4,491.8z"/>
<path class="st0" d="M608.8,496.8c-0.7-0.1-1.3-0.3-1.9-0.6c0-0.1,0-0.3-0.1-0.4c-0.6-0.5-1.1-1-1.6-1.6v-0.1
	c-0.2-0.7-0.7-1.2-1.2-1.5c-0.8-1.2-1.5-2.6-1.9-4c0.1-0.3,0-0.7-0.2-0.9c-0.3-0.3-0.7-0.1-0.8,0.2c-0.3,1.2-0.3,2.4-0.3,3.7
	c0,1.4,0.1,2.8,0.1,4.2c0.1,2.8,0.1,5.5,0.2,8.3c0,0.5,0.7,0.7,0.9,0.3c0.1-0.2,0.3-0.4,0.4-0.7c0.2,0,0.3-0.1,0.3-0.3
	c0-0.1,0.1-0.3,0.1-0.4c0.5-0.8,1-1.6,1.5-2.5c0.9-1.1,2.1-2,3.5-2.6c0.1-0.1,0.2-0.1,0.2-0.2c0.2,0.1,0.4,0.1,0.7,0.2
	C609.2,497.9,609.5,496.9,608.8,496.8z"/>
<path class="st0" d="M636.6,496.5c0.7-0.1,1.3-0.3,1.9-0.6c0-0.1,0-0.3,0.1-0.4c0.6-0.5,1.1-1,1.6-1.6v-0.1c0.2-0.7,0.7-1.2,1.2-1.5
	c0.8-1.2,1.5-2.6,1.9-4c-0.1-0.3,0-0.7,0.2-0.9c0.3-0.3,0.7-0.1,0.8,0.2c0.3,1.2,0.3,2.4,0.3,3.7c0,1.4-0.1,2.8-0.1,4.2
	c-0.1,2.8-0.1,5.5-0.2,8.3c0,0.5-0.7,0.7-0.9,0.3c-0.1-0.2-0.3-0.4-0.4-0.7c-0.2,0-0.3-0.1-0.3-0.3c0-0.1-0.1-0.3-0.1-0.4
	c-0.5-0.8-1-1.6-1.5-2.5c-0.9-1.1-2.1-2-3.5-2.6c-0.1-0.1-0.2-0.1-0.2-0.2c-0.2,0.1-0.4,0.1-0.7,0.2
	C636.2,497.5,636,496.6,636.6,496.5z"/>
<path class="st0" d="M545.8,473.6c-0.7-0.1-1.3-0.3-1.9-0.6c0-0.1,0-0.3-0.1-0.4c-0.6-0.5-1.1-1-1.6-1.6v-0.1
	c-0.2-0.7-0.7-1.2-1.2-1.5c-0.8-1.2-1.5-2.6-1.9-4c0.1-0.3,0-0.7-0.2-0.9c-0.3-0.3-0.7-0.1-0.8,0.2c-0.3,1.2-0.3,2.4-0.3,3.7
	c0,1.4,0.1,2.8,0.1,4.2c0.1,2.8,0.1,5.5,0.2,8.3c0,0.5,0.7,0.7,0.9,0.3c0.1-0.2,0.3-0.4,0.4-0.7c0.2,0,0.3-0.1,0.3-0.3
	c0-0.1,0.1-0.3,0.1-0.4c0.5-0.8,1-1.6,1.5-2.5c0.9-1.1,2.1-2,3.5-2.6c0.1-0.1,0.2-0.1,0.2-0.2c0.2,0.1,0.4,0.1,0.7,0.2
	C546.2,474.7,546.4,473.7,545.8,473.6z"/>
<path class="st0" d="M574,473.6c0.7-0.1,1.3-0.3,1.9-0.6c0-0.1,0-0.3,0.1-0.4c0.6-0.5,1.1-1,1.6-1.6v-0.1c0.2-0.7,0.7-1.2,1.2-1.5
	c0.8-1.2,1.5-2.6,1.9-4c-0.1-0.3,0-0.7,0.2-0.9c0.3-0.3,0.7-0.1,0.8,0.2c0.3,1.2,0.3,2.4,0.3,3.7c0,1.4-0.1,2.8-0.1,4.2
	c-0.1,2.8-0.1,5.5-0.2,8.3c0,0.5-0.7,0.7-0.9,0.3c-0.1-0.2-0.3-0.4-0.4-0.7c-0.2,0-0.3-0.1-0.3-0.3c0-0.1-0.1-0.3-0.1-0.4
	c-0.5-0.8-1-1.6-1.5-2.5c-0.9-1.1-2.1-2-3.5-2.6c-0.1-0.1-0.2-0.1-0.2-0.2c-0.2,0.1-0.4,0.1-0.7,0.2
	C573.6,474.7,573.4,473.7,574,473.6z"/>
<path class="st0" d="M482.9,409.4c-0.7-0.1-1.3-0.3-1.9-0.6c0-0.1,0-0.3-0.1-0.4c-0.6-0.5-1.1-1-1.6-1.6v-0.1
	c-0.2-0.7-0.7-1.2-1.2-1.5c-0.8-1.2-1.5-2.6-1.9-4c0.1-0.3,0-0.7-0.2-0.9c-0.3-0.3-0.7-0.1-0.8,0.2c-0.3,1.2-0.3,2.4-0.3,3.7
	c0,1.4,0.1,2.8,0.1,4.2c0.1,2.8,0.1,5.5,0.2,8.3c0,0.5,0.7,0.7,0.9,0.3c0.1-0.2,0.3-0.4,0.4-0.7c0.2,0,0.3-0.1,0.3-0.3
	c0-0.1,0.1-0.3,0.1-0.4c0.5-0.8,1-1.6,1.5-2.5c0.9-1.1,2.1-2,3.5-2.6c0.1-0.1,0.2-0.1,0.2-0.2c0.2,0.1,0.4,0.1,0.7,0.2
	C483.2,410.5,483.5,409.5,482.9,409.4z"/>
<path class="st0" d="M511.1,409.4c0.7-0.1,1.3-0.3,1.9-0.6c0-0.1,0-0.3,0.1-0.4c0.6-0.5,1.1-1,1.6-1.6v-0.1c0.2-0.7,0.7-1.2,1.2-1.5
	c0.8-1.2,1.5-2.6,1.9-4c-0.1-0.3,0-0.7,0.2-0.9c0.3-0.3,0.7-0.1,0.8,0.2c0.3,1.2,0.3,2.4,0.3,3.7c0,1.4-0.1,2.8-0.1,4.2
	c-0.1,2.8-0.1,5.5-0.2,8.3c0,0.5-0.7,0.7-0.9,0.3c-0.1-0.2-0.3-0.4-0.4-0.7c-0.2,0-0.3-0.1-0.3-0.3c0-0.1-0.1-0.3-0.1-0.4
	c-0.5-0.8-1-1.6-1.5-2.5c-0.9-1.1-2.1-2-3.5-2.6c-0.1-0.1-0.2-0.1-0.2-0.2c-0.2,0.1-0.4,0.1-0.7,0.2
	C510.7,410.5,510.4,409.5,511.1,409.4z"/>
<path class="st0" d="M419.3,391.6c-0.7-0.1-1.3-0.3-1.9-0.6c0-0.1,0-0.3-0.1-0.4c-0.6-0.5-1.1-1-1.6-1.6v-0.1
	c-0.2-0.7-0.7-1.2-1.2-1.5c-0.8-1.2-1.5-2.6-1.9-4c0.1-0.3,0-0.7-0.2-0.9c-0.3-0.3-0.7-0.1-0.8,0.2c-0.3,1.2-0.3,2.4-0.3,3.7
	c0,1.4,0.1,2.8,0.1,4.2c0.1,2.8,0.1,5.5,0.2,8.3c0,0.5,0.7,0.7,0.9,0.3c0.1-0.2,0.3-0.4,0.4-0.7c0.2,0,0.3-0.1,0.3-0.3
	c0-0.1,0.1-0.3,0.1-0.4c0.5-0.8,1-1.6,1.5-2.5c0.9-1.1,2.1-2,3.5-2.6c0.1-0.1,0.2-0.1,0.2-0.2c0.2,0.1,0.4,0.1,0.7,0.2
	C419.7,392.6,420,391.7,419.3,391.6z"/>
<path class="st0" d="M448.8,391.1c0.7-0.1,1.3-0.3,1.9-0.6c0-0.1,0-0.3,0.1-0.4c0.6-0.5,1.1-1,1.6-1.6v-0.1c0.2-0.7,0.7-1.2,1.2-1.5
	c0.8-1.2,1.5-2.6,1.9-4c-0.1-0.3,0-0.7,0.2-0.9c0.3-0.3,0.7-0.1,0.8,0.2c0.3,1.2,0.3,2.4,0.3,3.7c0,1.4-0.1,2.8-0.1,4.2
	c-0.1,2.8-0.1,5.5-0.2,8.3c0,0.5-0.7,0.7-0.9,0.3c-0.1-0.2-0.3-0.4-0.4-0.7c-0.2,0-0.3-0.1-0.3-0.3c0-0.1-0.1-0.3-0.1-0.4
	c-0.5-0.8-1-1.6-1.5-2.5c-0.9-1.1-2.1-2-3.5-2.6c-0.1-0.1-0.2-0.1-0.2-0.2c-0.2,0.1-0.4,0.1-0.7,0.2
	C448.4,392.1,448.2,391.2,448.8,391.1z"/>
<path class="st0" d="M357.3,477.8c-0.7-0.1-1.3-0.3-1.9-0.6c0-0.1,0-0.3-0.1-0.4c-0.6-0.5-1.1-1-1.6-1.6v-0.1
	c-0.2-0.7-0.7-1.2-1.2-1.5c-0.8-1.2-1.5-2.6-1.9-4c0.1-0.3,0-0.7-0.2-0.9c-0.3-0.3-0.7-0.1-0.8,0.2c-0.3,1.2-0.3,2.4-0.3,3.7
	c0,1.4,0.1,2.8,0.1,4.2c0.1,2.8,0.1,5.5,0.2,8.3c0,0.5,0.7,0.7,0.9,0.3c0.1-0.2,0.3-0.4,0.4-0.7c0.2,0,0.3-0.1,0.3-0.3
	c0-0.1,0.1-0.3,0.1-0.4c0.5-0.8,1-1.6,1.5-2.5c0.9-1.1,2.1-2,3.5-2.6c0.1-0.1,0.2-0.1,0.2-0.2c0.2,0.1,0.4,0.1,0.7,0.2
	C357.7,478.9,357.9,477.9,357.3,477.8z"/>
<path class="st0" d="M385.8,477.8c0.7-0.1,1.3-0.3,1.9-0.6c0-0.1,0-0.3,0.1-0.4c0.6-0.5,1.1-1,1.6-1.6v-0.1c0.2-0.7,0.7-1.2,1.2-1.5
	c0.8-1.2,1.5-2.6,1.9-4c-0.1-0.3,0-0.7,0.2-0.9c0.3-0.3,0.7-0.1,0.8,0.2c0.3,1.2,0.3,2.4,0.3,3.7c0,1.4-0.1,2.8-0.1,4.2
	c-0.1,2.8-0.1,5.5-0.2,8.3c0,0.5-0.7,0.7-0.9,0.3c-0.1-0.2-0.3-0.4-0.4-0.7c-0.2,0-0.3-0.1-0.3-0.3c0-0.1-0.1-0.3-0.1-0.4
	c-0.5-0.8-1-1.6-1.5-2.5c-0.9-1.1-2.1-2-3.5-2.6c-0.1-0.1-0.2-0.1-0.2-0.2c-0.2,0.1-0.4,0.1-0.7,0.2
	C385.5,478.9,385.2,477.9,385.8,477.8z"/>
<path class="st0" d="M294.9,368.1c-0.7-0.1-1.3-0.3-1.9-0.6c0-0.1,0-0.3-0.1-0.4c-0.6-0.5-1.1-1-1.6-1.6v-0.1
	c-0.2-0.7-0.7-1.2-1.2-1.5c-0.8-1.2-1.5-2.6-1.9-4c0.1-0.3,0-0.7-0.2-0.9c-0.3-0.3-0.7-0.1-0.8,0.2c-0.3,1.2-0.3,2.4-0.3,3.7
	c0,1.4,0.1,2.8,0.1,4.2c0.1,2.8,0.1,5.5,0.2,8.3c0,0.5,0.7,0.7,0.9,0.3c0.1-0.2,0.3-0.4,0.4-0.7c0.2,0,0.3-0.1,0.3-0.3
	c0-0.1,0.1-0.3,0.1-0.4c0.5-0.8,1-1.6,1.5-2.5c0.9-1.1,2.1-2,3.5-2.6c0.1-0.1,0.2-0.1,0.2-0.2c0.2,0.1,0.4,0.1,0.7,0.2
	C295.3,369.2,295.6,368.2,294.9,368.1z"/>
<path class="st0" d="M322.5,368.1c0.7-0.1,1.3-0.3,1.9-0.6c0-0.1,0-0.3,0.1-0.4c0.6-0.5,1.1-1,1.6-1.6v-0.1c0.2-0.7,0.7-1.2,1.2-1.5
	c0.8-1.2,1.5-2.6,1.9-4c-0.1-0.3,0-0.7,0.2-0.9c0.3-0.3,0.7-0.1,0.8,0.2c0.3,1.2,0.3,2.4,0.3,3.7c0,1.4-0.1,2.8-0.1,4.2
	c-0.1,2.8-0.1,5.5-0.2,8.3c0,0.5-0.7,0.7-0.9,0.3c-0.1-0.2-0.3-0.4-0.4-0.7c-0.2,0-0.3-0.1-0.3-0.3c0-0.1-0.1-0.3-0.1-0.4
	c-0.5-0.8-1-1.6-1.5-2.5c-0.9-1.1-2.1-2-3.5-2.6c-0.1-0.1-0.2-0.1-0.2-0.2c-0.2,0.1-0.4,0.1-0.7,0.2
	C322.1,369.2,321.8,368.2,322.5,368.1z"/>
<path class="st0" d="M259.9,402.9c0.7-0.1,1.3-0.3,1.9-0.6c0-0.1,0-0.3,0.1-0.4c0.6-0.5,1.1-1,1.6-1.6v-0.1c0.2-0.7,0.7-1.2,1.2-1.5
	c0.8-1.2,1.5-2.6,1.9-4c-0.1-0.3,0-0.7,0.2-0.9c0.3-0.3,0.7-0.1,0.8,0.2c0.3,1.2,0.3,2.4,0.3,3.7c0,1.4-0.1,2.8-0.1,4.2
	c-0.1,2.8-0.1,5.5-0.2,8.3c0,0.5-0.7,0.7-0.9,0.3c-0.1-0.2-0.3-0.4-0.4-0.7c-0.2,0-0.3-0.1-0.3-0.3c0-0.1-0.1-0.3-0.1-0.4
	c-0.5-0.8-1-1.6-1.5-2.5c-0.9-1.1-2.1-2-3.5-2.6c-0.1-0.1-0.2-0.1-0.2-0.2c-0.2,0.1-0.4,0.1-0.7,0.2
	C259.5,404,259.2,403,259.9,402.9z"/>
<path class="st0" d="M231.7,402.9c-0.7-0.1-1.3-0.3-1.9-0.6c0-0.1,0-0.3-0.1-0.4c-0.6-0.5-1.1-1-1.6-1.6v-0.1
	c-0.2-0.7-0.7-1.2-1.2-1.5c-0.8-1.2-1.5-2.6-1.9-4c0.1-0.3,0-0.7-0.2-0.9c-0.3-0.3-0.7-0.1-0.8,0.2c-0.3,1.2-0.3,2.4-0.3,3.7
	c0,1.4,0.1,2.8,0.1,4.2c0.1,2.8,0.1,5.5,0.2,8.3c0,0.5,0.7,0.7,0.9,0.3c0.1-0.2,0.3-0.4,0.4-0.7c0.2,0,0.3-0.1,0.3-0.3
	c0-0.1,0.1-0.3,0.1-0.4c0.5-0.8,1-1.6,1.5-2.5c0.9-1.1,2.1-2,3.5-2.6c0.1-0.1,0.2-0.1,0.2-0.2c0.2,0.1,0.4,0.1,0.7,0.2
	C232,404,232.3,403,231.7,402.9z"/>
<path class="st0" d="M710.9,767.7c-1.1,3.3-2.8,6.2-5.8,8.4c-0.6,0.4-1.1,0.3-1.5,0c-5.5,1.7-11.6,1.1-16.7-1.6
	c-4.3,3.5-10.2,2.9-15.4,2.1c-0.3,0-0.5-0.2-0.7-0.3c-3.7,0-7.4-1.7-9.6-4.7l0,0c-0.4-0.3-0.6-0.7-0.7-1.1c-2-3.4-2-7.7-0.2-11.2
	c0.3-0.7,1.1-0.8,1.8-0.6c0.8-0.7,2.5-0.4,2.6,1.1c0.4,4.5,4.1,8.5,8.6,9.2c4.6,0.7,9.1-2.2,10.9-6.3c0.6-1.3,2.4-0.8,2.8,0.4
	c1.2,3.6,5,5.9,8.8,5.9c3.6,0,6.8-2,9.1-4.6c0-0.1,0-0.2,0.1-0.2c0.7-2.1,1.4-4.2,2.1-6.3c0.5-1.4,2.5-1.5,2.9,0
	c0,0.1,0,0.2,0.1,0.3c0.7-1.3,2.7-1.1,2.8,0.6C713,761.9,712.4,765,710.9,767.7z M686.3,771.3c-0.4-0.2-0.9-0.5-1.3-0.8
	c-0.1,0-0.1,0.1-0.2,0.1c0.3,0.4,0.5,0.8,0.4,1.3c0.1-0.1,0.2-0.2,0.3-0.3C685.7,771.4,686,771.3,686.3,771.3z"/>
<path class="st0" d="M773.7,768c-1.1,3.3-2.8,6.2-5.8,8.4c-0.6,0.4-1.1,0.3-1.5,0c-5.5,1.7-11.6,1.1-16.7-1.6
	c-4.3,3.5-10.2,2.9-15.4,2.1c-0.3,0-0.5-0.2-0.7-0.3c-3.7,0-7.4-1.7-9.6-4.7l0,0c-0.4-0.3-0.6-0.7-0.7-1.1c-2-3.4-2-7.7-0.2-11.2
	c0.3-0.7,1.1-0.8,1.8-0.6c0.8-0.7,2.5-0.4,2.6,1.1c0.4,4.5,4.1,8.5,8.6,9.2c4.6,0.7,9.1-2.2,10.9-6.3c0.6-1.3,2.4-0.8,2.8,0.4
	c1.2,3.6,5,5.9,8.8,5.9c3.6,0,6.8-2,9.1-4.6c0-0.1,0-0.2,0.1-0.2c0.7-2.1,1.4-4.2,2.1-6.3c0.5-1.4,2.5-1.5,2.9,0
	c0,0.1,0,0.2,0.1,0.3c0.7-1.3,2.7-1.1,2.8,0.6C775.8,762.1,775.2,765.3,773.7,768z M749.1,771.5c-0.4-0.2-0.9-0.5-1.3-0.8
	c-0.1,0-0.1,0.1-0.2,0.1c0.3,0.4,0.5,0.8,0.4,1.3c0.1-0.1,0.2-0.2,0.3-0.3C748.5,771.7,748.8,771.6,749.1,771.5z"/>
<path class="st0" d="M836.6,767.7c-1.1,3.3-2.8,6.2-5.8,8.4c-0.6,0.4-1.1,0.3-1.5,0c-5.5,1.7-11.6,1.1-16.7-1.6
	c-4.3,3.5-10.2,2.9-15.4,2.1c-0.3,0-0.5-0.2-0.7-0.3c-3.7,0-7.4-1.7-9.6-4.7l0,0c-0.4-0.3-0.6-0.7-0.7-1.1c-2-3.4-2-7.7-0.2-11.2
	c0.3-0.7,1.1-0.8,1.8-0.6c0.8-0.7,2.5-0.4,2.6,1.1c0.4,4.5,4.1,8.5,8.6,9.2c4.6,0.7,9.1-2.2,10.9-6.3c0.6-1.3,2.4-0.8,2.8,0.4
	c1.2,3.6,5,5.9,8.8,5.9c3.6,0,6.8-2,9.1-4.6c0-0.1,0-0.2,0.1-0.2c0.7-2.1,1.4-4.2,2.1-6.3c0.5-1.4,2.5-1.5,2.9,0
	c0,0.1,0,0.2,0.1,0.3c0.7-1.3,2.7-1.1,2.8,0.6C838.8,761.9,838.1,765,836.6,767.7z M812,771.3c-0.4-0.2-0.9-0.5-1.3-0.8
	c-0.1,0-0.1,0.1-0.2,0.1c0.3,0.4,0.5,0.8,0.4,1.3c0.1-0.1,0.2-0.2,0.3-0.3C811.5,771.4,811.7,771.3,812,771.3z"/>
<path class="st0" d="M899.4,767.7c-1.1,3.3-2.8,6.2-5.8,8.4c-0.6,0.4-1.1,0.3-1.5,0c-5.5,1.7-11.6,1.1-16.7-1.6
	c-4.3,3.5-10.2,2.9-15.4,2.1c-0.3,0-0.5-0.2-0.7-0.3c-3.7,0-7.4-1.7-9.6-4.7l0,0c-0.4-0.3-0.6-0.7-0.7-1.1c-2-3.4-2-7.7-0.2-11.2
	c0.3-0.7,1.1-0.8,1.8-0.6c0.8-0.7,2.5-0.4,2.6,1.1c0.4,4.5,4.1,8.5,8.6,9.2c4.6,0.7,9.1-2.2,10.9-6.3c0.6-1.3,2.4-0.8,2.8,0.4
	c1.2,3.6,5,5.9,8.8,5.9c3.6,0,6.8-2,9.1-4.6c0-0.1,0-0.2,0.1-0.2c0.7-2.1,1.4-4.2,2.1-6.3c0.5-1.4,2.5-1.5,2.9,0
	c0,0.1,0,0.2,0.1,0.3c0.7-1.3,2.7-1.1,2.8,0.6C901.5,761.9,900.8,765,899.4,767.7z M874.7,771.3c-0.4-0.2-0.9-0.5-1.3-0.8
	c-0.1,0-0.1,0.1-0.2,0.1c0.3,0.4,0.5,0.8,0.4,1.3c0.1-0.1,0.2-0.2,0.3-0.3C874.2,771.4,874.5,771.3,874.7,771.3z"/>
<path class="st0" d="M962.3,768c-1.1,3.3-2.8,6.2-5.9,8.4c-0.6,0.4-1.1,0.3-1.5,0c-5.6,1.7-11.7,1.1-16.8-1.6
	c-4.3,3.5-10.3,2.9-15.5,2.1c-0.3,0-0.5-0.2-0.7-0.3c-3.8,0-7.4-1.7-9.7-4.7l0,0c-0.4-0.3-0.6-0.7-0.7-1.1c-2-3.4-2-7.7-0.2-11.2
	c0.4-0.7,1.1-0.8,1.8-0.6c0.8-0.7,2.5-0.4,2.7,1.1c0.4,4.5,4.1,8.5,8.6,9.2c4.6,0.7,9.2-2.2,11-6.3c0.6-1.3,2.4-0.8,2.8,0.4
	c1.2,3.6,5,5.9,8.8,5.9c3.6,0,6.9-2,9.2-4.6c0-0.1,0-0.2,0.1-0.2c0.7-2.1,1.4-4.2,2.1-6.3c0.5-1.4,2.5-1.5,2.9,0
	c0,0.1,0,0.2,0.1,0.3c0.7-1.3,2.7-1.1,2.9,0.6C964.4,762.1,963.8,765.2,962.3,768z M937.5,771.5c-0.4-0.2-0.9-0.5-1.3-0.8
	c-0.1,0-0.1,0.1-0.2,0.1c0.3,0.4,0.5,0.8,0.4,1.3c0.1-0.1,0.2-0.2,0.3-0.3C937,771.7,937.3,771.5,937.5,771.5z"/>
<path class="st0" d="M1024.7,768.3c-1.1,3.3-2.8,6.2-5.9,8.4c-0.6,0.4-1.1,0.3-1.5,0c-5.6,1.7-11.7,1.1-16.8-1.6
	c-4.3,3.5-10.3,2.9-15.5,2.1c-0.3,0-0.5-0.2-0.7-0.3c-3.8,0-7.4-1.7-9.7-4.7l0,0c-0.4-0.3-0.6-0.7-0.7-1.1c-2-3.4-2-7.7-0.2-11.2
	c0.4-0.7,1.1-0.8,1.8-0.6c0.8-0.7,2.5-0.4,2.7,1.1c0.4,4.5,4.1,8.5,8.6,9.2c4.6,0.7,9.2-2.2,11-6.3c0.6-1.3,2.4-0.8,2.8,0.4
	c1.2,3.6,5,5.9,8.8,5.9c3.6,0,6.9-2,9.2-4.6c0-0.1,0-0.2,0.1-0.2c0.7-2.1,1.4-4.2,2.1-6.3c0.5-1.4,2.5-1.5,2.9,0
	c0,0.1,0,0.2,0.1,0.3c0.7-1.3,2.7-1.1,2.9,0.6C1026.9,762.4,1026.2,765.6,1024.7,768.3z M1000,771.8c-0.4-0.2-0.9-0.5-1.3-0.8
	c-0.1,0-0.1,0.1-0.2,0.1c0.3,0.4,0.5,0.8,0.4,1.3c0.1-0.1,0.2-0.2,0.3-0.3C999.4,772,999.7,771.9,1000,771.8z"/>
<path class="st0" d="M1087.8,768.1c-1.1,3.3-2.8,6.2-5.9,8.4c-0.6,0.4-1.1,0.3-1.5,0c-5.6,1.7-11.7,1.1-16.8-1.6
	c-4.3,3.5-10.3,2.9-15.5,2.1c-0.3,0-0.5-0.2-0.7-0.3c-3.8,0-7.4-1.7-9.7-4.7l0,0c-0.4-0.3-0.6-0.7-0.7-1.1c-2-3.4-2-7.7-0.2-11.2
	c0.4-0.7,1.1-0.8,1.8-0.6c0.8-0.7,2.5-0.4,2.7,1.1c0.4,4.5,4.1,8.5,8.6,9.2c4.6,0.7,9.2-2.2,11-6.3c0.6-1.3,2.4-0.8,2.8,0.4
	c1.2,3.6,5,5.9,8.8,5.9c3.6,0,6.9-2,9.2-4.6c0-0.1,0-0.2,0.1-0.2c0.7-2.1,1.4-4.2,2.1-6.3c0.5-1.4,2.5-1.5,2.9,0
	c0,0.1,0,0.2,0.1,0.3c0.7-1.3,2.7-1.1,2.9,0.6C1089.9,762.2,1089.2,765.3,1087.8,768.1z M1063,771.6c-0.4-0.2-0.9-0.5-1.3-0.8
	c-0.1,0-0.1,0.1-0.2,0.1c0.3,0.4,0.5,0.8,0.4,1.3c0.1-0.1,0.2-0.2,0.3-0.3C1062.4,771.8,1062.7,771.7,1063,771.6z"/>
<path class="st0" d="M1150.7,768c-1.1,3.3-2.8,6.2-5.8,8.4c-0.6,0.4-1.1,0.3-1.5,0c-5.5,1.7-11.6,1.1-16.7-1.6
	c-4.3,3.5-10.2,2.9-15.4,2.1c-0.3,0-0.5-0.2-0.7-0.3c-3.7,0-7.4-1.7-9.6-4.7l0,0c-0.4-0.3-0.6-0.7-0.7-1.1c-2-3.4-2-7.7-0.2-11.2
	c0.3-0.7,1.1-0.8,1.8-0.6c0.8-0.7,2.5-0.4,2.6,1.1c0.4,4.5,4.1,8.5,8.6,9.2c4.6,0.7,9.1-2.2,10.9-6.3c0.6-1.3,2.4-0.8,2.8,0.4
	c1.2,3.6,5,5.9,8.8,5.9c3.6,0,6.8-2,9.1-4.6c0-0.1,0-0.2,0.1-0.2c0.7-2.1,1.4-4.2,2.1-6.3c0.5-1.4,2.5-1.5,2.9,0
	c0,0.1,0,0.2,0.1,0.3c0.7-1.3,2.7-1.1,2.8,0.6C1152.8,762.1,1152.1,765.3,1150.7,768z M1126.1,771.5c-0.4-0.2-0.9-0.5-1.3-0.8
	c-0.1,0-0.1,0.1-0.2,0.1c0.3,0.4,0.5,0.8,0.4,1.3c0.1-0.1,0.2-0.2,0.3-0.3C1125.5,771.7,1125.8,771.6,1126.1,771.5z"/>
<path class="st0" d="M1213.1,768c-1.1,3.3-2.8,6.2-5.9,8.4c-0.6,0.4-1.1,0.3-1.5,0c-5.6,1.7-11.7,1.1-16.9-1.6
	c-4.3,3.5-10.3,2.9-15.6,2.1c-0.3,0-0.5-0.2-0.7-0.3c-3.8,0-7.5-1.7-9.7-4.7l0,0c-0.4-0.3-0.6-0.7-0.7-1.1c-2-3.4-2-7.7-0.2-11.2
	c0.4-0.7,1.1-0.8,1.8-0.6c0.8-0.7,2.6-0.4,2.7,1.1c0.4,4.5,4.1,8.5,8.6,9.2c4.6,0.7,9.2-2.2,11-6.3c0.6-1.3,2.4-0.8,2.8,0.4
	c1.2,3.6,5.1,5.9,8.9,5.9c3.6,0,6.9-2,9.2-4.6c0-0.1,0-0.2,0.1-0.2c0.7-2.1,1.4-4.2,2.1-6.3c0.5-1.4,2.5-1.5,2.9,0
	c0,0.1,0,0.2,0.1,0.3c0.7-1.3,2.7-1.1,2.9,0.6C1215.2,762.1,1214.5,765.3,1213.1,768z M1188.3,771.5c-0.4-0.2-0.9-0.5-1.3-0.8
	c-0.1,0-0.1,0.1-0.2,0.1c0.3,0.4,0.5,0.8,0.4,1.3c0.1-0.1,0.2-0.2,0.3-0.3C1187.7,771.7,1188,771.6,1188.3,771.5z"/>
<path class="st0" d="M1276.1,768c-1.1,3.3-2.9,6.2-5.9,8.4c-0.6,0.4-1.1,0.3-1.6,0c-5.6,1.7-11.7,1.1-16.9-1.6
	c-4.3,3.5-10.3,2.9-15.6,2.1c-0.3,0-0.5-0.2-0.7-0.3c-3.8,0-7.5-1.7-9.8-4.7l0,0c-0.4-0.3-0.6-0.7-0.7-1.1c-2-3.4-2-7.7-0.2-11.2
	c0.4-0.7,1.1-0.8,1.8-0.6c0.8-0.7,2.6-0.4,2.7,1.1c0.4,4.5,4.1,8.5,8.7,9.2s9.2-2.2,11-6.3c0.6-1.3,2.4-0.8,2.8,0.4
	c1.2,3.6,5.1,5.9,8.9,5.9c3.6,0,6.9-2,9.3-4.6c0-0.1,0-0.2,0.1-0.2c0.7-2.1,1.4-4.2,2.1-6.3c0.5-1.4,2.5-1.5,3,0
	c0,0.1,0,0.2,0.1,0.3c0.7-1.3,2.7-1.1,2.9,0.6C1278.3,762.1,1277.6,765.3,1276.1,768z M1251.2,771.5c-0.4-0.2-0.9-0.5-1.3-0.8
	c-0.1,0-0.1,0.1-0.2,0.1c0.3,0.4,0.5,0.8,0.4,1.3c0.1-0.1,0.2-0.2,0.3-0.3C1250.6,771.7,1250.9,771.6,1251.2,771.5z"/>
<path class="st0" d="M1338.9,768.1c-1.1,3.3-2.9,6.2-5.9,8.4c-0.6,0.4-1.1,0.3-1.6,0c-5.6,1.7-11.7,1.1-16.9-1.6
	c-4.3,3.5-10.3,2.9-15.6,2.1c-0.3,0-0.5-0.2-0.7-0.3c-3.8,0-7.5-1.7-9.8-4.7l0,0c-0.4-0.3-0.6-0.7-0.7-1.1c-2-3.4-2-7.7-0.2-11.2
	c0.4-0.7,1.1-0.8,1.8-0.6c0.8-0.7,2.6-0.4,2.7,1.1c0.4,4.5,4.1,8.5,8.7,9.2s9.2-2.2,11-6.3c0.6-1.3,2.4-0.8,2.8,0.4
	c1.2,3.6,5.1,5.9,8.9,5.9c3.6,0,6.9-2,9.3-4.6c0-0.1,0-0.2,0.1-0.2c0.7-2.1,1.4-4.2,2.1-6.3c0.5-1.4,2.5-1.5,3,0
	c0,0.1,0,0.2,0.1,0.3c0.7-1.3,2.7-1.1,2.9,0.6C1341.1,762.3,1340.4,765.4,1338.9,768.1z M1314,771.7c-0.4-0.2-0.9-0.5-1.3-0.8
	c-0.1,0-0.1,0.1-0.2,0.1c0.3,0.4,0.5,0.8,0.4,1.3c0.1-0.1,0.2-0.2,0.3-0.3C1313.4,771.8,1313.7,771.7,1314,771.7z"/>
<path class="st0" d="M1401.8,768.2c-1.1,3.3-2.8,6.2-5.9,8.4c-0.6,0.4-1.1,0.3-1.5,0c-5.6,1.7-11.7,1.1-16.8-1.6
	c-4.3,3.5-10.3,2.9-15.5,2.1c-0.3,0-0.5-0.2-0.7-0.3c-3.8,0-7.4-1.7-9.7-4.7l0,0c-0.4-0.3-0.6-0.7-0.7-1.1c-2-3.4-2-7.7-0.2-11.2
	c0.4-0.7,1.1-0.8,1.8-0.6c0.8-0.7,2.5-0.4,2.7,1.1c0.4,4.5,4.1,8.5,8.6,9.2c4.6,0.7,9.2-2.2,11-6.3c0.6-1.3,2.4-0.8,2.8,0.4
	c1.2,3.6,5,5.9,8.8,5.9c3.6,0,6.9-2,9.2-4.6c0-0.1,0-0.2,0.1-0.2c0.7-2.1,1.4-4.2,2.1-6.3c0.5-1.4,2.5-1.5,2.9,0
	c0,0.1,0,0.2,0.1,0.3c0.7-1.3,2.7-1.1,2.9,0.6C1403.9,762.3,1403.3,765.4,1401.8,768.2z M1377.1,771.7c-0.4-0.2-0.9-0.5-1.3-0.8
	c-0.1,0-0.1,0.1-0.2,0.1c0.3,0.4,0.5,0.8,0.4,1.3c0.1-0.1,0.2-0.2,0.3-0.3C1376.5,771.9,1376.8,771.8,1377.1,771.7z"/>
<path class="st0" d="M1464.4,767.9c-1.1,3.3-2.8,6.2-5.8,8.4c-0.6,0.4-1.1,0.3-1.5,0c-5.5,1.7-11.6,1.1-16.7-1.6
	c-4.3,3.5-10.2,2.9-15.4,2.1c-0.3,0-0.5-0.2-0.7-0.3c-3.7,0-7.4-1.7-9.6-4.7l0,0c-0.4-0.3-0.6-0.7-0.7-1.1c-2-3.4-2-7.7-0.2-11.2
	c0.3-0.7,1.1-0.8,1.8-0.6c0.8-0.7,2.5-0.4,2.6,1.1c0.4,4.5,4.1,8.5,8.6,9.2c4.6,0.7,9.1-2.2,10.9-6.3c0.6-1.3,2.4-0.8,2.8,0.4
	c1.2,3.6,5,5.9,8.8,5.9c3.6,0,6.8-2,9.1-4.6c0-0.1,0-0.2,0.1-0.2c0.7-2.1,1.4-4.2,2.1-6.3c0.5-1.4,2.5-1.5,2.9,0
	c0,0.1,0,0.2,0.1,0.3c0.7-1.3,2.7-1.1,2.8,0.6C1466.6,762,1465.9,765.2,1464.4,767.9z M1439.8,771.4c-0.4-0.2-0.9-0.5-1.3-0.8
	c-0.1,0-0.1,0.1-0.2,0.1c0.3,0.4,0.5,0.8,0.4,1.3c0.1-0.1,0.2-0.2,0.3-0.3C1439.3,771.6,1439.5,771.5,1439.8,771.4z"/>
<path class="st0" d="M1526.9,768.2c-1.1,3.3-2.8,6.2-5.8,8.4c-0.6,0.4-1.1,0.3-1.5,0c-5.5,1.7-11.6,1.1-16.7-1.6
	c-4.3,3.5-10.2,2.9-15.4,2.1c-0.3,0-0.5-0.2-0.7-0.3c-3.7,0-7.4-1.7-9.6-4.7l0,0c-0.4-0.3-0.6-0.7-0.7-1.1c-2-3.4-2-7.7-0.2-11.2
	c0.3-0.7,1.1-0.8,1.8-0.6c0.8-0.7,2.5-0.4,2.6,1.1c0.4,4.5,4.1,8.5,8.6,9.2c4.6,0.7,9.1-2.2,10.9-6.3c0.6-1.3,2.4-0.8,2.8,0.4
	c1.2,3.6,5,5.9,8.8,5.9c3.6,0,6.8-2,9.1-4.6c0-0.1,0-0.2,0.1-0.2c0.7-2.1,1.4-4.2,2.1-6.3c0.5-1.4,2.5-1.5,2.9,0
	c0,0.1,0,0.2,0.1,0.3c0.7-1.3,2.7-1.1,2.8,0.6C1529.1,762.3,1528.4,765.4,1526.9,768.2z M1502.3,771.7c-0.4-0.2-0.9-0.5-1.3-0.8
	c-0.1,0-0.1,0.1-0.2,0.1c0.3,0.4,0.5,0.8,0.4,1.3c0.1-0.1,0.2-0.2,0.3-0.3C1501.7,771.9,1502,771.7,1502.3,771.7z"/>
<path class="st0" d="M1589.9,767.9c-1.1,3.3-2.8,6.2-5.9,8.4c-0.6,0.4-1.1,0.3-1.5,0c-5.6,1.7-11.7,1.1-16.8-1.6
	c-4.3,3.5-10.3,2.9-15.5,2.1c-0.3,0-0.5-0.2-0.7-0.3c-3.8,0-7.4-1.7-9.7-4.7l0,0c-0.4-0.3-0.6-0.7-0.7-1.1c-2-3.4-2-7.7-0.2-11.2
	c0.4-0.7,1.1-0.8,1.8-0.6c0.8-0.7,2.5-0.4,2.7,1.1c0.4,4.5,4.1,8.5,8.6,9.2c4.6,0.7,9.2-2.2,11-6.3c0.6-1.3,2.4-0.8,2.8,0.4
	c1.2,3.6,5.1,5.9,8.8,5.9c3.6,0,6.9-2,9.2-4.6c0-0.1,0-0.2,0.1-0.2c0.7-2.1,1.4-4.2,2.1-6.3c0.5-1.4,2.5-1.5,2.9,0
	c0,0.1,0,0.2,0.1,0.3c0.7-1.3,2.7-1.1,2.9,0.6C1592.1,762,1591.4,765.1,1589.9,767.9z M1565.2,771.4c-0.4-0.2-0.9-0.5-1.3-0.8
	c-0.1,0-0.1,0.1-0.2,0.1c0.3,0.4,0.5,0.8,0.4,1.3c0.1-0.1,0.2-0.2,0.3-0.3C1564.6,771.6,1564.9,771.5,1565.2,771.4z"/>
<path class="st0" d="M522.7,766.6c-1.1,3.3-2.8,6.2-5.9,8.4c-0.6,0.4-1.1,0.3-1.5,0c-5.6,1.7-11.7,1.1-16.8-1.6
	c-4.3,3.5-10.3,2.9-15.5,2.1c-0.3,0-0.5-0.2-0.7-0.3c-3.8,0-7.4-1.7-9.7-4.7l0,0c-0.4-0.3-0.6-0.7-0.7-1.1c-2-3.4-2-7.7-0.2-11.2
	c0.4-0.7,1.1-0.8,1.8-0.6c0.8-0.7,2.5-0.4,2.7,1.1c0.4,4.5,4.1,8.5,8.6,9.2c4.6,0.7,9.2-2.2,11-6.3c0.6-1.3,2.4-0.8,2.8,0.4
	c1.2,3.6,5,5.9,8.8,5.9c3.6,0,6.9-2,9.2-4.6c0-0.1,0-0.2,0.1-0.2c0.7-2.1,1.4-4.2,2.1-6.3c0.5-1.4,2.5-1.5,2.9,0
	c0,0.1,0,0.2,0.1,0.3c0.7-1.3,2.7-1.1,2.9,0.6C524.9,760.7,524.2,763.8,522.7,766.6z M498,770.1c-0.4-0.2-0.9-0.5-1.3-0.8
	c-0.1,0-0.1,0.1-0.2,0.1c0.3,0.4,0.5,0.8,0.4,1.3c0.1-0.1,0.2-0.2,0.3-0.3C497.4,770.3,497.7,770.2,498,770.1z"/>
<path class="st0" d="M585.6,767.4c-1.1,3.3-2.8,6.2-5.9,8.4c-0.6,0.4-1.1,0.3-1.5,0c-5.6,1.7-11.7,1.1-16.8-1.6
	c-4.3,3.5-10.3,2.9-15.5,2.1c-0.3,0-0.5-0.2-0.7-0.3c-3.8,0-7.4-1.7-9.7-4.7l0,0c-0.4-0.3-0.6-0.7-0.7-1.1c-2-3.4-2-7.7-0.2-11.2
	c0.4-0.7,1.1-0.8,1.8-0.6c0.8-0.7,2.5-0.4,2.7,1.1c0.4,4.5,4.1,8.5,8.6,9.2c4.6,0.7,9.2-2.2,11-6.3c0.6-1.3,2.4-0.8,2.8,0.4
	c1.2,3.6,5,5.9,8.8,5.9c3.6,0,6.9-2,9.2-4.6c0-0.1,0-0.2,0.1-0.2c0.7-2.1,1.4-4.2,2.1-6.3c0.5-1.4,2.5-1.5,2.9,0
	c0,0.1,0,0.2,0.1,0.3c0.7-1.3,2.7-1.1,2.9,0.6C587.8,761.6,587.1,764.7,585.6,767.4z M560.9,771c-0.4-0.2-0.9-0.5-1.3-0.8
	c-0.1,0-0.1,0.1-0.2,0.1c0.3,0.4,0.5,0.8,0.4,1.3c0.1-0.1,0.2-0.2,0.3-0.3C560.3,771.2,560.6,771,560.9,771z"/>
<path class="st0" d="M648.5,767.9c-1.1,3.3-2.8,6.2-5.9,8.4c-0.6,0.4-1.1,0.3-1.5,0c-5.6,1.7-11.7,1.1-16.8-1.6
	c-4.3,3.5-10.3,2.9-15.5,2.1c-0.3,0-0.5-0.2-0.7-0.3c-3.8,0-7.4-1.7-9.7-4.7l0,0c-0.4-0.3-0.6-0.7-0.7-1.1c-2-3.4-2-7.7-0.2-11.2
	c0.4-0.7,1.1-0.8,1.8-0.6c0.8-0.7,2.5-0.4,2.7,1.1c0.4,4.5,4.1,8.5,8.6,9.2c4.6,0.7,9.2-2.2,11-6.3c0.6-1.3,2.4-0.8,2.8,0.4
	c1.2,3.6,5,5.9,8.8,5.9c3.6,0,6.9-2,9.2-4.6c0-0.1,0-0.2,0.1-0.2c0.7-2.1,1.4-4.2,2.1-6.3c0.5-1.4,2.5-1.5,2.9,0
	c0,0.1,0,0.2,0.1,0.3c0.7-1.3,2.7-1.1,2.9,0.6C650.6,762.1,650,765.2,648.5,767.9z M623.7,771.4c-0.4-0.2-0.9-0.5-1.3-0.8
	c-0.1,0-0.1,0.1-0.2,0.1c0.3,0.4,0.5,0.8,0.4,1.3c0.1-0.1,0.2-0.2,0.3-0.3C623.2,771.6,623.5,771.5,623.7,771.4z"/>
<path class="st0" d="M459.6,766.9c-1.1,3.3-2.8,6.2-5.8,8.4c-0.6,0.4-1.1,0.3-1.5,0c-5.5,1.7-11.6,1.1-16.7-1.6
	c-4.3,3.5-10.2,2.9-15.4,2.1c-0.3,0-0.5-0.2-0.7-0.3c-3.7,0-7.4-1.7-9.6-4.7l0,0c-0.4-0.3-0.6-0.7-0.7-1.1c-2-3.4-2-7.7-0.2-11.2
	c0.3-0.7,1.1-0.8,1.8-0.6c0.8-0.7,2.5-0.4,2.6,1.1c0.4,4.5,4.1,8.5,8.6,9.2c4.6,0.7,9.1-2.2,10.9-6.3c0.6-1.3,2.4-0.8,2.8,0.4
	c1.2,3.6,5,5.9,8.8,5.9c3.6,0,6.8-2,9.1-4.6c0-0.1,0-0.2,0.1-0.2c0.7-2.1,1.4-4.2,2.1-6.3c0.5-1.4,2.5-1.5,2.9,0
	c0,0.1,0,0.2,0.1,0.3c0.7-1.3,2.7-1.1,2.8,0.6C461.7,761,461,764.1,459.6,766.9z M434.9,770.4c-0.4-0.2-0.9-0.5-1.3-0.8
	c-0.1,0-0.1,0.1-0.2,0.1c0.3,0.4,0.5,0.8,0.4,1.3c0.1-0.1,0.2-0.2,0.3-0.3C434.4,770.6,434.7,770.4,434.9,770.4z"/>
<path class="st0" d="M397.2,766.9c-1.1,3.3-2.8,6.2-5.8,8.4c-0.6,0.4-1.1,0.3-1.5,0c-5.5,1.7-11.6,1.1-16.7-1.6
	c-4.3,3.5-10.2,2.9-15.4,2.1c-0.3,0-0.5-0.2-0.7-0.3c-3.7,0-7.4-1.7-9.6-4.7l0,0c-0.4-0.3-0.6-0.7-0.7-1.1c-2-3.4-2-7.7-0.2-11.2
	c0.3-0.7,1.1-0.8,1.8-0.6c0.8-0.7,2.5-0.4,2.6,1.1c0.4,4.5,4.1,8.5,8.6,9.2c4.6,0.7,9.1-2.2,10.9-6.3c0.6-1.3,2.4-0.8,2.8,0.4
	c1.2,3.6,5,5.9,8.8,5.9c3.6,0,6.8-2,9.1-4.6c0-0.1,0-0.2,0.1-0.2c0.7-2.1,1.4-4.2,2.1-6.3c0.5-1.4,2.5-1.5,2.9,0
	c0,0.1,0,0.2,0.1,0.3c0.7-1.3,2.7-1.1,2.8,0.6C399.3,761,398.6,764.1,397.2,766.9z M372.5,770.4c-0.4-0.2-0.9-0.5-1.3-0.8
	c-0.1,0-0.1,0.1-0.2,0.1c0.3,0.4,0.5,0.8,0.4,1.3c0.1-0.1,0.2-0.2,0.3-0.3C372,770.6,372.3,770.4,372.5,770.4z"/>
<path class="st0" d="M334.4,766.9c-1.1,3.3-2.8,6.2-5.8,8.4c-0.6,0.4-1.1,0.3-1.5,0c-5.5,1.7-11.6,1.1-16.7-1.6
	c-4.3,3.5-10.2,2.9-15.4,2.1c-0.3,0-0.5-0.2-0.7-0.3c-3.7,0-7.4-1.7-9.6-4.7l0,0c-0.4-0.3-0.6-0.7-0.7-1.1c-2-3.4-2-7.7-0.2-11.2
	c0.3-0.7,1.1-0.8,1.8-0.6c0.8-0.7,2.5-0.4,2.6,1.1c0.4,4.5,4.1,8.5,8.6,9.2c4.6,0.7,9.1-2.2,10.9-6.3c0.6-1.3,2.4-0.8,2.8,0.4
	c1.2,3.6,5,5.9,8.8,5.9c3.6,0,6.8-2,9.1-4.6c0-0.1,0-0.2,0.1-0.2c0.7-2.1,1.4-4.2,2.1-6.3c0.5-1.4,2.5-1.5,2.9,0
	c0,0.1,0,0.2,0.1,0.3c0.7-1.3,2.7-1.1,2.8,0.6C336.6,761,335.9,764.1,334.4,766.9z M309.8,770.4c-0.4-0.2-0.9-0.5-1.3-0.8
	c-0.1,0-0.1,0.1-0.2,0.1c0.3,0.4,0.5,0.8,0.4,1.3c0.1-0.1,0.2-0.2,0.3-0.3C309.3,770.6,309.5,770.4,309.8,770.4z"/>
<path class="st0" d="M271.1,766.9c-1.1,3.3-2.8,6.2-5.8,8.4c-0.6,0.4-1.1,0.3-1.5,0c-5.5,1.7-11.6,1.1-16.7-1.6
	c-4.3,3.5-10.2,2.9-15.4,2.1c-0.3,0-0.5-0.2-0.7-0.3c-3.7,0-7.4-1.7-9.6-4.7l0,0c-0.4-0.3-0.6-0.7-0.7-1.1c-2-3.4-2-7.7-0.2-11.2
	c0.3-0.7,1.1-0.8,1.8-0.6c0.8-0.7,2.5-0.4,2.6,1.1c0.4,4.5,4.1,8.5,8.6,9.2c4.6,0.7,9.1-2.2,10.9-6.3c0.6-1.3,2.4-0.8,2.8,0.4
	c1.2,3.6,5,5.9,8.8,5.9c3.6,0,6.8-2,9.1-4.6c0-0.1,0-0.2,0.1-0.2c0.7-2.1,1.4-4.2,2.1-6.3c0.5-1.4,2.5-1.5,2.9,0
	c0,0.1,0,0.2,0.1,0.3c0.7-1.3,2.7-1.1,2.8,0.6C273.3,761,272.6,764.1,271.1,766.9z M246.5,770.4c-0.4-0.2-0.9-0.5-1.3-0.8
	c-0.1,0-0.1,0.1-0.2,0.1c0.3,0.4,0.5,0.8,0.4,1.3c0.1-0.1,0.2-0.2,0.3-0.3C245.9,770.6,246.2,770.4,246.5,770.4z"/>
<path class="st0" d="M1585.9,642.4c0-0.4-0.1-0.8-0.1-1.2l0,0c-0.1-0.2-0.2-0.4-0.3-0.6c0-0.5,0.5-1,1-1h0.1l0,0h0.1
	c0.1,0,0.1,0,0.2-0.1l0,0c0.1-0.1,0.2-0.1,0.3-0.2c0,0,0,0,0.1,0l0,0c0,0,0,0,0.1,0c0.4-0.4,0.9-0.7,1.4-1c0.8-0.5,1.7-0.6,2.6-0.7
	c-0.3-1.2-0.8-2.4-1.4-3.5c-1.1-3.3-2.8-6.2-5.9-8.4c-0.6-0.4-1.1-0.3-1.5,0c-5.5-1.7-11.6-1.1-16.8,1.6c-4.3-3.5-10.2-2.9-15.5-2.1
	c-0.3,0-0.5,0.2-0.7,0.3c-3.7,0-7.4,1.7-9.7,4.7l0,0c-0.4,0.3-0.6,0.7-0.7,1.1c-1.5,2.6-1.9,5.7-1.1,8.6c0.1-0.1,0.2-0.1,0.2-0.2
	c0.3-0.2,0.6-0.2,1-0.3c0.1,0,0.3-0.1,0.4-0.1c0.2,0,0.3-0.1,0.5-0.2c0.1,0,0.2-0.1,0.3-0.2c0.2-0.2,0.4-0.3,0.6-0.4
	c0.4-0.2,1.1-0.4,1.5,0c0.3,0.2,0.4,0.4,0.5,0.7c0,0.2,0,0.4-0.1,0.6l0,0c0,0.1,0,0.2,0,0.3c0,0.2,0,0.4-0.1,0.6v-0.3
	c0,0.3,0,0.6-0.2,0.9c0,0.1-0.1,0.1-0.1,0.2l0,0c0.1,0.3,0.2,0.6,0.3,1c0,0.1,0,0.3,0,0.4c0.2-0.2,0.4-0.6,0.5-1
	c0.4-4.5,4.1-8.5,8.6-9.2c4.6-0.7,9.1,2.2,10.9,6.3c0.6,1.3,2.4,0.8,2.8-0.4c1.2-3.6,5-5.9,8.8-5.9c3.6,0,6.9,2,9.2,4.6
	c0,0.1,0,0.2,0.1,0.2c0.7,2.1,1.4,4.2,2.1,6.3c0,0,0,0.1,0.1,0.1c0-0.2-0.1-0.4-0.1-0.6C1585.9,643.1,1585.9,642.8,1585.9,642.4z
	 M1564,631.3c-0.1,0-0.1-0.1-0.2-0.1c0.3-0.4,0.5-0.8,0.4-1.3c0.1,0.1,0.2,0.2,0.3,0.3c0.2,0.2,0.5,0.3,0.8,0.4
	C1564.8,630.8,1564.4,631,1564,631.3z"/>
<path class="st0" d="M1522.7,653.5c0-0.4-0.1-0.8-0.1-1.2l0,0c-0.1-0.2-0.2-0.4-0.3-0.6c0-0.5,0.5-1,1-1h0.1l0,0h0.1
	c0.1,0,0.1,0,0.2-0.1l0,0c0.1-0.1,0.2-0.1,0.3-0.2c0,0,0,0,0.1,0l0,0c0,0,0,0,0.1,0c0.4-0.4,0.9-0.7,1.3-1c0.8-0.5,1.6-0.6,2.5-0.7
	c-0.3-1.2-0.8-2.4-1.3-3.5c-1.1-3.3-2.8-6.2-5.8-8.4c-0.6-0.4-1.1-0.3-1.5,0c-5.5-1.7-11.5-1.1-16.5,1.6c-4.2-3.5-10.1-2.9-15.3-2.1
	c-0.3,0-0.5,0.2-0.7,0.3c-3.7,0-7.3,1.7-9.5,4.7l0,0c-0.4,0.3-0.6,0.7-0.7,1.1c-1.5,2.6-1.8,5.7-1.1,8.6c0.1-0.1,0.1-0.1,0.2-0.2
	c0.3-0.2,0.6-0.2,0.9-0.3c0.1,0,0.3-0.1,0.4-0.1c0.2,0,0.3-0.1,0.5-0.2c0.1,0,0.2-0.1,0.3-0.2c0.2-0.2,0.4-0.3,0.6-0.4
	c0.4-0.2,1-0.4,1.5,0c0.3,0.2,0.4,0.4,0.5,0.7c0,0.2,0,0.4-0.1,0.6l0,0c0,0.1,0,0.2,0,0.3c0,0.2,0,0.4-0.1,0.6v-0.3
	c0,0.3,0,0.6-0.1,0.9c0,0.1-0.1,0.1-0.1,0.2l0,0c0.1,0.3,0.2,0.6,0.3,1c0,0.1,0,0.3,0,0.4c0.2-0.2,0.4-0.6,0.5-1
	c0.3-4.5,4-8.5,8.5-9.2s9,2.2,10.8,6.3c0.5,1.3,2.4,0.8,2.7-0.4c1.1-3.6,5-5.9,8.7-5.9c3.5,0,6.8,2,9.1,4.6c0,0.1,0,0.2,0.1,0.2
	c0.7,2.1,1.4,4.2,2.1,6.3c0,0,0,0.1,0.1,0.1c0-0.2-0.1-0.4-0.1-0.6C1522.8,654.2,1522.8,653.8,1522.7,653.5z M1501.2,642.3
	c-0.1,0-0.1-0.1-0.2-0.1c0.3-0.4,0.5-0.8,0.4-1.3c0.1,0.1,0.2,0.2,0.3,0.3c0.2,0.2,0.5,0.3,0.8,0.4
	C1502,641.8,1501.6,642.1,1501.2,642.3z"/>
<path class="st0" d="M1460.3,606.3c0-0.4-0.1-0.8-0.1-1.2l0,0c-0.1-0.2-0.2-0.4-0.3-0.6c0-0.5,0.5-1,1-1h0.1l0,0h0.1
	c0.1,0,0.1,0,0.2-0.1l0,0c0.1-0.1,0.2-0.1,0.3-0.2c0,0,0,0,0.1,0l0,0c0,0,0,0,0.1,0c0.4-0.4,0.9-0.7,1.4-1c0.8-0.5,1.7-0.6,2.6-0.7
	c-0.3-1.2-0.8-2.4-1.4-3.5c-1.1-3.3-2.8-6.2-5.8-8.4c-0.6-0.4-1.1-0.3-1.5,0c-5.5-1.7-11.6-1.1-16.7,1.6c-4.3-3.5-10.2-2.9-15.5-2.1
	c-0.3,0-0.5,0.2-0.7,0.3c-3.7,0-7.4,1.7-9.6,4.7l0,0c-0.4,0.3-0.6,0.7-0.7,1.1c-1.5,2.6-1.8,5.7-1.1,8.6c0.1-0.1,0.2-0.1,0.2-0.2
	c0.3-0.2,0.6-0.2,1-0.3c0.1,0,0.3-0.1,0.4-0.1c0.2,0,0.3-0.1,0.5-0.2c0.1,0,0.2-0.1,0.3-0.2c0.2-0.2,0.4-0.3,0.6-0.4
	c0.4-0.2,1-0.4,1.5,0c0.3,0.2,0.4,0.4,0.5,0.7c0,0.2,0,0.4-0.1,0.6l0,0c0,0.1,0,0.2,0,0.3c0,0.2,0,0.4-0.1,0.6v-0.3
	c0,0.3,0,0.6-0.2,0.9c0,0.1-0.1,0.1-0.1,0.2l0,0c0.1,0.3,0.2,0.6,0.3,1c0,0.1,0,0.3,0,0.4c0.2-0.2,0.4-0.6,0.5-1
	c0.4-4.5,4.1-8.5,8.6-9.2c4.6-0.7,9.1,2.2,10.9,6.3c0.6,1.3,2.4,0.8,2.8-0.4c1.2-3.6,5-5.9,8.8-5.9c3.6,0,6.8,2,9.2,4.6
	c0,0.1,0,0.2,0.1,0.2c0.7,2.1,1.4,4.2,2.1,6.3c0,0,0,0.1,0.1,0.1c0-0.2-0.1-0.4-0.1-0.6C1460.3,607,1460.3,606.6,1460.3,606.3z
	 M1438.4,595.2c-0.1,0-0.1-0.1-0.2-0.1c0.3-0.4,0.5-0.8,0.4-1.3c0.1,0.1,0.2,0.2,0.3,0.3c0.2,0.2,0.5,0.3,0.8,0.4
	C1439.3,594.7,1438.8,594.9,1438.4,595.2z"/>
<path class="st0" d="M1397.1,621.5c0-0.4-0.1-0.8-0.1-1.2l0,0c-0.1-0.2-0.2-0.4-0.3-0.6c0-0.5,0.5-1,1-1h0.1l0,0h0.1
	c0.1,0,0.1,0,0.2-0.1l0,0c0.1-0.1,0.2-0.1,0.3-0.2c0,0,0,0,0.1,0l0,0c0,0,0,0,0.1,0c0.4-0.4,0.9-0.7,1.3-1c0.8-0.5,1.6-0.6,2.5-0.7
	c-0.3-1.2-0.8-2.4-1.3-3.5c-1.1-3.3-2.8-6.2-5.8-8.4c-0.6-0.4-1.1-0.3-1.5,0c-5.5-1.7-11.5-1.1-16.5,1.6c-4.2-3.5-10.1-2.9-15.3-2.1
	c-0.3,0-0.5,0.2-0.7,0.3c-3.7,0-7.3,1.7-9.5,4.7l0,0c-0.4,0.3-0.6,0.7-0.7,1.1c-1.5,2.6-1.8,5.7-1.1,8.6c0.1-0.1,0.1-0.1,0.2-0.2
	c0.3-0.2,0.6-0.2,0.9-0.3c0.1,0,0.3-0.1,0.4-0.1c0.2,0,0.3-0.1,0.5-0.2c0.1,0,0.2-0.1,0.3-0.2c0.2-0.2,0.4-0.3,0.6-0.4
	c0.4-0.2,1-0.4,1.5,0c0.3,0.2,0.4,0.4,0.5,0.7c0,0.2,0,0.4-0.1,0.6l0,0c0,0.1,0,0.2,0,0.3c0,0.2,0,0.4-0.1,0.6v-0.3
	c0,0.3,0,0.6-0.1,0.9c0,0.1-0.1,0.1-0.1,0.2l0,0c0.1,0.3,0.2,0.6,0.3,1c0,0.1,0,0.3,0,0.4c0.2-0.2,0.4-0.6,0.5-1
	c0.3-4.5,4-8.5,8.5-9.2s9,2.2,10.8,6.3c0.5,1.3,2.4,0.8,2.7-0.4c1.1-3.6,5-5.9,8.7-5.9c3.5,0,6.8,2,9.1,4.6c0,0.1,0,0.2,0.1,0.2
	c0.7,2.1,1.4,4.2,2.1,6.3c0,0,0,0.1,0.1,0.1c0-0.2-0.1-0.4-0.1-0.6C1397.1,622.2,1397.1,621.8,1397.1,621.5z M1375.5,610.4
	c-0.1,0-0.1-0.1-0.2-0.1c0.3-0.4,0.5-0.8,0.4-1.3c0.1,0.1,0.2,0.2,0.3,0.3c0.2,0.2,0.5,0.3,0.8,0.4
	C1376.3,609.8,1375.9,610.1,1375.5,610.4z"/>
<path class="st0" d="M1334.6,563.7c0-0.4-0.1-0.8-0.1-1.2l0,0c-0.1-0.2-0.2-0.4-0.3-0.6c0-0.5,0.5-1,1-1h0.1l0,0h0.1
	c0.1,0,0.1,0,0.2-0.1l0,0c0.1-0.1,0.2-0.1,0.3-0.2c0,0,0,0,0.1,0l0,0c0,0,0,0,0.1,0c0.4-0.4,0.9-0.7,1.3-1c0.8-0.5,1.6-0.6,2.5-0.7
	c-0.3-1.2-0.8-2.4-1.3-3.5c-1.1-3.3-2.8-6.2-5.8-8.4c-0.6-0.4-1.1-0.3-1.5,0c-5.5-1.7-11.5-1.1-16.5,1.6c-4.2-3.5-10.1-2.9-15.3-2.1
	c-0.3,0-0.5,0.2-0.7,0.3c-3.7,0-7.3,1.7-9.5,4.7l0,0c-0.4,0.3-0.6,0.7-0.7,1.1c-1.5,2.6-1.8,5.7-1.1,8.6c0.1-0.1,0.1-0.1,0.2-0.2
	c0.3-0.2,0.6-0.2,0.9-0.3c0.1,0,0.3-0.1,0.4-0.1c0.2,0,0.3-0.1,0.5-0.2c0.1,0,0.2-0.1,0.3-0.2c0.2-0.2,0.4-0.3,0.6-0.4
	c0.4-0.2,1-0.4,1.5,0c0.3,0.2,0.4,0.4,0.5,0.7c0,0.2,0,0.4-0.1,0.6l0,0c0,0.1,0,0.2,0,0.3c0,0.2,0,0.4-0.1,0.6v-0.3
	c0,0.3,0,0.6-0.1,0.9c0,0.1-0.1,0.1-0.1,0.2l0,0c0.1,0.3,0.2,0.6,0.3,1c0,0.1,0,0.3,0,0.4c0.2-0.2,0.4-0.6,0.5-1
	c0.3-4.5,4-8.5,8.5-9.2s9,2.2,10.8,6.3c0.5,1.3,2.4,0.8,2.7-0.4c1.1-3.6,5-5.9,8.7-5.9c3.5,0,6.8,2,9.1,4.6c0,0.1,0,0.2,0.1,0.2
	c0.7,2.1,1.4,4.2,2.1,6.3c0,0,0,0.1,0.1,0.1c0-0.2-0.1-0.4-0.1-0.6C1334.6,564.4,1334.6,564,1334.6,563.7z M1313,552.6
	c-0.1,0-0.1-0.1-0.2-0.1c0.3-0.4,0.5-0.8,0.4-1.3c0.1,0.1,0.2,0.2,0.3,0.3c0.2,0.2,0.5,0.3,0.8,0.4
	C1313.8,552,1313.4,552.3,1313,552.6z"/>
<path class="st0" d="M1271.7,555.8c0-0.4-0.1-0.8-0.1-1.2l0,0c-0.1-0.2-0.2-0.4-0.3-0.6c0-0.5,0.5-1,1-1h0.1l0,0h0.1
	c0.1,0,0.1,0,0.2-0.1l0,0c0.1-0.1,0.2-0.1,0.3-0.2c0,0,0,0,0.1,0l0,0c0,0,0,0,0.1,0c0.4-0.4,0.9-0.7,1.3-1c0.8-0.5,1.6-0.6,2.5-0.7
	c-0.3-1.2-0.8-2.4-1.3-3.5c-1.1-3.3-2.8-6.2-5.8-8.4c-0.6-0.4-1.1-0.3-1.5,0c-5.5-1.7-11.5-1.1-16.5,1.6c-4.2-3.5-10.1-2.9-15.3-2.1
	c-0.3,0-0.5,0.2-0.7,0.3c-3.7,0-7.3,1.7-9.5,4.7l0,0c-0.4,0.3-0.6,0.7-0.7,1.1c-1.5,2.6-1.8,5.7-1.1,8.6c0.1-0.1,0.1-0.1,0.2-0.2
	c0.3-0.2,0.6-0.2,0.9-0.3c0.1,0,0.3-0.1,0.4-0.1c0.2,0,0.3-0.1,0.5-0.2c0.1,0,0.2-0.1,0.3-0.2c0.2-0.2,0.4-0.3,0.6-0.4
	c0.4-0.2,1-0.4,1.5,0c0.3,0.2,0.4,0.4,0.5,0.7c0,0.2,0,0.4-0.1,0.6l0,0c0,0.1,0,0.2,0,0.3c0,0.2,0,0.4-0.1,0.6v-0.3
	c0,0.3,0,0.6-0.1,0.9c0,0.1-0.1,0.1-0.1,0.2l0,0c0.1,0.3,0.2,0.6,0.3,1c0,0.1,0,0.3,0,0.4c0.2-0.2,0.4-0.6,0.5-1
	c0.3-4.5,4-8.5,8.5-9.2s9,2.2,10.8,6.3c0.5,1.3,2.4,0.8,2.7-0.4c1.1-3.6,5-5.9,8.7-5.9c3.5,0,6.8,2,9.1,4.6c0,0.1,0,0.2,0.1,0.2
	c0.7,2.1,1.4,4.2,2.1,6.3c0,0,0,0.1,0.1,0.1c0-0.2-0.1-0.4-0.1-0.6C1271.7,556.5,1271.8,556.1,1271.7,555.8z M1250.1,544.7
	c-0.1,0-0.1-0.1-0.2-0.1c0.3-0.4,0.5-0.8,0.4-1.3c0.1,0.1,0.2,0.2,0.3,0.3c0.2,0.2,0.5,0.3,0.8,0.4
	C1250.9,544.1,1250.5,544.4,1250.1,544.7z"/>
<path class="st0" d="M1208.6,536.9c0-0.4-0.1-0.8-0.1-1.2l0,0c-0.1-0.2-0.2-0.4-0.3-0.6c0-0.5,0.5-1,1-1h0.1l0,0h0.1
	c0.1,0,0.1,0,0.2-0.1l0,0c0.1-0.1,0.2-0.1,0.3-0.2c0,0,0,0,0.1,0l0,0c0,0,0,0,0.1,0c0.4-0.4,0.9-0.7,1.3-1c0.8-0.5,1.7-0.6,2.6-0.7
	c-0.3-1.2-0.8-2.4-1.3-3.5c-1.1-3.3-2.8-6.2-5.8-8.4c-0.6-0.4-1.1-0.3-1.5,0c-5.5-1.7-11.6-1.1-16.7,1.6c-4.3-3.5-10.2-2.9-15.4-2.1
	c-0.3,0-0.5,0.2-0.7,0.3c-3.7,0-7.4,1.7-9.6,4.7l0,0c-0.4,0.3-0.6,0.7-0.7,1.1c-1.5,2.6-1.8,5.7-1.1,8.6c0.1-0.1,0.1-0.1,0.2-0.2
	c0.3-0.2,0.6-0.2,1-0.3c0.1,0,0.3-0.1,0.4-0.1c0.2,0,0.3-0.1,0.5-0.2c0.1,0,0.2-0.1,0.3-0.2c0.2-0.2,0.4-0.3,0.6-0.4
	c0.4-0.2,1-0.4,1.5,0c0.3,0.2,0.4,0.4,0.5,0.7c0,0.2,0,0.4-0.1,0.6l0,0c0,0.1,0,0.2,0,0.3c0,0.2,0,0.4-0.1,0.6v-0.3
	c0,0.3,0,0.6-0.2,0.9c0,0.1-0.1,0.1-0.1,0.2l0,0c0.1,0.3,0.2,0.6,0.3,1c0,0.1,0,0.3,0,0.4c0.2-0.2,0.4-0.6,0.5-1
	c0.4-4.5,4-8.5,8.5-9.2c4.6-0.7,9.1,2.2,10.9,6.3c0.5,1.3,2.4,0.8,2.8-0.4c1.2-3.6,5-5.9,8.8-5.9c3.6,0,6.8,2,9.1,4.6
	c0,0.1,0,0.2,0.1,0.2c0.7,2.1,1.4,4.2,2.1,6.3c0,0,0,0.1,0.1,0.1c0-0.2-0.1-0.4-0.1-0.6C1208.6,537.6,1208.6,537.3,1208.6,536.9z
	 M1186.8,525.8c-0.1,0-0.1-0.1-0.2-0.1c0.3-0.4,0.5-0.8,0.4-1.3c0.1,0.1,0.2,0.2,0.3,0.3c0.2,0.2,0.5,0.3,0.8,0.4
	C1187.6,525.3,1187.2,525.6,1186.8,525.8z"/>
<path class="st0" d="M1146.6,505.7c0-0.4-0.1-0.8-0.1-1.2l0,0c-0.1-0.2-0.2-0.4-0.3-0.6c0-0.5,0.5-1,1-1h0.1l0,0h0.1
	c0.1,0,0.1,0,0.2-0.1l0,0c0.1-0.1,0.2-0.1,0.3-0.2c0,0,0,0,0.1,0l0,0c0,0,0,0,0.1,0c0.4-0.4,0.9-0.7,1.3-1c0.8-0.5,1.6-0.6,2.5-0.7
	c-0.3-1.2-0.8-2.4-1.3-3.5c-1.1-3.3-2.8-6.2-5.8-8.4c-0.6-0.4-1.1-0.3-1.5,0c-5.5-1.7-11.5-1.1-16.5,1.6c-4.2-3.5-10.1-2.9-15.3-2.1
	c-0.3,0-0.5,0.2-0.7,0.3c-3.7,0-7.3,1.7-9.5,4.7l0,0c-0.4,0.3-0.6,0.7-0.7,1.1c-1.5,2.6-1.8,5.7-1.1,8.6c0.1-0.1,0.1-0.1,0.2-0.2
	c0.3-0.2,0.6-0.2,0.9-0.3c0.1,0,0.3-0.1,0.4-0.1c0.2,0,0.3-0.1,0.5-0.2c0.1,0,0.2-0.1,0.3-0.2c0.2-0.2,0.4-0.3,0.6-0.4
	c0.4-0.2,1-0.4,1.5,0c0.3,0.2,0.4,0.4,0.5,0.7c0,0.2,0,0.4-0.1,0.6l0,0c0,0.1,0,0.2,0,0.3c0,0.2,0,0.4-0.1,0.6v-0.3
	c0,0.3,0,0.6-0.1,0.9c0,0.1-0.1,0.1-0.1,0.2l0,0c0.1,0.3,0.2,0.6,0.3,1c0,0.1,0,0.3,0,0.4c0.2-0.2,0.4-0.6,0.5-1
	c0.3-4.5,4-8.5,8.5-9.2s9,2.2,10.8,6.3c0.5,1.3,2.4,0.8,2.7-0.4c1.1-3.6,5-5.9,8.7-5.9c3.5,0,6.8,2,9.1,4.6c0,0.1,0,0.2,0.1,0.2
	c0.7,2.1,1.4,4.2,2.1,6.3c0,0,0,0.1,0.1,0.1c0-0.2-0.1-0.4-0.1-0.6C1146.6,506.4,1146.6,506,1146.6,505.7z M1125,494.6
	c-0.1,0-0.1-0.1-0.2-0.1c0.3-0.4,0.5-0.8,0.4-1.3c0.1,0.1,0.2,0.2,0.3,0.3c0.2,0.2,0.5,0.3,0.8,0.4
	C1125.8,494,1125.4,494.3,1125,494.6z"/>
<path class="st0" d="M1083.4,492.1c0-0.4-0.1-0.8-0.1-1.2l0,0c-0.1-0.2-0.2-0.4-0.3-0.6c0-0.5,0.5-1,1-1h0.1l0,0h0.1
	c0.1,0,0.1,0,0.2-0.1l0,0c0.1-0.1,0.2-0.1,0.3-0.2c0,0,0,0,0.1,0l0,0c0,0,0,0,0.1,0c0.4-0.4,0.9-0.7,1.3-1c0.8-0.5,1.6-0.6,2.5-0.7
	c-0.3-1.2-0.8-2.4-1.3-3.5c-1.1-3.3-2.8-6.2-5.8-8.4c-0.6-0.4-1.1-0.3-1.5,0c-5.5-1.7-11.5-1.1-16.5,1.6c-4.2-3.5-10.1-2.9-15.3-2.1
	c-0.3,0-0.5,0.2-0.7,0.3c-3.7,0-7.3,1.7-9.5,4.7l0,0c-0.4,0.3-0.6,0.7-0.7,1.1c-1.5,2.6-1.8,5.7-1.1,8.6c0.1-0.1,0.1-0.1,0.2-0.2
	c0.3-0.2,0.6-0.2,0.9-0.3c0.1,0,0.3-0.1,0.4-0.1c0.2,0,0.3-0.1,0.5-0.2c0.1,0,0.2-0.1,0.3-0.2c0.2-0.2,0.4-0.3,0.6-0.4
	c0.4-0.2,1-0.4,1.5,0c0.3,0.2,0.4,0.4,0.5,0.7c0,0.2,0,0.4-0.1,0.6l0,0c0,0.1,0,0.2,0,0.3c0,0.2,0,0.4-0.1,0.6v-0.3
	c0,0.3,0,0.6-0.1,0.9c0,0.1-0.1,0.1-0.1,0.2l0,0c0.1,0.3,0.2,0.6,0.3,1c0,0.1,0,0.3,0,0.4c0.2-0.2,0.4-0.6,0.5-1
	c0.3-4.5,4-8.5,8.5-9.2s9,2.2,10.8,6.3c0.5,1.3,2.4,0.8,2.7-0.4c1.1-3.6,5-5.9,8.7-5.9c3.5,0,6.8,2,9.1,4.6c0,0.1,0,0.2,0.1,0.2
	c0.7,2.1,1.4,4.2,2.1,6.3c0,0,0,0.1,0.1,0.1c0-0.2-0.1-0.4-0.1-0.6C1083.4,492.8,1083.5,492.4,1083.4,492.1z M1061.8,481
	c-0.1,0-0.1-0.1-0.2-0.1c0.3-0.4,0.5-0.8,0.4-1.3c0.1,0.1,0.2,0.2,0.3,0.3c0.2,0.2,0.5,0.3,0.8,0.4
	C1062.6,480.4,1062.2,480.7,1061.8,481z"/>
<path class="st0" d="M1020.5,472.5c0-0.4-0.1-0.8-0.1-1.2l0,0c-0.1-0.2-0.2-0.4-0.3-0.6c0-0.5,0.5-1,1-1h0.1l0,0h0.1
	c0.1,0,0.1,0,0.2-0.1l0,0c0.1-0.1,0.2-0.1,0.3-0.2c0,0,0,0,0.1,0l0,0c0,0,0,0,0.1,0c0.4-0.4,0.9-0.7,1.3-1c0.8-0.5,1.6-0.6,2.5-0.7
	c-0.3-1.2-0.8-2.4-1.3-3.5c-1.1-3.3-2.8-6.2-5.8-8.4c-0.6-0.4-1.1-0.3-1.5,0c-5.5-1.7-11.5-1.1-16.5,1.6c-4.2-3.5-10.1-2.9-15.3-2.1
	c-0.3,0-0.5,0.2-0.7,0.3c-3.7,0-7.3,1.7-9.5,4.7l0,0c-0.4,0.3-0.6,0.7-0.7,1.1c-1.5,2.6-1.8,5.7-1.1,8.6c0.1-0.1,0.1-0.1,0.2-0.2
	c0.3-0.2,0.6-0.2,0.9-0.3c0.1,0,0.3-0.1,0.4-0.1c0.2,0,0.3-0.1,0.5-0.2c0.1,0,0.2-0.1,0.3-0.2c0.2-0.2,0.4-0.3,0.6-0.4
	c0.4-0.2,1-0.4,1.5,0c0.3,0.2,0.4,0.4,0.5,0.7c0,0.2,0,0.4-0.1,0.6l0,0c0,0.1,0,0.2,0,0.3c0,0.2,0,0.4-0.1,0.6v-0.3
	c0,0.3,0,0.6-0.1,0.9c0,0.1-0.1,0.1-0.1,0.2l0,0c0.1,0.3,0.2,0.6,0.3,1c0,0.1,0,0.3,0,0.4c0.2-0.2,0.4-0.6,0.5-1
	c0.3-4.5,4-8.5,8.5-9.2s9,2.2,10.8,6.3c0.5,1.3,2.4,0.8,2.7-0.4c1.1-3.6,5-5.9,8.7-5.9c3.5,0,6.8,2,9.1,4.6c0,0.1,0,0.2,0.1,0.2
	c0.7,2.1,1.4,4.2,2.1,6.3c0,0,0,0.1,0.1,0.1c0-0.2-0.1-0.4-0.1-0.6C1020.5,473.2,1020.5,472.9,1020.5,472.5z M998.9,461.4
	c-0.1,0-0.1-0.1-0.2-0.1c0.3-0.4,0.5-0.8,0.4-1.3c0.1,0.1,0.2,0.2,0.3,0.3c0.2,0.2,0.5,0.3,0.8,0.4
	C999.7,460.9,999.3,461.1,998.9,461.4z"/>
<path class="st0" d="M957.9,422.2c0-0.4-0.1-0.8-0.1-1.2l0,0c-0.1-0.2-0.2-0.4-0.3-0.6c0-0.5,0.5-1,1-1h0.1l0,0h0.1
	c0.1,0,0.1,0,0.2-0.1l0,0c0.1-0.1,0.2-0.1,0.3-0.2c0,0,0,0,0.1,0l0,0c0,0,0,0,0.1,0c0.4-0.4,0.9-0.7,1.3-1c0.8-0.5,1.6-0.6,2.5-0.7
	c-0.3-1.2-0.8-2.4-1.3-3.5c-1.1-3.3-2.8-6.2-5.8-8.4c-0.6-0.4-1.1-0.3-1.5,0c-5.5-1.7-11.5-1.1-16.5,1.6c-4.2-3.5-10.1-2.9-15.3-2.1
	c-0.3,0-0.5,0.2-0.7,0.3c-3.7,0-7.3,1.7-9.5,4.7l0,0c-0.4,0.3-0.6,0.7-0.7,1.1c-1.5,2.6-1.8,5.7-1.1,8.6c0.1-0.1,0.1-0.1,0.2-0.2
	c0.3-0.2,0.6-0.2,0.9-0.3c0.1,0,0.3-0.1,0.4-0.1c0.2,0,0.3-0.1,0.5-0.2c0.1,0,0.2-0.1,0.3-0.2c0.2-0.2,0.4-0.3,0.6-0.4
	c0.4-0.2,1-0.4,1.5,0c0.3,0.2,0.4,0.4,0.5,0.7c0,0.2,0,0.4-0.1,0.6l0,0c0,0.1,0,0.2,0,0.3c0,0.2,0,0.4-0.1,0.6v-0.3
	c0,0.3,0,0.6-0.1,0.9c0,0.1-0.1,0.1-0.1,0.2l0,0c0.1,0.3,0.2,0.6,0.3,1c0,0.1,0,0.3,0,0.4c0.2-0.2,0.4-0.6,0.5-1
	c0.3-4.5,4-8.5,8.5-9.2s9,2.2,10.8,6.3c0.5,1.3,2.4,0.8,2.7-0.4c1.1-3.6,5-5.9,8.7-5.9c3.5,0,6.8,2,9.1,4.6c0,0.1,0,0.2,0.1,0.2
	c0.7,2.1,1.4,4.2,2.1,6.3c0,0,0,0.1,0.1,0.1c0-0.2-0.1-0.4-0.1-0.6C958,422.9,958,422.6,957.9,422.2z M936.3,411.1
	c-0.1,0-0.1-0.1-0.2-0.1c0.3-0.4,0.5-0.8,0.4-1.3c0.1,0.1,0.2,0.2,0.3,0.3c0.2,0.2,0.5,0.3,0.8,0.4
	C937.2,410.6,936.7,410.9,936.3,411.1z"/>
<path class="st0" d="M894.9,417.2c0-0.4-0.1-0.8-0.1-1.2l0,0c-0.1-0.2-0.2-0.4-0.3-0.6c0-0.5,0.5-1,1-1h0.1l0,0h0.1
	c0.1,0,0.1,0,0.2-0.1l0,0c0.1-0.1,0.2-0.1,0.3-0.2c0,0,0,0,0.1,0l0,0c0,0,0,0,0.1,0c0.4-0.4,0.9-0.7,1.3-1c0.8-0.5,1.6-0.6,2.5-0.7
	c-0.3-1.2-0.8-2.4-1.3-3.5c-1.1-3.3-2.8-6.2-5.8-8.4c-0.6-0.4-1.1-0.3-1.5,0c-5.5-1.7-11.5-1.1-16.5,1.6c-4.2-3.5-10.1-2.9-15.3-2.1
	c-0.3,0-0.5,0.2-0.7,0.3c-3.7,0-7.3,1.7-9.5,4.7l0,0c-0.4,0.3-0.6,0.7-0.7,1.1c-1.5,2.6-1.8,5.7-1.1,8.6c0.1-0.1,0.1-0.1,0.2-0.2
	c0.3-0.2,0.6-0.2,0.9-0.3c0.1,0,0.3-0.1,0.4-0.1c0.2,0,0.3-0.1,0.5-0.2c0.1,0,0.2-0.1,0.3-0.2c0.2-0.2,0.4-0.3,0.6-0.4
	c0.4-0.2,1-0.4,1.5,0c0.3,0.2,0.4,0.4,0.5,0.7c0,0.2,0,0.4-0.1,0.6l0,0c0,0.1,0,0.2,0,0.3c0,0.2,0,0.4-0.1,0.6v-0.3
	c0,0.3,0,0.6-0.1,0.9c0,0.1-0.1,0.1-0.1,0.2l0,0c0.1,0.3,0.2,0.6,0.3,1c0,0.1,0,0.3,0,0.4c0.2-0.2,0.4-0.6,0.5-1
	c0.3-4.5,4-8.5,8.5-9.2s9,2.2,10.8,6.3c0.5,1.3,2.4,0.8,2.7-0.4c1.1-3.6,5-5.9,8.7-5.9c3.5,0,6.8,2,9.1,4.6c0,0.1,0,0.2,0.1,0.2
	c0.7,2.1,1.4,4.2,2.1,6.3c0,0,0,0.1,0.1,0.1c0-0.2-0.1-0.4-0.1-0.6C895,417.9,895,417.5,894.9,417.2z M873.3,406.1
	c-0.1,0-0.1-0.1-0.2-0.1c0.3-0.4,0.5-0.8,0.4-1.3c0.1,0.1,0.2,0.2,0.3,0.3c0.2,0.2,0.5,0.3,0.8,0.4
	C874.2,405.6,873.7,405.8,873.3,406.1z"/>
<path class="st0" d="M832.3,419.4c0-0.4-0.1-0.8-0.1-1.2l0,0c-0.1-0.2-0.2-0.4-0.3-0.6c0-0.5,0.5-1,1-1h0.1l0,0h0.1
	c0.1,0,0.1,0,0.2-0.1l0,0c0.1-0.1,0.2-0.1,0.3-0.2c0,0,0,0,0.1,0l0,0c0,0,0,0,0.1,0c0.4-0.4,0.9-0.7,1.3-1c0.8-0.5,1.6-0.6,2.5-0.7
	c-0.3-1.2-0.8-2.4-1.3-3.5c-1.1-3.3-2.8-6.2-5.8-8.4c-0.6-0.4-1.1-0.3-1.5,0c-5.5-1.7-11.5-1.1-16.5,1.6c-4.2-3.5-10.1-2.9-15.3-2.1
	c-0.3,0-0.5,0.2-0.7,0.3c-3.7,0-7.3,1.7-9.5,4.7l0,0c-0.4,0.3-0.6,0.7-0.7,1.1c-1.5,2.6-1.8,5.7-1.1,8.6c0.1-0.1,0.1-0.1,0.2-0.2
	c0.3-0.2,0.6-0.2,0.9-0.3c0.1,0,0.3-0.1,0.4-0.1c0.2,0,0.3-0.1,0.5-0.2c0.1,0,0.2-0.1,0.3-0.2c0.2-0.2,0.4-0.3,0.6-0.4
	c0.4-0.2,1-0.4,1.5,0c0.3,0.2,0.4,0.4,0.5,0.7c0,0.2,0,0.4-0.1,0.6l0,0c0,0.1,0,0.2,0,0.3c0,0.2,0,0.4-0.1,0.6v-0.3
	c0,0.3,0,0.6-0.1,0.9c0,0.1-0.1,0.1-0.1,0.2l0,0c0.1,0.3,0.2,0.6,0.3,1c0,0.1,0,0.3,0,0.4c0.2-0.2,0.4-0.6,0.5-1
	c0.3-4.5,4-8.5,8.5-9.2s9,2.2,10.8,6.3c0.5,1.3,2.4,0.8,2.7-0.4c1.1-3.6,5-5.9,8.7-5.9c3.5,0,6.8,2,9.1,4.6c0,0.1,0,0.2,0.1,0.2
	c0.7,2.1,1.4,4.2,2.1,6.3c0,0,0,0.1,0.1,0.1c0-0.2-0.1-0.4-0.1-0.6C832.4,420.1,832.4,419.8,832.3,419.4z M810.7,408.3
	c-0.1,0-0.1-0.1-0.2-0.1c0.3-0.4,0.5-0.8,0.4-1.3c0.1,0.1,0.2,0.2,0.3,0.3c0.2,0.2,0.5,0.3,0.8,0.4
	C811.6,407.8,811.1,408.1,810.7,408.3z"/>
<path class="st0" d="M769.5,408.8c0-0.4-0.1-0.8-0.1-1.2l0,0c-0.1-0.2-0.2-0.4-0.3-0.6c0-0.5,0.5-1,1-1h0.1l0,0h0.1
	c0.1,0,0.1,0,0.2-0.1l0,0c0.1-0.1,0.2-0.1,0.3-0.2c0,0,0,0,0.1,0l0,0c0,0,0,0,0.1,0c0.4-0.4,0.9-0.7,1.3-1c0.8-0.5,1.6-0.6,2.5-0.7
	c-0.3-1.2-0.8-2.4-1.3-3.5c-1.1-3.3-2.8-6.2-5.8-8.4c-0.6-0.4-1.1-0.3-1.5,0c-5.5-1.7-11.5-1.1-16.5,1.6c-4.2-3.5-10.1-2.9-15.3-2.1
	c-0.3,0-0.5,0.2-0.7,0.3c-3.7,0-7.3,1.7-9.5,4.7l0,0c-0.4,0.3-0.6,0.7-0.7,1.1c-1.5,2.6-1.8,5.7-1.1,8.6c0.1-0.1,0.1-0.1,0.2-0.2
	c0.3-0.2,0.6-0.2,0.9-0.3c0.1,0,0.3-0.1,0.4-0.1c0.2,0,0.3-0.1,0.5-0.2c0.1,0,0.2-0.1,0.3-0.2c0.2-0.2,0.4-0.3,0.6-0.4
	c0.4-0.2,1-0.4,1.5,0c0.3,0.2,0.4,0.4,0.5,0.7c0,0.2,0,0.4-0.1,0.6l0,0c0,0.1,0,0.2,0,0.3c0,0.2,0,0.4-0.1,0.6v-0.3
	c0,0.3,0,0.6-0.1,0.9c0,0.1-0.1,0.1-0.1,0.2l0,0c0.1,0.3,0.2,0.6,0.3,1c0,0.1,0,0.3,0,0.4c0.2-0.2,0.4-0.6,0.5-1
	c0.3-4.5,4-8.5,8.5-9.2s9,2.2,10.8,6.3c0.5,1.3,2.4,0.8,2.7-0.4c1.1-3.6,5-5.9,8.7-5.9c3.5,0,6.8,2,9.1,4.6c0,0.1,0,0.2,0.1,0.2
	c0.7,2.1,1.4,4.2,2.1,6.3c0,0,0,0.1,0.1,0.1c0-0.2-0.1-0.4-0.1-0.6C769.5,409.4,769.5,409.1,769.5,408.8z M747.9,397.6
	c-0.1,0-0.1-0.1-0.2-0.1c0.3-0.4,0.5-0.8,0.4-1.3c0.1,0.1,0.2,0.2,0.3,0.3c0.2,0.2,0.5,0.3,0.8,0.4
	C748.7,397.1,748.3,397.4,747.9,397.6z"/>
<path class="st0" d="M706.8,390.7c0-0.4-0.1-0.8-0.1-1.2l0,0c-0.1-0.2-0.2-0.4-0.3-0.6c0-0.5,0.5-1,1-1h0.1l0,0h0.1
	c0.1,0,0.1,0,0.2-0.1l0,0c0.1-0.1,0.2-0.1,0.3-0.2c0,0,0,0,0.1,0l0,0c0,0,0,0,0.1,0c0.4-0.4,0.9-0.7,1.3-1c0.8-0.5,1.6-0.6,2.5-0.7
	c-0.3-1.2-0.8-2.4-1.3-3.5c-1.1-3.3-2.8-6.2-5.8-8.4c-0.6-0.4-1.1-0.3-1.5,0c-5.5-1.7-11.5-1.1-16.5,1.6c-4.2-3.5-10.1-2.9-15.3-2.1
	c-0.3,0-0.5,0.2-0.7,0.3c-3.7,0-7.3,1.7-9.5,4.7l0,0c-0.4,0.3-0.6,0.7-0.7,1.1c-1.5,2.6-1.8,5.7-1.1,8.6c0.1-0.1,0.1-0.1,0.2-0.2
	c0.3-0.2,0.6-0.2,0.9-0.3c0.1,0,0.3-0.1,0.4-0.1c0.2,0,0.3-0.1,0.5-0.2c0.1,0,0.2-0.1,0.3-0.2c0.2-0.2,0.4-0.3,0.6-0.4
	c0.4-0.2,1-0.4,1.5,0c0.3,0.2,0.4,0.4,0.5,0.7c0,0.2,0,0.4-0.1,0.6l0,0c0,0.1,0,0.2,0,0.3c0,0.2,0,0.4-0.1,0.6v-0.3
	c0,0.3,0,0.6-0.1,0.9c0,0.1-0.1,0.1-0.1,0.2l0,0c0.1,0.3,0.2,0.6,0.3,1c0,0.1,0,0.3,0,0.4c0.2-0.2,0.4-0.6,0.5-1
	c0.3-4.5,4-8.5,8.5-9.2s9,2.2,10.8,6.3c0.5,1.3,2.4,0.8,2.7-0.4c1.1-3.6,5-5.9,8.7-5.9c3.5,0,6.8,2,9.1,4.6c0,0.1,0,0.2,0.1,0.2
	c0.7,2.1,1.4,4.2,2.1,6.3c0,0,0,0.1,0.1,0.1c0-0.2-0.1-0.4-0.1-0.6C706.8,391.4,706.8,391,706.8,390.7z M685.2,379.6
	c-0.1,0-0.1-0.1-0.2-0.1c0.3-0.4,0.5-0.8,0.4-1.3c0.1,0.1,0.2,0.2,0.3,0.3c0.2,0.2,0.5,0.3,0.8,0.4C686,379,685.6,379.3,685.2,379.6
	z"/>
<path class="st0" d="M644,352.5c0-0.4-0.1-0.8-0.1-1.2l0,0c-0.1-0.2-0.2-0.4-0.3-0.6c0-0.5,0.5-1,1-1h0.1l0,0h0.1
	c0.1,0,0.1,0,0.2-0.1l0,0c0.1-0.1,0.2-0.1,0.3-0.2c0,0,0,0,0.1,0l0,0c0,0,0,0,0.1,0c0.4-0.4,0.9-0.7,1.3-1c0.8-0.5,1.6-0.6,2.5-0.7
	c-0.3-1.2-0.8-2.4-1.3-3.5c-1.1-3.3-2.8-6.2-5.8-8.4c-0.6-0.4-1.1-0.3-1.5,0c-5.5-1.7-11.5-1.1-16.5,1.6c-4.2-3.5-10.1-2.9-15.3-2.1
	c-0.3,0-0.5,0.2-0.7,0.3c-3.7,0-7.3,1.7-9.5,4.7l0,0c-0.4,0.3-0.6,0.7-0.7,1.1c-1.5,2.6-1.8,5.7-1.1,8.6c0.1-0.1,0.1-0.1,0.2-0.2
	c0.3-0.2,0.6-0.2,0.9-0.3c0.1,0,0.3-0.1,0.4-0.1c0.2,0,0.3-0.1,0.5-0.2c0.1,0,0.2-0.1,0.3-0.2c0.2-0.2,0.4-0.3,0.6-0.4
	c0.4-0.2,1-0.4,1.5,0c0.3,0.2,0.4,0.4,0.5,0.7c0,0.2,0,0.4-0.1,0.6l0,0c0,0.1,0,0.2,0,0.3c0,0.2,0,0.4-0.1,0.6v-0.3
	c0,0.3,0,0.6-0.1,0.9c0,0.1-0.1,0.1-0.1,0.2l0,0c0.1,0.3,0.2,0.6,0.3,1c0,0.1,0,0.3,0,0.4c0.2-0.2,0.4-0.6,0.5-1
	c0.3-4.5,4-8.5,8.5-9.2s9,2.2,10.8,6.3c0.5,1.3,2.4,0.8,2.7-0.4c1.1-3.6,5-5.9,8.7-5.9c3.5,0,6.8,2,9.1,4.6c0,0.1,0,0.2,0.1,0.2
	c0.7,2.1,1.4,4.2,2.1,6.3c0,0,0,0.1,0.1,0.1c0-0.2-0.1-0.4-0.1-0.6C644,353.2,644,352.8,644,352.5z M622.4,341.4
	c-0.1,0-0.1-0.1-0.2-0.1c0.3-0.4,0.5-0.8,0.4-1.3c0.1,0.1,0.2,0.2,0.3,0.3c0.2,0.2,0.5,0.3,0.8,0.4
	C623.2,340.9,622.8,341.1,622.4,341.4z"/>
<path class="st0" d="M581.2,321.9c0-0.4-0.1-0.8-0.1-1.2l0,0c-0.1-0.2-0.2-0.4-0.3-0.6c0-0.5,0.5-1,1-1h0.1l0,0h0.1
	c0.1,0,0.1,0,0.2-0.1l0,0c0.1-0.1,0.2-0.1,0.3-0.2c0,0,0,0,0.1,0l0,0c0,0,0,0,0.1,0c0.4-0.4,0.9-0.7,1.3-1c0.8-0.5,1.6-0.6,2.5-0.7
	c-0.3-1.2-0.8-2.4-1.3-3.5c-1.1-3.3-2.8-6.2-5.8-8.4c-0.6-0.4-1.1-0.3-1.5,0c-5.5-1.7-11.5-1.1-16.5,1.6c-4.2-3.5-10.1-2.9-15.3-2.1
	c-0.3,0-0.5,0.2-0.7,0.3c-3.7,0-7.3,1.7-9.5,4.7l0,0c-0.4,0.3-0.6,0.7-0.7,1.1c-1.5,2.6-1.8,5.7-1.1,8.6c0.1-0.1,0.1-0.1,0.2-0.2
	c0.3-0.2,0.6-0.2,0.9-0.3c0.1,0,0.3-0.1,0.4-0.1c0.2,0,0.3-0.1,0.5-0.2c0.1,0,0.2-0.1,0.3-0.2c0.2-0.2,0.4-0.3,0.6-0.4
	c0.4-0.2,1-0.4,1.5,0c0.3,0.2,0.4,0.4,0.5,0.7c0,0.2,0,0.4-0.1,0.6l0,0c0,0.1,0,0.2,0,0.3c0,0.2,0,0.4-0.1,0.6v-0.3
	c0,0.3,0,0.6-0.1,0.9c0,0.1-0.1,0.1-0.1,0.2l0,0c0.1,0.3,0.2,0.6,0.3,1c0,0.1,0,0.3,0,0.4c0.2-0.2,0.4-0.6,0.5-1
	c0.3-4.5,4-8.5,8.5-9.2s9,2.2,10.8,6.3c0.5,1.3,2.4,0.8,2.7-0.4c1.1-3.6,5-5.9,8.7-5.9c3.5,0,6.8,2,9.1,4.6c0,0.1,0,0.2,0.1,0.2
	c0.7,2.1,1.4,4.2,2.1,6.3c0,0,0,0.1,0.1,0.1c0-0.2-0.1-0.4-0.1-0.6C581.2,322.6,581.2,322.3,581.2,321.9z M559.6,310.8
	c-0.1,0-0.1-0.1-0.2-0.1c0.3-0.4,0.5-0.8,0.4-1.3c0.1,0.1,0.2,0.2,0.3,0.3c0.2,0.2,0.5,0.3,0.8,0.4
	C560.4,310.3,560,310.6,559.6,310.8z"/>
<path class="st0" d="M522.2,283.8c-1.1-3.3-2.8-6.2-5.8-8.4c-0.6-0.4-1.1-0.3-1.5,0c-5.5-1.7-11.5-1.1-16.5,1.6
	c-4.2-3.5-10.1-2.9-15.3-2.1c-0.3,0-0.5,0.2-0.7,0.3c-3.7,0-7.3,1.7-9.5,4.7l0,0c-0.4,0.3-0.6,0.7-0.7,1.1c-1.1,1.9-1.5,4-1.5,6.1
	c0.1,0,0.1,0,0.2,0s0.2,0.1,0.3,0.2c0.1,0.1,0.2,0.2,0.3,0.3c0.1,0.1,0.1,0.2,0.2,0.4v0.1v0.1c0,0,0,0,0,0.1l0,0
	c0.6-0.6,1.5-0.9,2.3-0.7c0.9,0.2,1.7,1,2.1,1.8c0.3,0.5,0.1,1.1-0.4,1.4c0.1,0.3,0.1,0.7,0,1c0,0,0,0,0,0.1c0,0,0,0,0-0.1v0.1
	c0,0.1-0.1,0.2-0.1,0.3c0,0.2-0.1,0.4-0.1,0.5s-0.1,0.3-0.1,0.4c0.4-0.2,0.8-0.6,0.9-1.3c0.3-4.5,4-8.5,8.5-9.2s9,2.2,10.8,6.3
	c0.5,1.3,2.4,0.8,2.7-0.4c1.1-3.6,5-5.9,8.7-5.9c3.5,0,6.8,2,9.1,4.6c0,0.1,0,0.2,0.1,0.2c0.7,2.1,1.4,4.2,2.1,6.3
	c0,0.1,0.1,0.1,0.1,0.1c0.1-0.4,0.2-0.7,0.5-1l0.1-0.1c-0.2-0.1-0.3-0.3-0.3-0.5c-0.1-0.4,0.1-0.9,0.5-1.1c0.8-0.5,1.8-0.8,2.7-1
	c0.4-0.1,0.8-0.2,1.3-0.3c0.1,0,0.1-0.1,0.2-0.1c0.1,0,0.2-0.1,0.3-0.2l0.1-0.1c0,0,0.2-0.2,0,0c0.1-0.1,0.2-0.2,0.3-0.2
	c0,0,0,0,0.1,0C523.6,287.2,523,285.4,522.2,283.8z M496.6,281c-0.1,0-0.1-0.1-0.2-0.1c0.3-0.4,0.5-0.8,0.4-1.3
	c0.1,0.1,0.2,0.2,0.3,0.3c0.2,0.2,0.5,0.3,0.8,0.4C497.4,280.5,497,280.7,496.6,281z"/>
<path class="st0" d="M459.6,261.6c-1.1-3.3-2.8-6.2-5.8-8.4c-0.6-0.4-1.1-0.3-1.5,0c-5.5-1.7-11.5-1.1-16.5,1.6
	c-4.2-3.5-10.1-2.9-15.3-2.1c-0.3,0-0.5,0.2-0.7,0.3c-3.7,0-7.3,1.7-9.5,4.7l0,0c-0.4,0.3-0.6,0.7-0.7,1.1c-2,3.4-1.9,7.7-0.2,11.2
	c0.3,0.7,1.1,0.8,1.7,0.6c0.8,0.7,2.5,0.4,2.6-1.1c0.3-4.5,4-8.5,8.5-9.2s9,2.2,10.8,6.3c0.5,1.3,2.4,0.8,2.7-0.4
	c1.1-3.6,5-5.9,8.7-5.9c3.5,0,6.8,2,9.1,4.6c0,0.1,0,0.2,0.1,0.2c0.7,2.1,1.4,4.2,2.1,6.3c0.5,1.4,2.5,1.5,2.9,0
	c0-0.1,0-0.2,0.1-0.3c0.6,1.3,2.6,1.1,2.8-0.6C461.8,267.5,461.1,264.3,459.6,261.6z M435.3,258.1c-0.4,0.2-0.8,0.5-1.3,0.8
	c-0.1,0-0.1-0.1-0.2-0.1c0.3-0.4,0.5-0.8,0.4-1.3c0.1,0.1,0.2,0.2,0.3,0.3C434.7,257.9,435,258,435.3,258.1z"/>
<path class="st0" d="M396.7,240c-1.1-3.3-2.8-6.2-5.8-8.4c-0.6-0.4-1.1-0.3-1.5,0c-5.5-1.7-11.5-1.1-16.5,1.6
	c-4.2-3.5-10.1-2.9-15.3-2.1c-0.3,0-0.5,0.2-0.7,0.3c-3.7,0-7.3,1.7-9.5,4.7l0,0c-0.4,0.3-0.6,0.7-0.7,1.1c-2,3.4-1.9,7.7-0.2,11.2
	c0.3,0.7,1.1,0.8,1.7,0.6c0.8,0.7,2.5,0.4,2.6-1.1c0.3-4.5,4-8.5,8.5-9.2s9,2.2,10.8,6.3c0.5,1.3,2.4,0.8,2.7-0.4
	c1.1-3.6,5-5.9,8.7-5.9c3.5,0,6.8,2,9.1,4.6c0,0.1,0,0.2,0.1,0.2c0.7,2.1,1.4,4.2,2.1,6.3c0.5,1.4,2.5,1.5,2.9,0
	c0-0.1,0-0.2,0.1-0.3c0.6,1.3,2.6,1.1,2.8-0.6C398.8,245.8,398.1,242.7,396.7,240z M372.3,236.4c-0.4,0.2-0.8,0.5-1.3,0.8
	c-0.1,0-0.1-0.1-0.2-0.1c0.3-0.4,0.5-0.8,0.4-1.3c0.1,0.1,0.2,0.2,0.3,0.3C371.8,236.3,372.1,236.4,372.3,236.4z"/>
<path class="st0" d="M334.2,122.7c-1.1-3.3-2.8-6.2-5.8-8.4c-0.6-0.4-1.1-0.3-1.5,0c-5.5-1.7-11.5-1.1-16.5,1.6
	c-4.2-3.5-10.1-2.9-15.3-2.1c-0.3,0-0.5,0.2-0.7,0.3c-3.7,0-7.3,1.7-9.5,4.7l0,0c-0.4,0.3-0.6,0.7-0.7,1.1c-2,3.4-1.9,7.7-0.2,11.2
	c0.3,0.7,1.1,0.8,1.7,0.6c0.8,0.7,2.5,0.4,2.6-1.1c0.3-4.5,4-8.5,8.5-9.2s9,2.2,10.8,6.3c0.5,1.3,2.4,0.8,2.7-0.4
	c1.1-3.6,5-5.9,8.7-5.9c3.5,0,6.8,2,9.1,4.6c0,0.1,0,0.2,0.1,0.2c0.7,2.1,1.4,4.2,2.1,6.3c0.5,1.4,2.5,1.5,2.9,0
	c0-0.1,0-0.2,0.1-0.3c0.6,1.3,2.6,1.1,2.8-0.6C336.3,128.6,335.6,125.5,334.2,122.7z M309.8,119.2c-0.4,0.2-0.8,0.5-1.3,0.8
	c-0.1,0-0.1-0.1-0.2-0.1c0.3-0.4,0.5-0.8,0.4-1.3c0.1,0.1,0.2,0.2,0.3,0.3C309.2,119,309.5,119.2,309.8,119.2z"/>
<path class="st0" d="M271.1,105.1c-1.1-3.3-2.8-6.2-5.8-8.4c-0.6-0.4-1.1-0.3-1.5,0c-5.5-1.7-11.5-1.1-16.5,1.6
	c-4.2-3.5-10.1-2.9-15.3-2.1c-0.3,0-0.5,0.2-0.7,0.3c-3.7,0-7.3,1.7-9.5,4.7l0,0c-0.4,0.3-0.6,0.7-0.7,1.1c-2,3.4-1.9,7.7-0.2,11.2
	c0.3,0.7,1.1,0.8,1.7,0.6c0.8,0.7,2.5,0.4,2.6-1.1c0.3-4.5,4-8.5,8.5-9.2s9,2.2,10.8,6.3c0.5,1.3,2.4,0.8,2.7-0.4
	c1.1-3.6,5-5.9,8.7-5.9c3.5,0,6.8,2,9.1,4.6c0,0.1,0,0.2,0.1,0.2c0.7,2.1,1.4,4.2,2.1,6.3c0.5,1.4,2.5,1.5,2.9,0
	c0-0.1,0-0.2,0.1-0.3c0.6,1.3,2.6,1.1,2.8-0.6C273.2,111,272.5,107.9,271.1,105.1z M246.7,101.6c-0.4,0.2-0.8,0.5-1.3,0.8
	c-0.1,0-0.1-0.1-0.2-0.1c0.3-0.4,0.5-0.8,0.4-1.3c0.1,0.1,0.2,0.2,0.3,0.3C246.2,101.4,246.4,101.5,246.7,101.6z"/>
<sodipodi:namedview  bordercolor="#000000" borderlayer="true" borderopacity="0" id="namedview116" inkscape:current-layer="Layer_1" inkscape:cx="330.08011" inkscape:cy="726.6751" inkscape:deskcolor="#d1d1d1" inkscape:export-bgcolor="#6e6e6e00" inkscape:pagecheckerboard="false" inkscape:pageopacity="0.0" inkscape:showpageshadow="true" inkscape:window-height="819" inkscape:window-maximized="0" inkscape:window-width="1512" inkscape:window-x="0" inkscape:window-y="38" inkscape:zoom="1.2027383" pagecolor="#ffffff" showborder="false">
	</sodipodi:namedview>
<path id="path1" class="st1" d="M297.8,368.2h9.9c0.5,0,1-0.5,1-1V131.8c0-5.5-4.5-10-10-10h-0.9c-5.5,0-10,4.5-10,10v226.4
	C287.8,363.7,292.3,368.2,297.8,368.2z"/>
<path id="path2" class="st1" d="M309.7,368.2h9.9c5.5,0,10-4.5,10-10V131.8c0-5.5-4.5-10-10-10h-0.9c-5.5,0-10,4.5-10,10v235.4
	C308.7,367.8,309.2,368.2,309.7,368.2z"/>
<path id="path3" class="st1" d="M360.5,478.2h9.9c0.5,0,1-0.5,1-1V249.1c0-5.5-4.5-10-10-10h-0.9c-5.5,0-10,4.5-10,10v219.1
	C350.5,473.7,355,478.2,360.5,478.2z"/>
<path id="path4" class="st1" d="M372.5,478.2h9.9c5.5,0,10-4.5,10-10V249.1c0-5.5-4.5-10-10-10h-0.9c-5.5,0-10,4.5-10,10v228.1
	C371.5,477.8,372,478.2,372.5,478.2z"/>
<path id="path5" class="st1" d="M421.3,391.6h11.9c0.5,0,1-0.5,1-1V270.7c0-5.5-4.5-10-10-10h-0.9c-5.5,0-10,4.5-10,10v112.9
	C413.3,388.1,416.9,391.6,421.3,391.6z"/>
<path id="path6" class="st1" d="M442.2,391.6h2.9c5.5,0,10-4.5,10-10V270.7c0-5.5-4.5-10-10-10h-0.9c-5.5,0-10,4.5-10,10v112.9
	C434.2,392.9,433.2,391.9,442.2,391.6z"/>
<path id="path9" class="st1" d="M548.9,474h9.9c0.5,0,1-0.5,1-1V322.5c0-5.5-4.5-10-10-10h-0.9c-5.5,0-10,4.5-10,10V464
	C538.9,469.5,543.4,474,548.9,474z"/>
<path id="path10" class="st1" d="M560.8,474h9.9c5.5,0,10-4.5,10-10V322.5c0-5.5-4.5-10-10-10h-0.9c-5.5,0-10,4.5-10,10V473
	C559.8,473.5,560.2,474,560.8,474z"/>
<path id="path11" class="st1" d="M611.7,496.8h9.9c0.5,0,1-0.5,1-1V353.1c0-5.5-4.5-10-10-10h-0.9c-5.5,0-10,4.5-10,10v133.7
	C601.7,492.3,606.2,496.8,611.7,496.8z"/>
<path id="path12" class="st1" d="M623.6,496.8h9.9c5.5,0,10-4.5,10-10V353.1c0-5.5-4.5-10-10-10h-0.9c-5.5,0-10,4.5-10,10v142.7
	C622.6,496.3,623,496.8,623.6,496.8z"/>
<path id="path13" class="st1" d="M674.4,492.1h9.9c0.5,0,1-0.5,1-1v-100c0-5.5-4.5-10-10-10h-0.9c-5.5,0-10,4.5-10,10v91
	C664.4,487.6,668.9,492.1,674.4,492.1z"/>
<path id="path14" class="st1" d="M686.3,492.1h9.9c5.5,0,10-4.5,10-10v-91c0-5.5-4.5-10-10-10h-0.9c-5.5,0-10,4.5-10,10v100
	C685.3,491.6,685.8,492.1,686.3,492.1z"/>
<path id="path15" class="st1" d="M737.1,519.9h9.9c0.5,0,1-0.5,1-1V409.1c0-5.5-4.5-10-10-10h-0.9c-5.5,0-10,4.5-10,10v100.8
	C727.1,515.4,731.6,519.9,737.1,519.9z"/>
<path id="path16" class="st1" d="M749,519.9h9.9c5.5,0,10-4.5,10-10V409.1c0-5.5-4.5-10-10-10H758c-5.5,0-10,4.5-10,10v109.8
	C748,519.5,748.5,519.9,749,519.9z"/>
<path id="path17" class="st1" d="M798.1,505.6H811v-85.3c0-5.5-4.5-10-10-10h-0.9c-5.5,0-10,4.5-10,10v77.3
	C790.8,500.6,794.3,504.7,798.1,505.6z"/>
<path id="path18" class="st1" d="M811,505.6h10.9c5.5,0,10-4.5,10-10v-75.3c0-5.5-4.5-10-10-10H821c-5.5,0-10,4.5-10,10V505.6z"/>
<path id="path19" class="st1" d="M862.8,538.3h10.9V418c0-5.5-4.5-10-10-10h-0.9c-5.5,0-10,4.5-10,10v110.3
	C852.8,533.8,857.3,538.3,862.8,538.3z"/>
<path id="path20" class="st1" d="M873.7,538.3h10.9c5.5,0,10-4.5,10-10V418c0-5.5-4.5-10-10-10h-0.9c-5.5,0-10,4.5-10,10V538.3z"/>
<path id="path21" class="st1" d="M925.5,494.6h9.9c0.6,0,1-0.4,1-1v-70.8c0-5.5-4.5-10-10-10h-0.9c-5.5,0-10,4.5-10,10v61.8
	C915.5,490.1,920,494.6,925.5,494.6z"/>
<path id="path22" class="st1" d="M937.5,494.6h9.9c5.5,0,10-4.5,10-10v-61.8c0-5.5-4.5-10-10-10h-0.9c-5.5,0-10,4.5-10,10v70.8
	C936.5,494.2,936.9,494.6,937.5,494.6z"/>
<path id="path23" class="st1" d="M1176.1,599.1h10.9v-61.5c0-5.5-4.5-10-10-10h-0.9c-5.5,0-10,4.5-10,10v51.5
	C1166.1,594.6,1170.6,599.1,1176.1,599.1z"/>
<path id="path24" class="st1" d="M1187.1,599.1h10.9c5.5,0,10-4.5,10-10v-51.5c0-5.5-4.5-10-10-10h-0.9c-5.5,0-10,4.5-10,10V599.1z"
	/>
<path id="path25" class="st1" d="M1239.4,592.8h10.9v-36.3c0-5.5-4.5-10-10-10h-0.9c-5.5,0-10,4.5-10,10v26.3
	C1229.4,588.3,1233.9,592.8,1239.4,592.8z"/>
<path id="path26" class="st1" d="M1250.3,592.8h10.9c5.5,0,10-4.5,10-10v-26.3c0-5.5-4.5-10-10-10h-0.9c-5.5,0-10,4.5-10,10V592.8z"
	/>
<path id="path27" class="st1" d="M1302.2,585.7h10.9v-21.5c0-5.5-4.5-10-10-10h-0.9c-5.5,0-10,4.5-10,10v11.5
	C1292.2,581.2,1296.7,585.7,1302.2,585.7z"/>
<path id="path28" class="st1" d="M1313.1,585.7h10.9c5.5,0,10-4.5,10-10v-11.5c0-5.5-4.5-10-10-10h-0.9c-5.5,0-10,4.5-10,10V585.7z"
	/>
<path id="path29" class="st1" d="M1364.9,676.6h10.9v-54.3c0-5.5-4.5-10-10-10h-0.9c-5.5,0-10,4.5-10,10v44.3
	C1354.9,672.1,1359.4,676.6,1364.9,676.6z"/>
<path id="path30" class="st1" d="M1375.9,676.6h10.9c5.5,0,10-4.5,10-10v-44.3c0-5.5-4.5-10-10-10h-0.9c-5.5,0-10,4.5-10,10V676.6z"
	/>
<path id="path31" class="st1" d="M1427.7,673.2h10.9v-66.5c0-5.5-4.5-10-10-10h-0.9c-5.5,0-10,4.5-10,10v56.5
	C1417.7,668.7,1422.2,673.2,1427.7,673.2z"/>
<path id="path32" class="st1" d="M1438.7,673.2h10.9c5.5,0,10-4.5,10-10v-56.5c0-5.5-4.5-10-10-10h-0.9c-5.5,0-10,4.5-10,10V673.2z"
	/>
<path id="path33" class="st1" d="M1490.5,669.1h10.9v-15c0-5.5-4.5-10-10-10h-0.9c-5.5,0-10,4.5-10,10v5
	C1480.5,664.6,1485,669.1,1490.5,669.1z"/>
<path id="path34" class="st1" d="M1501.4,669.1h10.9c5.5,0,10-4.5,10-10v-5c0-5.5-4.5-10-10-10h-0.9c-5.5,0-10,4.5-10,10V669.1z"/>
<path id="path35" class="st1" d="M1553.3,666.6h10.9v-23.4c0-5.5-4.5-10-10-10h-0.9c-5.5,0-10,4.5-10,10v13.4
	C1543.3,662.1,1547.8,666.6,1553.3,666.6z"/>
<path id="path36" class="st1" d="M1564.2,666.6h10.9c5.5,0,10-4.5,10-10v-13.4c0-5.5-4.5-10-10-10h-0.9c-5.5,0-10,4.5-10,10V666.6z"
	/>
<path id="path57" class="st1" d="M297.8,767.7h0.9c5.5,0,10-4.5,10-10v-388c0-0.5-0.5-1-1-1h-9.9c-5.5,0-10,4.5-10,10v379
	C287.8,763.3,292.3,767.7,297.8,767.7z"/>
<path id="path58" class="st1" d="M318.7,767.7h0.9c5.5,0,10-4.5,10-10v-379c0-5.5-4.5-10-10-10h-9.9c-0.5,0-1,0.5-1,1v388
	C308.7,763.3,313.2,767.7,318.7,767.7z"/>
<g id="g59">
	<path id="path59" class="st1" d="M1543.3,759c0,5.5,4.5,10,10,10h0.9c5.5,0,10-4.5,10-10v-91c0-0.5-0.4-1-1-1h-9.9
		c-5.5,0-10,4.5-10,10V759z"/>
</g>
<g id="g60">
	<path id="path60" class="st1" d="M1564.2,759c0,5.5,4.5,10,10,10h0.9c5.5,0,10-4.5,10-10v-82c0-5.5-4.5-10-10-10h-9.9
		c-0.6,0-1,0.5-1,1V759z"/>
</g>
<g id="g61">
	<path id="path61" class="st1" d="M1480.5,759c0,5.5,4.5,10,10,10h0.9c5.5,0,10-4.5,10-10v-88.8c0-0.5-0.4-1-1-1h-9.9
		c-5.5,0-10,4.5-10,10V759z"/>
</g>
<g id="g62">
	<path id="path62" class="st1" d="M1501.4,759c0,5.5,4.5,10,10,10h0.9c5.5,0,10-4.5,10-10v-79.8c0-5.5-4.5-10-10-10h-9.9
		c-0.6,0-1,0.5-1,1V759z"/>
</g>
<g id="g63">
	<path id="path63" class="st1" d="M1417.8,759c0,5.5,4.5,10,10,10h0.9c5.5,0,10-4.5,10-10v-84.8c0-0.5-0.4-1-1-1h-9.9
		c-5.5,0-10,4.5-10,10V759z"/>
</g>
<g id="g64">
	<path id="path64" class="st2" d="M1438.8,759c0,5.5,4.5,10,10,10h0.9c5.5,0,10-4.5,10-10v-75.8c0-5.5-4.5-10-10-10h-9.9
		c-0.6,0-1,0.5-1,1V759z"/>
</g>
<g id="g66">
	<path id="path65" class="st2" d="M1355,759c0,5.5,4.5,10,10,10h0.9c5.5,0,10-4.5,10-10v-81.6c0-0.5-0.4-1-1-1h-9.9
		c-5.5,0-10,4.5-10,10V759z"/>
	<path id="path66" class="st1" d="M1355,759c0,5.5,4.5,10,10,10h0.9c5.5,0,10-4.5,10-10v-81.6c0-0.5-0.4-1-1-1h-9.9
		c-5.5,0-10,4.5-10,10V759z"/>
</g>
<g id="g68">
	<path id="path67" class="st2" d="M1376,759c0,5.5,4.5,10,10,10h0.9c5.5,0,10-4.5,10-10v-72.6c0-5.5-4.5-10-10-10h-9.9
		c-0.6,0-1,0.5-1,1V759z"/>
	<path id="path68" class="st1" d="M1376,759c0,5.5,4.5,10,10,10h0.9c5.5,0,10-4.5,10-10v-72.6c0-5.5-4.5-10-10-10h-9.9
		c-0.6,0-1,0.5-1,1V759z"/>
</g>
<g id="g69">
	<path id="path69" class="st2" d="M1292,759c0,5.5,4.5,10,10,10h0.9c5.5,0,10-4.5,10-10V586.9c0-0.5-0.4-1-1-1h-9.9
		c-5.5,0-10,4.5-10,10V759z"/>
</g>
<g id="g70">
	<path id="path70" class="st2" d="M1312.9,759c0,5.5,4.5,10,10,10h0.9c5.5,0,10-4.5,10-10V595.9c0-5.5-4.5-10-10-10h-9.9
		c-0.6,0-1,0.5-1,1V759z"/>
</g>
<g id="g71">
	<path id="path71" class="st2" d="M1229.4,759c0,5.5,4.5,10,10,10h0.9c5.5,0,10-4.5,10-10V594c0-0.5-0.4-1-1-1h-9.9
		c-5.5,0-10,4.5-10,10V759z"/>
</g>
<g id="g72">
	<path id="path72" class="st2" d="M1250.3,759c0,5.5,4.5,10,10,10h0.9c5.5,0,10-4.5,10-10V603c0-5.5-4.5-10-10-10h-9.9
		c-0.6,0-1,0.5-1,1V759z"/>
</g>
<g id="g73">
	<path id="path73" class="st1" d="M1166.1,759c0,5.5,4.5,10,10,10h0.9c5.5,0,10-4.5,10-10V600.3c0-0.5-0.4-1-1-1h-9.9
		c-5.5,0-10,4.5-10,10V759z"/>
</g>
<g id="g74">
	<path id="path74" class="st2" d="M1187.1,759c0,5.5,4.5,10,10,10h0.9c5.5,0,10-4.5,10-10V609.3c0-5.5-4.5-10-10-10h-9.9
		c-0.6,0-1,0.5-1,1V759z"/>
</g>
<g id="g76">
	<path id="path75" class="st2" d="M915.5,759c0,5.5,4.5,10,10,10h0.9c5.5,0,10-4.5,10-10V495.7c0-0.6-0.4-1-1-1h-9.9
		c-5.5,0-10,4.5-10,10V759z"/>
	<path id="path76" class="st1" d="M915.5,759c0,5.5,4.5,10,10,10h0.9c5.5,0,10-4.5,10-10V495.7c0-0.6-0.4-1-1-1h-9.9
		c-5.5,0-10,4.5-10,10V759z"/>
</g>
<g id="g78">
	<path id="path77" class="st2" d="M936.5,759c0,5.5,4.5,10,10,10h0.9c5.5,0,10-4.5,10-10V504.7c0-5.5-4.5-10-10-10h-10.8
		c-0.1,0-0.1,0-0.1,0.1L936.5,759L936.5,759z"/>
	<path id="path78" class="st1" d="M936.5,759c0,5.5,4.5,10,10,10h0.9c5.5,0,10-4.5,10-10V504.7c0-5.5-4.5-10-10-10h-10.8
		c-0.1,0-0.1,0-0.1,0.1L936.5,759L936.5,759z"/>
</g>
<path id="path79" class="st2" d="M852.8,759c0,5.5,4.5,10,10,10h0.9c5.5,0,10-4.5,10-10V539.1c0-0.2-0.2-0.4-0.4-0.4h-10.5
	c-5.5,0-10,4.5-10,10V759z"/>
<path id="path80" class="st1" d="M852.8,759c0,5.5,4.5,10,10,10h0.9c5.5,0,10-4.5,10-10V539.1c0-0.2-0.2-0.4-0.4-0.4h-10.5
	c-5.5,0-10,4.5-10,10V759z"/>
<g id="g82">
	<path id="path81" class="st2" d="M873.7,759c0,5.5,4.5,10,10,10h0.9c5.5,0,10-4.5,10-10V548.7c0-5.5-4.5-10-10-10h-10
		c-0.5,0-0.9,0.4-0.9,0.9V759z"/>
	<path id="path82" class="st1" d="M873.7,759c0,5.5,4.5,10,10,10h0.9c5.5,0,10-4.5,10-10V548.7c0-5.5-4.5-10-10-10h-10
		c-0.5,0-0.9,0.4-0.9,0.9V759z"/>
</g>
<g id="g84">
	<path id="path83" class="st2" d="M790.1,759c0,5.5,4.5,10,10,10h0.9c5.5,0,10-4.5,10-10V506.7c0-0.1-0.1-0.1-0.1-0.1h-10.8
		c-5.5,0-10,4.5-10,10L790.1,759L790.1,759z"/>
	<path id="path84" class="st1" d="M790.1,759c0,5.5,4.5,10,10,10h0.9c5.5,0,10-4.5,10-10V506.7c0-0.1-0.1-0.1-0.1-0.1h-10.8
		c-5.5,0-10,4.5-10,10L790.1,759L790.1,759z"/>
</g>
<g id="g86">
	<path id="path85" class="st2" d="M811,759c0,5.5,4.5,10,10,10h0.9c5.5,0,10-4.5,10-10V516.6c0-5.5-4.5-10-10-10h-10.8
		c-0.1,0-0.1,0-0.1,0.1L811,759L811,759z"/>
	<path id="path86" class="st1" d="M811,759c0,5.5,4.5,10,10,10h0.9c5.5,0,10-4.5,10-10V516.6c0-5.5-4.5-10-10-10h-10.8
		c-0.1,0-0.1,0-0.1,0.1L811,759L811,759z"/>
</g>
<g id="g87">
	<path id="path87" class="st2" d="M727.1,759c0,5.5,4.5,10,10,10h0.9c5.5,0,10-4.5,10-10V521.4c0-0.5-0.5-1-1-1h-9.9
		c-5.5,0-10,4.5-10,10V759z"/>
</g>
<g id="g88">
	<path id="path88" class="st1" d="M748,759c0,5.5,4.5,10,10,10h0.9c5.5,0,10-4.5,10-10V530.4c0-5.5-4.5-10-10-10H749
		c-0.5,0-1,0.5-1,1V759z"/>
</g>
<g id="g89">
	<path id="path89" class="st2" d="M664.4,759c0,5.5,4.5,10,10,10h0.9c5.5,0,10-4.5,10-10V493.2c0-0.5-0.5-1-1-1h-9.9
		c-5.5,0-10,4.5-10,10V759z"/>
</g>
<g id="g90">
	<path id="path90" class="st2" d="M685.3,759c0,5.5,4.5,10,10,10h0.9c5.5,0,10-4.5,10-10V502.2c0-5.5-4.5-10-10-10h-9.9
		c-0.5,0-1,0.5-1,1V759z"/>
</g>
<g id="g91">
	<path id="path91" class="st2" d="M601.7,759c0,5.5,4.5,10,10,10h0.9c5.5,0,10-4.5,10-10V498.1c0-0.5-0.5-1-1-1h-9.9
		c-5.5,0-10,4.5-10,10V759z"/>
</g>
<g id="g92">
	<path id="path92" class="st2" d="M622.6,759c0,5.5,4.5,10,10,10h0.9c5.5,0,10-4.5,10-10V507.1c0-5.5-4.5-10-10-10h-9.9
		c-0.5,0-1,0.5-1,1V759z"/>
</g>
<g id="g93">
	<path id="path93" class="st2" d="M549.4,768.6L549.4,768.6c5.8,0,10.5-4.7,10.5-10.5v-283c0-0.5-0.5-1-1-1H549c-5.5,0-10,4.5-10,10
		v274C538.9,763.9,543.6,768.6,549.4,768.6z"/>
</g>
<g id="g94">
	<path id="path94" class="st2" d="M559.8,758.6c0,5.5,4.5,10,10,10h0.9c5.5,0,10-4.5,10-10V484.1c0-5.5-4.5-10-10-10h-9.9
		c-0.5,0-1,0.5-1,1V758.6z"/>
</g>
<path id="path95" class="st1" d="M413.3,757.7c0,5.5,4.5,10,10,10h0.9c5.5,0,10-4.5,10-10V392.9c0-0.5-0.5-1-1-1h-11.9
	c-4.4,0-8,3.6-8,8V757.7z"/>
<path id="path96" class="st1" d="M434.2,757.7c0,5.5,4.5,10,10,10h0.9c5.5,0,10-4.5,10-10V399.9c0-4.4-3.6-8-8-8h-11.9
	c-0.5,0-1,0.5-1,1V757.7z"/>
<path id="path97" class="st1" d="M350.5,757.7c0,5.5,4.5,10,10,10h0.9c5.5,0,10-4.5,10-10V479.5c0-0.5-0.5-1-1-1h-11.9
	c-4.4,0-8,3.6-8,8V757.7z"/>
<path id="path98" class="st1" d="M371.5,757.7c0,5.5,4.5,10,10,10h0.9c5.5,0,10-4.5,10-10V486.5c0-4.4-3.6-8-8-8h-11.9
	c-0.5,0-1,0.5-1,1V757.7z"/>
<path id="path99" class="st1" d="M234.8,403.4h9.9c0.6,0,1-0.5,1-1.2V115.9c0-6.7-4.5-12.2-10-12.2h-0.9c-5.5,0-10,5.5-10,12.2
	v275.3C224.8,397.9,229.3,403.4,234.8,403.4z"/>
<path id="path100" class="st1" d="M246.7,403.4h9.9c5.5,0,10-5.5,10-12.2V115.9c0-6.7-4.5-12.2-10-12.2h-0.9c-5.5,0-10,5.5-10,12.2
	v286.3C245.7,402.8,246.1,403.4,246.7,403.4z"/>
<g id="g105">
	<path id="path105" class="st1" d="M999,759c0,5.5-4.5,10-10,10h-0.9c-5.5,0-10-4.5-10-10V522.9c0-5.5,4.5-10,10-10h9.9
		c0.6,0,1,0.4,1,1V759z"/>
</g>
<g id="g106">
	<path id="path106" class="st1" d="M1019.9,759c0,5.5-4.5,10-10,10h-0.9c-5.5,0-10-4.5-10-10V513.9c0-0.6,0.4-1,1-1h9.9
		c5.5,0,10,4.5,10,10V759z"/>
</g>
<g id="g107">
	<path id="path107" class="st1" d="M1062,759c0,5.5-4.5,10-10,10h-0.9c-5.5,0-10-4.5-10-10V541.5c0-5.5,4.5-10,10-10h9.9
		c0.6,0,1,0.4,1,1V759z"/>
</g>
<g id="g108">
	<path id="path108" class="st1" d="M1082.9,759c0,5.5-4.5,10-10,10h-0.9c-5.5,0-10-4.5-10-10V532.5c0-0.6,0.4-1,1-1h9.9
		c5.5,0,10,4.5,10,10V759z"/>
</g>
<g id="g109">
	<path id="path109" class="st1" d="M1125.1,759c0,5.5-4.5,10-10,10h-0.9c-5.5,0-10-4.5-10-10V555.9c0-5.5,4.5-10,10-10h9.9
		c0.6,0,1,0.4,1,1V759z"/>
</g>
<g id="g110">
	<path id="path110" class="st1" d="M1146,759c0,5.5-4.5,10-10,10h-0.9c-5.5,0-10-4.5-10-10V546.9c0-0.6,0.4-1,1-1h9.9
		c5.5,0,10,4.5,10,10V759z"/>
</g>
<g id="g111">
	<path id="path111" class="st1" d="M998,512.9h-9.9c-5.5,0-10-4.5-10-10v-29.6c0-5.5,4.5-10,10-10h0.9c5.5,0,10,4.5,10,10v38.6
		C999,512.5,998.6,512.9,998,512.9z"/>
</g>
<g id="g112">
	<path id="path112" class="st1" d="M1019.9,502.9c0,5.5-4.5,10-10,10h-9.9c-0.6,0-1-0.4-1-1v-38.6c0-5.5,4.5-10,10-10h0.9
		c5.5,0,10,4.5,10,10V502.9z"/>
</g>
<g id="g113">
	<path id="path113" class="st1" d="M1061,531.5h-9.9c-5.5,0-10-4.5-10-10v-28.6c0-5.5,4.5-10,10-10h0.9c5.5,0,10,4.5,10,10v37.6
		C1062,531,1061.6,531.5,1061,531.5z"/>
</g>
<g id="g114">
	<path id="path114" class="st1" d="M1082.9,521.5c0,5.5-4.5,10-10,10h-9.9c-0.6,0-1-0.4-1-1v-37.6c0-5.5,4.5-10,10-10h0.9
		c5.5,0,10,4.5,10,10V521.5z"/>
</g>
<g id="g115">
	<path id="path115" class="st1" d="M1124.1,545.9h-9.9c-5.5,0-10-4.5-10-10v-29.5c0-5.5,4.5-10,10-10h0.9c5.5,0,10,4.5,10,10v38.5
		C1125.1,545.4,1124.7,545.9,1124.1,545.9z"/>
</g>
<g id="g116">
	<path id="path116" class="st1" d="M1146,535.9c0,5.5-4.5,10-10,10h-9.9c-0.6,0-1-0.4-1-1v-38.5c0-5.5,4.5-10,10-10h0.9
		c5.5,0,10,4.5,10,10V535.9z"/>
</g>
<path id="path147" class="st0" d="M0,0"/>
<text id="text1" transform="matrix(1 0 0 1 224.2559 792.5876)" class="st3 st4">CHR1</text>
<text id="text2" transform="matrix(1 0 0 1 287.8 792.8873)" class="st3 st4">CHR2</text>
<text id="text3" transform="matrix(1 0 0 1 350.5001 792.5878)" class="st3 st4">CHR3</text>
<text id="text4" transform="matrix(1 0 0 1 412.8764 792.4379)" class="st3 st4">CHR4</text>
<text id="text5" transform="matrix(1 0 0 1 476.4206 792.7375)" class="st3 st4">CHR5</text>
<text id="text6" transform="matrix(1 0 0 1 539.1206 792.4379)" class="st3 st4">CHR6</text>
<text id="text7" transform="matrix(1 0 0 1 601.0088 791.9212)" class="st3 st4">CHR7</text>
<text id="text8" transform="matrix(1 0 0 1 664.553 792.2209)" class="st3 st4">CHR8</text>
<text id="text9" transform="matrix(1 0 0 1 727.253 791.9213)" class="st3 st4">CHR9</text>
<text id="text10" transform="matrix(1 0 0 1 785.8123 792.6965)" class="st3 st4">CHR10</text>
<text id="text11" transform="matrix(1 0 0 1 850.1735 793.071)" class="st3 st4">CHR11</text>
<text id="text12" transform="matrix(1 0 0 1 910.8735 792.7715)" class="st3 st4">CHR12</text>
<text id="text13" transform="matrix(1 0 0 1 974.7188 792.0302)" class="st3 st4">CHR13</text>
<text id="text14" transform="matrix(1 0 0 1 1039.0801 792.4048)" class="st3 st4">CHR14</text>
<text id="text15" transform="matrix(1 0 0 1 1099.78 792.1052)" class="st3 st4">CHR15</text>
<text id="text16" transform="matrix(1 0 0 1 1161.9855 791.7998)" class="st3 st4">CHR16</text>
<text id="text17" transform="matrix(1 0 0 1 1225.3467 792.1744)" class="st3 st4">CHR17</text>
<text id="text18" transform="matrix(1 0 0 1 1289.0468 791.8748)" class="st3 st4">CHR18</text>
<text id="text19" transform="matrix(1 0 0 1 1351.8921 791.1335)" class="st3 st4">CHR19</text>
<text id="text20" transform="matrix(1 0 0 1 1414.2533 791.5081)" class="st3 st4">CHR20</text>
<text id="text21" transform="matrix(1 0 0 1 1477.9534 791.2086)" class="st3 st4">CHR21</text>
<text id="text22" transform="matrix(1 0 0 1 1539.4006 791.1338)" class="st3 st4">CHR22</text>
<path id="path172" class="st0" d="M0,0"/>
<path id="path137" class="st5" d="M224.3,725.9c0-19.3,0-27.1,0-17.5s0,25.4,0,35S224.3,745.2,224.3,725.9z"/>
<path id="path138" class="st5" d="M224.3,725.9c0-19.3,0-27.1,0-17.5s0,25.4,0,35S224.3,745.2,224.3,725.9z"/>
<path id="path139" class="st5" d="M224.3,725.9c0-19.3,0-27.1,0-17.5s0,25.4,0,35S224.3,745.2,224.3,725.9z"/>
<g>
	<path class="st1" d="M518,399.7c0,5.5-4.5,10-10,10h-10c-0.6,0-1-0.4-1-1V293.2c0-5.5,4.5-10,10-10h1c5.5,0,10,4.5,10,10V399.7z"/>
</g>
<g>
	<path class="st1" d="M496,409.7h-10c-5.5,0-10-4.5-10-10V293.2c0-5.5,4.5-10,10-10h1c5.5,0,10,4.5,10,10v115.5
		C497,409.2,496.5,409.7,496,409.7z"/>
</g>
<g>
	<path class="st1" d="M518,757.7c0,5.5-4.5,10-10,10h-1c-5.5,0-10-4.5-10-10v-347c0-0.6,0.4-1,1-1h10c5.5,0,10,4.5,10,10V757.7z"/>
</g>
<g>
	<path class="st1" d="M497,757.7c0,5.5-4.5,10-10,10h-1c-5.5,0-10-4.5-10-10v-338c0-5.5,4.5-10,10-10h10c0.6,0,1,0.4,1,1V757.7z"/>
</g>
<g>
	<path class="st1" d="M266.7,757.7c0,5.5-4.5,10-10,10h-1c-5.5,0-10-4.5-10-10V404.4c0-0.6,0.4-1,1-1h10c5.5,0,10,4.5,10,10V757.7z"
		/>
</g>
<g>
	<path class="st1" d="M245.6,757.7c0,5.5-4.5,10-10,10h-1c-5.5,0-10-4.5-10-10V413.4c0-5.5,4.5-10,10-10h10c0.6,0,1,0.4,1,1V757.7z"
		/>
</g>
</svg>
