<?xml version="1.0" encoding="utf-8"?>
<!-- Generator: Adobe Illustrator 28.0.0, SVG Export Plug-In . SVG Version: 6.00 Build 0)  -->
<svg version="1.1"
	 id="Layer_1" xmlns:svg="http://www.w3.org/2000/svg" xmlns:inkscape="http://www.inkscape.org/namespaces/inkscape" xmlns:sodipodi="http://sodipodi.sourceforge.net/DTD/sodipodi-0.dtd" inkscape:version="1.3.2 (091e20e, 2023-11-25)" sodipodi:docname="hg38_2_2.svg"
	 xmlns="http://www.w3.org/2000/svg" xmlns:xlink="http://www.w3.org/1999/xlink" x="0px" y="0px" viewBox="0 0 1800 864"
	 style="enable-background:new 0 0 1800 864;" xml:space="preserve">
<style type="text/css">
	.st0{fill:none;stroke:#000000;}
	.st1{fill:#010101;}
	.st2{font-family:'Helvetica';}
	.st3{font-size:15px;}
	.st4{fill:none;stroke:#000000;stroke-miterlimit:10;}
	.st5{fill:#FFFFFF;}
	.st6{fill:#FFFFFF;enable-background:new    ;}
	.st7{font-family:'Helvetica-Bold';}
</style>
<sodipodi:namedview  bordercolor="#000000" borderopacity="0.25" id="namedview116" inkscape:current-layer="Layer_1" inkscape:cx="260.63241" inkscape:cy="777.94734" inkscape:deskcolor="#d1d1d1" inkscape:pagecheckerboard="0" inkscape:pageopacity="0.0" inkscape:showpageshadow="2" inkscape:window-height="819" inkscape:window-maximized="0" inkscape:window-width="1512" inkscape:window-x="1" inkscape:window-y="38" inkscape:zoom="16.709357" pagecolor="#ffffff">
	</sodipodi:namedview>
<path id="path1" class="st0" d="M297.8,368.2h9.9c0.5,0,1-0.5,1-1V131.8c0-5.5-4.5-10-10-10h-0.9c-5.5,0-10,4.5-10,10v226.4
	C287.8,363.7,292.3,368.2,297.8,368.2z"/>
<path id="path2" class="st0" d="M309.7,368.2h9.9c5.5,0,10-4.5,10-10V131.8c0-5.5-4.5-10-10-10h-0.9c-5.5,0-10,4.5-10,10v235.4
	C308.7,367.8,309.2,368.2,309.7,368.2z"/>
<path id="path3" class="st0" d="M360.5,478.2h9.9c0.5,0,1-0.5,1-1V249.1c0-5.5-4.5-10-10-10h-0.9c-5.5,0-10,4.5-10,10v219.1
	C350.5,473.7,355,478.2,360.5,478.2z"/>
<path id="path4" class="st0" d="M372.5,478.2h9.9c5.5,0,10-4.5,10-10V249.1c0-5.5-4.5-10-10-10h-0.9c-5.5,0-10,4.5-10,10v228.1
	C371.5,477.8,372,478.2,372.5,478.2z"/>
<path id="path5" class="st0" d="M421.3,391.6h11.9c0.5,0,1-0.5,1-1V270.7c0-5.5-4.5-10-10-10h-0.9c-5.5,0-10,4.5-10,10v112.9
	C413.3,388.1,416.9,391.6,421.3,391.6z"/>
<path id="path6" class="st0" d="M442.2,391.6h2.9c5.5,0,10-4.5,10-10V270.7c0-5.5-4.5-10-10-10h-0.9c-5.5,0-10,4.5-10,10v112.9
	C434.2,392.9,433.2,391.9,442.2,391.6z"/>
<path id="path7" class="st0" d="M486,409.7h9.9c0.5,0,1-0.5,1-1V293.8c0-5.5-4.5-10-10-10H486c-5.5,0-10,4.5-10,10v105.9
	C476,405.2,480.5,409.7,486,409.7z"/>
<path id="path8" class="st0" d="M505,410.4h3c5.5,0,10-4.5,10-10V294.5c0-5.5-4.5-10-10-10h-1c-5.5,0-10,4.5-10,10v107.9
	C496.8,414.2,497,410.4,505,410.4z"/>
<path id="path9" class="st0" d="M548.9,474h9.9c0.5,0,1-0.5,1-1V322.5c0-5.5-4.5-10-10-10h-0.9c-5.5,0-10,4.5-10,10V464
	C538.9,469.5,543.4,474,548.9,474z"/>
<path id="path10" class="st0" d="M560.8,474h9.9c5.5,0,10-4.5,10-10V322.5c0-5.5-4.5-10-10-10h-0.9c-5.5,0-10,4.5-10,10V473
	C559.8,473.5,560.2,474,560.8,474z"/>
<path id="path11" class="st0" d="M611.7,496.8h9.9c0.5,0,1-0.5,1-1V353.1c0-5.5-4.5-10-10-10h-0.9c-5.5,0-10,4.5-10,10v133.7
	C601.7,492.3,606.2,496.8,611.7,496.8z"/>
<path id="path12" class="st0" d="M623.6,496.8h9.9c5.5,0,10-4.5,10-10V353.1c0-5.5-4.5-10-10-10h-0.9c-5.5,0-10,4.5-10,10v142.7
	C622.6,496.3,623,496.8,623.6,496.8z"/>
<path id="path13" class="st0" d="M674.4,492.1h9.9c0.5,0,1-0.5,1-1v-100c0-5.5-4.5-10-10-10h-0.9c-5.5,0-10,4.5-10,10v91
	C664.4,487.6,668.9,492.1,674.4,492.1z"/>
<path id="path14" class="st0" d="M686.3,492.1h9.9c5.5,0,10-4.5,10-10v-91c0-5.5-4.5-10-10-10h-0.9c-5.5,0-10,4.5-10,10v100
	C685.3,491.6,685.8,492.1,686.3,492.1z"/>
<path id="path15" class="st0" d="M737.1,519.9h9.9c0.5,0,1-0.5,1-1V409.1c0-5.5-4.5-10-10-10h-0.9c-5.5,0-10,4.5-10,10v100.8
	C727.1,515.4,731.6,519.9,737.1,519.9z"/>
<path id="path16" class="st0" d="M749,519.9h9.9c5.5,0,10-4.5,10-10V409.1c0-5.5-4.5-10-10-10H758c-5.5,0-10,4.5-10,10v109.8
	C748,519.5,748.5,519.9,749,519.9z"/>
<path id="path17" class="st0" d="M798.1,505.6H811v-85.3c0-5.5-4.5-10-10-10h-0.9c-5.5,0-10,4.5-10,10v77.3
	C790.8,500.6,794.3,504.7,798.1,505.6z"/>
<path id="path18" class="st0" d="M811,505.6h10.9c5.5,0,10-4.5,10-10v-75.3c0-5.5-4.5-10-10-10H821c-5.5,0-10,4.5-10,10V505.6z"/>
<path id="path19" class="st0" d="M862.8,538.3h10.9V418c0-5.5-4.5-10-10-10h-0.9c-5.5,0-10,4.5-10,10v110.3
	C852.8,533.8,857.3,538.3,862.8,538.3z"/>
<path id="path20" class="st0" d="M873.7,538.3h10.9c5.5,0,10-4.5,10-10V418c0-5.5-4.5-10-10-10h-0.9c-5.5,0-10,4.5-10,10V538.3z"/>
<path id="path21" class="st0" d="M925.5,494.6h9.9c0.6,0,1-0.4,1-1v-70.8c0-5.5-4.5-10-10-10h-0.9c-5.5,0-10,4.5-10,10v61.8
	C915.5,490.1,920,494.6,925.5,494.6z"/>
<path id="path22" class="st0" d="M937.5,494.6h9.9c5.5,0,10-4.5,10-10v-61.8c0-5.5-4.5-10-10-10h-0.9c-5.5,0-10,4.5-10,10v70.8
	C936.5,494.2,936.9,494.6,937.5,494.6z"/>
<path id="path23" class="st0" d="M1176.1,599.1h10.9v-61.5c0-5.5-4.5-10-10-10h-0.9c-5.5,0-10,4.5-10,10v51.5
	C1166.1,594.6,1170.6,599.1,1176.1,599.1z"/>
<path id="path24" class="st0" d="M1187.1,599.1h10.9c5.5,0,10-4.5,10-10v-51.5c0-5.5-4.5-10-10-10h-0.9c-5.5,0-10,4.5-10,10V599.1z"
	/>
<path id="path25" class="st0" d="M1239.4,592.8h10.9v-36.3c0-5.5-4.5-10-10-10h-0.9c-5.5,0-10,4.5-10,10v26.3
	C1229.4,588.3,1233.9,592.8,1239.4,592.8z"/>
<path id="path26" class="st0" d="M1250.3,592.8h10.9c5.5,0,10-4.5,10-10v-26.3c0-5.5-4.5-10-10-10h-0.9c-5.5,0-10,4.5-10,10V592.8z"
	/>
<path id="path27" class="st0" d="M1302.2,585.7h10.9v-21.5c0-5.5-4.5-10-10-10h-0.9c-5.5,0-10,4.5-10,10v11.5
	C1292.2,581.2,1296.7,585.7,1302.2,585.7z"/>
<path id="path28" class="st0" d="M1313.1,585.7h10.9c5.5,0,10-4.5,10-10v-11.5c0-5.5-4.5-10-10-10h-0.9c-5.5,0-10,4.5-10,10V585.7z"
	/>
<path id="path29" class="st0" d="M1364.9,676.6h10.9v-54.3c0-5.5-4.5-10-10-10h-0.9c-5.5,0-10,4.5-10,10v44.3
	C1354.9,672.1,1359.4,676.6,1364.9,676.6z"/>
<path id="path30" class="st0" d="M1375.9,676.6h10.9c5.5,0,10-4.5,10-10v-44.3c0-5.5-4.5-10-10-10h-0.9c-5.5,0-10,4.5-10,10V676.6z"
	/>
<path id="path31" class="st0" d="M1427.7,673.2h10.9v-66.5c0-5.5-4.5-10-10-10h-0.9c-5.5,0-10,4.5-10,10v56.5
	C1417.7,668.7,1422.2,673.2,1427.7,673.2z"/>
<path id="path32" class="st0" d="M1438.7,673.2h10.9c5.5,0,10-4.5,10-10v-56.5c0-5.5-4.5-10-10-10h-0.9c-5.5,0-10,4.5-10,10V673.2z"
	/>
<path id="path33" class="st0" d="M1490.5,669.1h10.9v-15c0-5.5-4.5-10-10-10h-0.9c-5.5,0-10,4.5-10,10v5
	C1480.5,664.6,1485,669.1,1490.5,669.1z"/>
<path id="path34" class="st0" d="M1501.4,669.1h10.9c5.5,0,10-4.5,10-10v-5c0-5.5-4.5-10-10-10h-0.9c-5.5,0-10,4.5-10,10V669.1z"/>
<path id="path35" class="st0" d="M1553.3,666.6h10.9v-23.4c0-5.5-4.5-10-10-10h-0.9c-5.5,0-10,4.5-10,10v13.4
	C1543.3,662.1,1547.8,666.6,1553.3,666.6z"/>
<path id="path36" class="st0" d="M1564.2,666.6h10.9c5.5,0,10-4.5,10-10v-13.4c0-5.5-4.5-10-10-10h-0.9c-5.5,0-10,4.5-10,10V666.6z"
	/>
<text id="text36" transform="matrix(1 0 0 1 226 790.2161)" class="st1 st2 st3">CHR1</text>
<text id="text37" transform="matrix(1 0 0 1 288.7344 790.5579)" class="st1 st2 st3">CHR2</text>
<text id="text38" transform="matrix(1 0 0 1 351.6331 790.7285)" class="st1 st2 st3">CHR3</text>
<text id="text39" transform="matrix(1 0 0 1 411.3672 791.0703)" class="st1 st2 st3">CHR4</text>
<text id="text40" transform="matrix(1 0 0 1 478.5668 790.9854)" class="st1 st2 st3">CHR5</text>
<path id="path57" class="st0" d="M297.8,767.7h0.9c5.5,0,10-4.5,10-10v-388c0-0.5-0.5-1-1-1h-9.9c-5.5,0-10,4.5-10,10v379
	C287.8,763.3,292.3,767.7,297.8,767.7z"/>
<path id="path58" class="st0" d="M318.7,767.7h0.9c5.5,0,10-4.5,10-10v-379c0-5.5-4.5-10-10-10h-9.9c-0.5,0-1,0.5-1,1v388
	C308.7,763.3,313.2,767.7,318.7,767.7z"/>
<g id="g59">
	<path id="path59" class="st0" d="M1543.3,759c0,5.5,4.5,10,10,10h0.9c5.5,0,10-4.5,10-10v-91c0-0.5-0.4-1-1-1h-9.9
		c-5.5,0-10,4.5-10,10V759z"/>
</g>
<g id="g60">
	<path id="path60" class="st0" d="M1564.2,759c0,5.5,4.5,10,10,10h0.9c5.5,0,10-4.5,10-10v-82c0-5.5-4.5-10-10-10h-9.9
		c-0.6,0-1,0.5-1,1V759z"/>
</g>
<g id="g61">
	<path id="path61" class="st0" d="M1480.5,759c0,5.5,4.5,10,10,10h0.9c5.5,0,10-4.5,10-10v-88.8c0-0.5-0.4-1-1-1h-9.9
		c-5.5,0-10,4.5-10,10V759z"/>
</g>
<g id="g62">
	<path id="path62" class="st0" d="M1501.4,759c0,5.5,4.5,10,10,10h0.9c5.5,0,10-4.5,10-10v-79.8c0-5.5-4.5-10-10-10h-9.9
		c-0.6,0-1,0.5-1,1V759z"/>
</g>
<g id="g63">
	<path id="path63" class="st0" d="M1417.8,759c0,5.5,4.5,10,10,10h0.9c5.5,0,10-4.5,10-10v-84.8c0-0.5-0.4-1-1-1h-9.9
		c-5.5,0-10,4.5-10,10V759z"/>
</g>
<g id="g64">
	<path id="path64" class="st4" d="M1438.8,759c0,5.5,4.5,10,10,10h0.9c5.5,0,10-4.5,10-10v-75.8c0-5.5-4.5-10-10-10h-9.9
		c-0.6,0-1,0.5-1,1V759z"/>
</g>
<g id="g66">
	<path id="path65" class="st4" d="M1355,759c0,5.5,4.5,10,10,10h0.9c5.5,0,10-4.5,10-10v-81.6c0-0.5-0.4-1-1-1h-9.9
		c-5.5,0-10,4.5-10,10V759z"/>
	<path id="path66" class="st0" d="M1355,759c0,5.5,4.5,10,10,10h0.9c5.5,0,10-4.5,10-10v-81.6c0-0.5-0.4-1-1-1h-9.9
		c-5.5,0-10,4.5-10,10V759z"/>
</g>
<g id="g68">
	<path id="path67" class="st4" d="M1376,759c0,5.5,4.5,10,10,10h0.9c5.5,0,10-4.5,10-10v-72.6c0-5.5-4.5-10-10-10h-9.9
		c-0.6,0-1,0.5-1,1V759z"/>
	<path id="path68" class="st0" d="M1376,759c0,5.5,4.5,10,10,10h0.9c5.5,0,10-4.5,10-10v-72.6c0-5.5-4.5-10-10-10h-9.9
		c-0.6,0-1,0.5-1,1V759z"/>
</g>
<g id="g69">
	<path id="path69" class="st4" d="M1292,759c0,5.5,4.5,10,10,10h0.9c5.5,0,10-4.5,10-10V586.9c0-0.5-0.4-1-1-1h-9.9
		c-5.5,0-10,4.5-10,10V759z"/>
</g>
<g id="g70">
	<path id="path70" class="st4" d="M1312.9,759c0,5.5,4.5,10,10,10h0.9c5.5,0,10-4.5,10-10V595.9c0-5.5-4.5-10-10-10h-9.9
		c-0.6,0-1,0.5-1,1V759z"/>
</g>
<g id="g71">
	<path id="path71" class="st4" d="M1229.4,759c0,5.5,4.5,10,10,10h0.9c5.5,0,10-4.5,10-10V594c0-0.5-0.4-1-1-1h-9.9
		c-5.5,0-10,4.5-10,10V759z"/>
</g>
<g id="g72">
	<path id="path72" class="st4" d="M1250.3,759c0,5.5,4.5,10,10,10h0.9c5.5,0,10-4.5,10-10V603c0-5.5-4.5-10-10-10h-9.9
		c-0.6,0-1,0.5-1,1V759z"/>
</g>
<g id="g73">
	<path id="path73" class="st0" d="M1166.1,759c0,5.5,4.5,10,10,10h0.9c5.5,0,10-4.5,10-10V600.3c0-0.5-0.4-1-1-1h-9.9
		c-5.5,0-10,4.5-10,10V759z"/>
</g>
<g id="g74">
	<path id="path74" class="st4" d="M1187.1,759c0,5.5,4.5,10,10,10h0.9c5.5,0,10-4.5,10-10V609.3c0-5.5-4.5-10-10-10h-9.9
		c-0.6,0-1,0.5-1,1V759z"/>
</g>
<g id="g76">
	<path id="path75" class="st4" d="M915.5,759c0,5.5,4.5,10,10,10h0.9c5.5,0,10-4.5,10-10V495.7c0-0.6-0.4-1-1-1h-9.9
		c-5.5,0-10,4.5-10,10V759z"/>
	<path id="path76" class="st0" d="M915.5,759c0,5.5,4.5,10,10,10h0.9c5.5,0,10-4.5,10-10V495.7c0-0.6-0.4-1-1-1h-9.9
		c-5.5,0-10,4.5-10,10V759z"/>
</g>
<g id="g78">
	<path id="path77" class="st4" d="M936.5,759c0,5.5,4.5,10,10,10h0.9c5.5,0,10-4.5,10-10V504.7c0-5.5-4.5-10-10-10h-10.8
		c-0.1,0-0.1,0-0.1,0.1L936.5,759L936.5,759z"/>
	<path id="path78" class="st0" d="M936.5,759c0,5.5,4.5,10,10,10h0.9c5.5,0,10-4.5,10-10V504.7c0-5.5-4.5-10-10-10h-10.8
		c-0.1,0-0.1,0-0.1,0.1L936.5,759L936.5,759z"/>
</g>
<path id="path79" class="st4" d="M852.8,759c0,5.5,4.5,10,10,10h0.9c5.5,0,10-4.5,10-10V539.1c0-0.2-0.2-0.4-0.4-0.4h-10.5
	c-5.5,0-10,4.5-10,10V759z"/>
<path id="path80" class="st0" d="M852.8,759c0,5.5,4.5,10,10,10h0.9c5.5,0,10-4.5,10-10V539.1c0-0.2-0.2-0.4-0.4-0.4h-10.5
	c-5.5,0-10,4.5-10,10V759z"/>
<g id="g82">
	<path id="path81" class="st4" d="M873.7,759c0,5.5,4.5,10,10,10h0.9c5.5,0,10-4.5,10-10V548.7c0-5.5-4.5-10-10-10h-10
		c-0.5,0-0.9,0.4-0.9,0.9V759z"/>
	<path id="path82" class="st0" d="M873.7,759c0,5.5,4.5,10,10,10h0.9c5.5,0,10-4.5,10-10V548.7c0-5.5-4.5-10-10-10h-10
		c-0.5,0-0.9,0.4-0.9,0.9V759z"/>
</g>
<g id="g84">
	<path id="path83" class="st4" d="M790.1,759c0,5.5,4.5,10,10,10h0.9c5.5,0,10-4.5,10-10V506.7c0-0.1-0.1-0.1-0.1-0.1h-10.8
		c-5.5,0-10,4.5-10,10L790.1,759L790.1,759z"/>
	<path id="path84" class="st0" d="M790.1,759c0,5.5,4.5,10,10,10h0.9c5.5,0,10-4.5,10-10V506.7c0-0.1-0.1-0.1-0.1-0.1h-10.8
		c-5.5,0-10,4.5-10,10L790.1,759L790.1,759z"/>
</g>
<g id="g86">
	<path id="path85" class="st4" d="M811,759c0,5.5,4.5,10,10,10h0.9c5.5,0,10-4.5,10-10V516.6c0-5.5-4.5-10-10-10h-10.8
		c-0.1,0-0.1,0-0.1,0.1L811,759L811,759z"/>
	<path id="path86" class="st0" d="M811,759c0,5.5,4.5,10,10,10h0.9c5.5,0,10-4.5,10-10V516.6c0-5.5-4.5-10-10-10h-10.8
		c-0.1,0-0.1,0-0.1,0.1L811,759L811,759z"/>
</g>
<g id="g87">
	<path id="path87" class="st4" d="M727.1,759c0,5.5,4.5,10,10,10h0.9c5.5,0,10-4.5,10-10V521.4c0-0.5-0.5-1-1-1h-9.9
		c-5.5,0-10,4.5-10,10V759z"/>
</g>
<g id="g88">
	<path id="path88" class="st0" d="M748,759c0,5.5,4.5,10,10,10h0.9c5.5,0,10-4.5,10-10V530.4c0-5.5-4.5-10-10-10H749
		c-0.5,0-1,0.5-1,1V759z"/>
</g>
<g id="g89">
	<path id="path89" class="st4" d="M664.4,759c0,5.5,4.5,10,10,10h0.9c5.5,0,10-4.5,10-10V493.2c0-0.5-0.5-1-1-1h-9.9
		c-5.5,0-10,4.5-10,10V759z"/>
</g>
<g id="g90">
	<path id="path90" class="st4" d="M685.3,759c0,5.5,4.5,10,10,10h0.9c5.5,0,10-4.5,10-10V502.2c0-5.5-4.5-10-10-10h-9.9
		c-0.5,0-1,0.5-1,1V759z"/>
</g>
<g id="g91">
	<path id="path91" class="st4" d="M601.7,759c0,5.5,4.5,10,10,10h0.9c5.5,0,10-4.5,10-10V498.1c0-0.5-0.5-1-1-1h-9.9
		c-5.5,0-10,4.5-10,10V759z"/>
</g>
<g id="g92">
	<path id="path92" class="st4" d="M622.6,759c0,5.5,4.5,10,10,10h0.9c5.5,0,10-4.5,10-10V507.1c0-5.5-4.5-10-10-10h-9.9
		c-0.5,0-1,0.5-1,1V759z"/>
</g>
<g id="g93">
	<path id="path93" class="st4" d="M549.4,768.6L549.4,768.6c5.8,0,10.5-4.7,10.5-10.5v-283c0-0.5-0.5-1-1-1H549c-5.5,0-10,4.5-10,10
		v274C538.9,763.9,543.6,768.6,549.4,768.6z"/>
</g>
<g id="g94">
	<path id="path94" class="st4" d="M559.8,758.6c0,5.5,4.5,10,10,10h0.9c5.5,0,10-4.5,10-10V484.1c0-5.5-4.5-10-10-10h-9.9
		c-0.5,0-1,0.5-1,1V758.6z"/>
</g>
<path id="path95" class="st0" d="M413.3,757.7c0,5.5,4.5,10,10,10h0.9c5.5,0,10-4.5,10-10V392.9c0-0.5-0.5-1-1-1h-11.9
	c-4.4,0-8,3.6-8,8V757.7z"/>
<path id="path96" class="st0" d="M434.2,757.7c0,5.5,4.5,10,10,10h0.9c5.5,0,10-4.5,10-10V399.9c0-4.4-3.6-8-8-8h-11.9
	c-0.5,0-1,0.5-1,1V757.7z"/>
<path id="path97" class="st0" d="M350.5,757.7c0,5.5,4.5,10,10,10h0.9c5.5,0,10-4.5,10-10V479.5c0-0.5-0.5-1-1-1h-11.9
	c-4.4,0-8,3.6-8,8V757.7z"/>
<path id="path98" class="st0" d="M371.5,757.7c0,5.5,4.5,10,10,10h0.9c5.5,0,10-4.5,10-10V486.5c0-4.4-3.6-8-8-8h-11.9
	c-0.5,0-1,0.5-1,1V757.7z"/>
<path id="path99" class="st0" d="M234.8,403.4h9.9c0.6,0,1-0.5,1-1.2V115.9c0-6.7-4.5-12.2-10-12.2h-0.9c-5.5,0-10,5.5-10,12.2
	v275.3C224.8,397.9,229.3,403.4,234.8,403.4z"/>
<path id="path100" class="st0" d="M246.7,403.4h9.9c5.5,0,10-5.5,10-12.2V115.9c0-6.7-4.5-12.2-10-12.2h-0.9c-5.5,0-10,5.5-10,12.2
	v286.3C245.7,402.8,246.1,403.4,246.7,403.4z"/>
<path id="path101" class="st0" d="M234.8,770h0.9c5.5,0,10-4.1,10-9.2V404.3c0-0.5-0.4-0.9-1-0.9h-9.9c-5.5,0-10,4.1-10,9.2v348.3
	C224.8,766,229.3,770,234.8,770z"/>
<path id="path102" class="st0" d="M255.7,770h0.9c5.5,0,10-4.1,10-9.2V412.5c0-5.1-4.5-9.2-10-9.2h-9.9c-0.5,0-1,0.4-1,0.9v356.5
	C245.7,766,250.2,770,255.7,770z"/>
<path id="path103" class="st0" d="M486.4,769L486.4,769c5.8,0,10.5-5.7,10.5-12.8V411.9c0-0.6-0.5-1.2-1-1.2H486
	c-5.5,0-10,5.5-10,12.2v333.4C475.9,763.3,480.6,769,486.4,769z"/>
<path id="path104" class="st0" d="M496.8,756.8c0,6.7,4.5,12.2,10,12.2h0.9c5.5,0,10-5.5,10-12.2v-334c0-6.7-4.5-12.2-10-12.2h-9.9
	c-0.5,0-1,0.6-1,1.2L496.8,756.8L496.8,756.8z"/>
<g id="g105">
	<path id="path105" class="st0" d="M999,759c0,5.5-4.5,10-10,10h-0.9c-5.5,0-10-4.5-10-10V522.9c0-5.5,4.5-10,10-10h9.9
		c0.6,0,1,0.4,1,1V759z"/>
</g>
<g id="g106">
	<path id="path106" class="st0" d="M1019.9,759c0,5.5-4.5,10-10,10h-0.9c-5.5,0-10-4.5-10-10V513.9c0-0.6,0.4-1,1-1h9.9
		c5.5,0,10,4.5,10,10V759z"/>
</g>
<g id="g107">
	<path id="path107" class="st0" d="M1062,759c0,5.5-4.5,10-10,10h-0.9c-5.5,0-10-4.5-10-10V541.5c0-5.5,4.5-10,10-10h9.9
		c0.6,0,1,0.4,1,1V759z"/>
</g>
<g id="g108">
	<path id="path108" class="st0" d="M1082.9,759c0,5.5-4.5,10-10,10h-0.9c-5.5,0-10-4.5-10-10V532.5c0-0.6,0.4-1,1-1h9.9
		c5.5,0,10,4.5,10,10V759z"/>
</g>
<g id="g109">
	<path id="path109" class="st0" d="M1125.1,759c0,5.5-4.5,10-10,10h-0.9c-5.5,0-10-4.5-10-10V555.9c0-5.5,4.5-10,10-10h9.9
		c0.6,0,1,0.4,1,1V759z"/>
</g>
<g id="g110">
	<path id="path110" class="st0" d="M1146,759c0,5.5-4.5,10-10,10h-0.9c-5.5,0-10-4.5-10-10V546.9c0-0.6,0.4-1,1-1h9.9
		c5.5,0,10,4.5,10,10V759z"/>
</g>
<g id="g111">
	<path id="path111" class="st0" d="M998,512.9h-9.9c-5.5,0-10-4.5-10-10v-29.6c0-5.5,4.5-10,10-10h0.9c5.5,0,10,4.5,10,10v38.6
		C999,512.5,998.6,512.9,998,512.9z"/>
</g>
<g id="g112">
	<path id="path112" class="st0" d="M1019.9,502.9c0,5.5-4.5,10-10,10h-9.9c-0.6,0-1-0.4-1-1v-38.6c0-5.5,4.5-10,10-10h0.9
		c5.5,0,10,4.5,10,10V502.9z"/>
</g>
<g id="g113">
	<path id="path113" class="st0" d="M1061,531.5h-9.9c-5.5,0-10-4.5-10-10v-28.6c0-5.5,4.5-10,10-10h0.9c5.5,0,10,4.5,10,10v37.6
		C1062,531,1061.6,531.5,1061,531.5z"/>
</g>
<g id="g114">
	<path id="path114" class="st0" d="M1082.9,521.5c0,5.5-4.5,10-10,10h-9.9c-0.6,0-1-0.4-1-1v-37.6c0-5.5,4.5-10,10-10h0.9
		c5.5,0,10,4.5,10,10V521.5z"/>
</g>
<g id="g115">
	<path id="path115" class="st0" d="M1124.1,545.9h-9.9c-5.5,0-10-4.5-10-10v-29.5c0-5.5,4.5-10,10-10h0.9c5.5,0,10,4.5,10,10v38.5
		C1125.1,545.4,1124.7,545.9,1124.1,545.9z"/>
</g>
<g id="g116">
	<path id="path116" class="st0" d="M1146,535.9c0,5.5-4.5,10-10,10h-9.9c-0.6,0-1-0.4-1-1v-38.5c0-5.5,4.5-10,10-10h0.9
		c5.5,0,10,4.5,10,10V535.9z"/>
</g>
<path id="path37" class="st5" d="M267.1,142.5c0-27.3,0-28.9-0.2-29.6c-1.2-5-4.1-8.4-8.1-9.5c-0.7-0.2-1.1-0.2-2.6-0.2
	c-1.6,0-1.9,0-2.6,0.2c-3.4,0.9-6.4,3.9-7.6,7.7l-0.2,0.7l-0.3-0.8c-0.3-1-0.7-1.8-1.1-2.5l-0.4-0.6V89.7V71.5h76.7h76.7v50v50
	h-33.6h-33.6l0-20.7l0-20.7l-0.2-0.8c-1.2-4-4.2-6.9-8.1-7.7c-1.3-0.3-4.5-0.2-5.7,0.1c-1,0.3-2.8,1.2-3.7,1.8
	c-1.4,1.1-2.7,2.7-3.3,4.2l-0.3,0.8l-0.3-0.7c-1-2.4-2.8-4.3-5.3-5.4c-1.5-0.7-2.2-0.9-4.5-0.9c-1.7,0-2.1,0-3,0.2
	c-1.9,0.4-3.6,1.3-5,2.6c-1.7,1.6-2.7,3.4-3.1,5.6c-0.2,1-0.2,1.3-0.2,21.4v20.4h-10.1h-10.1L267.1,142.5z"/>
<path id="path143" class="st5" d="M725.9,423.9V303.2h179h179v120.7c0,71.1-0.1,120.7-0.2,120.7c-0.1,0-0.3-1.3-0.3-3
	c-0.1-2.9-0.1-3-1-4.8c-1-2.1-3.1-4.2-4.8-4.9l-1.1-0.4l1.2-0.6c1.9-1,3.7-2.8,4.7-4.8l0.9-1.8v-17.1V490l-0.8-1.7
	c-1.6-3.3-4.5-5.4-8.2-5.9c-4.8-0.7-9.7,1.6-11.6,5.5l-0.6,1.3l-0.5-1.1c-1.1-2.3-3.3-4.2-5.8-5.1c-4.3-1.6-9.2-0.5-12.1,2.6
	c-1.5,1.6-2.2,2.8-2.7,4.8c-0.5,1.9-0.5,31.9,0,33.7c0.8,3,2.9,5.7,5.4,6.8l1.2,0.6l-1.2,0.6c-2.6,1.3-4.7,3.9-5.4,6.7
	c-0.2,0.8-0.4,2.4-0.4,3.7v2.2h-10h-10l-0.1-12.3l-0.1-12.3l-0.9-1.8c-1-2.1-2.6-3.7-4.5-4.8l-1.3-0.7l1.1-0.5
	c2.6-1.3,4.4-3.5,5.3-6.2c0.5-1.5,0.5-2.3,0.5-18s0-16.5-0.5-18c-1.4-4.5-5.6-7.4-10.5-7.4c-4.2,0-8.2,2.3-9.8,5.7
	c-0.3,0.6-0.6,1.1-0.7,1.1s-0.3-0.5-0.6-1c-0.6-1.4-3.1-3.8-4.7-4.6c-6.2-3-13.7,0-15.7,6.3c-0.5,1.5-0.5,2.3-0.5,18
	c0,15.7,0,16.5,0.5,18c0.8,2.7,2.7,4.9,5.3,6.2l1.1,0.5l-1.3,0.7c-2.5,1.4-4.2,3.5-5.1,6.3c-0.4,1.3-0.5,2.4-0.5,13.1v11.7h-9.8H958
	l0-20.7c0-13.1-0.1-21.1-0.2-21.7c-0.6-2.8-2.8-5.6-5.3-6.9l-1.3-0.7l1.2-0.6c1.6-0.8,3.3-2.4,4.2-4c1.6-2.7,1.5-0.8,1.5-37
	l-0.1-32.8l-0.6-1.4c-1.1-2.6-3.4-5-6-6c-2-0.8-5.9-0.9-7.9-0.3c-2.8,0.9-5.6,3.3-6.6,5.8l-0.3,0.7l-0.6-1.2
	c-1.9-3.7-5.4-5.8-10-5.8c-5,0-8.6,2.4-10.4,7l-0.5,1.3l-0.1,32.1c0,22.5,0,32.6,0.2,33.6c0.1,0.9,0.5,2.1,0.8,2.8
	c0.8,1.7,3,4,4.7,4.8l1.4,0.7l-1.2,0.6c-1.6,0.7-4,3.1-4.8,4.8c-0.3,0.7-0.7,2-0.9,2.8c-0.2,1-0.3,8.1-0.3,21.6v20.2h-10.2h-10.2
	l-0.3-0.8c-0.8-2-3.9-4.7-5.8-5.2l-0.8-0.2l0.9-0.3c1.4-0.5,3.5-2,4.4-3.1c1-1.3,2-3.3,2.3-5c0.3-1.8,0.3-112.3,0-114.1
	c-0.6-3.3-2.8-6.1-5.9-7.6c-1.6-0.8-2.1-0.9-4.2-1c-2.8-0.1-4.8,0.3-6.8,1.5c-1.6,1-3.2,2.7-3.9,4.3l-0.5,1.1l-0.6-1.2
	c-0.8-1.6-2.4-3.3-4-4.2c-1.9-1.2-4-1.6-6.8-1.5c-2,0.1-2.6,0.2-4.1,1c-3.2,1.5-5.4,4.5-6,7.9c-0.3,2.2-0.3,111.4,0,113.6
	c0.5,3.4,2.8,6.4,5.8,7.8l1.6,0.8l-1.1,0.4c-1.7,0.6-3.8,2.5-4.8,4.2l-0.9,1.5l-10.2,0l-10.2,0v-14.5c0-9.7-0.1-14.9-0.3-15.7
	c-0.4-2-1.4-3.8-2.9-5.3c-1.4-1.4-3.9-2.8-4.9-2.8c-0.7,0-0.2-0.3,1.2-0.8c3.2-1.2,5.7-4,6.5-7.4c0.3-1.4,0.4-6.4,0.4-40.2
	c0-42.1,0.1-40.4-1.4-42.8c-2.4-4.1-6.7-6-11.6-5.3c-1,0.1-2.4,0.5-3.1,0.9c-1.8,0.8-4,2.9-4.8,4.6l-0.7,1.3l-0.7-1.3
	c-1.4-2.9-4.5-5-7.9-5.4c-6.6-0.9-12,3-12.8,9.3c-0.2,1.3-0.2,14.7-0.2,40.5l0.1,38.6l0.7,1.4c1.3,2.6,4.9,5.8,6.9,6.3
	c0.8,0.2,0.7,0.2-0.7,0.7c-2,0.7-4,2.3-5.1,4c-1.8,2.8-1.8,2.1-1.8,18.9l-0.1,15h-9.9h-9.9l0-7.4c0-8.2-0.2-9.7-1.4-11.9
	c-1-1.8-2.8-3.5-4.7-4.4l-1.6-0.8l1.4-0.6c1.8-0.7,4.3-3.2,5.2-5.1c0.3-0.7,0.7-2,0.9-2.9c0.2-1,0.3-18.3,0.2-52.3
	c0-43.2-0.1-51-0.3-52.4c-1.1-5-5.4-8.4-10.9-8.4c-4.3,0-8,2.2-9.8,5.8l-0.6,1.2l-0.5-1.2c-1.1-2.4-4.2-4.8-7-5.5
	c-1.4-0.3-4-0.3-5.6,0c-2.8,0.6-5.6,2.7-7,5.2c-1.4,2.7-1.4-0.5-1.4,55.5c0,55.3-0.1,52.8,1.2,55.3c0.9,1.7,3,3.7,4.8,4.6l1.6,0.8
	l-0.9,0.3c-2.5,0.9-5,3.4-6.1,6.2c-0.5,1.3-0.6,1.7-0.6,9.6c0,4.9-0.2,8.3-0.3,8.3C726,544.7,725.9,498.2,725.9,423.9L725.9,423.9z"
	/>
<path id="path144" class="st5" d="M190,339.1V48.7h430.5H1051v216.6v216.6l-2.5,0.7c-3.2,0.9-5.4,2.6-6.8,5.4
	c-1.1,2.1-1.1,3.5-1.1,19.1c0,18.8,0.1,19.3,3.8,22.5l2.2,1.9l-2.2,1.8c-4,3.3-3.8,0.9-3.8,50.9v45.3h-9.9h-9.9l-0.2-55l-0.2-55
	l-1.3-2.2c-0.7-1.2-2.1-2.6-3-3.2c-2.1-1.2-2.1-1.5-0.3-2.4c0.8-0.4,2.2-1.8,3-3.1l1.6-2.4l0.2-16.7c0.2-18.9,0-20.5-3.3-23.8
	c-4.9-4.9-13.3-4.2-17.2,1.6l-1.2,1.8l-1.1-1.8c-4.7-7.1-15.9-6.2-19.5,1.7c-1,2.1-1.1,4.1-1.1,19.2c0,19,0.2,20.1,4.3,23.2l2.1,1.6
	l-1.7,1c-0.9,0.6-2.3,2-3.1,3.3l-1.4,2.2l-0.2,55l-0.2,55h-9.6h-9.6v-63.5c0-52.5-0.1-63.9-0.8-65.4c-0.4-1-1.9-2.8-3.2-3.9l-2.4-2
	l1.6-1.1c0.9-0.6,2.2-2,3-3.1l1.4-2l0.2-33.4c0.1-22.3,0-34.1-0.4-35.5c-0.8-2.6-4.4-6-7.5-6.9c-4.5-1.4-9.9,0.5-12.6,4.4l-1.2,1.8
	l-1.1-1.8c-4.7-7.1-15.9-6.2-19.5,1.7c-1,2.2-1.1,4.6-1.1,35.1s0.1,32.9,1.1,35.1c1.1,2.3,4.2,5.5,5.5,5.5c0.4,0-0.1,0.5-1.1,1.1
	c-2.3,1.4-3.5,2.9-4.6,5.4c-0.8,1.9-0.9,9.8-0.9,65.4v63.3H905h-9.6v-41.2c0-35.8-0.1-41.5-0.9-43.3c-1.1-2.5-2.3-4-4.5-5.4l-1.6-1
	l2.2-1.5c1.2-0.8,2.7-2.5,3.3-3.7c1.1-2.1,1.1-4.5,1.3-59.6l0.2-57.4l-1.4-2.9c-1.9-3.9-4.6-5.7-9-6c-4.2-0.3-7.9,1.3-9.9,4.2
	l-1.3,2l-2-2.4c-2.4-2.8-4.9-3.9-8.6-3.9c-3.7,0-7.2,1.8-9.3,4.8l-1.7,2.4v58.6v58.6l1.3,2.1c0.7,1.2,2.3,2.7,3.4,3.4l2,1.3l-1.7,1
	c-0.9,0.6-2.5,2-3.4,3.2l-1.7,2.2l-0.2,42.3l-0.2,42.3h-9.6h-9.6l0-57.3c0-42.5-0.2-57.8-0.7-59.2c-0.9-2.4-3.6-5.3-5.8-6.2
	l-1.7-0.7l1.8-0.7c2.4-1,5.1-4.1,5.8-6.8c0.8-3,0.8-78,0-81c-0.8-2.7-3.7-6.1-6.2-7.2c-4.5-1.9-11.2-0.1-13.7,3.6l-1.2,1.9l-2.2-2.5
	c-2.6-3-5.2-4-9.5-3.6c-4,0.3-7.3,2.5-8.9,5.8c-1.2,2.5-1.2,3-1.2,42.4c0,44.7-0.2,42.1,4.2,45.9c1.3,1.1,2.8,2,3.3,2
	c0.5,0-0.2,0.6-1.6,1.2c-1.5,0.7-3.2,2.2-4.1,3.6l-1.5,2.3l-0.2,58.2l-0.2,58.2h-9.9h-9.9v-50.8c0-49.9,0-50.8-1.2-53.1
	c-0.6-1.3-2.2-3-3.4-3.9l-2.2-1.6l1.6-0.9c0.9-0.5,2.3-1.9,3.3-3.1l1.7-2.2l0.2-53.6c0.1-51.8,0.1-53.6-1-55.7
	c-2.2-4.3-5-5.9-10.3-5.9c-3.9,0-7.2,1.7-9,4.5L748,405l-1.3-1.8c-2.2-3.2-4.1-4.2-8.5-4.5c-3.5-0.2-4.4,0-6.5,1.2
	c-1.5,0.9-3.1,2.5-3.9,4l-1.4,2.5v53.1v53.1l1.4,2.5c0.8,1.4,2.5,3.1,3.8,3.9c1.3,0.8,2,1.4,1.6,1.4c-1.1,0-4.7,3.4-5.9,5.5
	c-0.9,1.6-1,6.1-1.1,52.7l-0.2,50.9h-9.6h-9.6v-64.7c0-72.3,0.3-67.9-4.1-71l-2.2-1.6l2.3-1.9c4.1-3.5,3.9-0.6,3.9-53.6
	c0-32.4-0.2-48.4-0.6-49.5c-0.8-2-3.2-4.6-5.3-5.7c-2.1-1.1-8.2-1-10.7,0.1c-1.1,0.5-2.7,1.8-3.5,2.9l-1.5,1.9l-1.8-2
	c-2.5-2.9-4.5-3.7-8.7-3.7c-4.5,0-7.1,1.2-9.4,4.6l-1.7,2.5v48.8c0,54.4-0.3,50.8,4,54l1.9,1.5l-2.5,2.5c-1.5,1.5-2.7,3.4-3.1,4.8
	c-0.5,1.6-0.6,21.2-0.6,66.3l0,64h-9.6h-9.6l-0.2-63.1l-0.2-63.1l-1.7-2.2c-0.9-1.2-2.5-2.7-3.5-3.3s-1.5-1.1-1.1-1.1
	c1.2,0,4.9-3.7,5.8-5.6c0.6-1.5,0.8-14.3,0.8-71v-69.2l-1.2-2.5c-3.3-6.8-13.2-8-18.3-2.2l-2.2,2.5l-1.2-1.9
	c-2.4-3.6-7.9-5.2-13-3.8c-2.6,0.7-6,4.4-6.8,7.3c-0.9,3.1-0.9,136.5,0,139.6c0.7,2.5,3.5,6,5.2,6.5c1,0.3,0.9,0.6-1.2,2
	c-4.8,3.4-4.4-2.3-4.6,68.3l-0.2,62.8h-9.6h-9.6l-0.2-74.4l-0.2-74.4l-1.3-2.2c-0.7-1.2-2.1-2.6-3-3.2c-2.1-1.2-2.1-1.5-0.3-2.4
	c0.8-0.4,2.2-1.8,3-3.1l1.6-2.4l0.2-72.8c0.1-52,0-73.4-0.5-75.2c-1.3-4.9-7.1-8.5-12.3-7.7c-3.1,0.5-5.1,1.6-7.2,4l-1.8,2l-1.3-1.7
	c-2.7-3.6-7.6-5.2-12.1-4c-3.2,0.9-6.8,4.2-7.6,6.9c-0.4,1.4-0.6,27.4-0.6,74.6c0,69.6,0.1,72.6,1.1,74.9c0.6,1.3,2,3.1,3.2,4
	l2.1,1.6l-1.8,1.1c-1,0.6-2.4,2.1-3.1,3.2l-1.3,2.1l-0.2,74.4l-0.2,74.4h-9.8h-9.8l-0.2-105.7L518.1,418l-1.6-2.7
	c-0.9-1.5-2.3-3.1-3.1-3.7l-1.5-1l1.7-1c0.9-0.6,2.1-1.6,2.7-2.2c2.7-3,2.6-2.5,2.7-59.6c0-36.3-0.2-54.7-0.6-56.2
	c-0.8-3-4.2-6.6-6.8-7.3c-5.2-1.5-10.8,0.2-13.3,4c-0.7,1.1-1.3,1.7-1.3,1.3c0-1.1-3.7-4.9-5.6-5.7c-2.2-0.9-7-1-9.3-0.2
	c-2,0.8-4.6,3.2-5.7,5.3c-0.7,1.3-0.8,10.5-0.8,57.7v56.1l1.5,2.5c0.9,1.6,2.3,3,3.8,3.7l2.4,1.2l-1.9,1c-1.1,0.6-2.7,2.3-3.7,3.8
	l-1.7,2.8l-0.1,105.8l-0.1,105.8h-9.9h-9.9l0-116.2c0-113.5,0-116.2-1.1-118c-0.6-1-1.9-2.3-2.8-2.8l-1.7-1l2.2-2
	c1.2-1.1,2.5-3,2.8-4.1c0.4-1.4,0.6-20.8,0.4-60.5l-0.2-58.4l-1.7-2.2c-4.3-5.7-13.6-5.8-18.1-0.2l-1.6,2l-1.2-1.8
	c-4.3-6.4-15.6-5.5-19.2,1.5c-0.7,1.3-0.8,11.1-0.8,61.2c0,57,0.1,59.7,1.1,61.3c0.6,0.9,1.6,2,2.3,2.5l1.3,0.9l-1.5,1.2
	c-3.4,2.7-3.2-6-3.2,120.5v116.1h-9.9h-9.9l-0.2-73.2c-0.1-72.2-0.2-73.3-1.3-74.8c-0.6-0.9-1.9-2-2.8-2.5l-1.7-1l1.8-1.1
	c1-0.6,2.3-2.2,3-3.6c1.2-2.5,1.2-2.6,1.2-114.7c0-108.2,0-112.3-1.1-114.2c-1.9-3.5-4.8-5.4-8.7-5.7c-4.6-0.3-7.2,0.6-9.7,3.6
	l-2.2,2.5l-1.2-1.8c-2.1-3.1-5.2-4.5-9.6-4.3c-4.6,0.2-7.9,2.1-9.6,5.5c-1.1,2.2-1.1,5.4-1.3,113.5c-0.1,79.8,0,112,0.5,113.7
	c0.4,1.4,1.6,3.3,3,4.7c1.6,1.6,2.1,2.4,1.5,2.6c-1.5,0.5-4.4,4.1-4.8,5.9c-0.2,1-0.4,34.1-0.4,73.4v71.6H340h-9.6V502.9
	c0-126.2,0-126.6-1.2-129c-0.7-1.3-2.1-3.1-3.2-3.8s-2-1.5-2-1.7c0-0.2,0.9-0.9,2-1.6s2.5-2.4,3.2-3.8l1.2-2.5V245.2
	c0-124.1,0.2-117.4-2.8-120.7c-3.3-3.6-10.3-4.4-14.7-1.7c-1.4,0.9-2.9,2.3-3.4,3.2l-0.8,1.5l-1.2-1.8c-3.1-4.6-10.5-6-15.5-2.8
	c-1.6,1-3.1,2.6-3.7,3.9c-1.1,2.2-1.1,5-1.3,117.1c-0.1,85.6,0,115.5,0.5,117.3c0.6,2.3,2.5,4.6,5.5,6.8c0.6,0.5,0.9,0.9,0.5,0.9
	c-1.3,0-4.4,3.2-5.5,5.5c-1,2.3-1.1,7.4-1.1,128.7l0,126.3H277h-9.9V519.8c0-100.1-0.1-109.9-0.9-111.7c-0.9-1.8-2.8-3.8-4.5-4.5
	c-0.4-0.2-0.1-0.8,1-1.6c0.9-0.7,2.3-2.6,3-4.2l1.4-2.9l0-141.3c0-135.6,0-141.4-1.1-143.6c-2.4-5.2-7.1-7.7-12.5-6.6
	c-2.6,0.6-6.4,3.6-7.1,5.8c-0.5,1.6-1,1.3-2.3-1c-2.8-5.1-9.8-6.8-14.7-3.5c-1.7,1.1-2.9,2.6-3.9,4.6l-1.4,3v141.3v141.3l1.4,3
	c0.8,1.7,2.1,3.4,2.9,4s1.5,1.1,1.5,1.3c0,0.2-0.9,1-2,1.7c-4.1,2.8-3.8-6.8-3.8,114.9v109.7h-17.1H190L190,339.1z"/>
<path id="path145" class="st5" d="M1267.5,797.6v-29.9l1.1-1c0.6-0.5,1.6-1.9,2.1-3.1l1-2.1l0.1-79.8c0.1-79.3,0.1-79.8-0.6-81.9
	c-0.5-1.6-1-2.5-2.2-3.8c-1.4-1.5-1.6-1.9-1.6-3s0.2-1.6,1.6-3c1.2-1.3,1.7-2.2,2.2-3.8c0.6-2,0.6-2.8,0.6-17.1l-0.1-14.9l-0.8-1.8
	c-0.5-1-1.4-2.4-2.1-3.2l-1.3-1.4V530v-17.7h233.6h233.6v157.6v157.6h-233.6h-233.6L1267.5,797.6z M1486.6,793.6
	c1-0.5,1.8-1.7,2.1-3c0.2-0.9,0.1-0.9-0.6-0.9c-0.6,0-0.9,0.2-1.3,1c-0.6,1.4-1.3,2-2.8,2c-1,0-1.4-0.2-2.2-1c-0.9-1-1.1-1.8-0.9-4
	c0.1-2,1.4-3.3,3.2-3.3c1.2,0,2.7,1.1,2.7,1.9c0,0.2,0.4,0.3,0.9,0.3c1.1,0,1.1,0,0.5-1.4c-0.9-2.2-4.3-3.1-6.8-1.8
	c-2.9,1.5-3.5,7.4-0.9,9.8C1482.2,794.4,1484.6,794.7,1486.6,793.6L1486.6,793.6z M1548,793.9c2.1-1.1,3.4-4.2,1.8-4.2
	c-0.5,0-0.9,0.3-1.1,0.9c-0.9,2.2-3.4,2.8-5,1.2c-0.8-0.8-0.9-1.1-0.9-3.2c0-2.3,0-2.4,1-3.3c0.7-0.6,1.4-0.9,2.1-0.9
	c1.1,0,2.7,1,2.7,1.8c0,0.3,0.3,0.4,0.9,0.4c1.1,0,1.2-0.4,0.3-1.8c-1.7-2.8-6.1-2.7-8.3,0.3c-0.8,1.1-1.1,4.2-0.6,5.8
	C1542.1,793.9,1545.3,795.3,1548,793.9L1548,793.9z M1425.9,793.3c1-0.5,1.8-1.7,2.1-3c0.2-0.9,0.1-0.9-0.6-0.9
	c-0.6,0-0.9,0.2-1.2,1c-0.6,1.4-1.2,1.9-2.6,1.9c-2.2,0-3.3-1.4-3.3-4.2c0-2.6,1.1-4,3.3-4c1.3,0,2.7,0.9,2.7,1.8
	c0,0.3,0.4,0.4,0.9,0.4c0.6,0,0.9-0.2,0.9-0.4c0-0.7-1.4-2.5-2.2-2.9c-1.2-0.6-4-0.5-5.2,0.2c-2.7,1.7-3.2,7.3-0.8,9.6
	C1421.4,794.1,1423.8,794.3,1425.9,793.3z M1464.1,793.7c1.6-0.7,2.2-2,2.2-5.2c0-2.1-0.1-2.9-0.6-3.8c-1.3-2.2-4.6-2.3-5.9,0
	c-0.4,0.7-0.7,1.9-0.8,3.3c-0.2,2.9,0.6,5,2.2,5.7C1462.5,794.2,1462.8,794.2,1464.1,793.7L1464.1,793.7z M1492,791.6v-2.5h2.7h2.7
	v2.5v2.5h0.9h0.9v-5.5v-5.5h-0.9h-0.9v2.2v2.2h-2.7h-2.7v-2.2c0-2.1,0-2.2-0.8-2.2h-0.8v5.5v5.5h0.8
	C1492,794.1,1492,794.1,1492,791.6z M1503,791.7v-2.4h2c2.7,0,3.1,0.4,3.3,2.8l0.1,1.9h1.1c0.9,0,1.1-0.1,0.9-0.6
	c-0.1-0.3-0.3-1.4-0.4-2.4c-0.1-1-0.4-2-0.6-2.2c-0.3-0.3-0.3-0.5,0.2-1c0.3-0.4,0.5-1.1,0.5-2c0-1.2-0.2-1.5-0.9-2.2
	c-0.8-0.7-1.1-0.8-4.3-0.8h-3.4v5.5v5.5h0.8C1503,794.1,1503,794,1503,791.7L1503,791.7z M1518.8,793.3c0-0.8,0-0.8-2.9-0.8
	c-2.6,0-2.8,0-2.4-0.5c0.2-0.3,1.4-1.1,2.5-1.9c2.4-1.5,2.8-2.1,2.8-3.8c0-2.3-2.3-3.6-4.9-2.9c-1.2,0.3-1.9,1.2-2.3,2.8
	c-0.2,1-0.2,1,0.7,0.9c0.7-0.1,0.9-0.3,1-0.8c0.2-1.7,2.9-2.1,3.6-0.5c0.4,0.9-0.2,2-1.6,2.9c-3.2,1.9-3.5,2.3-4,4.6l-0.2,0.9h3.8
	h3.8V793.3z M1524.8,788.7c0-4.7-0.1-5.4-0.5-5.4c-0.3,0-0.9,0.4-1.4,0.9s-1.2,0.9-1.5,0.9c-0.5,0-0.7,0.2-0.7,0.6
	c0,0.5,0.2,0.6,1.3,0.6h1.3v3.8v3.8h0.8h0.8L1524.8,788.7z M1554,791.6v-2.5h2.5h2.5v2.5v2.5h0.9h0.9v-5.5v-5.5h-0.9h-0.9v2.2v2.2
	h-2.5h-2.5v-2.2v-2.2h-0.9h-0.9v5.5v5.5h0.9h0.9V791.6z M1565,791.7l0.1-2.3h1.8c2.5,0,3,0.4,3.2,2.7c0.2,1.8,0.2,1.8,1.2,1.9
	c0.9,0.1,1,0,0.8-0.5c-0.1-0.3-0.3-1.4-0.4-2.4c-0.1-1-0.4-2-0.6-2.2c-0.4-0.3-0.3-0.5,0.2-1.1c0.9-1.2,0.8-2.8-0.3-3.9
	c-0.9-0.9-1-0.9-4.4-0.9h-3.5v5.5v5.5l0.9-0.1C1564.9,793.9,1564.9,793.9,1565,791.7L1565,791.7z M1580.5,793.3c0-0.8,0-0.8-2.7-0.8
	c-3.1,0-3.3-0.3-0.9-1.8c3.5-2.2,4.1-3.2,3.6-5.3c-0.4-1.5-1.3-2-3.4-2c-2.3,0-3,0.6-3.6,2.9c-0.2,0.8-0.1,0.9,0.7,0.9
	c0.8,0,0.9-0.2,1.1-0.9c0.3-1.7,3-1.9,3.5-0.3c0.4,1.1-0.1,1.8-2.1,3.1c-2.5,1.6-3.1,2.2-3.3,3.8l-0.2,1.3h3.7h3.7V793.3z
	 M1589,793.3c0-0.8,0-0.8-2.9-0.8h-2.9l0.7-0.8c0.4-0.4,1.5-1.2,2.4-1.7c2-1.1,2.6-2,2.6-3.6c0-0.9-0.2-1.4-0.9-2.1
	c-0.8-0.8-1.2-0.9-2.5-0.9c-1.9,0-2.7,0.3-3.3,1.6c-0.7,1.4-0.6,2.2,0.2,2.2c0.5,0,0.8-0.3,1.1-0.9c0.5-1.3,1.7-1.8,2.8-1.1
	c0.6,0.4,0.8,0.7,0.7,1.5c-0.1,0.8-0.4,1.2-2.2,2.4c-2.4,1.6-2.9,2.2-3.2,3.9l-0.2,1.2h3.8h3.8L1589,793.3z M1297.1,793.2
	c1.1-0.5,1.9-1.7,2.4-3.1c0.2-0.6,0.1-0.7-0.8-0.7c-0.7,0-1,0.2-1,0.5c0,0.8-1.7,2.3-2.7,2.3c-2.9,0-4.4-3.5-2.9-6.8
	c0.9-2,4.2-2.2,5.3-0.2c0.5,0.9,1.9,1.1,1.9,0.2c0-0.3-0.3-1-0.7-1.5c-2-2.6-6.6-2.1-8.1,0.8c-0.9,1.8-0.8,5.6,0.2,7.1
	C1292.1,793.7,1294.9,794.3,1297.1,793.2L1297.1,793.2z M1335.9,793.5c1.8-0.7,2.5-3.8,1.2-5.2c-0.6-0.6-0.6-0.8-0.2-1.1
	c0.8-0.7,0.6-2.7-0.3-3.6c-0.6-0.6-1.1-0.8-2.4-0.8c-1.4,0-1.8,0.1-2.5,0.9c-1,1-1.3,2.8-0.5,3.5c0.4,0.3,0.4,0.5-0.2,1.2
	c-0.7,0.9-0.8,2.9-0.3,3.9C1331.5,793.6,1334.1,794.2,1335.9,793.5L1335.9,793.5z M1360.9,793.2c1.1-0.7,1.8-1.7,2.2-2.9
	c0.2-0.8,0.1-0.9-0.8-0.9c-0.7,0-1,0.2-1,0.5c0,0.8-1.7,2.3-2.7,2.3c-1.2,0-2.5-0.8-2.9-1.7c-0.2-0.5-0.4-1.7-0.4-2.7
	c0-1.5,0.1-2,0.8-2.8c1-1.2,2.5-1.5,3.9-0.9c0.5,0.3,1.1,0.8,1.2,1.1c0.1,0.4,0.5,0.6,1.1,0.6c0.8,0,0.9-0.1,0.7-0.7
	c-0.9-2.8-4.9-4-7.3-2.2c-1.6,1.2-2.1,2.2-2.2,4.6c-0.1,2.8,0.7,4.7,2.4,5.6C1357.4,794,1359.6,793.9,1360.9,793.2L1360.9,793.2z
	 M1399.5,793.1c1.1-0.9,1.4-1.6,1.8-3.6c0.7-4-0.8-6.7-3.7-6.7c-1.2,0-1.6,0.2-2.3,0.9c-2.9,2.9-0.2,7.5,3.6,6
	c0.9-0.4,0.9-0.3,0.4,1.1c-0.6,1.5-1.6,1.9-2.6,1.3c-0.4-0.3-0.8-0.7-0.8-1c0-0.3-0.3-0.5-0.9-0.5c-0.9,0-0.9,0-0.6,1
	c0.2,0.6,0.6,1.3,1,1.6C1396.3,794,1398.5,794,1399.5,793.1L1399.5,793.1z M1431.5,791.3v-2.5h2.5h2.5v2.5v2.5h0.9h0.9v-5.5v-5.5
	h-0.9h-0.9v2.2v2.2h-2.5h-2.5V785v-2.2h-0.9h-0.9v5.5v5.5h0.9h0.9V791.3z M1442.3,791.4v-2.4h2c2.7,0,3.3,0.5,3.3,3v1.7h1.1
	c1,0,1.1-0.1,0.9-0.6c-0.1-0.3-0.3-1.4-0.4-2.4c-0.1-1-0.3-2-0.6-2.2c-0.4-0.3-0.4-0.4,0.1-0.9c0.3-0.3,0.6-1.1,0.7-1.8
	c0.1-1.1,0.1-1.4-0.8-2.2c-1-1-1-1-4.4-1h-3.5v5.5v5.5h0.8C1442.2,793.8,1442.3,793.7,1442.3,791.4L1442.3,791.4z M1458,793
	c0-0.8,0-0.8-2.7-0.8c-3.3,0-3.3-0.2-0.4-2.1c2.6-1.7,3.1-2.4,3.1-4c0-1.7-0.7-2.6-2.3-3c-2.5-0.7-4.3,0.4-4.8,2.8
	c-0.2,1-0.2,1,0.8,1c0.8,0,1-0.1,1-0.8c0-1.9,3-2.2,3.6-0.4c0.3,0.8,0.2,1-0.8,1.9c-0.6,0.5-1.7,1.3-2.5,1.8c-1.5,0.9-2.2,2-2.2,3.4
	v1h3.6h3.6L1458,793z M1302.8,790.9v-2.5h2.7h2.7v2.5v2.5h0.9h0.9V788v-5.5h-0.9h-0.9v2.2v2.2h-2.7h-2.7v-2.2c0-2.1,0-2.2-0.8-2.2
	h-0.8v5.5v5.5h0.8C1302.8,793.5,1302.8,793.4,1302.8,790.9z M1313.8,791.1v-2.4l2.2,0.2c1.3,0.1,2.3,0.3,2.5,0.6
	c0.1,0.2,0.3,1.2,0.5,2.2l0.2,1.9h1.1c1,0,1.4-0.4,0.8-0.8c-0.2-0.1-0.3-0.9-0.3-1.8c0-0.9-0.2-1.9-0.4-2.3c-0.4-0.5-0.4-0.7,0-1.1
	c0.3-0.3,0.5-1,0.5-1.6c0.1-2.8-0.9-3.4-5.5-3.4h-3.3v5.5v5.5h0.9h0.9L1313.8,791.1z M1327.3,788.1v-5.4h-0.8
	c-0.4,0-0.8,0.1-0.8,0.3c0,0.6-1.3,1.6-2,1.6c-0.6,0-0.8,0.2-0.8,0.8c0,0.7,0.1,0.8,1.3,0.8h1.3v3.6v3.6h0.9h0.9L1327.3,788.1z
	 M1366.4,790.9v-2.5h2.7h2.7v2.5v2.5h0.9h0.9V788v-5.5h-0.9h-0.9v2.2v2.2h-2.7h-2.7v-2.2c0-2.1,0-2.2-0.8-2.2h-0.8v5.5v5.5h0.8
	C1366.4,793.5,1366.4,793.4,1366.4,790.9z M1377.4,791.3v-2.2h2.3c1.3,0,2.4,0.1,2.6,0.3c0.1,0.2,0.3,1.2,0.4,2.2l0.2,1.9h1.1
	c0.9,0,1.1-0.1,0.9-0.6c-0.1-0.3-0.3-1.3-0.4-2.3c-0.1-1-0.4-2-0.6-2.2c-0.3-0.4-0.3-0.5,0.1-0.9c0.6-0.5,0.9-2.2,0.5-3.2
	c-0.5-1.4-1.8-1.8-5.4-1.8h-3.2v5.5v5.5h0.8C1377.4,793.5,1377.4,793.4,1377.4,791.3L1377.4,791.3z M1390.9,788.1v-5.4h-0.8
	c-0.4,0-0.8,0.2-0.8,0.4c0,0.6-1,1.4-1.9,1.5c-0.5,0.1-0.8,0.3-0.9,0.8c-0.1,0.6,0,0.7,1.2,0.7h1.3v3.6v3.6h0.9h0.9L1390.9,788.1z
	 M1272.4,791.4c0.5-1.9,1.9-4.7,3.1-6.4c0.4-0.6,0.8-1.4,0.8-1.8c0-0.7,0-0.7-3.8-0.7h-3.8v0.8c0,0.8,0,0.8,2.8,0.8h2.8l-1.3,2
	c-1.3,1.9-2.7,5.3-2.7,6.6c0,0.5,0.2,0.6,0.8,0.5C1271.9,793,1272.1,792.8,1272.4,791.4L1272.4,791.4z M1307.5,768.6
	c1.8-0.9,4-3,4.8-4.6l0.6-1.2l0.9,1.6c1.2,2,3.1,3.7,5.3,4.5c2.5,0.9,7.1,0.8,9.3-0.3c2.2-1.1,4.4-3.4,5.2-5.6l0.7-1.8v-83.8v-83.8
	l-0.7-1.8c-0.9-2.1-3.1-4.6-5-5.4l-1.3-0.6l1.5-0.8c2-1,4.2-3.5,5-5.7c0.6-1.7,0.7-2.3,0.6-10l-0.1-8.2l-0.9-1.8c-1-2-3-3.9-5.2-5
	c-1.3-0.6-2-0.7-4.8-0.7c-2.8,0-3.5,0.1-4.8,0.7c-2,1-3.9,2.7-4.9,4.4l-0.8,1.4l-0.6-1.2c-0.9-1.7-2.9-3.6-4.9-4.5
	c-1.6-0.7-2.2-0.8-4.9-0.8c-2.8,0-3.3,0.1-4.9,0.9c-2.2,1.1-4.7,3.7-5.5,5.8c-0.4,1.2-0.6,2.8-0.7,8.3c-0.1,7.2,0.1,9.6,1.2,11.8
	c0.8,1.7,2.7,3.7,4.4,4.6l1.3,0.7l-1.4,0.7c-2,1-4.2,3.5-5,5.6l-0.7,1.8v83.6V761l0.7,1.8c1.1,2.9,3.8,5.4,6.9,6.4
	c0.4,0.1,2.2,0.2,3.9,0.2C1305.5,769.4,1306.3,769.2,1307.5,768.6L1307.5,768.6z M1370.6,768.5c1.9-1,4-3,4.7-4.7l0.6-1.2l0.7,1.3
	c0.9,1.8,2.9,3.7,4.8,4.6c2.3,1.1,6.8,1.3,9.3,0.3c2.4-0.9,4.7-3,5.8-5.3l0.9-1.8v-39.1v-39.1l-1-2.1c-1-2.1-3.2-4.3-4.8-4.8
	c-0.6-0.2-0.5-0.3,0.7-1.1c1.9-1.2,3.9-3.6,4.6-5.5c0.5-1.5,0.6-3.3,0.6-26v-24.4l-1-2.1c-2-4-5.2-5.9-10-5.9
	c-4.5,0-7.6,1.7-9.6,5.1l-0.9,1.6l-0.5-1c-0.8-1.6-3-3.8-4.7-4.7c-1.5-0.8-1.9-0.8-5.2-0.8c-3.2,0-3.8,0.1-5.2,0.8
	c-3.2,1.6-5.3,4.6-5.8,8.3c-0.4,2.8-0.4,44.6,0,47.2c0.2,1.1,0.7,2.7,1.2,3.6c0.9,1.7,3.5,4.2,4.7,4.5c0.7,0.2,0.6,0.3-0.9,1.2
	c-2,1.2-3.9,3.6-4.5,5.7c-0.4,1.3-0.5,6.9-0.5,39.7V761l0.7,1.8c1.1,2.9,3.8,5.4,6.9,6.4c0.4,0.1,2.2,0.2,3.9,0.2
	C1368.6,769.4,1369.3,769.2,1370.6,768.5L1370.6,768.5z M1432.5,768.9c2.1-0.8,4.2-2.6,5.3-4.5l0.9-1.6l0.8,1.4
	c1.1,1.9,3.4,3.8,5.5,4.6c2.6,1,7.1,0.8,9.4-0.4c2-1,3.9-2.9,4.9-4.9l0.7-1.5V721V680l-0.8-1.6c-0.9-1.7-3.2-4-4.5-4.6
	c-0.4-0.2-0.8-0.5-0.8-0.6c0-0.1,0.6-0.5,1.2-0.9c1.6-0.9,3.4-2.9,4.2-4.7l0.7-1.5v-31.2v-31.2l-0.7-1.4c-1.1-2.2-2.7-3.9-4.9-5
	c-1.9-1-2.1-1.1-5.3-1.1c-2.7,0-3.6,0.1-4.8,0.7c-1.9,0.9-3.9,2.7-5,4.6l-0.9,1.5l-0.6-1.3c-0.7-1.6-3.2-3.9-5.1-4.8
	c-1.2-0.5-2.1-0.7-4.6-0.7c-2.7,0-3.4,0.1-4.9,0.8c-2.4,1.1-3.8,2.4-5.1,4.8l-1.1,2v31.2v31.2l0.8,1.6c0.9,1.8,3.2,4.3,4.7,4.9
	c1.2,0.6,1.3,0.7,0.2,1.2c-1.1,0.5-3,2.2-4,3.7c-1.9,2.8-1.8,1.4-1.7,44.6l0.1,39.5l0.9,1.9c1.1,2.3,3.5,4.6,5.7,5.5
	C1426,769.7,1430.3,769.8,1432.5,768.9L1432.5,768.9z M1495.2,768.9c2.1-0.8,4.1-2.5,5.2-4.5l0.9-1.6l0.6,1.2c0.8,1.6,3,3.6,4.8,4.6
	c1.2,0.7,1.8,0.7,5,0.7s3.8-0.1,5-0.7c1.9-1,4-3,5-4.9l0.8-1.6l0.1-42.3c0.1-47.1,0.2-44.1-2.1-47.1c-0.7-0.9-1.9-2-2.8-2.6l-1.6-1
	l1.4-0.8c1.9-1.1,3.8-3.4,4.6-5.5c0.6-1.6,0.7-2.3,0.6-6.8c-0.1-4.7-0.2-5.1-0.9-6.6c-1-2-3.1-4-5-4.9c-1.1-0.6-2.1-0.7-4.7-0.8
	c-3-0.1-3.3-0.1-5.2,0.8c-2.2,1-4.1,2.8-5,4.6l-0.6,1.2l-0.6-1.2c-0.9-1.7-2.6-3.4-4.5-4.4c-1.4-0.8-2.1-0.9-4.7-1
	c-3.7-0.2-5.5,0.4-7.8,2.2c-3.1,2.5-4.3,6.1-4,12.2c0.1,1.9,0.4,4,0.7,4.8c0.6,1.8,3.2,4.7,5,5.6l1.3,0.6l-1.6,0.9
	c-1.9,1.1-3.4,2.8-4.5,5l-0.8,1.7v42c0,39.5,0,42.1,0.6,43.6c1.1,3.1,3.7,5.7,6.6,6.6C1489.2,769.7,1493.3,769.6,1495.2,768.9
	L1495.2,768.9z M1558.9,768.5c1.9-1,3.8-2.8,4.6-4.5l0.6-1.2l0.9,1.6c1.1,2,3.5,3.9,5.6,4.6c2.3,0.8,6.9,0.6,8.8-0.4
	c2.3-1.2,4-2.8,5.1-5l1-2.1v-43.5v-43.5l-0.9-1.9c-1.1-2.3-2.7-4-4.8-5.1l-1.6-0.8l1.5-0.8c2.9-1.5,4.8-4,5.5-7.3
	c0.6-2.6,0.5-15.9-0.1-18.2c-1.3-5.2-5.8-8.3-11.5-8c-4,0.2-7.5,2.3-9.1,5.5l-0.6,1.2l-0.8-1.4c-1-1.8-3-3.6-4.9-4.5
	c-1.2-0.6-2-0.7-4.8-0.7c-2.8,0-3.5,0.1-4.8,0.7c-2.2,1.1-4.2,3-5.2,5l-0.9,1.8v9.6c0,9.2,0,9.7,0.7,11.1c0.9,2,3,4.2,4.8,5.1
	l1.5,0.8l-1,0.4c-1.9,0.8-3.9,2.7-5,4.7l-1.1,2v43.9v43.9l0.7,1.5c1.2,2.7,3.9,5,6.7,6c0.4,0.1,2.2,0.2,3.9,0.2
	C1556.9,769.4,1557.6,769.2,1558.9,768.5L1558.9,768.5z"/>
<path id="path146" class="st5" d="M1083.5,630.4c0-63.4-0.1-89.8-0.3-90.8c-0.6-3.1-2.9-6.2-5.5-7.4l-1.2-0.6l1.3-0.6
	c1.7-0.8,3.8-3,4.7-4.8l0.7-1.5v-17.4v-17.4l-0.7-1.4c-1.1-2.2-2.8-3.9-5-5l-1.9-0.9h-3.2c-3.1,0-3.2,0-4.8,0.8c-2,1-4,2.8-5,4.6
	l-0.7,1.3l-0.7-1.3c-1-1.8-2.7-3.5-4.7-4.4c-0.9-0.5-1.8-0.8-2-0.8c-0.3,0-0.3-0.7-0.3-3.4v-3.4h180.9H1416l0.1,122l0.1,122h-9.3
	h-9.3l-0.1-18l-0.1-18l-0.9-1.9c-1-2.1-2.4-3.7-4.3-4.8l-1.3-0.7l1.3-0.7c2.8-1.6,4.7-4.5,5.1-7.9c0.3-2.9,0.3-45.5,0-47.4
	c-0.6-3.3-2.7-6.1-5.8-7.6c-1.7-0.9-2-0.9-4.5-1c-2.2-0.1-2.9,0-4.3,0.4c-2.7,0.8-4.9,2.7-6.2,5.3l-0.6,1.2l-0.7-1.3
	c-0.9-1.9-3-3.8-4.9-4.7c-1.6-0.8-1.8-0.8-4.8-0.8c-3.6,0-4.2,0.2-6.4,1.6c-1.9,1.2-3.5,3.4-4.2,5.5c-0.5,1.5-0.5,2.2-0.5,25.4
	c0,23.2,0,23.9,0.5,25.4c0.6,2.1,2.3,4.2,4.2,5.5c0.8,0.5,1.6,1,1.7,1c0.1,0-0.4,0.4-1.2,0.9c-3,2-4.6,4.5-5,7.8
	c-0.1,1-0.2,9.2-0.2,18.2l0,16.4h-10h-10l-0.1-63.3l-0.1-63.3l-0.8-1.7c-1-2-3.1-4.2-4.9-5l-1.3-0.6l1.4-0.7c2.6-1.2,4.8-4,5.5-6.9
	c0.5-1.9,0.5-14.9,0-16.9c-1.1-4.1-4.5-7.1-8.9-7.7c-4.8-0.7-9.3,1.4-11.5,5.3l-0.8,1.4l-0.7-1.3c-2.3-4.2-7.1-6.3-12.2-5.3
	c-3.7,0.7-6.8,3.4-8.1,7c-0.4,1.2-0.5,2.2-0.6,7.5c-0.2,7.2,0.1,9.7,1.1,12c0.9,1.9,2.8,3.9,4.7,4.8l1.3,0.7l-1.3,0.6
	c-1.9,0.9-4,3.1-4.9,5.1l-0.8,1.7l-0.1,63.3l-0.1,63.3h-9.9h-9.9l-0.1-59.8l-0.1-59.8l-0.8-1.7c-1-2-3.1-4.2-4.9-5.1l-1.3-0.6
	l1.3-0.6c1.8-0.8,3.9-3,4.9-5.1l0.8-1.7v-16v-16l-0.8-1.7c-1.1-2.2-2.9-4-5.1-5.1c-1.6-0.8-1.7-0.8-4.9-0.8c-3.3,0-3.3,0-5,0.8
	c-2,1-4.1,3-4.8,4.6c-0.3,0.6-0.5,1-0.6,1c-0.1,0-0.3-0.4-0.6-1c-0.8-1.7-2.7-3.5-4.7-4.6l-1.9-0.9h-3.3c-3.2,0-3.3,0-4.9,0.8
	c-2.8,1.4-5.1,4.2-5.8,7.2c-0.2,0.7-0.2,6.7-0.3,15.7c0,13.9,0,14.7,0.5,16.2c0.9,2.9,3.1,5.4,5.7,6.4l1.1,0.4l-1.2,0.6
	c-2.7,1.2-4.6,3.5-5.5,6.4c-0.5,1.5-0.5,2.5-0.5,60.8v59.2h-10.1h-10.1v-56c0-54.3,0-56.1-0.5-57.5c-0.9-2.8-2.9-5.2-5.4-6.4
	l-1.2-0.6l1.4-0.7c2.6-1.3,4.9-4.2,5.5-7.1c0.2-0.8,0.2-10.5,0.2-28.7l-0.1-27.5l-0.6-1.4c-1.6-3.9-5.1-6.4-9.4-6.7
	c-4.7-0.3-9.2,2-10.9,5.7l-0.6,1.2l-0.6-1.2c-2.2-4.4-7.3-6.7-12.5-5.6c-4.1,0.9-7.3,4.1-8.2,8.2c-0.4,1.7-0.4,53.7,0,55.6
	c0.6,3.1,2.9,6.1,5.6,7.5l1.4,0.7l-1.4,0.7c-1.7,0.8-3.6,2.6-4.4,4.3c-1.4,2.9-1.4-1-1.4,59.8v55.8h-9.4h-9.4v-82.2
	c0-54.9-0.1-82.7-0.2-83.5c-0.6-3.2-2.9-6.3-5.5-7.5l-1.2-0.6l1.3-0.6c2.6-1.3,4.8-4.2,5.5-7.3c0.4-1.7,0.4-31.6,0-33.5
	c-0.6-3.2-2.7-6.1-5.5-7.5c-5.6-2.8-12.6-0.8-15.2,4.5l-0.6,1.2l-0.6-1.1c-2.5-5.2-9.4-7.3-15.1-4.7c-2.6,1.2-5,4.3-5.6,7.3
	c-0.4,1.8-0.4,31.9,0,33.7c0.6,3.1,3,6.2,5.6,7.4l1.2,0.6l-1.3,0.6c-1.6,0.8-3.6,2.7-4.4,4.3c-1.5,2.9-1.4-3.6-1.4,86.5v82.5h-10
	h-10L1083.5,630.4z"/>
<path id="path147" class="st6" d="M0,0"/>
<path id="path148" class="st5" d="M1069.2,809.3c0-20.7,0-21.3,0.5-21.3c0.8,0,1.2,0.8,1.3,2.6l0.1,1.8l1.1,0.1
	c1.1,0.1,1.2,0,0.8-0.7c-0.1-0.2-0.3-1.2-0.4-2.2c-0.1-1.2-0.3-1.9-0.6-2.2c-0.3-0.3-0.4-0.5-0.2-0.5c0.4,0,1-1.5,1-2.6
	c0-1.6-1.1-2.7-2.8-2.7h-0.8l0-6.2l0-6.2h3.2c3,0,3.3,0,4.7-0.7c2.9-1.3,4.6-3.2,5.8-6.1l0.6-1.5l0.1-92.1l0.1-92.1h10h10l0.1,92.5
	l0.1,92.5l0.8,1.7c1,2.2,2.9,4,5.1,5.1c1.6,0.8,1.8,0.8,5,0.8c3.2,0,3.3,0,5-0.8c1.9-1,3.7-2.7,4.7-4.5l0.7-1.3l0.6,1.2
	c0.8,1.6,3.2,3.9,5,4.8c1.4,0.6,1.7,0.7,4.8,0.7c3.2,0,3.4,0,5-0.8c2.2-1,3.9-2.8,5-5l0.9-1.8l0.1-92.5l0.1-92.5h9.5h9.5l0.1,7.5
	l0.1,7.5l0.8,1.7c1,2.1,2.9,4.1,4.8,5l1.3,0.6l-1.3,0.6c-2,1-3.7,2.6-4.8,4.8l-1,1.9v77.6v77.6l0.8,1.7c1,2.2,2.9,4,5.1,5.1
	c1.6,0.8,1.8,0.8,5,0.8c3.2,0,3.3,0,4.9-0.8c1.9-0.9,3.7-2.7,4.8-4.6l0.7-1.4l0.6,1.2c0.9,1.9,2.6,3.6,4.8,4.7l1.9,1h3.3
	c3.1,0,3.4,0,4.8-0.7c3.1-1.5,5.4-4.5,6-7.8c0.3-1.6,0.3-149.1,0-152.5c-0.1-1.7-0.4-2.6-1-3.8c-0.9-1.9-3.2-4.2-4.9-4.9l-1.1-0.5
	l1.2-0.6c1.9-0.9,3.9-2.9,4.8-4.7c1-2.1,1.2-3.8,1.2-11.1l0-6h10h10v3.3c0,1.8,0.1,3.9,0.3,4.6c0.6,3.2,2.8,6.2,5.6,7.5l1.4,0.7
	l-1.2,0.6c-3.2,1.4-5.4,4.7-5.8,8.3c-0.1,1.1-0.2,37.1-0.2,80.1c0,85.6-0.1,79.5,1.4,82.4c0.9,1.6,2.9,3.5,4.8,4.4
	c1.4,0.7,1.7,0.7,4.8,0.7c3.2,0,3.4,0,5-0.8c2-1,4.2-3,4.9-4.6c0.3-0.6,0.6-1.1,0.6-1.1c0.1,0,0.4,0.5,0.6,1.1
	c0.7,1.6,2.9,3.6,4.8,4.6c1.7,0.8,1.8,0.8,5,0.8c3.2,0,3.3,0,5-0.8c2.9-1.4,5.1-4.3,5.8-7.4c0.3-1.6,0.4-154.1,0.1-158.7
	c-0.2-2.5-0.3-3-1-4.3c-1-1.8-2.7-3.6-4.5-4.6l-1.3-0.7l1.3-0.6c1.6-0.7,3.7-3,4.7-4.8c0.7-1.4,0.7-1.5,0.8-6l0.1-4.6h10h10l0.5,1.7
	c0.8,3,3.5,6.1,5.9,7l0.8,0.3l-1.5,0.7c-1.9,1-3.9,3.1-4.9,5.2l-0.8,1.7v84.1v84.1l0.8,1.7c1.1,2.3,3,4.3,5.1,5.3
	c1.6,0.8,1.8,0.8,5,0.8c3.2,0,3.3,0,5-0.8c2-1,3.8-2.7,4.7-4.4c0.3-0.7,0.7-1.2,0.8-1.2c0.1,0,0.3,0.5,0.6,1
	c0.8,1.8,2.6,3.5,4.7,4.5c1.8,0.9,2.1,1,4.5,1c2.1,0.1,2.9,0,4.3-0.4c2.9-0.9,5.5-3.3,6.7-6.4l0.6-1.4l0.1-75.7
	c0-41.6,0-79.5-0.1-84.2l-0.2-8.5l-0.7-1.5c-0.9-1.8-3.1-4.1-4.8-4.9l-1.2-0.6l1.3-0.7c2.6-1.3,5.2-4.7,5.7-7.4l0.2-1h55.5h55.5v9.8
	v9.8l-1.5,0.7c-1.8,0.9-4.1,3.2-4.9,4.9l-0.5,1.1l-0.6-1.3c-1.3-2.7-4.4-5-7.4-5.5c-5.4-1-10.3,1.3-12.6,6l-0.7,1.5V635v31.2
	l0.7,1.4c0.9,1.9,2.6,3.7,4.4,4.8l1.5,0.9l-1,0.5c-2.7,1.3-5,4.5-5.5,7.5c-0.2,1.2-0.3,13-0.2,41l0.1,39.3l0.8,1.7
	c1.1,2.3,3,4.3,5.1,5.3c1.6,0.8,1.8,0.8,5,0.8c3.2,0,3.4,0,4.9-0.8c2.2-1.1,3.5-2.2,4.7-4.2l1-1.7l0.6,1.2c0.8,1.7,2.9,3.7,4.7,4.5
	l1.5,0.7l0,6.8l0,6.8h-2.4h-2.4v5.5v5.5h0.8h0.8v-2.3v-2.3h1.6h1.6v20.8v20.8h-188.2h-188.2L1069.2,809.3z M1336.3,793.2
	c1.5-0.8,2-3.6,0.8-4.8c-0.6-0.6-0.6-0.7-0.2-1.1c0.6-0.7,0.8-2.1,0.3-3c-0.8-1.5-3.3-2-4.9-1c-1.5,0.9-1.9,2.9-0.9,4.1
	c0.3,0.4,0.3,0.5-0.3,1.2c-0.8,0.9-0.9,2.4-0.3,3.5C1331.6,793.7,1334.3,794.2,1336.3,793.2z M1360.8,793.2c1-0.5,2-1.9,2.2-3.1
	c0.2-0.8,0.1-0.8-0.6-0.8c-0.7,0-0.8,0.2-1.3,1.1c-0.6,1.3-1.5,1.8-2.8,1.8c-2-0.1-3.1-1.6-3.1-4.1c0-1.9,0.5-3.2,1.6-3.8
	c1.6-0.9,3.4-0.6,4.3,0.9c0.4,0.7,0.7,0.8,1.3,0.8c0.7,0,0.8-0.1,0.6-0.7c-0.6-2.4-3.4-3.7-6.2-2.9c-1.1,0.3-2.4,1.6-2.9,2.8
	c-0.6,1.3-0.5,4.4,0.1,5.7c0.5,1.2,1.8,2.3,2.8,2.5c0.4,0.1,0.8,0.2,0.9,0.2C1358.2,793.9,1359.9,793.6,1360.8,793.2L1360.8,793.2z
	 M1398.7,793.5c1.9-0.8,2.6-2.4,2.6-5.7c0-2.1-0.1-2.5-0.6-3.3c-1.6-2.6-5.6-2.1-6.4,0.8c-0.9,2.9,1.6,5.4,4.4,4.4l1.1-0.4l-0.2,0.8
	c-0.2,1.2-1,2.1-1.9,2.2c-0.9,0.1-1.8-0.5-1.8-1.1c0-0.2-0.3-0.3-0.8-0.3c-0.6,0-0.8,0.1-0.8,0.6c0,0.8,0.9,1.9,1.9,2.2
	C1397.4,793.9,1397.8,793.9,1398.7,793.5z M1425.2,793.6c1-0.4,1.8-1.2,2.4-2.3c0.7-1.4,0.6-1.7-0.4-1.7c-0.7,0-0.9,0.1-1.2,0.9
	c-0.6,1.7-2.6,2.4-4.3,1.5c-1.3-0.7-2-2.9-1.5-5.1c0.4-1.9,1.5-2.9,3.3-2.9c1.1,0,1.4,0.1,2,0.7c0.4,0.4,0.7,0.9,0.7,1.2
	c0,0.3,0.2,0.4,0.8,0.3c0.7-0.1,0.8-0.2,0.7-0.7c-0.1-0.9-1.2-2.3-2.2-2.7c-1.3-0.5-3.5-0.4-4.7,0.2c-0.6,0.3-1.3,1-1.7,1.6
	c-0.6,0.9-0.7,1.4-0.8,3.2c-0.1,3.1,0.6,4.7,2.6,5.8C1422,793.9,1424.2,794,1425.2,793.6L1425.2,793.6z M1297.2,793.1
	c1.1-0.5,2-1.8,2.2-3c0.2-0.8,0.1-0.8-0.6-0.8c-0.7,0-0.8,0.1-1.1,0.8c-1,2.5-4.5,2.7-5.6,0.3c-0.6-1.2-0.6-3.8,0-4.9
	c1.1-2.2,4.2-2.4,5.5-0.4c0.4,0.6,0.7,0.8,1.1,0.8c1.4,0,0.3-2.5-1.5-3.4c-1-0.5-3.1-0.5-4.1-0.1c-2,0.7-3.1,2.8-3.1,5.5
	c0,2.6,0.7,4.1,2.4,5.2C1293.3,793.8,1295.9,793.8,1297.2,793.1L1297.2,793.1z M1366.4,791l0.1-2.5h2.7h2.7v2.5v2.5h0.9h0.9V788
	v-5.6h-0.9h-0.9v2.3v2.3h-2.7h-2.7v-2.3v-2.3h-0.9h-0.9v5.4c0,3,0.1,5.5,0.2,5.6c0.1,0.1,0.5,0.1,0.8,0.1
	C1366.3,793.5,1366.3,793.5,1366.4,791L1366.4,791z M1377.3,791.1l0.1-2.4l2.2,0.1c2.7,0.1,3.1,0.5,3.1,2.7c0,0.8,0.1,1.6,0.2,1.8
	c0.3,0.5,2,0.3,1.8-0.2c-0.1-0.2-0.2-1.3-0.4-2.3c-0.2-1.1-0.4-2.1-0.6-2.3c-0.3-0.3-0.2-0.5,0.2-1.1c0.7-0.9,0.7-2.8,0-3.7
	c-0.7-0.9-1.9-1.2-5.3-1.2l-2.9,0v5.6v5.6l0.7-0.1l0.7-0.1L1377.3,791.1z M1390.8,788.2v-5.5h-0.6c-0.4,0-0.7,0.2-1,0.8
	c-0.3,0.7-0.6,0.9-1.4,1.1c-0.9,0.2-1.1,0.3-1.1,0.8c0,0.5,0.1,0.6,1.3,0.6h1.3v3.8v3.8h0.8h0.8V788.2z M1431.4,791.1v-2.5h2.7h2.7
	v2.5v2.5h0.9h0.9v-5.5v-5.5h-0.9h-0.9v2.2v2.2h-2.7h-2.7v-2.2v-2.2h-0.9h-0.9v5.5v5.5h0.9h0.9V791.1z M1235.1,793
	c1.5-0.8,2.2-1.6,2.6-3.2c0.2-0.7,0.1-0.7-0.7-0.7c-0.7,0-0.9,0.1-1.3,1c-0.7,1.6-2.6,2.2-4.2,1.4c-2.1-1.1-2.3-5.5-0.5-7.3
	c0.6-0.6,1-0.7,2-0.7c1.5,0,2.1,0.3,2.6,1.3c0.3,0.6,0.6,0.8,1.1,0.8c0.5,0,0.8-0.1,0.8-0.4c0-0.7-0.9-2.1-1.8-2.6
	c-1.1-0.7-4-0.7-5.2,0c-3.5,2.2-3.4,8.6,0.2,10.5C1231.9,793.5,1234.1,793.5,1235.1,793L1235.1,793z M1302.8,791v-2.4h2.7h2.7v2.4
	v2.4h0.9h0.9v-5.5v-5.5h-0.9h-0.9v2.3v2.3h-2.7h-2.7v-2.3v-2.3h-0.9h-0.9v5.5v5.5h0.9h0.9V791z M1313.7,791.1v-2.3h2
	c2.7,0,3.2,0.3,3.3,2.7l0.1,1.7l1.1,0.1c1.1,0.1,1.3-0.1,0.8-0.6c-0.1-0.1-0.3-1-0.4-2c-0.1-1-0.3-2-0.5-2.2
	c-0.3-0.4-0.3-0.5,0.2-1.1c0.7-0.8,0.7-2.8,0.1-3.6c-0.7-1-1.8-1.3-5.2-1.3h-3.1v5.5v5.5h0.8h0.8L1313.7,791.1z M1327.1,788v-5.3
	h-0.6c-0.4,0-0.7,0.2-0.9,0.8c-0.2,0.6-0.6,0.8-1.4,1.1c-0.9,0.2-1.1,0.4-1.1,0.9c0,0.5,0.1,0.6,1.3,0.6h1.3v3.7v3.7h0.8h0.8
	L1327.1,788z M1109.4,792.8c1.3-0.5,2.3-1.7,2.7-3.3c0.2-0.7,0.1-0.7-0.7-0.7c-0.8,0-0.9,0.1-1.2,0.9c-0.4,1.3-1.3,1.9-2.8,1.9
	c-1.5,0-2.3-0.6-2.9-2.2c-0.5-1.3-0.4-3.4,0.3-4.7c1.1-2.1,4.7-2,5.5,0.1c0.2,0.4,0.4,0.6,1,0.6c0.6,0,0.8-0.1,0.8-0.6
	c0-0.8-1-2.2-2-2.7c-1.1-0.6-3.4-0.6-4.7-0.1c-3.6,1.5-4,8.4-0.6,10.4C1105.9,793.2,1108.1,793.3,1109.4,792.8L1109.4,792.8z
	 M1148.9,792.7c0.4-0.2,1-0.9,1.2-1.5c1.4-2.8-0.3-5.3-3.5-5.1c-1.5,0.1-1.6-0.1-1.2-1.5c0.1-0.5,0.3-0.6,2.4-0.6h2.3v-0.8v-0.8
	h-2.9c-1.6,0-2.9,0.1-2.9,0.2c0,0.1-0.2,1.3-0.4,2.6c-0.2,1.3-0.4,2.6-0.4,2.7c0,0.4,1.4,0.4,1.8,0c0.5-0.6,1.7-0.7,2.5-0.3
	c0.8,0.4,1.1,0.9,1.1,1.8c0,2.2-2.7,3.2-3.8,1.4c-0.3-0.6-0.6-0.7-1.2-0.7c-0.8,0-0.8,0-0.6,0.8c0.3,1,0.5,1.2,1.4,1.8
	C1145.6,793.3,1147.8,793.3,1148.9,792.7L1148.9,792.7z M1172.2,792.8c1.3-0.7,2.2-1.8,2.6-3.3c0.2-0.7,0.1-0.7-0.7-0.7
	c-0.7,0-0.9,0.1-1.2,0.9c-0.5,1.3-1.4,1.9-2.8,1.9c-1.5,0-2.2-0.5-2.8-1.9c-1.3-3,0.2-6.5,2.9-6.5c1.2,0,2.3,0.7,2.7,1.7
	c0.2,0.4,0.4,0.6,1,0.6c0.6,0,0.8-0.1,0.8-0.6c0-1.7-2.1-3.2-4.3-3.2c-3.4,0-5.2,2-5.2,5.7c0,3.8,1.6,5.7,4.9,5.7
	C1171,793.1,1171.9,793,1172.2,792.8L1172.2,792.8z M1212,792.5c1.6-1.3,1.7-4.1,0.3-5.5c-0.7-0.7-1-0.8-2.3-0.8
	c-1.1,0-1.6,0.1-2.1,0.5l-0.6,0.5l0.1-0.5c0.1-0.3,0.2-0.8,0.3-1.2c0.2-0.9,1.2-1.8,2-1.8c0.7,0,1.7,0.7,1.7,1.2
	c0,0.2,0.3,0.3,0.8,0.3c0.9,0,1-0.6,0.3-1.8c-0.5-0.9-1.8-1.3-3.3-1.2c-2.1,0.2-3.3,2.3-3.3,5.8c0,2.2,0.4,3.3,1.4,4.2
	c0.8,0.7,1.1,0.8,2.4,0.8C1210.9,793.1,1211.3,793,1212,792.5L1212,792.5z M1241.2,790.6V788h2.7h2.7v2.5v2.5h0.9h0.9v-5.5v-5.5
	h-0.9h-0.9v2.2v2.2h-2.7h-2.7v-2.2v-2.2h-0.9h-0.9v5.5v5.5h0.9h0.9V790.6z M1252.1,790.8v-2.3h2.1c1.6,0,2.2,0.1,2.5,0.4
	c0.2,0.2,0.4,1.1,0.6,2.3l0.2,1.9h1c0.9,0,1-0.1,0.8-0.4c-0.1-0.2-0.3-1.3-0.4-2.3c-0.1-1.2-0.3-2-0.6-2.3c-0.4-0.4-0.4-0.5,0.1-1
	c0.6-0.7,0.9-2.2,0.5-3.2c-0.5-1.4-1.5-1.7-5.3-1.7l-3.4,0v5.5v5.5h0.9h0.9L1252.1,790.8z M1265.5,787.8v-5.3h-0.7
	c-0.5,0-0.8,0.2-1,0.8c-0.2,0.6-0.5,0.8-1.5,1c-1,0.2-1.2,0.4-1.2,0.9c0,0.6,0.1,0.6,1.3,0.6h1.3v3.7v3.7h0.9h0.9V787.8z
	 M1272.5,791.1c0.6-2.2,1.6-4.1,3-6.1c1.6-2.3,1.5-2.4-2.9-2.4l-3.7-0.1v0.7c0,0.9,0.4,1,3.3,1l2.1,0l-0.5,0.7
	c-1.5,2.2-2.2,3.7-2.8,5.5c-0.8,2.6-0.8,2.8,0.2,2.7C1271.9,793,1271.9,792.9,1272.5,791.1L1272.5,791.1z M1115.6,790.3v-2.5h2.7
	h2.7v2.5v2.5h0.9h0.9v-5.5V782h-0.9h-0.9v2.2v2.2h-2.7h-2.7v-2.2V782h-0.9h-0.9v5.5v5.5h0.9h0.9V790.3z M1126.5,790.6v-2.3h2
	c2.3,0,3.1,0.4,3.1,1.5c0,0.4,0.1,1.2,0.2,1.9c0.2,1.2,0.2,1.2,1.2,1.2c0.9,0,1-0.1,0.8-0.4c-0.1-0.2-0.3-1.3-0.4-2.3
	c-0.1-1.2-0.3-2-0.6-2.3c-0.4-0.4-0.4-0.5,0.1-1c0.7-0.8,0.9-2.1,0.4-3.2c-0.6-1.4-1.5-1.7-5.4-1.7h-3.2v5.5v5.5h0.9h0.9
	L1126.5,790.6z M1140,787.5v-5.3l-0.7,0c-0.5,0-0.8,0.2-1.1,0.8c-0.3,0.7-0.6,0.9-1.5,1c-0.9,0.2-1.1,0.3-1.1,0.8
	c0,0.5,0.1,0.6,1.3,0.6h1.3v3.7v3.7h0.9h0.9V787.5z M1178.3,790.4V788h2.7h2.7v2.4v2.4h0.9h0.9v-5.5V782h-0.9h-0.9v2.3v2.3h-2.7
	h-2.7v-2.3V782h-0.9h-0.9v5.5v5.5h0.9h0.9V790.4z M1189.2,790.6v-2.3h2c2.7,0,3,0.2,3.2,2.7l0.2,1.9h1c0.9,0,1-0.1,0.8-0.4
	c-0.1-0.2-0.3-1.3-0.3-2.3c-0.1-1.4-0.3-1.9-0.6-2.2c-0.4-0.3-0.4-0.4,0.1-0.9c0.7-0.7,0.9-2.1,0.5-3.3c-0.6-1.5-1.5-1.8-5.4-1.8
	l-3.2,0v5.5v5.5h0.9h0.9L1189.2,790.6z M1202.6,787.5v-5.3h-0.6c-0.4,0-0.7,0.2-0.8,0.4c-0.3,0.8-0.9,1.3-1.9,1.5
	c-0.8,0.1-1,0.3-1,0.8c0,0.6,0.1,0.6,1.3,0.6h1.3v3.7v3.7h0.9h0.9V787.5z M1079.1,787.3V782l-0.6,0c-0.4,0-0.7,0.3-1,0.7
	c-0.3,0.5-0.7,0.8-1.5,1c-0.9,0.2-1,0.4-1,0.9c0,0.6,0.1,0.6,1.3,0.6h1.3v3.7v3.7h0.8h0.8V787.3z M1088.5,791.3c0-1.2,0-1.3,0.8-1.3
	c0.7,0,0.8-0.1,0.8-0.8c0-0.7-0.1-0.8-0.8-0.8h-0.8v-3.3V782h-0.7c-0.6,0-1,0.4-3,3.2c-1.8,2.5-2.3,3.4-2.3,4.1v0.8h2.3h2.3v1.3
	c0,1.2,0,1.3,0.8,1.3C1088.5,792.6,1088.5,792.6,1088.5,791.3L1088.5,791.3z M1370.4,768.6c1.9-0.9,4.4-3.4,5.1-5l0.5-1.1l0.7,1.5
	c0.9,1.8,2.9,3.7,5,4.7c1.4,0.7,1.7,0.7,4.8,0.7c3.2,0,3.4,0,5-0.8c2.1-1,4.1-3,5.1-5l0.8-1.5v-39.3v-39.3l-0.7-1.4
	c-0.9-1.8-2.6-3.7-4.2-4.6c-0.7-0.4-1.3-0.8-1.3-0.9c0-0.1,0.5-0.4,1.1-0.7c2.4-1.3,4.4-4.1,4.9-7c0.2-1.1,0.3-8.2,0.2-25.2
	l-0.1-23.7l-0.8-1.7c-1.4-3-3.7-5-6.8-5.9c-2.1-0.6-5.8-0.4-7.8,0.4c-1.8,0.7-4.4,3-5.3,4.8l-0.7,1.3l-0.8-1.3
	c-1-1.9-2.9-3.6-4.8-4.5c-3-1.5-7.9-1.3-10.8,0.4c-2.4,1.4-4.4,4.3-4.9,7.1c-0.4,2-0.4,46.4,0,48.4c0.5,2.9,2.8,6,5.3,7.3l1.1,0.5
	l-1.5,1c-1.8,1.2-3.2,2.8-4.1,4.6c-0.6,1.2-0.7,1.9-0.8,5.2c-0.3,6.2-0.3,71.5,0,73.4c0.6,3.9,3.1,6.9,6.8,8.4
	c1.2,0.5,1.8,0.5,4.4,0.5C1368.5,769.4,1369,769.3,1370.4,768.6z"/>
<path id="path150" class="st6" d="M910.1,738.9v-92h2.4h2.4l0.1,57c0,53.1,0.1,57,0.4,58c0.9,3,3,5.4,5.5,6.7c1.8,0.9,3,1.1,5.2,1.1
	c1,0,2.3-0.1,2.8-0.2c1.5-0.3,3.5-1.4,4.6-2.4c1.1-1,2.4-2.8,2.7-3.9l0.2-0.7l0.6,1.2c1.3,2.7,3.5,4.6,6.2,5.5
	c1.9,0.6,5,0.7,6.9,0.2c3.4-0.9,6.2-3.6,7.4-7.1l0.4-1.2l0-57l0-57h9.7h9.7l0,57.2l0,57.2l0.4,1.1c1,2.6,2.9,4.8,5.3,6
	c1.6,0.8,3,1.1,5.1,1.1c3.6,0,5.7-0.8,8-3.2c0.9-0.9,1.6-1.8,2-2.6l0.6-1.2l0.5,1c1.2,2.5,3.6,4.6,6.3,5.4c1.2,0.4,1.9,0.5,3.5,0.5
	c1.1,0,2.5-0.1,3-0.2c3.7-0.9,6.7-3.7,7.9-7.6c0.3-0.9,0.3-4.9,0.4-58l0.1-57h10h10v57v57l0.5,1.5c1.2,3.4,3.5,5.6,6.9,6.7
	c1.5,0.5,4.7,0.6,6.3,0.2c2.9-0.7,5.7-2.9,7-5.4l0.6-1.3l0.6,1.3c1.2,2.5,3.9,4.6,6.6,5.3c1.5,0.4,4.9,0.4,6.4,0
	c3.7-1,6.9-4.3,7.6-8c0.1-0.7,0.2-17.7,0.2-57.7v-56.7h10.1h10.1v56.8c0,49.9,0,56.9,0.3,57.9c0.8,3.5,3.8,6.6,7.4,7.6
	c1.3,0.4,5,0.4,6.4,0c2.8-0.7,5.4-2.9,6.6-5.3l0.6-1.3l0.6,1.3c0.8,1.7,2.8,3.6,4.4,4.5c1.8,0.9,2.9,1.1,5.5,1.1
	c2.1,0,2.5-0.1,3.8-0.5c2.6-0.9,4.7-2.7,6-5.2c1.2-2.3,1.1,2.3,1.1-60v-56.9h9.6h9.6v57.1V761l0.4,1.1c1.2,3.5,3.9,6.1,7.3,7
	c0.6,0.2,1.9,0.3,3.3,0.3c2,0,2.5-0.1,3.7-0.5c0.8-0.3,1.7-0.6,2-0.8l0.6-0.4v9.3v9.3h-2.4h-2.4v-2.2V782h-0.8h-0.8v5.4v5.4h0.8h0.8
	v-2.5v-2.5h2.4h2.4l0,21.5l0,21.5h-136.5H910.1V738.9z M1109.7,792.7c0.9-0.5,1.9-1.6,2.2-2.6c0.4-1.2,0.3-1.3-0.6-1.3
	c-0.7,0.1-0.8,0.1-1,0.8c-0.5,1.4-1.9,2.3-3.4,2c-1.7-0.3-2.7-1.8-2.7-4.1c0-1.7,0.3-2.5,1-3.4c1.5-1.6,4.2-1.3,5,0.6
	c0.2,0.5,0.3,0.6,1,0.6c0.9,0,0.9-0.1,0.5-1.1c-0.8-2-3-2.9-5.5-2.4c-1.3,0.3-2.4,1.1-3.1,2.4c-0.5,0.9-0.6,1.2-0.6,2.8
	c-0.1,2.2,0.2,3.4,1.2,4.5c0.7,0.8,1.4,1.3,2.4,1.5C1107,793.3,1108.9,793.1,1109.7,792.7L1109.7,792.7z M1148.1,792.9
	c1.1-0.3,1.5-0.8,2.1-1.9c0.4-1,0.5-2.1,0.1-3c-0.3-0.8-1.4-1.7-2.2-1.9c-0.7-0.1-2.2,0-2.7,0.2c-0.3,0.1-0.3,0-0.1-1.2l0.2-1.3h2.3
	h2.3v-0.7v-0.7l-2.7,0.1c-1.5,0-2.8,0.1-2.8,0.2c-0.1,0.1-0.8,4.9-0.8,5.4c0,0.5,1.2,0.3,1.9-0.2c0.7-0.6,1.7-0.6,2.5-0.1
	c0.8,0.5,1,1,0.9,2.1c-0.1,1.3-0.9,2-2.1,2c-1,0-1.5-0.3-1.9-1.1c-0.2-0.5-0.3-0.6-0.9-0.6c-0.6,0-0.7,0.1-0.7,0.4
	c0,0.6,0.6,1.6,1,1.9C1145.4,793.2,1146.7,793.4,1148.1,792.9L1148.1,792.9z M1172.3,792.7c0.4-0.2,1-0.6,1.2-0.9
	c0.6-0.6,1.2-2,1.2-2.6c0-0.4-0.1-0.4-0.8-0.4c-0.7,0.1-0.8,0.1-1,0.8c-0.5,1.3-1.6,2.1-2.9,2.1c-2,0-3.3-1.6-3.3-4.3
	c0-1.6,0.4-2.7,1.3-3.5c1.5-1.4,4-1,4.8,0.7c0.3,0.7,0.4,0.8,1,0.8c0.4,0,0.7-0.1,0.8-0.2c0.2-0.3-0.3-1.5-0.9-2.2
	c-0.8-0.9-1.9-1.4-3.5-1.4c-3.6,0-5.6,2.8-5,6.9c0.3,2.2,1.4,3.7,3.2,4.3C1169.5,793.3,1171.4,793.2,1172.3,792.7L1172.3,792.7z
	 M1049,792.3c1.3-0.7,2.1-1.8,2.4-3.2l0.1-0.7h-0.8c-0.8,0-0.8,0-0.9,0.5c-0.3,1.3-1.6,2.4-2.9,2.4c-2.1,0-3.3-1.6-3.3-4.3
	c0-2.7,1.2-4.2,3.4-4.2c1.3,0,2.1,0.4,2.6,1.4c0.3,0.7,0.4,0.7,1.2,0.7c0.8,0,0.8,0,0.7-0.5c-0.6-2.1-2-3-4.4-3
	c-1.1,0-1.6,0.1-2.3,0.4c-2.1,1-3.2,3.7-2.7,6.6c0.3,2.1,1.4,3.5,3.1,4.2C1045.9,792.9,1048,792.8,1049,792.3L1049,792.3z
	 M1115.4,790.4v-2.5h2.8h2.8v2.5v2.5h0.8h0.8v-5.4V782h-0.8h-0.8v2.2v2.2h-2.8h-2.8v-2.2V782h-0.8h-0.8v5.4v5.4h0.8h0.8V790.4z
	 M1126.5,790.5v-2.3h1.7c2.2,0,2.8,0.1,3.2,0.6c0.1,0.2,0.3,1.2,0.4,2.1l0.1,1.7l1,0.1c1,0.1,1.2-0.2,0.8-0.6
	c-0.1-0.1-0.2-1-0.3-1.9c-0.1-1.4-0.2-1.8-0.6-2.2l-0.5-0.5l0.4-0.4c0.6-0.7,0.8-1.2,0.8-2.2c0-1.3-0.5-2.1-1.5-2.5
	c-0.7-0.3-1.2-0.4-3.9-0.4l-3.2,0v5.4v5.4h0.8h0.8V790.5z M1139.9,787.6v-5.2h-0.6c-0.6,0-0.7,0.1-0.9,0.7c-0.3,0.7-1.1,1.2-2,1.2
	c-0.4,0-0.5,0.1-0.5,0.6v0.6h1.2h1.2v3.7v3.7h0.8h0.8L1139.9,787.6z M918.8,792.1c0.4-0.2,0.9-0.6,1.2-0.9c0.6-0.6,1.2-2,1.2-2.6
	c0-0.4-0.1-0.4-0.8-0.4c-0.8,0-0.8,0-0.9,0.6c-0.2,0.9-1.3,2-2.2,2.2c-1.5,0.3-2.9-0.4-3.6-1.7c-0.3-0.7-0.4-1.1-0.4-2.4
	c0-2.7,1-4.1,3.1-4.3c1.2-0.1,2.4,0.5,2.9,1.4c0.3,0.6,0.4,0.7,1.2,0.7c0.8,0,0.8,0,0.7-0.5c-0.3-1.2-1.1-2.1-2.3-2.7
	c-1-0.5-3.3-0.5-4.5,0.1c-2.1,1-3.1,3.4-2.7,6.5c0.3,2.2,1.4,3.8,3.2,4.3C915.9,792.7,917.9,792.6,918.8,792.1L918.8,792.1z
	 M984.1,792.1c0.4-0.2,1-0.6,1.2-0.9c0.6-0.6,1.2-2,1.2-2.6c0-0.4-0.1-0.4-0.8-0.4c-0.7,0-0.8,0-0.9,0.5c-0.4,1.9-2.5,2.9-4.2,2.2
	c-1.7-0.7-2.5-3.4-1.8-5.9c0.8-2.8,4.6-3.4,5.8-1c0.4,0.8,0.4,0.8,1.2,0.8c0.8,0,0.8,0,0.7-0.5c-0.3-1.4-1.3-2.5-2.6-3
	c-1-0.4-3-0.3-4.1,0.2c-2.2,0.9-3.3,3.6-2.8,6.6c0.3,2.1,1.4,3.5,3.1,4.2C981,792.8,983.1,792.6,984.1,792.1L984.1,792.1z
	 M1022.6,792.4c1.6-0.5,2.6-2.3,2.1-4c-0.2-0.7-0.9-1.7-1.3-1.7c-0.1,0,0.1-0.2,0.4-0.5c0.5-0.5,0.5-0.7,0.5-1.6c0-2-1-2.8-3.3-2.9
	c-2.1,0-3.1,0.8-3.4,2.8l-0.1,0.8h0.7c0.7,0,0.7,0,0.9-0.7c0.4-1.5,2.1-2,3.2-0.9c0.6,0.6,0.7,1,0.3,1.7c-0.3,0.6-0.9,0.9-1.8,0.9
	c-0.7,0-0.7,0-0.7,0.6c0,0.6,0,0.6,0.5,0.6c1.4,0,2.3,0.5,2.5,1.4c0.3,1.1-0.4,2-1.6,2.3c-1.4,0.4-2.4-0.3-2.7-1.7
	c-0.1-0.5-0.2-0.5-0.9-0.5h-0.8l0.1,0.8c0.1,1.1,0.8,2.1,1.7,2.5C1020,792.7,1021.6,792.8,1022.6,792.4L1022.6,792.4z M989.9,789.9
	v-2.6h2.7h2.7l0.1,2.5l0.1,2.5l0.8,0.1l0.8,0.1V787v-5.5H996h-0.8v2.2v2.2h-2.7h-2.7v-2.2v-2.2H989h-0.8v5.5v5.5h0.8h0.8
	L989.9,789.9z M1000.9,790.1v-2.4l2.1,0.1c2.8,0.1,2.9,0.2,3.1,2.7c0.1,0.9,0.2,1.8,0.2,1.9s0.5,0.2,1,0.2c0.9,0,1.2-0.2,0.7-0.7
	c-0.1-0.1-0.3-1-0.3-2c-0.1-1.7-0.5-2.7-1-2.7c-0.1,0,0-0.2,0.3-0.5c1.4-1.4,1.1-3.9-0.5-4.7c-0.6-0.3-1.1-0.4-4-0.4l-3.3-0.1v5.5
	v5.5h0.8h0.8V790.1z M1014.1,787.1v-5.3h-0.5c-0.5,0-0.6,0.1-0.8,0.6c-0.3,0.6-1.1,1.2-1.7,1.2c-0.7,0-0.9,0.2-0.9,0.8v0.5h1.3h1.3
	v3.8v3.8h0.7h0.7L1014.1,787.1z M1054.8,790v-2.5h2.7h2.7v2.5v2.5h0.8h0.8V787v-5.4h-0.8h-0.8v2.2v2.2h-2.7h-2.7v-2.2v-2.2h-0.8
	h-0.8v5.4v5.4h0.8h0.8V790z M1065.8,790.2v-2.3l2.1,0.1c2.1,0.1,2.1,0.1,2.6,0.6c0.3,0.4,0.4,0.7,0.4,1.3c0,0.4,0.1,1.2,0.1,1.7
	l0.1,1h1c0.5,0,1,0,1-0.1s-0.1-0.3-0.3-0.6c-0.2-0.3-0.3-1-0.3-1.8c0-1.3-0.4-2.5-0.8-2.6c-0.3-0.1-0.2-0.2,0.2-0.6
	c1.3-1.4,1-3.9-0.6-4.7c-0.6-0.3-1.2-0.4-4-0.4l-3.3-0.1v5.4v5.4h0.8h0.8L1065.8,790.2z M1079,787.2V782h-0.6
	c-0.5,0-0.6,0.1-0.9,0.7c-0.3,0.7-0.8,1-2.1,1.2c-0.4,0.1-0.5,0.2-0.5,0.7v0.5h1.3h1.3v3.7v3.7h0.7h0.7V787.2z M1088.4,791.3v-1.2
	h0.7h0.7v-0.7v-0.7h-0.7h-0.7v-3.4c0-3.3,0-3.4-0.4-3.4c-0.7,0-1.1,0.4-2.3,2.1c-2.7,3.7-3.3,4.7-3.3,5.5v0.7h2.3h2.3v1.2v1.2h0.7
	h0.7L1088.4,791.3z M924.6,789.8v-2.5h2.8h2.8v2.5v2.5h0.8h0.8v-5.4v-5.4h-0.8h-0.8v2.2v2.2h-2.8h-2.8v-2.2v-2.2h-0.8h-0.8v5.4v5.4
	h0.8h0.8V789.8z M935.6,790v-2.3h1.8c1.9,0,2.9,0.2,3.1,0.7c0.1,0.2,0.2,1.1,0.3,2.1l0.1,1.8h1c1.1,0,1.1,0,0.8-0.6
	c-0.1-0.2-0.3-1.2-0.3-2.1c-0.1-1.4-0.2-1.8-0.5-2.2l-0.4-0.5l0.4-0.4c0.6-0.7,0.8-1.2,0.8-2.1c0-1.1-0.5-2.1-1.3-2.5
	c-0.6-0.3-1-0.4-4-0.4l-3.4-0.1v5.4v5.4h0.8h0.8L935.6,790z M948.9,787v-5.2h-0.5c-0.5,0-0.6,0.1-0.8,0.6c-0.3,0.7-0.7,1-1.8,1.2
	c-0.7,0.1-0.8,0.2-0.8,0.7l-0.1,0.6h1.3h1.3v3.7v3.7h0.7h0.7L948.9,787z M959.7,791.6V791h-2.8c-1.6,0-2.8-0.1-2.8-0.2
	c0-0.4,1.1-1.4,2.6-2.3c1.8-1.1,2.6-1.7,2.9-2.6c0.7-1.7-0.5-3.8-2.3-4.2c-2.5-0.6-4.3,0.6-4.6,2.9l-0.1,0.9h0.7
	c0.7,0,0.7,0,0.9-0.8c0.2-1.1,0.9-1.8,2-1.8c1.1,0,1.8,0.5,1.9,1.6c0.1,1-0.4,1.6-2.4,2.8c-2.3,1.4-3,2.2-3.2,3.9l-0.1,0.9h3.7h3.7
	L959.7,791.6z M0,0"/>
<path id="path151" class="st5" d="M831.4,797.2l0-5.3l0.4-0.2c0.8-0.3,1.4-1.2,1.8-2.3c0.6-1.7,0.5-4.3,0-5.9
	c-0.4-1.1-1.1-1.9-2.1-2.2c-0.1,0-0.1-0.5-0.1-8.9v-8.9l0.2-0.5c0.2-0.6,0.5-1.5,0.7-2.1c0.2-1,0.2-1.7,0.2-10.1v-8.4h9.9h9.9l0,8.2
	c0,4.9,0,8.5,0.1,8.9c0.4,4.8,3.8,8.6,8.5,9.6c0.5,0.1,0.9,0.1,2.1,0.2c0.9,0,1.7,0,2,0c3-0.4,5.8-2.1,7.5-4.6
	c0.4-0.6,0.9-1.6,1.1-2.1l0.1-0.4l0.3,0.7c1.4,3.3,4.1,5.6,7.7,6.3c0.6,0.1,0.8,0.1,2.4,0.1c1.6,0,1.9,0,2.5-0.1
	c2.1-0.4,3.8-1.3,5.3-2.8c1.9-1.9,3-4.2,3.2-7c0-0.5,0.1-4.5,0.1-8.9l0-8.1h9.9h9.9l0,7.2c0,8.4,0,10.5,0.2,11.4
	c0.6,2.6,2.1,5,4.4,6.5l0.6,0.4v7.2v7.2l-0.3-0.3c-0.4-0.4-1-0.7-1.7-0.8c-0.7-0.2-2.2-0.2-2.9,0c-0.7,0.2-1.4,0.6-1.9,1
	c-1.2,1.1-1.7,2.5-1.7,4.4c0,2.4,0.7,4.1,2.2,5.1c0.7,0.5,1.5,0.7,2.6,0.7c1.4,0,2.4-0.4,3.3-1.2l0.3-0.3l0,5.8l0,5.8h-44.4h-44.4
	L831.4,797.2z M857.1,792.1c0.8-0.2,1.4-0.5,2-1.2c0.4-0.5,0.6-0.6,0.8-1.1c0.3-0.6,0.5-1.3,0.5-1.7v-0.2l-0.7,0l-0.7,0l-0.1,0.5
	c-0.2,0.7-0.5,1.2-0.9,1.6c-0.6,0.6-1.2,0.8-2.1,0.8c-1,0-1.8-0.3-2.4-0.9c-0.7-0.7-1-1.7-1.1-3c-0.1-1.8,0.3-3.1,1.2-3.9
	c0.7-0.6,1.3-0.9,2.3-0.9c1.5,0,2.4,0.6,2.8,1.8l0.1,0.4h0.7h0.7l0-0.2c-0.2-1-0.7-2-1.5-2.5c-0.8-0.6-1.6-0.8-2.9-0.8
	c-1.5,0-2.6,0.4-3.5,1.3c-0.7,0.7-1.2,1.6-1.4,2.7c-0.1,0.6-0.2,1.9-0.1,2.6c0.2,1.5,0.6,2.5,1.5,3.4c0.7,0.7,1.6,1.1,2.6,1.3
	C855.6,792.3,856.5,792.2,857.1,792.1L857.1,792.1z M863.8,789.4v-2.5h2.8h2.8v2.5v2.5h0.7h0.7v-5.4v-5.4h-0.7h-0.7v2.2v2.2h-2.8
	h-2.8v-2.2v-2.2H863h-0.7v5.4v5.4h0.7h0.7V789.4z M874.7,789.6v-2.3l1.9,0c1,0,2,0,2.2,0.1c0.5,0.1,0.9,0.3,1.1,0.7
	c0.2,0.3,0.2,0.4,0.3,1.9c0,0.8,0.1,1.6,0.1,1.7l0.1,0.2h0.9c0.9,0,0.9,0,0.9-0.1c0-0.1-0.1-0.2-0.2-0.3c-0.3-0.3-0.3-0.7-0.4-2.2
	c0-0.7-0.1-1.4-0.1-1.5c-0.1-0.4-0.4-0.8-0.7-1c-0.2-0.1-0.3-0.2-0.3-0.2c0,0,0.1-0.1,0.3-0.2c0.4-0.3,0.8-0.8,0.9-1.3
	c0.1-0.4,0.2-1.4,0.1-1.9c-0.2-1-0.9-1.6-2.1-1.9c-0.4-0.1-0.6-0.1-3.4-0.2l-3,0v5.4v5.4h0.7h0.7V789.6z M888.2,786.7v-5.2h-0.6H887
	l-0.1,0.4c-0.2,0.5-0.5,1-0.8,1.1c-0.3,0.1-1,0.3-1.6,0.4l-0.3,0v0.5v0.5h1.2h1.2v3.7v3.7h0.7h0.7L888.2,786.7z M895.4,786.7v-5.2
	h-0.6h-0.6l-0.1,0.4c-0.2,0.5-0.4,0.9-0.7,1.1c-0.3,0.2-0.7,0.3-1.4,0.4l-0.6,0.1v0.5v0.5h1.2h1.2v3.7v3.7h0.7h0.7L895.4,786.7z"/>
<path id="path152" class="st5" d="M773.5,770.8v-30h8h8l0,9.5c0,10.2,0,10,0.3,11.2c0.9,3.5,3.5,6.3,6.9,7.4
	c1.4,0.5,1.7,0.5,3.8,0.5c1.6,0,1.9,0,2.5-0.1c2.2-0.5,4.1-1.5,5.6-3.1c1-1,1.8-2.3,2.2-3.5l0.2-0.5l0.1,0.3c1.1,3,3.6,5.4,6.5,6.4
	c1.3,0.4,1.7,0.5,3.4,0.5c2.1,0,3-0.1,4.5-0.6c3.4-1.3,6-4.2,6.7-7.8c0.2-1,0.2-1.7,0.2-11l0-9.2h9.9h9.9l0,9.1c0,5.6,0,9.4,0.1,9.9
	c0.4,5.2,4.5,9.3,9.6,9.7l0.5,0l0,15.6l0,15.6h-44.4h-44.4L773.5,770.8z M857.1,792.1c1.3-0.3,2.5-1.2,3-2.5
	c0.2-0.4,0.4-1.2,0.4-1.5v-0.2l-0.7,0l-0.7,0l-0.1,0.5c-0.2,0.7-0.5,1.2-0.9,1.6c-0.6,0.6-1.2,0.8-2.1,0.8c-1,0-1.8-0.3-2.4-0.9
	c-0.7-0.7-1-1.7-1.1-3c-0.1-1.8,0.3-3.1,1.2-3.9c0.7-0.6,1.3-0.9,2.3-0.9c1.5,0,2.4,0.6,2.8,1.8l0.1,0.4h0.7h0.7l0-0.2
	c-0.1-0.8-0.5-1.5-1.1-2.2c-0.3-0.3-0.5-0.5-1-0.7c-0.7-0.4-1.3-0.5-2.3-0.5c-1.5,0-2.6,0.4-3.5,1.3c-0.7,0.7-1.1,1.5-1.4,2.6
	c-0.2,0.7-0.2,2.6,0,3.4c0.5,2.3,1.9,3.7,4,3.9C855.6,792.3,856.5,792.2,857.1,792.1L857.1,792.1z M792.2,791.9
	c1.8-0.4,3.1-1.9,3.4-3.9l0-0.3h-0.7h-0.7l-0.1,0.4c-0.3,1-0.9,1.9-1.6,2.2c-0.5,0.2-0.8,0.3-1.4,0.3c-1,0-1.7-0.3-2.3-0.9
	c-0.8-0.9-1.2-2.3-1.1-4c0.1-0.9,0.2-1.4,0.5-2c0.4-0.9,1.3-1.6,2.2-1.7c0.8-0.2,1.8,0,2.4,0.3c0.5,0.3,1.2,1.1,1.3,1.7l0,0.2h0.7
	c0.9,0,0.8,0,0.6-0.6c-0.2-0.6-0.5-1.2-1-1.7c-0.6-0.6-1-0.8-1.8-1c-0.6-0.2-2.4-0.2-2.9,0c-1.7,0.5-3,1.8-3.4,3.6
	c-0.2,0.6-0.2,2.3-0.1,3.1c0.3,2.5,1.7,4,3.8,4.4C790.5,792.1,791.6,792.1,792.2,791.9L792.2,791.9z M831.1,792
	c1.5-0.3,2.4-1.6,2.8-3.7c0.3-1.7,0.1-3.5-0.3-4.7c-0.5-1.5-1.7-2.3-3.2-2.3c-2,0-3.3,1.4-3.6,4.2c-0.1,0.8,0,2.6,0.1,3.2
	c0.5,2.2,1.6,3.4,3.4,3.4C830.5,792.1,830.9,792,831.1,792L831.1,792z M798.9,789.3v-2.5h2.8h2.8v2.5v2.5h0.8h0.8v-5.4v-5.4h-0.8
	h-0.8v2.2v2.2h-2.8h-2.8v-2.2v-2.2h-0.8h-0.8v5.4v5.4h0.8h0.8V789.3z M809.9,789.5v-2.3l2.1,0c2.2,0,2.4,0,2.7,0.4
	c0.4,0.4,0.5,0.7,0.6,2.8c0,0.6,0.1,1.2,0.1,1.2l0.1,0.2h0.9c0.9,0,0.9,0,0.9-0.1c0-0.1-0.1-0.2-0.1-0.2c-0.3-0.2-0.5-0.9-0.5-2.1
	c0-1.7-0.2-2.3-1-2.7l-0.3-0.1l0.2-0.1c0.3-0.2,0.8-0.8,1-1.1c0.2-0.5,0.3-0.9,0.2-1.6c-0.1-1.4-0.8-2.2-2.3-2.6
	c-0.3-0.1-1-0.1-3.3-0.1l-2.9,0v5.4v5.4h0.7h0.7L809.9,789.5z M823.2,786.5v-5.2l-0.5,0l-0.5,0l-0.1,0.4c-0.2,0.6-0.4,0.9-0.7,1.1
	c-0.3,0.2-1,0.4-1.6,0.4l-0.3,0v0.5v0.5h1.2h1.2v3.7v3.7h0.7h0.7V786.5z"/>
<path id="path153" class="st5" d="M705.1,785.6v-20.9l0.3-0.5c0.4-0.7,0.7-1.5,1-2.3c0.4-1.4,0.4-1.2,0.4-8.6v-6.7h9.9h9.9v6.5
	c0,4.2,0,6.7,0.1,7c0.4,4,3.1,7.4,6.8,8.8c1.3,0.5,2.3,0.6,4.1,0.6s2.8-0.2,4.1-0.6c2.7-1,5.1-3.3,6.1-5.9c0.1-0.3,0.2-0.6,0.3-0.6
	c0,0,0.1,0.2,0.2,0.4c0.2,0.6,0.6,1.4,1,2c1.6,2.4,4,4,6.8,4.6c0.6,0.1,0.8,0.1,2.5,0.1c1.6,0,1.9,0,2.4-0.1
	c4.1-0.9,7.2-3.8,8.2-7.7c0.3-1.2,0.3-1.4,0.3-8.5v-6.6h10.1h10.1v6.5c0,4.1,0,6.7,0.1,7.1c0.3,2.7,1.8,5.4,3.9,7.1l0.3,0.3v7v7
	l-0.5-0.2c-0.7-0.4-1.1-0.5-2.4-0.5c-1.2,0-1.5,0.1-2.3,0.4c-1.4,0.7-2.3,2-2.6,3.8c-0.1,0.6-0.1,2,0,2.7c0.3,2.2,1.6,3.8,3.4,4.3
	c1.4,0.4,3,0.1,4.1-0.6l0.2-0.2v7.7v7.7h-44.4h-44.4L705.1,785.6z M737.6,791.5c1.6-0.4,2.7-1.7,3.1-3.3c0.1-0.3,0.1-0.6,0.1-0.7
	v-0.2h-0.7h-0.7l-0.1,0.3c-0.3,1.1-0.8,1.9-1.5,2.3c-0.8,0.5-2.2,0.5-3.2,0.1c-0.8-0.4-1.5-1.3-1.7-2.4c-0.2-0.7-0.2-2.4,0-3.2
	c0.4-1.5,1.2-2.4,2.6-2.7c0.8-0.2,1.9,0,2.5,0.4c0.5,0.3,1,1,1.1,1.6l0.1,0.3h0.7h0.7l0-0.2c-0.1-0.8-0.5-1.5-1.1-2.2
	c-0.9-0.9-2-1.3-3.6-1.2c-1.4,0.1-2.3,0.4-3.1,1.3c-1,1-1.5,2.2-1.6,3.9c-0.1,2.2,0.6,4.1,1.8,5.1c0.6,0.5,1.4,0.9,2.2,1
	c0.1,0,0.6,0,1,0C737,791.7,737.3,791.6,737.6,791.5L737.6,791.5z M767.9,791.6c1.5-0.4,2.4-1.9,2.8-4.3c0.1-0.8,0.1-2.7-0.1-3.4
	c-0.5-2.1-1.6-3.1-3.5-3.1c-1.4,0-2.4,0.6-3,1.7c-0.3,0.6-0.4,1-0.4,1.7c-0.1,1.1,0.2,2,0.9,2.7c0.6,0.7,1.3,0.9,2.4,0.9
	c1,0,1.7-0.3,2.2-0.9c0.2-0.2,0.2-0.2,0.2-0.1c0,0.1-0.1,0.3-0.1,0.6s-0.1,0.6-0.2,0.9c-0.3,1.3-1,2.1-2.1,2.2
	c-1,0.1-1.7-0.5-1.9-1.5l0-0.2h-0.7h-0.7v0.2c0,0.6,0.3,1.4,0.8,1.9c0.6,0.6,1.2,0.8,2.3,0.8C767.3,791.7,767.7,791.7,767.9,791.6
	L767.9,791.6z M744.2,788.9v-2.5h2.8h2.8v2.5v2.5h0.7h0.7V786v-5.4h-0.7h-0.7v2.2v2.2h-2.8h-2.8v-2.2v-2.2h-0.7h-0.7v5.4v5.4h0.7
	h0.7V788.9z M755.1,789.1v-2.3l1.7,0c2.6,0,3,0.1,3.4,0.6c0.2,0.3,0.3,0.7,0.4,2.3c0,0.7,0.1,1.3,0.1,1.5l0.1,0.2h0.9
	c0.9,0,0.9,0,0.9-0.1c0-0.1-0.1-0.2-0.1-0.2c-0.2-0.1-0.3-0.5-0.4-1c0-0.2-0.1-0.9-0.1-1.5c0-0.7-0.1-1.2-0.2-1.4
	c-0.1-0.4-0.4-0.8-0.8-1l-0.3-0.1l0.3-0.2c0.4-0.3,0.7-0.7,0.9-1.1c0.2-0.4,0.2-0.4,0.2-1.3c0-0.8,0-0.9-0.1-1.2
	c-0.4-0.9-1.1-1.5-2.3-1.7c-0.2,0-1.5-0.1-3.2-0.1h-2.9v5.4v5.4h0.7h0.7L755.1,789.1z"/>
<path id="path154" class="st5" d="M646.9,779.9v-30h8.5h8.5l0,4.6c0,2.7,0,4.9,0.1,5.3c0.4,4.7,3.8,8.5,8.5,9.5
	c0.6,0.1,0.8,0.1,2.5,0.1c1.6,0,1.9,0,2.4-0.1c3.3-0.7,5.9-2.7,7.4-5.6c0.2-0.4,0.4-0.8,0.5-1l0.1-0.4l0.2,0.4
	c1.1,3,3.5,5.2,6.6,6.3c1.1,0.4,1.7,0.5,3.4,0.5c1.7,0,2.4,0,3.5-0.3c3.4-0.9,6.3-3.7,7.4-7.1c0.4-1.4,0.4-1,0.4-6.9l0-5.3h9.9h9.9
	l0,5.2c0,5.6,0,5.4,0.4,6.7c0.8,2.9,2.8,5.3,5.6,6.6c0.8,0.4,1.7,0.7,2.4,0.8c0.3,0.1,0.6,0.1,0.6,0.1l0.1,0v5.4
	c0,4.3,0,5.5-0.1,5.5c0,0-0.3,0.1-0.6,0.1c-0.3,0.1-0.7,0.2-1.1,0.4c-0.5,0.2-0.7,0.4-1.1,0.8c-0.8,0.8-1.2,1.6-1.4,2.7
	c-0.1,0.6-0.2,2.4,0,3.1c0.4,2.4,1.9,3.9,4,4.2l0.3,0v9.1v9.1h-44.4h-44.4L646.9,779.9z M701.7,792c1.1-0.3,2-1.1,2.3-2.3
	c0.1-0.5,0.1-1.4,0-1.9c-0.2-0.5-0.5-1-1-1.3c-0.2-0.2-0.4-0.3-0.5-0.3c0,0,0-0.1,0.2-0.2c0.1-0.1,0.4-0.3,0.6-0.5
	c0.4-0.4,0.5-0.9,0.5-1.7c0-0.5,0-0.6-0.2-1c-0.4-0.7-1.2-1.3-2.1-1.5c-1.4-0.3-2.7,0.1-3.5,0.9c-0.8,0.8-1,2.1-0.5,3
	c0.2,0.3,0.6,0.7,0.9,0.9l0.2,0.1l-0.4,0.2c-1.1,0.7-1.6,2-1.2,3.4c0.2,0.8,0.5,1.2,1.2,1.7C699.1,792.1,700.5,792.3,701.7,792
	L701.7,792z M670.5,792c1.4-0.3,2.4-1,3.1-2.2c0.2-0.4,0.5-1.2,0.5-1.6l0-0.3h-0.7h-0.7l-0.1,0.3c-0.1,0.4-0.5,1.2-0.7,1.6
	c-0.3,0.4-0.8,0.7-1.2,0.9c-0.5,0.2-1.5,0.2-2.1,0c-1.1-0.3-1.9-1.2-2.3-2.5c-0.1-0.4-0.1-0.6-0.1-1.6c0-1,0-1.2,0.1-1.7
	c0.5-1.9,1.8-2.9,3.6-2.8c1.4,0.1,2.2,0.7,2.6,1.9l0.1,0.3h0.7h0.7l0-0.2c-0.2-0.9-0.5-1.5-1.1-2.2c-0.6-0.6-1.2-0.9-1.9-1.1
	c-0.6-0.2-2.1-0.2-2.7,0c-1.3,0.3-2.4,1.2-3.1,2.5c-0.7,1.3-0.8,3.4-0.3,5.2c0.5,1.8,1.8,3.1,3.5,3.4
	C668.9,792.1,670,792.2,670.5,792L670.5,792z M677.4,789.4v-2.5h2.8h2.8v2.5v2.5h0.7h0.7v-5.4v-5.4h-0.7H683v2.2v2.2h-2.8h-2.8v-2.2
	v-2.2h-0.7h-0.7v5.4v5.4h0.7h0.7V789.4z M688.4,789.5v-2.3l2,0c2.2,0,2.5,0.1,2.9,0.4c0.4,0.3,0.5,0.6,0.6,2.3
	c0,0.8,0.1,1.6,0.1,1.7l0.1,0.3h0.9h0.9v-0.2c0-0.1,0-0.2-0.1-0.2c-0.2-0.1-0.3-0.5-0.4-0.9c0-0.2-0.1-0.8-0.1-1.5
	c-0.1-1.6-0.2-1.9-0.9-2.4l-0.3-0.2l0.2-0.1c0.3-0.2,0.8-0.7,1-1.1c0.2-0.4,0.2-0.5,0.2-1.1c0-0.4,0-0.8,0-1
	c-0.2-0.8-0.6-1.4-1.4-1.8c-0.7-0.4-1.1-0.4-4.3-0.4h-2.8v5.4v5.4h0.7h0.7L688.4,789.5z"/>
<path id="path155" class="st5" d="M585.4,780.1v-30h7.9h7.9l0,5.1c0,5.1,0,5.1,0.2,5.7c1,4.3,4,7.4,8.3,8.3c0.5,0.1,0.9,0.1,2.2,0.2
	c1.7,0,2.4,0,3.5-0.3c3.1-0.8,5.9-3.2,7.1-6.3l0.2-0.6l0.2,0.4c1.4,3.6,4.6,6.1,8.4,6.7c0.8,0.1,3,0.1,3.9,0
	c1.7-0.2,3.3-0.9,4.6-1.9c0.6-0.4,1.7-1.4,2.1-2c1.3-1.6,2.1-3.5,2.3-5.6c0-0.4,0.1-2.5,0.1-5.2v-4.6h9.9h9.9v4.4
	c0,2.5,0,4.8,0.1,5.2c0.3,3.5,2.2,6.5,5.2,8.3c1.3,0.8,3,1.3,4.5,1.4l0.6,0v20.3v20.3h-44.4h-44.4L585.4,780.1z M670.8,792
	c0.5-0.1,1.3-0.5,1.7-0.8c0.4-0.3,0.8-0.9,1.1-1.3c0.2-0.3,0.5-1.3,0.6-1.7l0-0.3h-0.7h-0.7l-0.1,0.3c-0.1,0.4-0.5,1.2-0.7,1.6
	c-0.3,0.4-0.8,0.7-1.2,0.9c-0.5,0.2-1.5,0.2-2.1,0c-1.2-0.3-1.9-1.2-2.3-2.5c-0.2-0.9-0.2-2.5,0-3.5c0.3-1.3,1.3-2.2,2.6-2.5
	c0.8-0.2,1.9,0,2.5,0.4c0.5,0.3,1,1.1,1.2,1.7l0,0.2h0.7h0.7l0-0.2c-0.2-0.9-0.5-1.5-1.1-2.2c-0.8-0.8-1.6-1.1-2.9-1.2
	c-1.1-0.1-2.2,0.2-3,0.6c-0.5,0.3-1.3,1.1-1.6,1.6c-0.5,0.9-0.8,1.8-0.8,3c-0.1,3.3,1.2,5.5,3.8,6
	C668.9,792.2,670.3,792.1,670.8,792L670.8,792z M610.8,791.7c0.9-0.2,1.6-0.5,2.3-1.2c0.2-0.3,0.6-0.7,0.7-0.9
	c0.3-0.5,0.6-1.3,0.6-1.8l0-0.3h-0.7h-0.7l-0.1,0.3c-0.1,0.6-0.6,1.4-0.9,1.8c-0.6,0.6-1.3,0.9-2.3,0.8c-1.4-0.1-2.2-0.7-2.8-1.9
	c-0.5-1.1-0.6-3.3,0-4.6c0.4-1,1.1-1.7,2.2-2c0.5-0.1,1.4-0.1,1.9,0c0.9,0.2,1.6,0.9,1.9,1.9l0.1,0.2l0.7,0l0.7,0l-0.1-0.4
	c-0.2-1.3-1.3-2.5-2.6-2.9c-1.5-0.5-3.5-0.3-4.6,0.5c-1.4,0.9-2.1,2.5-2.2,4.5c-0.1,1.5,0.1,2.6,0.7,3.6c0.3,0.5,0.4,0.7,0.8,1.1
	c0.3,0.3,0.7,0.6,0.9,0.7C608.2,791.7,609.4,791.9,610.8,791.7L610.8,791.7z M617.7,789v-2.5h2.8h2.8v2.5v2.5h0.7h0.7v-5.4v-5.4H624
	h-0.7v2.2v2.2h-2.8h-2.8v-2.2v-2.2H617h-0.7v5.4v5.4h0.7h0.7V789z M628.7,789.2v-2.3l2.1,0l2.1,0l0.3,0.2c0.4,0.2,0.6,0.4,0.7,0.8
	c0,0.1,0.1,0.9,0.1,1.6c0,0.8,0.1,1.6,0.1,1.7l0.1,0.2h0.9c0.9,0,0.9,0,0.9-0.1c0-0.1-0.1-0.2-0.2-0.4c-0.3-0.3-0.3-0.6-0.4-2.1
	c-0.1-1.7-0.2-2.1-0.9-2.5c-0.2-0.1-0.3-0.2-0.3-0.2c0,0,0.1-0.1,0.2-0.2c0.5-0.3,1-1,1.1-1.6c0.1-0.4,0.1-1.2,0-1.6
	c-0.2-1-1-1.7-2.1-2c-0.3-0.1-0.8-0.1-3.4-0.1l-3,0v5.4v5.4h0.7h0.7L628.7,789.2z M640.3,791.1c0.4-2,0.8-3.2,1.6-4.8
	c0.7-1.4,1.5-2.6,2.3-3.6l0.3-0.3v-0.6v-0.6h-3.7h-3.7v0.7v0.7h2.9h2.9l-0.3,0.3c-1.5,1.8-2.9,4.5-3.6,6.8c-0.1,0.5-0.4,1.6-0.4,1.7
	c0,0,0.3,0.1,0.8,0l0.8,0L640.3,791.1z"/>
<path id="path156" class="st5" d="M522.7,783.1v-30h7.9h7.9v2.8c0,1.6,0,3.1,0.1,3.4c0.3,2.5,1.4,4.8,3.1,6.5c3,2.9,7.3,4,11.3,2.6
	c3.1-1,5.5-3.3,6.8-6.4l0.1-0.2l0.3,0.6c1,2.5,2.9,4.5,5.3,5.6c1.3,0.6,2.4,0.9,4,1c1.2,0.1,2.7,0,3.6-0.2c1.3-0.3,2.6-0.8,3.8-1.6
	c0.8-0.6,2.1-1.8,2.7-2.6c0.8-1.1,1.4-2.6,1.7-4c0.1-0.6,0.1-0.7,0.2-4.1l0-3.5h10h10l0,3.6c0,3.5,0,3.7,0.2,4.2
	c0.6,2.5,1.9,4.6,3.8,6.2c1.6,1.3,3.7,2.1,5.7,2.2l0.6,0v5.5v5.5l-0.2,0c-1.9-0.3-3.4,0-4.5,0.9c-1.2,1-1.9,2.4-1.9,4.3
	c-0.1,3.3,1.2,5.5,3.7,6c0.7,0.2,2.2,0.1,2.8-0.1c0.1,0,0.1,0.5,0.1,10.7v10.8h-44.4h-44.4L522.7,783.1z M548.2,791.5
	c1.6-0.4,2.8-1.7,3.2-3.4c0.2-0.8,0.2-0.8-0.6-0.8l-0.7,0l-0.1,0.4c-0.3,1.3-1.1,2.1-2.2,2.4c-0.4,0.1-1.3,0.1-1.8,0
	c-1.6-0.4-2.5-1.9-2.5-4.1c0-2.5,0.9-3.9,2.6-4.4c0.4-0.1,1.4-0.1,1.8,0c0.9,0.2,1.6,0.9,2,1.8l0.1,0.3l0.7,0l0.7,0l-0.1-0.3
	c-0.2-1.2-1-2.3-2.1-2.8c-0.6-0.3-0.9-0.4-1.7-0.5c-2.3-0.2-4,0.7-5,2.6c-0.4,0.8-0.6,1.5-0.6,2.6c-0.1,1.5,0.1,2.6,0.7,3.6
	c0.3,0.5,0.4,0.7,0.9,1.2c0.5,0.5,0.6,0.6,1.1,0.8c0.5,0.2,1.1,0.4,1.7,0.5C546.7,791.7,547.7,791.6,548.2,791.5L548.2,791.5z
	 M579,791.5c1.1-0.2,2-1.1,2.4-2.3c0.2-0.5,0.2-1.7,0.1-2.2c-0.3-1.4-1.4-2.3-3-2.4c-1-0.1-1.7,0.2-2.4,0.8
	c-0.2,0.2-0.3,0.3-0.3,0.3c0-0.3,0.2-1.2,0.3-1.6c0.2-0.7,0.4-1,0.8-1.4c0.4-0.5,0.8-0.6,1.4-0.6c0.9,0,1.4,0.4,1.7,1.2l0.1,0.4h0.7
	h0.7l0-0.3c-0.1-0.5-0.2-0.9-0.4-1.2c-0.5-0.9-1.2-1.2-2.5-1.3c-2.5-0.1-3.8,1.5-4.1,5c-0.2,2.1,0.2,3.8,1,4.7
	C576.4,791.5,577.6,791.8,579,791.5L579,791.5z M554.8,788.8v-2.5h2.8h2.8v2.5v2.5h0.7h0.7v-5.4v-5.4h-0.7h-0.7v2.2v2.2h-2.8h-2.8
	v-2.2v-2.2h-0.7h-0.7v5.4v5.4h0.7h0.7V788.8z M565.8,789v-2.3l2.1,0c1.4,0,2.2,0,2.3,0.1c0.3,0.1,0.7,0.5,0.8,0.8
	c0.1,0.2,0.1,0.7,0.2,1.8c0,0.8,0.1,1.6,0.2,1.7l0.1,0.2h0.9h0.9v-0.1c0-0.1,0-0.2-0.1-0.2c-0.3-0.2-0.4-0.6-0.5-2.2
	c0-0.9-0.1-1.4-0.2-1.6c-0.1-0.4-0.5-0.8-0.9-1l-0.2-0.1l0.2-0.1c0.6-0.4,1-1,1.1-1.6c0.1-0.4,0.1-1.3,0-1.7c-0.3-1-0.9-1.6-2.1-1.9
	c-0.4-0.1-0.6-0.1-3.4-0.2l-3,0v5.4v5.4h0.7h0.7V789z"/>
<path id="path157" class="st5" d="M460.2,785.3v-30h7.6h7.6l0,1.2c0.1,2.2,0.3,3.6,1,5.3c1.4,3.7,4.2,6.4,7.5,7.3
	c1.5,0.4,3.3,0.4,4.8,0c3.4-0.9,6.4-3.9,7.7-7.9c0.2-0.7,0.2-0.7,0.3-0.4c0,0.1,0.2,0.6,0.3,1c1.6,4.2,4.8,7,8.5,7.5
	c0.8,0.1,3.2,0,3.7-0.1c2.3-0.5,4.3-1.8,5.8-3.7c1.2-1.5,2.1-3.5,2.6-5.5c0.2-1.1,0.3-1.9,0.4-3.4l0-1.4h10.1h10.1l0,2.1
	c0,1.9,0,2.2,0.2,2.8c0.8,4.4,4.1,7.7,8.5,8.7c0.4,0.1,1,0.2,1.3,0.2l0.6,0v5.7c0,3.2,0,5.7,0,5.7s-0.2-0.1-0.4-0.1
	c-0.9-0.3-2.3-0.3-3.2,0c-1.7,0.5-2.9,1.9-3.3,3.8c-0.1,0.4-0.1,0.7-0.1,1.6c0,1.6,0.2,2.3,0.7,3.4c0.3,0.6,1.1,1.5,1.7,1.8
	c1.2,0.6,2.8,0.7,4.1,0.3l0.5-0.2v12v12h-44.4h-44.4L460.2,785.3z"/>
<path id="path158" class="st5" d="M399.5,782.3v-30h6.6h6.6l0,3.4c0,3.2,0,3.4,0.2,4c0.9,4.2,4.1,7.4,8.2,8.3c1.4,0.3,3.7,0.3,5.1,0
	c1.7-0.4,3.6-1.3,4.8-2.4c1.3-1.2,2.3-2.7,2.9-4.1l0.2-0.4l0.1,0.4c0.2,0.6,0.9,1.8,1.3,2.4c1.5,2.2,3.8,3.6,6.3,4.2
	c1.3,0.3,3.4,0.3,4.8,0.1c4.3-0.7,7.7-3.9,8.6-8.1c0.2-1.1,0.3-1.8,0.3-4.8l0-2.8h9.9h9.9l0,2.8c0,2.9,0.1,3.3,0.3,4.7
	c0.3,1.6,1.1,3.5,2,4.8c1.8,2.7,4.4,4.4,7.2,4.9c0.9,0.1,2.3,0.1,3.1-0.1l0.2,0v6.4v6.4l-0.3-0.4c-0.6-0.8-1.4-1.4-2.3-1.6
	c-0.6-0.2-2.3-0.1-2.9,0c-1.8,0.5-3.1,2-3.5,4.1c-0.1,0.6-0.1,2,0,2.7c0.3,1.9,1.2,3.3,2.7,4c0.7,0.3,1.1,0.4,2.2,0.4
	c0.7,0,1,0,1.4-0.1c1-0.3,2-1,2.6-1.9l0.3-0.5v11.7v11.7h-44.4h-44.4L399.5,782.3z M418.5,791.1c0.6-0.2,1-0.4,1.5-0.8
	c0.8-0.7,1.4-1.8,1.5-2.9l0-0.3h-0.7h-0.7l-0.1,0.4c-0.5,1.9-2,2.8-3.8,2.4c-1.2-0.2-2-1.1-2.4-2.5c-0.2-0.7-0.2-2.3-0.1-3.2
	c0.3-1.5,1.2-2.6,2.5-2.9c0.5-0.1,1.4-0.1,1.9,0.1c0.9,0.3,1.5,0.9,1.8,1.8l0.1,0.2l0.7,0l0.7,0v-0.2c0-0.3-0.2-1-0.5-1.4
	c-0.5-0.9-1.4-1.5-2.5-1.8c-0.7-0.2-2.2-0.2-2.9,0c-1.4,0.4-2.4,1.3-3.1,2.7c-0.4,0.8-0.5,1.4-0.5,2.4c-0.1,1.6,0.1,2.6,0.6,3.6
	c0.6,1.2,1.7,2.1,3.1,2.4c0.3,0.1,0.7,0.1,1.3,0.1C417.9,791.3,418,791.3,418.5,791.1L418.5,791.1z"/>
<path id="path159" class="st5" d="M333.4,782.5v-30h8.3h8.3l0,2.7c0,1.5,0,3,0.1,3.4c0.2,2,0.9,3.8,2.1,5.4c1.5,2,3.8,3.5,6.3,4
	c1.5,0.3,3.8,0.3,5.3,0c2.7-0.6,5-2.2,6.6-4.5c0.5-0.7,0.8-1.4,1.2-2.5c0-0.1,0.1,0.1,0.2,0.4c1.2,3.4,4.2,6,7.8,6.7
	c1.3,0.3,3.4,0.3,4.8,0.1c4.1-0.7,7.4-3.7,8.4-7.8c0.3-1.1,0.3-1.7,0.3-4.8v-2.9h9.9h9.9l0,3.2c0,3.1,0,3.3,0.2,3.9
	c0.8,3.8,3.4,6.8,7,8c0.5,0.2,1.2,0.3,2.1,0.5l0.1,0v22.1v22.1h-44.4h-44.4L333.4,782.5z M358.5,790.9c1.8-0.4,3-1.9,3.3-3.9l0-0.3
	h-0.7h-0.7l-0.1,0.4c-0.2,0.6-0.5,1.3-0.9,1.7c-0.6,0.6-1.2,0.8-2.1,0.8c-1.2,0-2.1-0.4-2.7-1.4c-0.6-0.9-0.8-2.1-0.7-3.5
	c0.1-1.3,0.4-2.2,1.1-2.9c0.7-0.7,1.4-0.9,2.4-0.9c1,0,1.6,0.2,2.2,0.8c0.3,0.3,0.6,0.9,0.7,1.2l0,0.2h0.7c0.9,0,0.8,0,0.6-0.6
	c-0.2-0.9-1-1.9-1.8-2.3c-1.2-0.7-3.3-0.8-4.7-0.2c-1,0.4-1.8,1.3-2.4,2.4c-0.4,0.8-0.5,1.3-0.5,2.6c0,1.2,0,1.9,0.3,2.8
	c0.6,1.8,2,3,3.8,3.2C357,791.1,358,791,358.5,790.9L358.5,790.9z"/>
<path id="path160" class="st5" d="M273.3,784.4v-30h7h7l0,2.1c0,2.2,0,2.7,0.3,3.8c0.2,0.7,0.6,1.8,0.9,2.3c1.5,2.7,4.1,4.6,7.1,5.3
	c1.4,0.3,3.8,0.3,5.2,0c2.7-0.6,5.2-2.3,6.7-4.6c0.4-0.6,0.9-1.6,1-2.1l0.1-0.3l0.2,0.5c1,2.7,3.1,4.8,5.8,5.9
	c1.1,0.5,2.1,0.7,3.5,0.8c1.2,0.1,2.6,0,3.5-0.2c2.5-0.5,4.8-2,6.3-4c1.2-1.6,1.9-3.4,2.1-5.4c0-0.3,0.1-1.4,0.1-2.4v-1.8h9.9h9.9
	l0,2.1c0,1.6,0.1,2.3,0.1,2.7c0.4,2.1,1.2,3.9,2.6,5.4c1.5,1.6,3.6,2.8,5.7,3.2c0.8,0.2,2.2,0.3,3.1,0.2l0.7,0v23.1v23.1h-44.4
	h-44.4L273.3,784.4z"/>
<path id="path161" class="st5" d="M216.3,778v-30h4h4l0,7c0,7,0,7.1,0.2,7.6c0.2,0.9,0.4,1.4,0.8,2.2c1.5,3.1,4.7,5.2,8.4,5.5
	c0.8,0.1,2.5,0.1,3.3,0c3.8-0.4,6.9-2.6,8.4-5.7c0.2-0.3,0.3-0.7,0.3-0.7c0,0,0-0.1,0.1-0.1s0.1,0,0.1,0.1s0.1,0.4,0.3,0.7
	c1,2,2.5,3.5,4.5,4.6c1.7,0.9,3.3,1.2,5.5,1.2c1.6,0,2.8-0.2,4-0.6c1.8-0.6,3.5-1.8,4.7-3.1c1.1-1.3,1.7-2.6,2.1-4.3l0.1-0.6l0-7
	l0-7h10.1h10.1l0,5.6c0,5.5,0,5.6,0.2,6.2c0.6,2.9,2.2,5.1,4.5,6.7c1.1,0.7,2.4,1.3,3.7,1.5c0.3,0.1,1.1,0.2,1.6,0.2
	c2.8,0.2,5.2-0.4,7.1-1.7c0.3-0.2,0.5-0.4,0.6-0.4c0.1,0,0.1,1.8,0.1,9v9.1h-1.4h-1.4V782v-2.2h-0.8h-0.8v5.4v5.4h0.8h0.8v-2.5v-2.5
	h1.4h1.4v11.2v11.2h-44.4h-44.4L216.3,778z M295,790.8c2.1-0.3,3.6-1.8,3.9-4l0-0.3h-0.7h-0.7l-0.1,0.4c-0.3,1.3-1.2,2.2-2.2,2.4
	c-0.4,0.1-1.3,0.1-1.7,0c-1.2-0.2-2.1-1.2-2.4-2.6c-0.3-1.3-0.2-3.3,0.4-4.4c0.4-0.7,1.2-1.3,2-1.6c0.8-0.2,1.9-0.1,2.5,0.3
	c0.5,0.3,1.2,1.1,1.3,1.7l0,0.2h0.7h0.7l0-0.3c-0.1-0.7-0.5-1.4-1.1-2.1c-0.5-0.5-1-0.8-1.8-1c-0.6-0.2-2.4-0.2-2.9,0
	c-1.8,0.5-3.1,2-3.5,4.1c-0.1,0.7-0.1,2.1,0,2.8c0,0.3,0.2,0.8,0.3,1.1C290.5,789.9,292.5,791.1,295,790.8L295,790.8z"/>
<text transform="matrix(1 0 0 1 224.2559 792.5876)" class="st7 st3">CHR1</text>
<text transform="matrix(1 0 0 1 287.8 792.8873)" class="st7 st3">CHR2</text>
<text transform="matrix(1 0 0 1 350.5001 792.5878)" class="st7 st3">CHR3</text>
<text transform="matrix(1 0 0 1 412.8764 792.4379)" class="st7 st3">CHR4</text>
<text transform="matrix(1 0 0 1 476.4206 792.7375)" class="st7 st3">CHR5</text>
<text transform="matrix(1 0 0 1 539.1206 792.4379)" class="st7 st3">CHR6</text>
<text transform="matrix(1 0 0 1 601.0088 791.9212)" class="st7 st3">CHR7</text>
<text transform="matrix(1 0 0 1 664.553 792.2209)" class="st7 st3">CHR8</text>
<text transform="matrix(1 0 0 1 727.253 791.9213)" class="st7 st3">CHR9</text>
<text transform="matrix(1 0 0 1 785.8123 792.6965)" class="st7 st3">CHR10</text>
<text transform="matrix(1 0 0 1 850.1735 793.071)" class="st7 st3">CHR11</text>
<text transform="matrix(1 0 0 1 910.8735 792.7715)" class="st7 st3">CHR12</text>
<text transform="matrix(1 0 0 1 974.7188 792.0302)" class="st7 st3">CHR13</text>
<text transform="matrix(1 0 0 1 1039.0801 792.4048)" class="st7 st3">CHR14</text>
<text transform="matrix(1 0 0 1 1099.78 792.1052)" class="st7 st3">CHR15</text>
<text transform="matrix(1 0 0 1 1161.9855 791.7998)" class="st7 st3">CHR16</text>
<text transform="matrix(1 0 0 1 1225.3467 792.1744)" class="st7 st3">CHR17</text>
<text transform="matrix(1 0 0 1 1289.0468 791.8748)" class="st7 st3">CHR18</text>
<text transform="matrix(1 0 0 1 1351.8921 791.1335)" class="st7 st3">CHR19</text>
<text transform="matrix(1 0 0 1 1414.2533 791.5081)" class="st7 st3">CHR20</text>
<text transform="matrix(1 0 0 1 1477.9534 791.2086)" class="st7 st3">CHR21</text>
<text transform="matrix(1 0 0 1 1539.4006 791.1338)" class="st7 st3">CHR22</text>
</svg>
