<?xml version="1.0" encoding="utf-8"?>
<!-- Generator: Adobe Illustrator 28.0.0, SVG Export Plug-In . SVG Version: 6.00 Build 0)  -->
<svg version="1.1"
	 id="Layer_1" xmlns:inkscape="http://www.inkscape.org/namespaces/inkscape" xmlns:svg="http://www.w3.org/2000/svg" xmlns:sodipodi="http://sodipodi.sourceforge.net/DTD/sodipodi-0.dtd"
	 xmlns="http://www.w3.org/2000/svg" xmlns:xlink="http://www.w3.org/1999/xlink" x="0px" y="0px" viewBox="0 0 1800 864"
	 style="enable-background:new 0 0 1800 864;" xml:space="preserve">
<style type="text/css">
	.st0{fill:#FFFFFF;}
	.st1{fill:none;}
	.st2{fill:none;stroke:#000000;stroke-width:0.75;}
	.st3{font-family:'Helvetica-Bold';}
	.st4{font-size:15px;}
	.st5{fill:none;stroke:#000000;stroke-width:0.75;stroke-miterlimit:10;}
</style>
<sodipodi:namedview  bordercolor="#000000" borderlayer="true" borderopacity="0" id="namedview116" inkscape:current-layer="Layer_1" inkscape:cx="330.08011" inkscape:cy="726.6751" inkscape:deskcolor="#d1d1d1" inkscape:export-bgcolor="#6e6e6e00" inkscape:pagecheckerboard="false" inkscape:pageopacity="0.0" inkscape:showpageshadow="true" inkscape:window-height="819" inkscape:window-maximized="0" inkscape:window-width="1512" inkscape:window-x="0" inkscape:window-y="38" inkscape:zoom="1.2027383" pagecolor="#ffffff" showborder="false">
	</sodipodi:namedview>
<g id="XMLID_00000130639354990695056220000003981447976739859105_">
	<g>
		<path class="st0" d="M371.5,251.6l-0.1,508.3L371.5,251.6c-0.1-5.5-4.6-10-10.1-10h-0.9c-5.5,0-10,4.5-10,10v219.1
			c0,5.5,4.5,10,10,10h-2c-4.4,0-8,3.6-8,8v271.2c0,5.5,4.5,10,10,10h0.9c5.5,0,10-4.5,10-10c0,5.5,4.5,10,10,10h0.9
			c5.5,0,10-4.5,10-10V488.6c0-4.4-3.6-8-8-8h-1.9c5.5,0,10-4.5,10-10v-219c0-5.5-4.5-10-10-10h-0.9
			C376,241.6,371.5,246.1,371.5,251.6z M396,225.5v555.4h-49.5V225.5H396z"/>
	</g>
	<g>
		<rect x="346.5" y="225.5" class="st1" width="49.5" height="555.4"/>
		<path class="st2" d="M371.5,759.8c0,5.5-4.5,10-10,10h-0.9c-5.5,0-10-4.5-10-10V488.6c0-4.4,3.6-8,8-8h2c-5.5,0-10-4.5-10-10v-219
			c0-5.5,4.5-10,10-10h0.9c5.5,0,10,4.5,10,10V759.8z"/>
		<path class="st2" d="M371.5,759.8l0.1-508.3c0-5.5,4.5-10,10-10h0.9c5.5,0,10,4.5,10,10v219.1c0,5.5-4.5,10-10,10h1.9
			c4.4,0,8,3.6,8,8v271.2c0,5.5-4.5,10-10,10h-0.9C376,769.8,371.5,765.3,371.5,759.8z"/>
	</g>
</g>
<path id="path147" class="st0" d="M0,0"/>
<text id="text1" transform="matrix(1 0 0 1 224.2559 792.5876)" class="st3 st4">CHR1</text>
<text id="text2" transform="matrix(1 0 0 1 287.8 792.8873)" class="st3 st4">CHR2</text>
<text id="text3" transform="matrix(1 0 0 1 350.5001 792.5878)" class="st3 st4">CHR3</text>
<text id="text4" transform="matrix(1 0 0 1 412.8764 792.4379)" class="st3 st4">CHR4</text>
<text id="text5" transform="matrix(1 0 0 1 476.4206 792.7375)" class="st3 st4">CHR5</text>
<text id="text6" transform="matrix(1 0 0 1 539.1206 792.4379)" class="st3 st4">CHR6</text>
<text id="text7" transform="matrix(1 0 0 1 601.0088 791.9212)" class="st3 st4">CHR7</text>
<text id="text8" transform="matrix(1 0 0 1 664.553 792.2209)" class="st3 st4">CHR8</text>
<text id="text9" transform="matrix(1 0 0 1 727.253 791.9213)" class="st3 st4">CHR9</text>
<text id="text10" transform="matrix(1 0 0 1 785.8123 792.6965)" class="st3 st4">CHR10</text>
<text id="text11" transform="matrix(1 0 0 1 850.1735 793.071)" class="st3 st4">CHR11</text>
<text id="text12" transform="matrix(1 0 0 1 910.8735 792.7715)" class="st3 st4">CHR12</text>
<text id="text13" transform="matrix(1 0 0 1 974.7188 792.0302)" class="st3 st4">CHR13</text>
<text id="text14" transform="matrix(1 0 0 1 1039.0801 792.4048)" class="st3 st4">CHR14</text>
<text id="text15" transform="matrix(1 0 0 1 1099.78 792.1052)" class="st3 st4">CHR15</text>
<text id="text16" transform="matrix(1 0 0 1 1161.9855 791.7998)" class="st3 st4">CHR16</text>
<text id="text17" transform="matrix(1 0 0 1 1225.3467 792.1744)" class="st3 st4">CHR17</text>
<text id="text18" transform="matrix(1 0 0 1 1289.0468 791.8748)" class="st3 st4">CHR18</text>
<text id="text19" transform="matrix(1 0 0 1 1351.8921 791.1335)" class="st3 st4">CHR19</text>
<text id="text20" transform="matrix(1 0 0 1 1414.2533 791.5081)" class="st3 st4">CHR20</text>
<text id="text21" transform="matrix(1 0 0 1 1477.9534 791.2086)" class="st3 st4">CHR21</text>
<text id="text22" transform="matrix(1 0 0 1 1539.4006 791.1338)" class="st3 st4">CHR22</text>
<path id="path172" class="st0" d="M0,0"/>
<g id="XMLID_00000022518177537170623190000015825472437302172092_">
	<g>
		<path class="st0" d="M521.7,271v509.9h-49.5V271H521.7z M518,758.5v-338c0-5.5-4.5-10-10-10c5.5,0,10-4.5,10-10V294
			c0-5.5-4.5-10-10-10h-1c-5.5,0-10,4.5-10,10c0-5.5-4.5-10-10-10h-1c-5.5,0-10,4.5-10,10v106.5c0,5.5,4.5,10,10,10
			c-5.5,0-10,4.5-10,10v338c0,5.5,4.5,10,10,10h1c5.5,0,10-4.5,10-10c0,5.5,4.5,10,10,10h1C513.5,768.5,518,764,518,758.5z"/>
	</g>
	<g>
		<rect x="472.3" y="271" class="st1" width="49.5" height="509.9"/>
		<path class="st2" d="M518,400.5c0,5.5-4.5,10-10,10c5.5,0,10,4.5,10,10v338c0,5.5-4.5,10-10,10h-1c-5.5,0-10-4.5-10-10
			c0,5.5-4.5,10-10,10h-1c-5.5,0-10-4.5-10-10v-338c0-5.5,4.5-10,10-10c-5.5,0-10-4.5-10-10V294c0-5.5,4.5-10,10-10h1
			c5.5,0,10,4.5,10,10c0-5.5,4.5-10,10-10h1c5.5,0,10,4.5,10,10V400.5z"/>
	</g>
</g>
<g id="XMLID_00000146479184344286003730000001121636044542387115_">
	<g>
		<path class="st0" d="M270.2,94.7v686.2h-49.3V94.7H270.2z M266.6,759.1V414.8c0-5.5-4.5-10-10-10c5.5,0,10-4.5,10-10V116.5
			c0-5.5-4.5-10-10-10h-1c-5.5,0-10,4.5-10,10c0-5.5-4.5-10-10-10h-1c-5.5,0-10,4.5-10,10v278.3c0,5.5,4.5,10,10,10
			c-5.5,0-10,4.5-10,10v344.3c0,5.5,4.5,10,10,10h1c2.8,0,5.2-1.1,7.1-2.9c1.8-1.8,2.9-4.3,2.9-7.1c0,5.5,4.5,10,10,10h1
			C262.1,769.1,266.6,764.6,266.6,759.1z"/>
	</g>
	<g>
		<path class="st5" d="M266.6,394.8c0,5.5-4.5,10-10,10c5.5,0,10,4.5,10,10v344.3c0,5.5-4.5,10-10,10h-1c-5.5,0-10-4.5-10-10
			c0,2.8-1.1,5.2-2.9,7.1c-1.8,1.8-4.3,2.9-7.1,2.9h-1c-5.5,0-10-4.5-10-10V414.8c0-5.5,4.5-10,10-10c-5.5,0-10-4.5-10-10V116.5
			c0-5.5,4.5-10,10-10h1c5.5,0,10,4.5,10,10c0-5.5,4.5-10,10-10h1c5.5,0,10,4.5,10,10V394.8z"/>
	</g>
</g>
<path class="st2" d="M371.4,757.7"/>
<path class="st2" d="M371.5,249.4"/>
<path class="st2" d="M358.5,478.5"/>
<g id="XMLID_00000127015093446039485940000008921902078538074524_">
	<g>
		<path class="st0" d="M898.3,391.9l0.2,388.3H849l-0.2-388.3L898.3,391.9L898.3,391.9z M894.6,758.6V548.5c0-5.5-4.5-10-10-10
			c5.5,0,10-4.5,10-10V418.3c0-5.5-4.5-10-10-10h-0.9c-5.5,0-10,4.5-10,10c0-5.5-4.5-10-10-10h-0.9c-5.5,0-10,4.5-10,10v110.1
			c0,5.5,4.5,10,10,10v0.1c-5.5,0-10,4.5-10,10v210.1c0,5.5,4.5,10,10,10h0.9c5.5,0,10-4.5,10-10c0.1,5.5,4.5,9.9,10,10h0.9
			C890.1,768.6,894.6,764.1,894.6,758.6z"/>
	</g>
	<g>
		<polygon class="st1" points="898.3,391.9 848.8,391.9 849,780.2 898.4,780.2 		"/>
		<path class="st2" d="M894.6,528.5c0,5.5-4.5,10-10,10c5.5,0,10,4.5,10,10v210.1c0,5.5-4.5,10-10,10h-0.9c-5.5-0.1-9.9-4.5-10-10
			c0,5.5-4.5,10-10,10h-0.9c-5.5,0-10-4.5-10-10V548.5c0-5.5,4.5-10,10-10v-0.1c-5.5,0-10-4.5-10-10V418.3c0-5.5,4.5-10,10-10h0.9
			c5.5,0,10,4.5,10,10c0-5.5,4.5-10,10-10h0.9c5.5,0,10,4.5,10,10V528.5z"/>
	</g>
</g>
<g id="XMLID_00000161618971410444877050000008505641060210920081_">
	<g>
		<path class="st0" d="M1024.1,445l-0.4,335.2h-49.5l0.4-335.2H1024.1z M1019.9,758.7V522.9c0-5.5-4.5-10-10-10c5.5,0,10-4.5,10-10
			v-29.7c0-5.5-4.5-10-10-10h-0.9c-5.5,0-10,4.5-10,10c0-5.5-4.5-10-10-10h-0.9c-5.5,0-10,4.5-10,10v29.6c0,5.5,4.5,10,10,10
			c-5.5,0-10,4.5-10,10v235.9c0,5.5,4.5,10,10,10h0.9c5.5,0,10-4.5,10-10c0,5.5,4.5,10,10,10h0.9
			C1015.4,768.7,1019.9,764.2,1019.9,758.7z"/>
	</g>
	<g>
		<polygon class="st1" points="974.7,445 974.3,780.2 1023.7,780.2 1024.1,445 		"/>
		<path class="st2" d="M1019.9,502.9c0,5.5-4.5,10-10,10c5.5,0,10,4.5,10,10v235.8c0,5.5-4.5,10-10,10h-0.9c-5.5,0-10-4.5-10-10
			c0,5.5-4.5,10-10,10h-0.9c-5.5,0-10-4.5-10-10V522.8c0-5.5,4.5-10,10-10c-5.5,0-10-4.5-10-10v-29.6c0-5.5,4.5-10,10-10h0.9
			c5.5,0,10,4.5,10,10c0-5.5,4.5-10,10-10h0.9c5.5,0,10,4.5,10,10V502.9z"/>
	</g>
</g>
<g id="XMLID_00000125595942965177228590000015422003089575006130_">
	<g>
		<path class="st0" d="M1086.7,459v321.2h-49.5V459H1086.7z M1082.9,758.7V541.5c0-5.5-4.5-10-10-10c5.5,0,10-4.5,10-10v-28.7
			c0-5.5-4.5-10-10-10h-0.9c-5.5,0-10,4.5-10,10c0-5.5-4.5-10-10-10h-0.9c-5.5,0-10,4.5-10,10v28.6c0,5.5,4.5,10,10,10
			c-5.5,0-10,4.5-10,10v217.3c0,5.5,4.5,10,10,10h0.9c5.5,0,10-4.5,10-10c0,5.5,4.5,10,10,10h0.9
			C1078.4,768.7,1082.9,764.2,1082.9,758.7z"/>
	</g>
	<g>
		<rect x="1037.3" y="459" class="st1" width="49.5" height="321.2"/>
		<path class="st2" d="M1082.9,521.5c0,5.5-4.5,10-10,10c5.5,0,10,4.5,10,10v217.2c0,5.5-4.5,10-10,10h-0.9c-5.5,0-10-4.5-10-10
			c0,5.5-4.5,10-10,10h-0.9c-5.5,0-10-4.5-10-10V541.4c0-5.5,4.5-10,10-10c-5.5,0-10-4.5-10-10v-28.6c0-5.5,4.5-10,10-10h0.9
			c5.5,0,10,4.5,10,10c0-5.5,4.5-10,10-10h0.9c5.5,0,10,4.5,10,10V521.5z"/>
	</g>
</g>
<g id="XMLID_00000117643089553250702820000007980404103345914033_">
	<g>
		<path class="st0" d="M1149.2,473.3v307h-49.5v-307H1149.2z M1146,758.6V555.8c0-5.5-4.5-10-10-10c5.5,0,10-4.5,10-10v-29.5
			c0-5.5-4.5-10-10-10h-0.9c-5.5,0-10,4.5-10,10c0-5.5-4.5-10-10-10h-0.9c-5.5,0-10,4.5-10,10v29.5c0,5.5,4.5,10,10,10
			c-5.5,0-10,4.5-10,10v202.8c0,5.5,4.5,10,10,10h0.9c5.5,0,10-4.5,10-10c0,5.5,4.5,10,10,10h0.9
			C1141.5,768.6,1146,764.1,1146,758.6z"/>
	</g>
	<g>
		<rect x="1099.8" y="473.3" class="st1" width="49.5" height="307"/>
		<path class="st2" d="M1146,535.8c0,5.5-4.5,10-10,10c5.5,0,10,4.5,10,10v202.8c0,5.5-4.5,10-10,10h-0.9c-5.5,0-10-4.5-10-10
			c0,5.5-4.5,10-10,10h-0.9c-5.5,0-10-4.5-10-10V555.8c0-5.5,4.5-10,10-10c-5.5,0-10-4.5-10-10v-29.5c0-5.5,4.5-10,10-10h0.9
			c5.5,0,10,4.5,10,10c0-5.5,4.5-10,10-10h0.9c5.5,0,10,4.5,10,10V535.8z"/>
	</g>
</g>
<g id="XMLID_00000039814422135584751480000004697273519636501936_">
	<g>
		<path class="st0" d="M1211.8,512.8v267.4h-49.5V512.8H1211.8z M1208.1,758.6V608.8c0-5.5-4.5-10-10-10c5.5,0,10-4.5,10-10v-51.3
			c0-5.5-4.5-10-10-10h-1c-5.4,0-9.7,4.2-10,9.5c-0.3-5.3-4.6-9.5-10-9.5h-1c-5.5,0-10,4.5-10,10v51.3c0,5.5,4.5,10,10,10
			c-5.5,0-10,4.5-10,10v149.8c0,5.5,4.5,10,10,10h1c5.4,0,9.7-4.2,10-9.5c0.3,5.3,4.7,9.5,10,9.5h1
			C1203.6,768.6,1208.1,764.1,1208.1,758.6z"/>
	</g>
	<g>
		<rect x="1162.4" y="512.8" class="st1" width="49.5" height="267.4"/>
		<path class="st2" d="M1208.1,588.8c0,5.5-4.5,10-10,10c5.5,0,10,4.5,10,10v149.8c0,5.5-4.5,10-10,10h-1c-5.3,0-9.7-4.2-10-9.5
			c-0.3,5.3-4.6,9.5-10,9.5h-1c-5.5,0-10-4.5-10-10V608.8c0-5.5,4.5-10,10-10c-5.5,0-10-4.5-10-10v-51.3c0-5.5,4.5-10,10-10h1
			c5.4,0,9.7,4.2,10,9.5c0.3-5.3,4.6-9.5,10-9.5h1c5.5,0,10,4.5,10,10V588.8z"/>
	</g>
</g>
<g id="XMLID_00000175293899944384790020000000195004992062801025_">
	<g>
		<path class="st0" d="M1274.8,512.8v267.4h-49.5V512.8H1274.8z M1271.2,758.6V602.9c0-5.5-4.5-10-10-10c5.5,0,10-4.5,10-10v-26.2
			c0-5.5-4.5-10-10-10h-0.9c-5.5,0-10,4.5-10,10c0-5.5-4.5-10-10-10h-0.9c-5.5,0-10,4.5-10,10v26.2c0,5.5,4.5,10,10,10
			c-5.5,0-10,4.5-10,10v155.7c0,5.5,4.5,10,10,10h0.9c5.5,0,10-4.5,10-10c0,5.5,4.5,10,10,10h0.9
			C1266.7,768.6,1271.2,764.1,1271.2,758.6z"/>
	</g>
	<g>
		<rect x="1225.3" y="512.8" class="st1" width="49.5" height="267.4"/>
		<path class="st2" d="M1271.2,582.9c0,5.5-4.5,10-10,10c5.5,0,10,4.5,10,10v155.7c0,5.5-4.5,10-10,10h-0.9c-5.5,0-10-4.5-10-10
			c0,5.5-4.5,10-10,10h-0.9c-5.5,0-10-4.5-10-10V602.9c0-5.5,4.5-10,10-10c-5.5,0-10-4.5-10-10v-26.2c0-5.5,4.5-10,10-10h0.9
			c5.5,0,10,4.5,10,10c0-5.5,4.5-10,10-10h0.9c5.5,0,10,4.5,10,10V582.9z"/>
	</g>
</g>
<g id="XMLID_00000075158185740947202010000007362103696254633345_">
	<g>
		<path class="st0" d="M580.7,323.5c0-5.5-4.5-10-10-10h-0.9c-5.5,0-10,4.5-10,10c0-5.5-4.5-10-10-10h-0.9c-5.5,0-10,4.5-10,10V465
			c0,5.5,4.5,10,10,10c-5.5,0-10,4.5-10,10v273.7c0,5.5,4.5,10,10,10h0.9c5.5,0,10-4.5,10-10c0,5.5,4.5,10,10,10h0.9
			c5.5,0,10-4.5,10-10V485c0-5.5-4.5-10-10-10c5.5,0,10-4.5,10-10V323.5z M583.5,299.8l0.9,481.1H535l-0.9-481.1L583.5,299.8
			L583.5,299.8z"/>
	</g>
	<g>
		<polygon class="st1" points="583.5,299.8 534.1,299.8 535,780.9 584.5,780.9 		"/>
		<path class="st5" d="M580.7,465c0,5.5-4.5,10-10,10c5.5,0,10,4.5,10,10v273.7c0,5.5-4.5,10-10,10h-0.9c-5.5,0-10-4.5-10-10
			c0,5.5-4.5,10-10,10h-0.9c-5.5,0-10-4.5-10-10V485c0-5.5,4.5-10,10-10c-5.5,0-10-4.5-10-10V323.5c0-5.5,4.5-10,10-10h0.9
			c5.5,0,10,4.5,10,10c0-5.5,4.5-10,10-10h0.9c5.5,0,10,4.5,10,10V465z"/>
	</g>
</g>
<g>
	<path class="st0" d="M1302.9,769.5v-0.9c5.5,0,10-4.5,10-10c0,5.5,4.5,10,10,10h0.9v0.9"/>
</g>
<g id="XMLID_00000034788365616722321620000016608200717741222801_">
	<g>
		<path class="st0" d="M1337.8,527.5V780h-49.5V527.5H1337.8z M1333.8,758.6V595.8c0-5.5-4.5-10-10-10c5.5,0,10-4.5,10-10v-11.5
			c0-5.5-4.5-10-10-10h-0.9c-5.5,0-10,4.5-10,10c0-5.5-4.5-10-10-10h-0.9c-5.5,0-10,4.5-10,10v11.5c0,5.5,4.5,10,10,10
			c-5.5,0-10,4.5-10,10v162.8c0,5.5,4.5,10,10,10h0.9c5.5,0,10-4.5,10-10c0,5.5,4.5,10,10,10h0.9
			C1329.3,768.6,1333.8,764.1,1333.8,758.6z"/>
	</g>
	<g>
		<rect x="1288.3" y="527.5" class="st1" width="49.5" height="252.5"/>
		<path class="st2" d="M1333.8,575.8c0,5.5-4.5,10-10,10c5.5,0,10,4.5,10,10v162.8c0,5.5-4.5,10-10,10h-0.9c-5.5,0-10-4.5-10-10
			c0,5.5-4.5,10-10,10h-0.9c-5.5,0-10-4.5-10-10V595.8c0-5.5,4.5-10,10-10c-5.5,0-10-4.5-10-10v-11.5c0-5.5,4.5-10,10-10h0.9
			c5.5,0,10,4.5,10,10c0-5.5,4.5-10,10-10h0.9c5.5,0,10,4.5,10,10V575.8z"/>
	</g>
</g>
<g>
	<path class="st0" d="M1449.5,769.5h-20.9v-0.9c5.5,0,10-4.5,10-10c0,5.5,4.5,10,10,10h0.9V769.5z"/>
</g>
<g id="XMLID_00000124862641550401891370000011085132295875125677_">
	<g>
		<path class="st0" d="M1463.3,574.8l0.6,205.4h-49.5l-0.5-205.4L1463.3,574.8L1463.3,574.8z M1459.6,663v-56.4c0-5.5-4.5-10-10-10
			h-0.9c-5.5,0-10,4.5-10,10c0-5.5-4.5-10-10-10h-0.9c-5.5,0-10,4.5-10,10V663c0,5.5,4.3,10,9.9,10c-5.5,0-10,4.5-10,10v75.6
			c0,5.5,4.5,10,10,10h0.9c5.5,0,10-4.5,10-10c0,5.5,4.5,10,10,10h0.9c5.5,0,10-4.5,10-10V683c0-5.5-4.3-10-9.9-10
			C1455.1,673,1459.6,668.5,1459.6,663z"/>
	</g>
	<g>
		<polygon class="st1" points="1463.3,574.8 1413.9,574.8 1414.4,780.2 1463.9,780.2 		"/>
		<path class="st2" d="M1427.8,673L1427.8,673c-5.6,0-10-4.5-10-10v-56.4c0-5.5,4.5-10,10-10h0.9c5.5,0,10,4.5,10,10
			c0-5.5,4.5-10,10-10h0.9c5.5,0,10,4.5,10,10V663c0,5.5-4.5,10-10,10"/>
		<path class="st2" d="M1449.5,673C1449.5,673,1449.6,673,1449.5,673c5.7,0,10,4.5,10,10v75.6c0,5.5-4.5,10-10,10h-0.9
			c-5.5,0-10-4.5-10-10c0,5.5-4.5,10-10,10h-0.9c-5.5,0-10-4.5-10-10V683c0-5.5,4.5-10,10-10"/>
	</g>
</g>
<g>
	<path class="st0" d="M1512.3,769.5h-20.9v-0.9c5.5,0,10-4.5,10-10c0,5.5,4.5,10,10,10h0.9V769.5z"/>
</g>
<g id="XMLID_00000133505109792359762580000009086482847793519804_">
	<g>
		<path class="st0" d="M1526.6,619.6V780h-49.5V619.6H1526.6z M1522.3,758.6V679c0-5.5-4.5-10-10-10c5.5,0,10-4.5,10-10v-5
			c0-5.5-4.5-10-10-10h-0.9c-5.5,0-10,4.5-10,10c0-5.5-4.5-10-10-10h-0.9c-5.5,0-10,4.5-10,10v5c0,5.5,4.5,10,10,10
			c-5.5,0-10,4.5-10,10v79.6c0,5.5,4.5,10,10,10h0.9c5.6,0,10-4.5,10-10c0,5.5,4.5,10,10,10h0.9
			C1517.8,768.6,1522.3,764.1,1522.3,758.6z"/>
	</g>
	<g>
		<rect x="1477.1" y="619.6" class="st1" width="49.5" height="160.4"/>
		<path class="st2" d="M1522.3,659c0,5.5-4.5,10-10,10c5.5,0,10,4.5,10,10v79.6c0,5.5-4.5,10-10,10h-0.9c-5.5,0-10-4.5-10-10
			c0,5.5-4.4,10-10,10h-0.9c-5.5,0-10-4.5-10-10V679c0-5.5,4.5-10,10-10c-5.5,0-10-4.5-10-10v-5c0-5.5,4.5-10,10-10h0.9
			c5.5,0,10,4.5,10,10c0-5.5,4.5-10,10-10h0.9c5.5,0,10,4.5,10,10V659z"/>
	</g>
</g>
<g id="XMLID_00000096060524138692536270000013664885264240945033_">
	<g>
		<path class="st0" d="M633.5,497.8c5.5,0,10-4.5,10-10V354.1c0-5.5-4.5-10-10-10h-0.9c-5.5,0-10,4.5-10,10c0-5.5-4.5-10-10-10h-0.9
			c-5.5,0-10,4.5-10,10v133.7c0,5.5,4.5,10,10,10c-5.5,0-10,4.5-10,10v250.8c0,5.5,4.5,10,10,10h0.9c5.5,0,10-4.3,10-9.9
			c0,5.5,4.5,10,10,10h0.9c5.5,0,10-4.5,10-10V507.9c0-5.5-4.5-10-10-10h-10.9v-0.1H633.5z M647.3,330.4v450.5h-49.5V330.4H647.3
			L647.3,330.4z"/>
	</g>
	<g>
		<rect x="597.8" y="330.4" class="st1" width="49.5" height="450.5"/>
		<path class="st5" d="M622.6,758.6L622.6,758.6"/>
		<path class="st5" d="M622.6,758.7c0,5.5-4.5,9.9-10,9.9h-0.9c-5.5,0-10-4.5-10-10V507.8c0-5.5,4.5-10,10-10c-5.5,0-10-4.5-10-10
			V354.1c0-5.5,4.5-10,10-10h0.9c5.5,0,10,4.5,10,10c0-5.5,4.5-10,10-10h0.9c5.5,0,10,4.5,10,10v133.7c0,5.5-4.5,10-10,10h-10.9v0.1
			h10.9c5.5,0,10,4.5,10,10v250.8c0,5.5-4.5,10-10,10h-0.9C627.1,768.7,622.6,764.2,622.6,758.7z"/>
	</g>
</g>
<g id="XMLID_00000068642292558047681170000009700473286303982013_">
	<g>
		<path class="st0" d="M696.2,493c5.5,0,10-4.5,10-10v-91.4c0-5.5-4.5-10-10-10h-0.9c-5.5,0-10,4.5-10,10c0-5.5-4.5-10-10-10h-0.9
			c-5.5,0-10,4.5-10,10V483c0,5.5,4.5,10,10,10c-5.5,0-10,4.5-10,10v255.6c0,5.5,4.5,10,10,10h0.9c5.5,0,9.9-4.4,10-9.9
			c0,5.5,4.5,10,10,10h0.9c5.5,0,10-4.5,10-10V503.1c0-5.5-4.5-10-10-10h-10.9V493H696.2z M710,368.7v412.2h-49.5V368.7H710z"/>
	</g>
	<g>
		<rect x="660.6" y="368.7" class="st1" width="49.5" height="412.2"/>
		<path class="st5" d="M685.3,758.6L685.3,758.6"/>
		<path class="st5" d="M685.3,758.7c-0.1,5.5-4.5,9.9-10,9.9h-0.9c-5.5,0-10-4.5-10-10V503c0-5.5,4.5-10,10-10c-5.5,0-10-4.5-10-10
			v-91.4c0-5.5,4.5-10,10-10h0.9c5.5,0,10,4.5,10,10c0-5.5,4.5-10,10-10h0.9c5.5,0,10,4.5,10,10V483c0,5.5-4.5,10-10,10h-10.9v0.1
			h10.9c5.5,0,10,4.5,10,10v255.6c0,5.5-4.5,10-10,10h-0.9C689.8,768.7,685.3,764.2,685.3,758.7z"/>
	</g>
</g>
<g id="XMLID_00000027583547812223612430000014659915800564704416_">
	<g>
		<path class="st0" d="M333.3,105.9l-0.1,675h-49.3l0.1-675L333.3,105.9L333.3,105.9z M329.4,759.1v-379c0-5.5-4.5-10-10-10
			c5.5,0,10-4.5,10-10V133.7c0-5.5-4.5-10-10-10h-0.8c-5.5,0-10,4.5-10,10c0-5.5-4.5-10-10-10h-0.8c-5.5,0-10,4.5-10,10v226.4
			c0,5.5,4.5,10,10,10c-5.5,0-10,4.5-10,10v379c0,5.5,4.5,10,10,10h0.8c5.5,0,10-4.5,10-10c0,5.5,4.5,10,10,10h0.8
			C324.9,769.1,329.4,764.6,329.4,759.1z"/>
	</g>
	<g>
		<path class="st5" d="M329.4,360.1c0,5.5-4.5,10-10,10c5.5,0,10,4.5,10,10v379c0,5.5-4.5,10-10,10h-0.8c-5.5,0-10-4.5-10-10
			c0,5.5-4.5,10-10,10h-0.8c-5.5,0-10-4.5-10-10v-379c0-5.5,4.5-10,10-10c-5.5,0-10-4.5-10-10V133.7c0-5.5,4.5-10,10-10h0.8
			c5.5,0,10,4.5,10,10c0-5.5,4.5-10,10-10h0.8c5.5,0,10,4.5,10,10V360.1z"/>
	</g>
</g>
<g>
	<path class="st0" d="M1586.6,656.6v116.1h-45.4v-14.1h2c0,5.5,4.5,10,10,10h0.9c5.5,0,10-4.5,10-10c0,5.5,4.5,10,10,10h1
		c5.5,0,10-4.5,10-10v-82c0-2.8-1.1-5.3-2.9-7.1s-4.3-2.9-7.1-2.9c5.5,0,10-4.5,10-10H1586.6z"/>
</g>
<g id="XMLID_00000116955988150297780320000000403535660129241278_">
	<g>
		<path class="st0" d="M1588.6,612.6L1589,780h-49.5l-0.3-167.4H1588.6z M1585.2,758.6v-82c0-2.8-1.1-5.3-2.9-7.1s-4.3-2.9-7.1-2.9
			c5.5,0,10-4.5,10-10v-13.4c0-5.5-4.5-10-10-10h-1c-5.5,0-10,4.5-10,10c0-5.5-4.5-10-10-10h-0.9c-5.5,0-10,4.5-10,10v13.4
			c0,5.5,4.5,10,10,10c-5.5,0-10,4.5-10,10v82c0,5.5,4.5,10,10,10h0.9c5.5,0,10-4.5,10-10c0,5.5,4.5,10,10,10h1
			C1580.7,768.6,1585.2,764.1,1585.2,758.6z"/>
	</g>
	<g>
		<polygon class="st1" points="1588.6,612.6 1539.2,612.6 1539.5,780 1589,780 		"/>
		<path class="st5" d="M1585.2,656.6c0,5.5-4.5,10-10,10c2.8,0,5.3,1.1,7.1,2.9c1.8,1.8,2.9,4.3,2.9,7.1v82c0,5.5-4.5,10-10,10h-1
			c-5.5,0-10-4.5-10-10c0,5.5-4.5,10-10,10h-0.9c-5.5,0-10-4.5-10-10v-82c0-5.5,4.5-10,10-10c-5.5,0-10-4.5-10-10v-13.4
			c0-5.5,4.5-10,10-10h0.9c5.5,0,10,4.5,10,10c0-5.5,4.5-10,10-10h1c5.5,0,10,4.5,10,10V656.6z"/>
	</g>
</g>
<g id="XMLID_00000096039569791311275490000015548570217770468526_">
	<g>
		<path class="st0" d="M961.5,400.9L961,780.3h-49.5L912,401h49.5V400.9z M957.4,758.7V504.6c0-5.5-4.5-10-10-10c5.5,0,10-4.5,10-10
			v-61.8c0-5.5-4.5-10-10-10h-1c-5.5,0-10,4.5-10,10c0-5.5-4.5-10-10-10h-1c-5.5,0-10,4.5-10,10v61.8c0,5.5,4.5,10,10,10
			c-5.5,0-10,4.5-10,10v254.1c0,5.5,4.5,10,10,10h1c5.5,0,10-4.5,10-10c0,5.5,4.5,10,10,10h1C952.9,768.7,957.4,764.2,957.4,758.7z"
			/>
	</g>
	<g>
		<polygon class="st1" points="912,400.9 911.5,780.3 961,780.3 961.5,400.9 		"/>
		<path class="st5" d="M957.4,484.6c0,5.5-4.5,10-10,10c5.5,0,10,4.5,10,10v254.1c0,5.5-4.5,10-10,10h-1c-5.5,0-10-4.5-10-10
			c0,5.5-4.5,10-10,10h-1c-5.5,0-10-4.5-10-10V504.6c0-5.5,4.5-10,10-10c-5.5,0-10-4.5-10-10v-61.8c0-5.5,4.5-10,10-10h1
			c5.5,0,10,4.5,10,10c0-5.5,4.5-10,10-10h1c5.5,0,10,4.5,10,10V484.6z"/>
	</g>
</g>
<g>
	<g id="XMLID_00000040570598513909704640000015785315645873843080_">
		<g>
			<path class="st0" d="M835.9,391.9l-0.3,388.3h-49.5l0.3-388.3L835.9,391.9L835.9,391.9z M831.8,758.7v-242c0-2.8-1.1-5.2-2.9-7.1
				c-1.8-1.8-4.3-2.9-7.1-2.9c5.5,0,10-4.5,10-10v-75.3c0-5.5-4.5-10-10-10h-1c-5.5,0-10,4.5-10,10c0-5.5-4.5-10-10-10h-0.9
				c-5.5,0-10,4.5-10,10v75.3c0,2.8,1.1,5.2,2.9,7.1c1.8,1.8,4.3,2.9,7.1,2.9c-5.5,0-10,4.5-10,10v242c0,5.5,4.5,10,10,10h0.9
				c5.5,0,10-4.5,10-10c0,5.5,4.5,10,10,10h1C827.3,768.7,831.8,764.2,831.8,758.7z"/>
		</g>
		<g>
			<polygon class="st1" points="786.4,391.9 786.1,780.2 835.6,780.2 835.9,391.9 			"/>
			<path class="st5" d="M831.8,496.7c0,5.5-4.5,10-10,10c2.8,0,5.2,1.1,7.1,2.9c1.8,1.8,2.9,4.3,2.9,7.1v242c0,5.5-4.5,10-10,10h-1
				c-5.5,0-10-4.5-10-10c0,5.5-4.5,10-10,10h-0.9c-5.5,0-10-4.5-10-10v-242c0-5.5,4.5-10,10-10c-2.8,0-5.2-1.1-7.1-2.9
				c-1.8-1.8-2.9-4.3-2.9-7.1v-75.3c0-5.5,4.5-10,10-10h0.9c5.5,0,10,4.5,10,10c0-5.5,4.5-10,10-10h1c5.5,0,10,4.5,10,10V496.7z"/>
		</g>
	</g>
</g>
<g id="XMLID_00000032623353606810521370000001786966716483590845_">
	<g>
		<path class="st0" d="M772.2,384.5v395.8h-49.5V384.5H772.2z M768.4,759V531.6c0-5.5-4.5-10-10-10c5.5,0,10-4.5,10-10V410.9
			c0-5.5-4.5-10-10-10h-0.9c-5.5,0-10,4.5-10,10c0-5.5-4.5-10-10-10h-0.9c-5.5,0-10,4.5-10,10v100.7c0,5.5,4.5,10,10,10
			c-5.5,0-10,4.5-10,10V759c0,5.5,4.5,10,10,10h0.9c5.5,0,10-4.5,10-10c0,5.5,4.5,10,10,10h0.9C763.9,769,768.4,764.5,768.4,759z"/>
	</g>
	<g>
		<rect x="722.8" y="384.5" class="st1" width="49.5" height="395.8"/>
		<path class="st5" d="M768.4,511.6c0,5.5-4.5,10-10,10c5.5,0,10,4.5,10,10V759c0,5.5-4.5,10-10,10h-0.9c-5.5,0-10-4.5-10-10
			c0,5.5-4.5,10-10,10h-0.9c-5.5,0-10-4.5-10-10V531.6c0-5.5,4.5-10,10-10c-5.5,0-10-4.5-10-10V410.9c0-5.5,4.5-10,10-10h0.9
			c5.5,0,10,4.5,10,10c0-5.5,4.5-10,10-10h0.9c5.5,0,10,4.5,10,10V511.6z"/>
	</g>
</g>
<g id="XMLID_00000037667938458898109460000007348714483188668585_">
	<g>
		<path class="st0" d="M455.1,382.9V272c0-5.5-4.5-10-10-10h-0.9c-5.5,0-10,4.5-10,10c0-5.5-4.5-10-10-10h-0.9c-5.5,0-10,4.5-10,10
			v112.9c0,4.5,3.6,8,8,8c-4.4,0-8,3.6-8,8v357.8c0,5.5,4.5,10,10,10h0.9c5.5,0,10-4.5,10-10c0,5.5,4.5,10,10,10h0.9
			c5.5,0,10-4.5,10-10V400.9c0-4.4-3.6-8-8-8h-2C450.6,392.9,455.1,388.4,455.1,382.9z M459.3,250.4v531.5h-51.6V250.4H459.3z"/>
	</g>
	<g>
		<rect x="407.7" y="250.4" class="st1" width="51.6" height="531.5"/>
		<path class="st2" d="M455.1,382.9c0,5.5-4.5,10-10,10h2c4.4,0,8,3.6,8,8v357.8c0,5.5-4.5,10-10,10h-0.9c-5.5,0-10-4.5-10-10
			c0,5.5-4.5,10-10,10h-0.9c-5.5,0-10-4.5-10-10V400.9c0-4.4,3.6-8,8-8c-4.4,0-8-3.5-8-8V272c0-5.5,4.5-10,10-10h0.9
			c5.5,0,10,4.5,10,10c0-5.5,4.5-10,10-10h0.9c5.5,0,10,4.5,10,10V382.9z"/>
	</g>
</g>
<line class="st5" x1="245.6" y1="116.5" x2="245.6" y2="759.1"/>
<line class="st5" x1="234.6" y1="404.8" x2="256.6" y2="404.8"/>
<line class="st5" x1="308.6" y1="133.7" x2="308.6" y2="759.1"/>
<line class="st5" x1="297.8" y1="370.1" x2="319.4" y2="370.1"/>
<line class="st2" x1="358.5" y1="480.7" x2="382.4" y2="480.7"/>
<line class="st2" x1="486" y1="410.5" x2="508" y2="410.5"/>
<line class="st2" x1="497" y1="294" x2="497" y2="758.5"/>
<line class="st2" x1="421.3" y1="392.9" x2="445.1" y2="392.9"/>
<line class="st2" x1="434.2" y1="272" x2="434.2" y2="758.7"/>
<line class="st5" x1="548.9" y1="475" x2="570.7" y2="475"/>
<line class="st5" x1="559.8" y1="323.5" x2="559.8" y2="758.7"/>
<line class="st5" x1="611.7" y1="497.8" x2="633.5" y2="497.9"/>
<line class="st5" x1="622.6" y1="354.1" x2="622.6" y2="758.6"/>
<line class="st5" x1="674.4" y1="493" x2="696.2" y2="493"/>
<line class="st5" x1="685.3" y1="391.6" x2="685.3" y2="758.7"/>
<line class="st5" x1="747.5" y1="410.9" x2="747.5" y2="759"/>
<line class="st5" x1="736.6" y1="521.6" x2="758.4" y2="521.6"/>
<line class="st5" x1="810.8" y1="421.4" x2="810.8" y2="758.7"/>
<line class="st5" x1="799.9" y1="506.7" x2="821.8" y2="506.7"/>
<line class="st2" x1="862.8" y1="538.5" x2="884.6" y2="538.5"/>
<line class="st2" x1="873.7" y1="418.3" x2="873.7" y2="758.6"/>
<line class="st5" x1="936.4" y1="422.8" x2="936.4" y2="758.7"/>
<line class="st5" x1="925.4" y1="494.6" x2="947.4" y2="494.6"/>
<line class="st2" x1="999" y1="473.2" x2="999" y2="758.7"/>
<line class="st2" x1="988.1" y1="512.8" x2="1009.9" y2="512.9"/>
<line class="st2" x1="1062" y1="492.8" x2="1062" y2="758.7"/>
<line class="st2" x1="1051.1" y1="531.4" x2="1072.9" y2="531.5"/>
<line class="st2" x1="1125.1" y1="506.3" x2="1125.1" y2="758.6"/>
<line class="st2" x1="1114.2" y1="545.8" x2="1136" y2="545.8"/>
<line class="st2" x1="1187.1" y1="537" x2="1187.1" y2="759.1"/>
<line class="st2" x1="1176.1" y1="598.8" x2="1198.1" y2="598.8"/>
<line class="st2" x1="1250.3" y1="556.7" x2="1250.3" y2="758.6"/>
<line class="st2" x1="1239.4" y1="592.9" x2="1261.2" y2="592.9"/>
<line class="st2" x1="1312.9" y1="564.3" x2="1312.9" y2="758.6"/>
<line class="st2" x1="1302" y1="585.8" x2="1323.8" y2="585.8"/>
<line class="st2" x1="1438.7" y1="606.6" x2="1438.6" y2="758.6"/>
<line class="st2" x1="1427.7" y1="673" x2="1449.5" y2="673"/>
<line class="st2" x1="1501.4" y1="654" x2="1501.4" y2="758.6"/>
<line class="st2" x1="1490.5" y1="669" x2="1512.3" y2="669"/>
<line class="st5" x1="1564.2" y1="643.2" x2="1564.1" y2="758.6"/>
<line class="st5" x1="1553.3" y1="666.6" x2="1575.1" y2="666.6"/>
<g id="XMLID_00000042719253186444075430000012469765651988567994_">
	<g>
		<path class="st0" d="M1398.8,758.6V780h-46.3v-21.4h2.2c0,5.5,4.5,10,10,10h0.9c5.5,0,10-4.5,10-10c0,5.5,4.5,10,10,10h0.9
			c5.5,0,10-4.5,10-10H1398.8z"/>
		<path class="st0" d="M1398.8,592.9v165.7h-2.2v-72.5c0-5.5-4.5-10-10-10c5.5,0,10-4.5,10-10V622c0-5.5-4.5-10-10-10h-0.9
			c-5.5,0-10,4.5-10,10c0-5.5-4.5-10-10-10h-0.9c-5.5,0-10,4.5-10,10v44.1c0,5.5,4.5,10,10,10c-5.5,0-10,4.5-10,10v72.5h-2.2V592.9
			H1398.8z"/>
	</g>
	<g>
		<polygon class="st1" points="1398.8,758.6 1398.8,592.9 1352.6,592.9 1352.6,758.6 1352.6,780 1398.8,780 		"/>
		<path class="st5" d="M1354.8,758.6v-72.5c0-5.5,4.5-10,10-10c-5.5,0-10-4.5-10-10V622c0-5.5,4.5-10,10-10h0.9c5.5,0,10,4.5,10,10
			c0-5.5,4.5-10,10-10h0.9c5.5,0,10,4.5,10,10v44.1c0,5.5-4.5,10-10,10c5.5,0,10,4.5,10,10v72.5c0,5.5-4.5,10-10,10h-0.9
			c-5.5,0-10-4.5-10-10c0,5.5-4.5,10-10,10h-0.9C1359.3,768.6,1354.8,764.1,1354.8,758.6z"/>
	</g>
</g>
<line class="st5" x1="1375.7" y1="622" x2="1375.7" y2="758.6"/>
<line class="st5" x1="1364.8" y1="676.1" x2="1386.6" y2="676.1"/>
</svg>
